<svg width="96" height="80" viewBox="0 0 96 80" fill="none" xmlns="http://www.w3.org/2000/svg">
<g clip-path="url(#clip0_950_4767)">
<path d="M17.3045 11.6416H78.6959C80.6617 11.6416 82.27 13.2589 82.27 15.2358V64.0754C82.27 66.0512 80.6607 67.6695 78.6959 67.6695H17.3045C15.3388 67.6695 13.7305 66.0522 13.7305 64.0754V15.2358C13.7305 13.2589 15.3388 11.6416 17.3045 11.6416Z" fill="white" stroke="#2C3F7E" stroke-width="1.76296" stroke-miterlimit="2.613"/>
<path d="M82.2679 23.9043V64.0748C82.2679 66.0498 80.658 67.6688 78.6942 67.6688H17.3031C15.3393 67.6688 13.7285 66.0515 13.7285 64.0748V23.9043H82.2679Z" fill="#2C3F7E"/>
<path d="M24.5788 37.8522L37.4078 37.8804C38.2229 37.9806 38.6648 38.7628 38.4315 39.4721L36.4607 45.4507C36.29 45.7628 35.915 45.9904 35.4459 46.182C35.8842 46.603 35.9027 47.1023 35.6844 47.6446C34.8834 49.7163 34.2127 51.4583 33.4117 53.53C33.2603 54.0345 32.5244 54.6269 31.8229 54.5707L18.9481 54.5839C18.7729 54.467 18.7967 54.1461 19.0387 53.581C20.925 47.8142 22.8016 42.1819 24.5788 37.8522ZM26.7943 47.2974L25.011 52.4498C25.0523 52.608 25.3393 52.6836 25.8718 52.6774C26.5108 52.8365 27.0161 52.572 27.3268 51.6877L28.5776 48.3899C28.7413 47.5444 28.4887 47.2218 27.7783 47.2561L26.7943 47.2974ZM29.39 39.6268L27.6067 44.7801C27.6481 44.9383 27.935 45.013 28.4675 45.0069C29.1075 45.1659 29.6118 44.9014 29.9234 44.0172L31.1733 40.7194C31.337 39.8747 31.0844 39.5512 30.3741 39.5864L29.39 39.6268ZM47.6324 27.3594L40.2254 37.6668H41.1787L35.8226 54.5742L39.2193 54.5759L36.0699 64.7005L43.1662 54.8221L42.1927 54.8212L44.8298 47.0882L46.8692 47.2711L44.7066 54.5777L47.7618 54.5751L44.5305 65.1304L52.2737 54.8353L51.2052 54.8107L56.8411 37.891H53.2226L56.3465 27.5792L56.1651 27.6038L49.2273 37.2238L48.8832 37.6299L49.9332 37.6589L47.5373 45.2047L45.4635 45.1053L47.7362 37.8822L44.3457 37.8927L47.6324 27.3594ZM59.2582 37.8839L69.106 37.912C69.0505 38.5791 68.8754 39.117 68.5823 39.5258L65.1609 39.6092L63.2579 45.2011L66.5129 45.3127C66.4883 45.9974 66.306 46.6109 66.0156 47.1761L62.5854 47.1919L60.6313 52.5649L63.9251 52.8233C63.97 53.4553 63.8036 54.0618 63.4647 54.648L53.9092 54.5909C53.6231 54.5584 53.4699 54.3852 53.6081 53.9009C55.417 48.4497 57.2504 43.0354 59.2582 37.8839ZM70.7045 37.876L77.1652 38.0509L72.4094 52.637L75.6609 52.7319C75.6935 53.472 75.4664 54.104 75.0448 54.6542L65.2516 54.597L65.1961 53.7119L70.7045 37.876Z" fill="white"/>
<path fill-rule="evenodd" clip-rule="evenodd" d="M19.8543 14.6735H26.5536L26.9031 13.4632C27.0536 13.1212 27.3643 12.92 27.8352 12.8593L30.4081 12.9041C30.813 12.9112 31.0427 13.3709 30.9503 13.7066L30.6827 14.6735H32.2811L32.0831 15.5375H30.4441L28.3924 22.9654L26.8238 22.9189L28.88 15.5375H27.8704L25.779 22.9197L24.1841 22.8898L24.5547 21.604H21.8744C21.3824 21.604 21.0717 21.0616 21.2609 20.4235L22.2943 16.935C22.4474 16.419 22.9808 16.3083 23.6982 16.2934L26.0448 16.2433L26.1241 16.2441H26.1249L26.3045 15.5375H19.6387L19.8543 14.6735ZM34.2827 15.2272L33.3268 18.6577C33.186 19.1614 33.1772 19.6087 33.4017 20.0131L34.9948 22.8775L36.7473 22.8793L34.9068 19.6615C34.7721 19.425 34.7264 19.2888 34.8452 18.8344L35.8187 15.1147L35.7087 15.5375H37.5457L37.5686 15.4531L36.7332 18.5206C36.6857 18.6964 36.6267 18.8291 36.4049 18.8625L35.971 18.8687L35.6638 19.7415L37.1646 19.767C37.683 19.7757 38.0905 19.4488 38.2437 18.8783L39.1362 15.5375H45.0178L43.6024 20.6608L42.0312 20.6529C41.6281 20.6503 41.7417 20.2319 41.7874 20.0878L42.7513 17.0484L43.4387 17.0545L43.716 16.2002L40.0552 16.1536L39.8078 17.0229L40.9988 17.0334L40.1001 20.2539C39.9284 20.87 40.1089 21.5161 40.6924 21.524L43.3208 21.5591L43.3771 21.4765L42.9898 22.8793L44.5504 22.9303L46.7078 15.3379L46.6506 15.5375H48.0202L48.2191 14.6735H33.5038L33.2925 15.5375H34.1965L34.2827 15.2272ZM71.3872 22.8934L72.983 17.2848C72.9346 17.1776 72.865 17.0572 72.7594 17.0572H72.3475C72.0896 17.0572 71.925 17.1248 71.8898 17.2725L71.2991 19.7344H69.7658L70.3212 17.5837C70.3608 17.4307 70.4805 17.0976 70.2226 17.0853L69.669 17.0572C69.4621 17.0466 69.3759 17.1574 69.3503 17.2532L67.8179 22.889L66.2194 22.9101L67.8566 17.0282C67.9904 16.5465 68.3768 16.2055 68.7958 16.2055H70.925C71.2807 16.2186 71.4153 16.4094 71.4488 16.681C71.6495 16.3769 71.8695 16.1378 72.1661 16.1571H72.8131C73.0147 16.1571 73.1916 16.1932 73.2743 16.2626L73.6528 14.9319L73.4803 15.5375H67.1639L66.2705 18.8783C66.1182 19.4488 65.7107 19.7757 65.1922 19.767L63.6915 19.7415L63.9978 18.8687L64.4326 18.8625C64.6544 18.8291 64.7125 18.6964 64.7609 18.5206L65.5963 15.4531L65.5734 15.5375H63.7355L63.8464 15.1147L62.8729 18.8344C62.7541 19.2888 62.7989 19.425 62.9345 19.6615L64.775 22.8793L63.0216 22.8775L61.4293 20.0131C61.204 19.6087 61.2137 19.1614 61.3536 18.6577L62.3095 15.2272L62.2233 15.5375H61.1926L61.4038 14.6735H76.3595L76.1297 15.5375H75.0462L75.187 15.0347L72.9715 22.9232L71.3872 22.8934ZM50.9187 23.1245L51.3606 21.7859C50.8422 21.1065 51.027 20.3374 51.9002 20.1836C52.8209 20.021 53.055 20.3057 53.1193 20.6397L53.694 20.6582C53.8287 20.6617 53.9264 20.5395 53.9766 20.3734L54.1412 19.5657C54.1817 19.3653 54.2019 19.1912 54.0039 19.1886L52.4098 19.1622C51.9257 19.1543 51.7778 18.8124 51.8694 18.4028L52.1898 16.9772C52.2901 16.5333 52.6748 16.209 53.1906 16.2151L54.9008 16.2362C55.1481 16.2389 55.1481 16.0516 55.1966 15.8759L55.289 15.5375H49.2217L49.4329 14.6735H55.5258L55.8189 13.6029C55.921 13.2329 56.2088 12.8277 56.7431 12.8321L59.4295 12.8584C60.0069 13.0492 60.0051 13.5256 59.7402 14.1654L58.1902 14.2032L58.3248 13.6978L57.4877 13.6829L57.2061 14.6735H60.1891L59.9911 15.5375H56.9614L56.5274 17.0651L54.0576 17.0326C53.841 17.0299 53.68 17.1011 53.643 17.2558L53.481 17.9396C53.4344 18.1356 53.4599 18.2947 53.6315 18.2947L55.3964 18.2938C55.7608 18.2938 55.9491 18.9012 55.8013 19.4242L55.4254 20.7461C55.2925 21.2146 54.8348 21.6514 54.3604 21.6374L52.9001 21.5943L52.4978 23.136L50.9187 23.1245ZM28.1151 14.6735L28.3484 13.8508C28.38 13.7075 28.4073 13.6759 28.5878 13.6838L29.2735 13.7022C29.3676 13.7172 29.3712 13.7945 29.3474 13.8596L29.0112 15.0672L29.1203 14.6735H28.1151ZM24.1832 20.6934H23.2123C22.9289 20.6934 22.811 20.5756 22.9122 20.1915L23.4165 18.2824L23.2502 17.7603L24.1832 20.6934ZM24.4913 17.1459L25.7702 17.1178L25.2201 19.1051L24.4913 17.1459Z" fill="#2C3F7E"/>
</g>
<defs>
<clipPath id="clip0_950_4767">
<rect width="69.7567" height="57.2414" fill="white" transform="translate(13.123 11.0347)"/>
</clipPath>
</defs>
</svg>
