<svg width="75" height="59" viewBox="0 0 75 59" fill="none" xmlns="http://www.w3.org/2000/svg">
<path d="M32.0529 49.9351C19.9483 51.711 8.74121 42.0499 8.74121 29.4981C8.74121 16.9463 19.9483 7.28529 32.0529 9.0612V0.149305C15.0903 -1.5887 0 12.0958 0 29.4981C0 46.9005 15.0892 60.5571 32.0551 58.8492L32.0529 49.9351Z" fill="white"/>
<path d="M44.8716 25.0642H68.176V33.91H44.8716V25.0642Z" fill="white"/>
<path d="M74.0979 9.05563C61.9971 7.28028 50.7936 16.9383 50.7936 29.4861C50.7936 42.0339 61.9971 51.6919 74.0979 49.9165V58.8256C57.1407 60.5631 42.0552 46.8829 42.0552 29.4861C42.0552 12.0892 57.1396 -1.56303 74.1001 0.144337L74.0979 9.05563Z" fill="white"/>
</svg>
