<svg width="64" height="64" viewBox="0 0 64 64" fill="none" xmlns="http://www.w3.org/2000/svg">
<g opacity="0.8">
<path d="M18 40V41H21.7647V37H18V40ZM18 46H21.7647V50H18V46ZM27.4118 40V41H31.1765V37H27.4118V40ZM27.4118 46H31.1765V50H27.4118V46ZM36.8235 40V41H40.5882V37H36.8235V40ZM36.8235 46H40.5882V50H36.8235V46ZM46.2353 37H50V41H46.2353V37ZM46.2353 46H50V50H46.2353V46Z" fill="black" fill-opacity="0.9"/>
<path d="M55.7137 13.3333L40.4 28.465V13.3333H36.3721L21.7333 28.1812V4H4V60H60V13.3333H55.7137ZM56.2667 56.2667H7.73333V7.73333H18V32.9333H22.2908L36.6667 18.3521V32.9333H41.1891L56.2667 18.035V56.2667Z" fill="black" fill-opacity="0.9"/>
</g>
</svg>
