<svg width="78" height="80" viewBox="0 0 78 80" fill="none" xmlns="http://www.w3.org/2000/svg">
<g clip-path="url(#clip0_950_4570)">
<path d="M76.6463 60.5739C75.9924 61.3491 75.3891 62.0312 74.7897 62.7328C74.0113 63.6126 73.2756 64.5002 72.5011 65.3684C72.2792 65.6204 72.2403 65.756 72.5011 66.0467C73.9101 67.5971 75.2918 69.1475 76.7047 70.7522C76.5156 70.8366 76.3049 70.861 76.1014 70.8219C73.5014 70.8219 70.9014 70.8219 68.317 70.8026C67.9277 70.8026 67.8499 70.9227 67.8538 71.2793C67.8538 73.0312 67.8538 74.7677 67.8538 76.5312C67.8538 76.946 67.7487 77.039 67.34 77.039C56.1019 77.039 44.8638 77.039 33.6256 77.039H10.8367C10.1634 77.039 10.1634 77.039 10.1634 76.3452C10.1634 74.6708 10.1634 72.9964 10.1634 71.3064C10.1634 70.8839 10.0388 70.7948 9.63791 70.7987C7.03791 70.8219 4.43791 70.8181 1.85348 70.8219C1.66668 70.8516 1.47526 70.8288 1.30078 70.756C1.92354 70.0467 2.53461 69.3568 3.14958 68.6669C3.92803 67.787 4.70647 66.8956 5.51216 66.0351C5.74569 65.7832 5.73401 65.6475 5.51216 65.3878C4.18102 63.8723 2.86934 62.3413 1.54988 60.8142C1.49928 60.756 1.46036 60.694 1.41755 60.6359C1.49539 60.4925 1.61605 60.5506 1.71336 60.5506C6.75767 60.5144 11.8007 60.4847 16.8424 60.4615C17.434 60.4615 17.434 60.4615 17.434 61.0545C17.434 62.4653 17.434 63.8762 17.434 65.2871C17.434 65.6243 17.5119 65.7638 17.8738 65.7367C18.2621 65.6977 18.6533 65.6977 19.0415 65.7367C19.5825 65.8142 19.7849 65.5429 19.9134 65.0894C20.1929 63.9719 20.1633 62.7999 19.8277 61.6979C19.2322 59.3723 18.158 57.2405 17.1032 55.1088C15.5891 52.0196 14.0128 48.9653 12.8451 45.7367C11.8059 42.8219 11.1014 39.8452 11.3193 36.7328C11.5062 34.0196 12.0978 31.3956 13.569 29.0545C14.5343 27.5351 16.0095 26.7289 17.6987 26.2212C18.4293 26.0704 19.1389 25.8322 19.8122 25.5119C20.8475 24.915 21.5792 24.0894 21.696 22.8529C21.7972 22.008 21.4391 21.5622 20.6295 21.3181C19.9128 21.1499 19.161 21.2109 18.481 21.4925C18.2942 21.5584 18.1502 21.6281 18.0023 21.415C16.1574 18.8258 14.1568 16.3452 12.4948 13.632L12.378 13.4305C11.9616 12.6553 11.9888 12.4033 12.6933 11.8568C15.261 9.82622 18.0297 8.0613 20.9565 6.58938C22.8131 5.67852 24.0041 5.93046 25.6622 7.36457C26.0008 7.65527 26.3238 7.96147 26.6547 8.2638C26.7948 7.8762 26.9193 7.40333 27.1101 6.96922C27.8521 5.3466 29.0978 4.0042 30.6637 3.13976C31.0593 2.94998 31.4989 2.86965 31.9364 2.90721C36.6382 2.84131 41.3361 2.86069 46.0379 2.90721C47.3379 2.90721 48.1981 3.6824 49.0622 4.45759C50.2098 5.49091 51.0046 6.85554 51.3352 8.36069C51.5493 8.15527 51.7439 7.9731 51.9152 7.79868C52.2465 7.42855 52.6201 7.09815 53.0283 6.81418C54.1376 6.03899 55.2858 5.81806 56.5819 6.39945C58.4121 7.25522 60.1683 8.25992 61.8325 9.40333C63.072 10.2031 64.2673 11.0687 65.4134 11.9964C65.9427 12.4382 66.0011 12.6514 65.6936 13.2793C65.1559 14.2848 64.5335 15.243 63.8331 16.1436C62.5915 17.8684 61.3226 19.5739 60.081 21.2987C60.0536 21.3558 60.0147 21.4066 59.9665 21.4479C59.9184 21.4892 59.8622 21.5201 59.8015 21.5387C59.7408 21.5572 59.6769 21.5631 59.6138 21.5558C59.5507 21.5485 59.4898 21.5283 59.4349 21.4964C58.8735 21.257 58.2555 21.1804 57.6523 21.2754C56.4457 21.508 56.0137 22.1785 56.3795 23.3607C56.5556 23.9343 56.8718 24.4554 57.2997 24.8775C57.7276 25.2996 58.254 25.6094 58.8316 25.7793C59.3882 25.9731 59.9604 26.1165 60.5286 26.2832C62.9301 26.9847 64.487 28.5661 65.3744 30.8646C66.8817 34.7047 67.1056 38.9265 66.0128 42.9033C65.2174 45.7181 64.1647 48.4543 62.8679 51.0777C61.5562 53.8452 60.0771 56.5351 58.9406 59.3878C58.3654 60.677 58.0166 62.0549 57.9092 63.4615C57.8743 64.0818 57.9603 64.703 58.1622 65.2909C58.2789 65.6126 58.4307 65.7715 58.8005 65.7444C59.2346 65.7134 59.6703 65.7134 60.1044 65.7444C60.4547 65.7677 60.5559 65.663 60.552 65.3103C60.552 63.8684 60.552 62.4266 60.552 60.9847C60.552 60.5971 60.6143 60.4537 61.0502 60.4576C66.1568 60.5041 71.2595 60.5274 76.3661 60.5545C76.4167 60.5506 76.4867 60.5622 76.6463 60.5739ZM21.6259 69.9111C21.661 69.9111 21.7155 69.9653 21.7232 69.9576C21.731 69.9498 21.7466 69.8684 21.696 69.8336L21.6376 69.7134C21.5831 69.4576 21.4936 69.1979 21.6804 68.9382C21.8673 68.6785 22.1397 68.7522 22.4277 68.7793C22.1241 68.3917 21.7193 68.2638 21.4391 68.4576C21.3661 68.5033 21.3034 68.5635 21.2547 68.6343C21.206 68.7051 21.1724 68.7852 21.156 68.8694C21.1396 68.9537 21.1407 69.0404 21.1593 69.1243C21.1778 69.2081 21.2135 69.2872 21.264 69.3568C21.3214 69.518 21.4208 69.6612 21.552 69.7715C21.5796 69.8165 21.6043 69.8631 21.6259 69.9111ZM20.7735 65.7367H56.5119C56.6519 65.7289 56.7922 65.7289 56.9322 65.7367C57.2202 65.7677 57.2241 65.6514 57.1463 65.4188C56.9047 64.6687 56.8238 63.8764 56.9089 63.0933C57.0565 61.8157 57.3773 60.564 57.8625 59.3723C58.9406 56.5816 60.3729 53.946 61.6652 51.2599C63.1987 48.0584 64.631 44.8219 65.3316 41.3181C66.0076 37.9895 65.7104 34.5377 64.4753 31.3723C63.8098 29.6204 62.7667 28.225 60.9529 27.4964C60.1978 27.2018 59.396 27.0312 58.6409 26.7754C56.9322 26.2018 55.7334 25.1165 55.3403 23.3142C54.9978 21.7367 55.7295 20.6281 57.3214 20.2987C57.8872 20.179 58.473 20.1897 59.034 20.3297C59.1621 20.3797 59.3045 20.38 59.4328 20.3305C59.5611 20.281 59.6661 20.1852 59.7268 20.0622C60.2367 19.3258 60.7933 18.6165 61.3226 17.8878C62.4397 16.3374 63.584 14.8181 64.5921 13.194C64.7789 12.8956 64.7906 12.7057 64.4637 12.4809C63.619 11.8995 62.8173 11.2599 61.9726 10.6824C60.2377 9.47887 58.4238 8.39246 56.543 7.43046C55.2936 6.79868 54.2466 7.04286 53.2502 7.88007C53.0264 8.07255 52.8145 8.27835 52.6158 8.49635C52.3122 8.82581 52.0319 9.17852 51.7205 9.50411C51.6307 9.61893 51.5093 9.70533 51.3712 9.7528C51.233 9.80027 51.0839 9.80678 50.9421 9.77155C50.6113 9.67077 50.5178 9.38395 50.4711 9.0855C50.1325 6.92271 48.9454 5.34131 47.1277 4.17852C46.8686 4.00511 46.5642 3.91081 46.252 3.90721C41.4282 3.85036 36.6045 3.85036 31.7807 3.90721C31.5469 3.89327 31.3138 3.94426 31.1074 4.05449C29.8935 4.74617 28.8944 5.75727 28.2193 6.97697C27.8853 7.69317 27.6434 8.44849 27.4993 9.22504C27.3553 9.83744 26.8726 10.0002 26.3783 9.61263C26.1908 9.45035 26.02 9.26988 25.8684 9.07387C25.4902 8.59276 25.0652 8.15004 24.5996 7.75217C23.6655 7.02736 22.7119 6.81031 21.5831 7.36457C20.2467 8.02501 18.9474 8.75736 17.6909 9.55837C16.2391 10.4847 14.8223 11.4692 13.4562 12.5196C13.2499 12.6824 13.172 12.8258 13.3394 13.0545C13.4211 13.1669 13.4756 13.2987 13.5496 13.415C15.0286 15.7405 16.7178 17.8956 18.3214 20.1204C18.3695 20.2169 18.4519 20.2922 18.5526 20.3316C18.6533 20.371 18.7652 20.3717 18.8664 20.3336C19.3812 20.2028 19.9167 20.1738 20.4427 20.2483C21.9101 20.3995 22.778 21.3413 22.7041 22.7909C22.6146 24.5467 21.5831 25.6902 20.0885 26.4692C19.4349 26.76 18.7527 26.9822 18.0529 27.132C16.2119 27.6436 14.7523 28.6281 13.9349 30.4033C12.2082 34.1082 11.8298 38.2959 12.8646 42.2483C13.6099 45.0566 14.6361 47.7834 15.9277 50.3878C17.2083 53.101 18.6523 55.7405 19.7966 58.5274C20.7307 60.8529 21.5909 63.1553 20.7735 65.7367ZM59.1936 73.6436C59.2948 73.8374 59.3765 74.0312 59.4777 74.1902C59.54 74.3026 59.5828 74.4809 59.7774 74.3956C59.972 74.3103 59.8397 74.1591 59.7774 74.0506C59.6646 73.8142 59.54 73.5816 59.4155 73.3491C59.3337 73.1902 59.252 73.0506 59.4622 72.9188C59.4914 72.9064 59.5176 72.8878 59.5388 72.8642C59.5601 72.8407 59.5759 72.8128 59.5851 72.7825C59.5944 72.7522 59.5969 72.7203 59.5925 72.6889C59.588 72.6576 59.5768 72.6276 59.5595 72.601C59.4805 72.5049 59.3814 72.427 59.2692 72.3728C59.1569 72.3186 59.0342 72.2893 58.9095 72.287C58.7732 72.287 58.6137 72.3142 58.6059 72.4421C58.5786 73.194 58.1583 72.7599 57.9053 72.6591C57.7695 72.6138 57.6567 72.5178 57.5906 72.3912C57.5245 72.2647 57.5104 72.1176 57.5511 71.9809C57.6367 71.6824 57.8819 71.5933 58.1777 71.6204C58.4735 71.6475 58.8628 71.6204 59.2053 71.6204C59.4193 71.6204 59.6529 71.57 59.5945 71.2948C59.4972 70.6863 59.8592 70.7134 60.2795 70.7289C61.346 70.7638 61.3421 70.7522 61.2993 71.8103C61.2993 72.0312 61.2487 72.1514 60.9918 72.1591C60.6454 72.1591 60.6298 72.3452 60.8517 72.5467C60.9903 72.6935 61.1458 72.8236 61.3149 72.9343C61.5367 73.0739 61.7897 73.2057 61.8364 72.7677C61.8364 72.601 61.9726 72.5816 62.1089 72.5816H62.6655C63.5062 72.5816 63.5256 72.5816 63.5023 73.3995C63.5023 73.8103 63.6735 73.9731 64.0667 74.0506V71.6049C64.0667 70.7638 64.0667 70.7677 64.8879 70.6979C64.8879 70.6979 64.9229 70.663 64.9346 70.6475C64.8062 70.3103 64.5454 70.2599 64.2223 70.2599C61.0463 70.2599 57.8715 70.2599 54.6981 70.2599C54.4996 70.2599 54.3089 70.3064 54.1649 70.0778C54.0998 69.9699 54.0621 69.8478 54.0549 69.7222C54.0478 69.5965 54.0716 69.471 54.1241 69.3566C54.1766 69.2421 54.2563 69.142 54.3563 69.0651C54.4563 68.9882 54.5736 68.9366 54.6981 68.915C54.9354 68.8714 55.1791 68.8761 55.4145 68.9287C55.65 68.9814 55.8723 69.0808 56.0682 69.2212C56.3026 69.4086 56.5261 69.6092 56.7376 69.8219C56.8038 69.6436 56.7065 69.57 56.6442 69.4886C56.2471 69.0351 55.7223 68.711 55.1379 68.5584C54.8906 68.4798 54.6252 68.4781 54.3769 68.5536C54.1287 68.6291 53.9094 68.7781 53.7484 68.9809C53.4759 69.4111 53.6589 69.7793 53.9313 70.1436C53.9313 70.1436 53.9313 70.2018 53.9313 70.2638H48.0696C47.7232 70.2638 47.6804 69.9964 47.6454 69.756C47.5598 69.1281 48.2526 68.7057 48.9688 68.9305C49.5225 69.1129 50.0081 69.4573 50.3622 69.9188C50.1208 69.1088 48.9493 68.446 48.1241 68.5506C47.299 68.6553 46.9565 69.2987 47.4119 70.0157C47.4453 70.0499 47.4685 70.0927 47.4788 70.1392C47.4891 70.1858 47.4862 70.2343 47.4702 70.2793H41.8927C41.9403 70.422 42.0362 70.5437 42.164 70.6236C42.2918 70.7035 42.4436 70.7366 42.5933 70.7173C42.8696 70.6901 43.1538 70.7173 43.434 70.7173C43.5235 70.7173 43.6637 70.6979 43.6753 70.7987C43.7609 71.1838 43.7448 71.5844 43.6286 71.9615C43.5547 72.1359 43.3951 72.1126 43.2394 72.0312C43.0837 71.9498 42.8735 71.7599 42.7023 71.9847C42.531 72.2095 42.7023 72.4072 42.858 72.5506C43.3601 73.0584 43.8816 73.5429 44.4149 74.039C44.5044 74.1243 44.6056 74.2367 44.7301 74.1165C44.8547 73.9964 44.6912 73.8762 44.6056 73.7948C44.2164 73.4498 43.8544 73.1165 43.4885 72.7909C43.905 72.3374 44.3643 72.1824 44.9131 72.5739C45.0288 72.6465 45.1674 72.6741 45.3023 72.6514C45.8277 72.5351 45.9017 72.8064 45.855 73.225C45.8083 73.6436 45.8238 74.0002 46.3999 74.0933V71.5933C46.3999 70.7405 46.3999 70.756 47.2484 70.7405C47.5247 70.7405 47.5948 70.8142 47.5909 71.0739C47.5909 71.8491 47.5909 72.6243 47.5909 73.3995C47.5909 73.8219 47.7622 73.9964 48.1475 74.1049V71.8995C48.1475 70.7173 48.1475 70.7173 49.3152 70.7095C50.2765 70.7095 50.2726 70.7095 50.2104 71.663C50.2104 72.0157 50.0625 72.1553 49.7083 71.9731C49.5526 71.8917 49.3658 71.7405 49.2101 71.9537C49.0544 72.1669 49.2101 72.3413 49.3424 72.4925C49.8679 73.0196 50.4089 73.5312 50.9421 74.0429C51.0472 74.1475 51.164 74.1746 51.2613 74.0429C51.3586 73.9111 51.2185 73.8607 51.1484 73.7948L50.187 72.9188C50.0975 72.8374 49.9613 72.7522 50.1364 72.6359C50.4478 72.4266 50.7047 72.0157 51.1756 72.4382C51.2871 72.526 51.4178 72.5865 51.557 72.6148C51.6963 72.6431 51.8403 72.6383 51.9774 72.601C52.3666 72.5002 52.3666 72.6824 52.3666 72.9886C52.3666 73.1088 52.3666 73.2367 52.3666 73.3762C52.3083 73.787 52.5107 73.9886 52.9116 74.0816V71.4964C52.9116 70.7212 52.9116 70.7212 53.69 70.7212C54.0286 70.7212 54.0792 70.8607 54.0598 71.132C54.0598 71.8762 54.0792 72.6204 54.0598 73.3646C54.0466 73.4484 54.0508 73.534 54.072 73.6161C54.0932 73.6983 54.131 73.7752 54.1831 73.8424C54.2352 73.9095 54.3005 73.9653 54.375 74.0064C54.4495 74.0476 54.5316 74.0732 54.6164 74.0816V71.6824C54.6164 70.7405 54.6164 70.7328 55.5505 70.7289C56.6403 70.7289 57.7301 70.7289 58.8161 70.7289C59.0029 70.7289 59.1119 70.7715 59.1041 70.9847C59.0963 71.1979 58.9679 71.1901 58.8238 71.1901C58.5125 71.1901 58.1972 71.1901 57.8897 71.1901C57.2164 71.225 56.9595 71.694 57.2942 72.2832C57.461 72.571 57.7002 72.8106 57.9882 72.9784C58.2761 73.1463 58.603 73.2366 58.9367 73.2405C58.7121 73.5153 58.4138 73.7209 58.0765 73.8336C57.8352 73.9498 57.4888 74.1553 57.3176 73.8801C57.1463 73.6049 57.4771 73.3839 57.7068 73.2212C57.7068 73.2212 57.7262 73.1708 57.7379 73.1436C57.4032 72.6863 56.9984 73.2715 56.6092 73.0584C56.7687 72.8646 56.9984 72.6708 56.7921 72.415C56.6975 72.2997 56.5736 72.2118 56.4332 72.1607C56.2928 72.1095 56.1412 72.097 55.9942 72.1243C55.8699 72.1369 55.7487 72.171 55.6361 72.225C55.5309 72.2593 55.438 72.3234 55.3689 72.4094C55.2997 72.4955 55.2573 72.5998 55.2469 72.7095C55.2529 72.8111 55.2875 72.9089 55.3467 72.9918C55.4059 73.0748 55.4873 73.1395 55.5816 73.1785C55.8727 73.3292 56.1955 73.409 56.5235 73.4111C56.6403 73.4111 56.7726 73.3878 56.7804 73.5855C56.8038 74.1204 57.1696 74.2212 57.6211 74.2483C58.1989 74.2295 58.7531 74.0164 59.1936 73.6436ZM15.8499 71.756C15.6622 71.5521 15.4253 71.3992 15.1618 71.3117C14.8982 71.2242 14.6166 71.2051 14.3436 71.256C14.2032 71.2705 14.0694 71.3228 13.9565 71.4071C13.8437 71.4915 13.7559 71.6049 13.7028 71.735C13.6496 71.8652 13.633 72.0074 13.6547 72.1463C13.6764 72.2851 13.7356 72.4155 13.8259 72.5235C14.0105 72.7743 14.2755 72.9548 14.5771 73.0351C15.0481 73.1785 15.4568 72.9847 15.8849 72.8413C16.0562 73.2599 15.6553 73.915 16.461 74.0622V72.9498C16.4474 72.8036 16.4686 72.6561 16.5227 72.5195C16.5768 72.3828 16.6625 72.2607 16.7727 72.163C16.8829 72.0654 17.0146 71.9948 17.1572 71.9571C17.2998 71.9194 17.4493 71.9156 17.5936 71.946C17.9828 71.9886 18.1074 72.2095 17.9828 72.5661C17.8611 72.8168 17.6904 73.0408 17.4807 73.225C17.4029 73.3103 17.2355 73.3801 17.4379 73.5002C17.5547 73.57 17.6325 73.7444 17.8271 73.6088C18.0511 73.4531 18.2201 73.2311 18.3102 72.9744C18.4004 72.7177 18.407 72.4392 18.3292 72.1785C18.2259 71.923 18.0266 71.7178 17.7736 71.6063C17.5207 71.4949 17.2341 71.486 16.9747 71.5816C16.4571 71.7212 16.4687 71.7212 16.4532 71.1708C16.4532 70.8684 16.4532 70.6824 16.8658 70.6979C17.6442 70.7367 18.4226 70.7212 19.2011 70.7212C19.3996 70.7212 19.5669 70.756 19.5164 70.9925C19.4307 71.3801 19.7499 71.8219 19.3256 72.1243C19.2283 72.194 19.0181 72.1049 18.9753 72.2793C18.9325 72.4537 19.1077 72.57 19.2244 72.6863C19.3644 72.832 19.5326 72.948 19.7187 73.0274C19.8744 73.0816 20.0496 73.0661 20.0457 72.8956C20.0457 72.508 20.2792 72.5661 20.5128 72.57C20.8397 72.57 21.1667 72.57 21.4936 72.57C21.6882 72.57 21.7777 72.6359 21.7661 72.8374C21.7758 73.0078 21.7758 73.1787 21.7661 73.3491C21.696 73.7677 21.8984 73.977 22.3187 74.0777V71.5157C22.3187 70.7057 22.3187 70.7405 23.1166 70.7095C23.4358 70.7095 23.4825 70.8181 23.4592 71.0778C23.4592 71.2483 23.4592 71.4188 23.4592 71.5894C23.4592 72.5274 23.9807 73.008 24.9187 72.9343C25.024 72.9344 25.1282 72.9133 25.225 72.8722C25.3218 72.8311 25.4092 72.7708 25.482 72.6951C25.5547 72.6194 25.6113 72.5298 25.6483 72.4316C25.6853 72.3335 25.7019 72.229 25.6972 72.1243C25.6972 71.7367 25.6972 71.3801 25.6972 71.0119C25.6972 70.756 25.7867 70.6785 26.0202 70.7057C26.1493 70.7245 26.2804 70.7245 26.4095 70.7057C26.7053 70.6591 26.7987 70.7754 26.7753 71.0584C26.7753 71.8336 26.7753 72.5778 26.7753 73.3374C26.7579 73.4206 26.7586 73.5066 26.7774 73.5895C26.7962 73.6724 26.8326 73.7503 26.8843 73.8179C26.936 73.8855 27.0017 73.9413 27.0769 73.9815C27.1521 74.0216 27.2351 74.0452 27.3202 74.0506C27.3202 73.039 27.3202 72.0467 27.3202 71.0545C27.3202 70.8568 27.3202 70.6901 27.5966 70.694C28.6553 70.694 29.7101 70.694 30.7687 70.694C30.9322 70.694 31.0412 70.7328 31.0412 70.9227C31.0412 71.256 31.0412 71.5855 31.0412 71.9925L30.6948 71.6785C30.4807 71.4842 30.2233 71.3432 29.9439 71.2671C29.6645 71.191 29.3709 71.1819 29.0873 71.2405C28.8996 71.2622 28.7227 71.3395 28.5798 71.4626C28.4368 71.5856 28.3342 71.7486 28.2855 71.9305C28.2484 72.0987 28.2662 72.2744 28.3362 72.4319C28.4062 72.5894 28.5248 72.7206 28.6747 72.8064C28.9808 73.0487 29.3581 73.1848 29.749 73.194C30.1969 73.1741 30.6323 73.0407 31.014 72.8064C31.1307 73.2754 30.7882 73.9188 31.6017 74.0506V71.4847C31.6017 70.7095 31.6017 70.7095 32.3801 70.6746C32.3801 70.6746 32.4229 70.6436 32.4463 70.6243C32.3412 70.3103 32.1116 70.2367 31.7963 70.2367C30.4768 70.2367 29.1535 70.2367 27.8301 70.2367C27.6735 70.2651 27.5118 70.2359 27.3751 70.1547C27.2384 70.0734 27.1359 69.9456 27.0867 69.7948C26.9203 69.3905 26.6681 69.0269 26.3472 68.7289C26.2138 68.5797 26.0482 68.4624 25.8628 68.3859C25.6775 68.3094 25.4771 68.2756 25.2768 68.287C25.4053 68.4847 25.2768 68.756 25.6155 68.8064C25.8997 68.8605 26.1658 68.9845 26.3895 69.1674C26.6132 69.3502 26.7873 69.5859 26.896 69.8529C26.9544 69.9576 27.0945 70.0894 26.9894 70.1747C26.9169 70.2214 26.8325 70.2462 26.7461 70.2462C26.6598 70.2462 26.5753 70.2214 26.5029 70.1747C26.4172 70.1281 26.3628 70.0119 26.2966 69.9305C26.0837 69.6403 25.7939 69.4149 25.4598 69.2793C25.343 69.2405 25.1601 69.1436 25.1056 69.3219C25.0511 69.5002 25.1445 69.6475 25.3702 69.6708C25.6043 69.6903 25.8282 69.7749 26.0163 69.915C26.0981 69.9731 26.246 70.008 26.1915 70.1475C26.137 70.287 26.0319 70.2095 25.9424 70.2173C25.8491 70.2231 25.7555 70.2231 25.6622 70.2173C24.4128 70.0971 23.1361 70.477 21.9062 70.0041C21.9062 70.0041 21.8478 70.0041 21.8478 70.0312C21.7933 70.3723 21.5247 70.2095 21.3652 70.2095C18.9675 70.2095 16.5699 70.2095 14.1723 70.2095H12.9969C13.019 70.3564 13.0957 70.4897 13.2117 70.583C13.3277 70.6763 13.4747 70.7228 13.6235 70.7134C14.1023 70.7134 14.5888 70.7134 15.0714 70.7134C16.0095 70.7134 16.0095 70.7134 15.9005 71.6591C15.8864 71.6928 15.8695 71.7253 15.8499 71.756ZM38.3391 73.2212C38.5376 73.6281 38.7906 73.6088 39.067 73.3762C39.1384 73.3266 39.1968 73.2605 39.2371 73.1835C39.2774 73.1066 39.2984 73.0211 39.2984 72.9343C39.2984 72.8476 39.2774 72.7621 39.2371 72.6852C39.1968 72.6082 39.1384 72.5421 39.067 72.4925C38.8585 72.2804 38.5917 72.1344 38.3001 72.0731C38.0085 72.0117 37.7052 72.0376 37.4283 72.1475C37.2337 72.1979 37.0391 72.2599 36.9807 72.0002C36.9223 71.7405 37.1364 71.6785 37.3271 71.6669C37.6536 71.6417 37.9815 71.6417 38.308 71.6669C38.7361 71.7018 38.9229 71.5545 38.8529 71.1165C38.8023 70.8181 38.9307 70.7018 39.2421 70.7289C39.6313 70.7522 40.0205 70.7289 40.4604 70.7289C40.4057 70.5737 40.2974 70.4429 40.1548 70.3598C40.0122 70.2768 39.8446 70.2468 39.6819 70.2754C38.3741 70.2754 37.0664 70.2754 35.7625 70.2754C35.3732 70.2754 35.2604 70.0894 35.2059 69.7909C35.1917 69.6842 35.2001 69.5757 35.2303 69.4723C35.2606 69.369 35.3122 69.273 35.3818 69.1906C35.4513 69.1082 35.5374 69.0412 35.6344 68.9937C35.7315 68.9462 35.8374 68.9194 35.9454 68.915C36.7667 68.8374 37.3505 69.2599 37.8604 69.8413C37.8931 69.7919 37.9057 69.7319 37.8956 69.6736C37.8855 69.6152 37.8534 69.563 37.8059 69.5274C37.4119 69.0962 36.9093 68.7777 36.3502 68.6049C36.1066 68.5099 35.8385 68.4963 35.5865 68.5662C35.3345 68.6362 35.1121 68.7858 34.9529 68.9925C34.6415 69.4111 34.8283 69.8103 35.1047 70.1785C35.1085 70.199 35.1085 70.22 35.1047 70.2405C34.8673 70.3684 34.5676 70.2057 34.3262 70.3491C34.4508 70.5855 34.5909 70.7599 34.875 70.7367C35.1592 70.7134 35.2059 70.8723 35.202 71.1243C35.202 71.8995 35.2214 72.6436 35.202 73.3995C35.1883 73.4849 35.1924 73.5722 35.2139 73.656C35.2355 73.7397 35.2741 73.8182 35.3274 73.8865C35.3807 73.9548 35.4475 74.0115 35.5237 74.0531C35.5998 74.0947 35.6838 74.1202 35.7702 74.1281V71.132C35.7702 70.946 35.743 70.7444 36.0388 70.7444C36.7199 70.7444 37.405 70.7444 38.09 70.7444C38.2574 70.7444 38.3469 70.7909 38.3547 70.977C38.3625 71.163 38.2691 71.2483 38.0783 71.2444C37.7825 71.2444 37.4867 71.2444 37.1909 71.2444C37.0737 71.235 36.9565 71.2616 36.8549 71.3205C36.7534 71.3794 36.6723 71.4678 36.6226 71.5739C36.575 71.6816 36.5652 71.8022 36.5949 71.9161C36.6245 72.03 36.6919 72.1307 36.7861 72.2018C36.9301 72.3413 36.9768 72.4343 36.825 72.6165C36.7607 72.6904 36.712 72.7765 36.6819 72.8697C36.6518 72.9628 36.641 73.0611 36.6501 73.1585C36.6592 73.2559 36.688 73.3505 36.7348 73.4366C36.7816 73.5226 36.8454 73.5983 36.9223 73.6591C37.3233 74.007 37.7906 74.2707 38.2963 74.4343C38.3741 74.4731 38.487 74.5119 38.5259 74.3801C38.5649 74.2483 38.4286 74.2483 38.3547 74.2057C38.0861 74.0584 37.802 73.9305 37.5412 73.7677C37.4727 73.7288 37.4131 73.6763 37.366 73.6134C37.3189 73.5505 37.2853 73.4786 37.2674 73.4022C37.2495 73.3257 37.2476 73.2465 37.2619 73.1693C37.2762 73.0921 37.3064 73.0187 37.3505 72.9537C37.4739 72.76 37.6521 72.6069 37.8626 72.5138C38.0732 72.4207 38.3067 72.3917 38.5337 72.4305C38.6026 72.4436 38.6656 72.4781 38.7138 72.5288C38.762 72.5796 38.7929 72.6442 38.8023 72.7134C38.8169 72.7817 38.808 72.8529 38.7769 72.9155C38.7458 72.9781 38.6944 73.0285 38.631 73.0584L38.3391 73.2212ZM10.7316 65.7328H16.208C16.3559 65.7328 16.4415 65.6824 16.4415 65.5196C16.4415 64.787 16.4415 64.0545 16.4415 63.194C15.9979 63.8116 15.3721 64.2763 14.6511 64.5235C13.8757 64.7939 13.0872 65.0255 12.2885 65.2173C11.7669 65.3529 11.1948 65.3413 10.7316 65.7328ZM67.2583 65.7328C66.9391 65.4111 66.5226 65.4111 66.1412 65.3103C64.5259 64.8839 62.8056 64.6979 61.5601 63.2599C61.5601 64.0622 61.5601 64.7793 61.5601 65.5002C61.5601 65.7367 61.7041 65.7328 61.8675 65.7328H67.2583ZM64.0394 74.2909C63.9151 74.4132 63.7981 74.5426 63.6891 74.6785C63.5957 74.8064 63.7436 74.8684 63.8098 74.9343C64.1601 75.2677 64.5259 75.5778 64.8646 75.9227C65.0708 76.1281 65.1837 76.0312 65.3511 75.8723C65.5184 75.7134 65.4484 75.5661 65.3005 75.4305L64.269 74.4847C64.2223 74.4188 64.1328 74.3723 64.0394 74.2948V74.2909ZM46.0379 69.5777C46.2092 69.4033 46.5205 69.3336 46.5128 69.101C46.4871 68.9971 46.4294 68.9038 46.3477 68.8343C46.266 68.7647 46.1644 68.7225 46.0574 68.7134C45.9448 68.7206 45.837 68.7614 45.7482 68.8306C45.6593 68.8997 45.5934 68.994 45.5592 69.101C45.5397 69.3336 45.8667 69.4072 46.0379 69.5816V69.5777Z" fill="#B74B38"/>
<path d="M44.437 22.1474C44.5304 22.4226 45.0364 22.1746 45.0131 22.6009C44.9002 22.7404 44.6239 22.4614 44.5733 22.7792C44.5227 23.097 44.3631 22.9846 44.184 22.9575C44.0751 22.9575 43.9466 22.8141 43.8921 23.0195C43.9661 23.1319 44.0906 23.0893 44.1879 23.1242C44.4954 23.2404 44.5772 23.6087 44.3319 23.7753C44.2149 23.8207 44.1188 23.9075 44.0621 24.0191C44.0053 24.1307 43.9919 24.2592 44.0245 24.38C43.8182 24.1901 43.7831 23.9071 43.5496 23.7676C43.4795 23.7288 43.4834 23.5893 43.5496 23.5118C43.6158 23.4342 43.7248 23.473 43.8143 23.5505C44.0167 23.7327 44.1373 23.6087 44.293 23.3683C43.861 23.4459 43.6858 23.2521 43.6781 22.911C43.6781 22.4381 44.0673 22.7521 44.2658 22.6358C44.1996 22.4536 44.0361 22.4846 43.9194 22.4381C43.5301 22.287 43.3822 22.411 43.32 22.8257C43.321 23.1165 43.2386 23.4016 43.0825 23.6474C43.0014 23.611 42.938 23.5442 42.9059 23.4615C42.8739 23.3788 42.8758 23.2868 42.9113 23.2056C42.9775 22.9846 43.0086 22.7521 43.0592 22.5273C43.0864 22.3955 43.0903 22.2792 42.9191 22.2443C42.7478 22.2094 42.7011 22.2986 42.6739 22.4381C42.6194 22.7133 42.5532 22.9846 42.487 23.2559C42.4676 23.3373 42.487 23.4691 42.3508 23.4575C42.2962 23.4489 42.2467 23.4203 42.2121 23.3773C42.1776 23.3343 42.1604 23.2799 42.164 23.2249C42.164 23.0854 42.3002 22.9304 42.0822 22.7947C41.946 23.0195 41.8098 23.2521 41.4828 23.1823C41.1559 23.1125 41.0936 22.8373 40.9263 22.628C40.9574 23.2017 41.0391 23.7521 41.0742 24.3063C41.0742 24.5854 41.1948 24.6668 41.4634 24.6939C42.1557 24.7825 42.8401 24.9237 43.5107 25.1164C43.5528 25.1348 43.5984 25.1442 43.6445 25.1439C43.6905 25.1436 43.736 25.1336 43.7778 25.1145C43.8197 25.0955 43.8571 25.0679 43.8875 25.0335C43.918 24.9991 43.9407 24.9586 43.9544 24.9149C44.2969 24.2714 44.6628 23.6397 45.0209 23.0079C45.1026 22.8683 45.1649 22.7366 44.9975 22.6203C45.0754 22.6668 45.1571 22.7327 45.231 22.6203C45.305 22.5079 45.3439 22.4381 45.3984 22.3412C45.9122 21.4381 45.9122 21.4381 46.9203 21.7986C47.5197 22.0118 48.0879 22.2831 48.6679 22.5738C48.8819 22.6784 48.9481 22.7792 48.8664 23.0389C48.4772 24.2017 48.1697 25.3645 47.8077 26.5505C47.7376 26.787 47.7649 26.9071 47.9828 27.0311C48.6047 27.3835 49.197 27.7853 49.7538 28.2327C49.9328 28.3761 50.0379 28.3373 50.1897 28.2094C50.7424 27.7598 51.3107 27.3257 51.8673 26.88C51.9646 26.8025 52.1631 26.7249 51.9646 26.5738C51.8361 26.473 51.7038 26.2443 51.5092 26.5001C51.408 26.6358 51.3146 26.8025 51.12 26.7831C50.9254 26.7637 50.9137 26.8955 50.9137 27.0428C50.9329 27.1111 50.9329 27.1834 50.9137 27.2518C50.8945 27.3201 50.8568 27.3819 50.8047 27.4304C50.7123 27.1014 50.6897 26.7569 50.7385 26.4187C50.7385 26.2715 50.8475 26.1397 51.011 26.3218C51.1122 26.4381 51.1939 26.4071 51.2718 26.3218C51.3496 26.2366 51.3379 26.1435 51.2445 26.0428C50.937 25.7056 50.8319 25.7094 50.5439 26.0815C50.4194 26.2404 50.3026 26.4071 50.1547 26.5583C50.0885 26.6319 50.0613 26.8373 49.9017 26.7133C49.8713 26.6916 49.8462 26.6633 49.8283 26.6305C49.8103 26.5978 49.8 26.5614 49.7982 26.5242C49.7963 26.4869 49.8029 26.4497 49.8175 26.4154C49.832 26.381 49.8542 26.3504 49.8822 26.3257C50.034 26.1552 50.1586 25.9614 50.2987 25.7753C50.3804 25.6707 50.5245 25.5699 50.3337 25.4459C50.143 25.3218 50.1313 25.5079 50.0263 25.5854C49.7694 25.7908 49.637 26.1048 49.3918 26.3025C49.0882 26.0815 49.4697 25.8296 49.3568 25.5621C49.1116 25.7366 48.8547 25.8839 48.6328 25.5621C48.5278 25.4448 48.4671 25.2946 48.4614 25.1375C48.4558 24.9804 48.5054 24.8262 48.6017 24.7017C48.699 24.9032 48.6017 25.0893 48.7224 25.2637C48.7594 25.3139 48.8108 25.3519 48.8698 25.3727C48.9288 25.3934 48.9927 25.3959 49.0532 25.38C49.0826 25.3731 49.1102 25.3603 49.1343 25.3423C49.1584 25.3243 49.1785 25.3015 49.1933 25.2753C49.2517 25.1125 49.1077 25.1203 49.0143 25.0777C48.9927 25.0692 48.9731 25.0565 48.9566 25.0402C48.9401 25.024 48.9271 25.0046 48.9184 24.9832C48.9097 24.9618 48.9054 24.9389 48.9058 24.9158C48.9062 24.8928 48.9114 24.87 48.9209 24.849C48.9715 24.6978 49.0688 24.7986 49.1505 24.8063C49.2322 24.8141 49.3646 24.8528 49.4697 24.7831C49.4891 24.566 49.2867 24.566 49.17 24.4885C49.1299 24.4637 49.1012 24.4241 49.0903 24.3784C49.0794 24.3326 49.087 24.2845 49.1116 24.2443C49.1778 24.1242 49.2751 24.2056 49.3529 24.2443C49.4237 24.2752 49.4871 24.3208 49.5389 24.3779C49.5906 24.4351 49.6296 24.5026 49.6531 24.5759C49.6767 24.6492 49.6843 24.7267 49.6755 24.8032C49.6667 24.8797 49.6416 24.9534 49.602 25.0195C49.5514 25.1125 49.3685 25.1707 49.5203 25.3141C49.5461 25.3445 49.5824 25.3641 49.622 25.3691C49.6616 25.3742 49.7017 25.3642 49.7343 25.3412C49.8316 25.2676 49.9328 25.1668 49.89 25.035C49.8558 24.9804 49.8411 24.9159 49.8481 24.8519C49.8552 24.788 49.8837 24.7282 49.929 24.6823C50.6685 25.2482 51.4313 25.8025 52.1475 26.4032C52.2915 26.5273 52.3227 26.535 52.4433 26.4381C52.673 26.2521 52.9104 26.0815 53.1322 25.8839C53.3541 25.6862 53.4319 25.7443 53.6032 25.8839C54.2694 26.4671 54.8986 27.0911 55.487 27.7521C55.529 27.7839 55.563 27.8249 55.5864 27.872C55.6098 27.9191 55.622 27.9709 55.622 28.0234C55.622 28.0759 55.6098 28.1277 55.5864 28.1748C55.563 28.2218 55.529 28.2629 55.487 28.2947C54.7086 29.2249 53.9652 30.1746 53.1867 31.097C53.1419 31.1367 53.106 31.1853 53.0815 31.2398C53.0569 31.2942 53.0442 31.3532 53.0442 31.4129C53.0442 31.4726 53.0569 31.5316 53.0815 31.5861C53.106 31.6405 53.1419 31.6892 53.1867 31.7288C53.576 32.2521 53.9301 32.7986 54.2649 33.3528C54.2852 33.4003 54.3148 33.4432 54.3519 33.4791C54.389 33.515 54.433 33.5431 54.4812 33.5619C54.5294 33.5806 54.5809 33.5896 54.6326 33.5884C54.6844 33.5871 54.7353 33.5755 54.7825 33.5544C55.9269 33.2094 57.0828 32.8955 58.2272 32.5505C58.5463 32.4575 58.7176 32.4963 58.8733 32.8296C59.2281 33.5679 59.5425 34.3248 59.8152 35.097C59.8485 35.1488 59.869 35.2078 59.8749 35.2691C59.8809 35.3304 59.872 35.3921 59.8492 35.4493C59.8264 35.5065 59.7902 35.5575 59.7437 35.598C59.6972 35.6385 59.6416 35.6674 59.5816 35.6823C58.5385 36.2288 57.511 36.8102 56.4679 37.349C56.1682 37.504 56.0553 37.6629 56.1643 37.9885C56.3392 38.5661 56.4565 39.1594 56.5146 39.7598C56.5574 40.0854 56.6703 40.2211 57.0322 40.2521C58.2388 40.3528 59.4415 40.504 60.6481 40.6397C60.8778 40.6668 60.9867 40.7482 61.0062 41.0273C61.0646 41.8932 61.0646 42.7621 61.0062 43.628C60.9867 43.9226 60.8855 44.0156 60.617 44.0505C59.3948 44.1707 58.1766 44.318 56.9505 44.4381C56.6547 44.4653 56.5613 44.5699 56.5185 44.849C56.4447 45.5049 56.3145 46.1533 56.1293 46.787C56.0553 47.0273 56.1293 47.1087 56.3239 47.2133C57.402 47.7947 58.4685 48.4032 59.5505 48.9808C59.8502 49.1397 59.9397 49.2792 59.823 49.6242C59.5466 50.3994 59.2197 51.1435 58.8849 51.8916C58.7254 52.2482 58.5307 52.2249 58.2349 52.1358C57.0945 51.7908 55.9463 51.4614 54.802 51.1087C54.7482 51.0816 54.6894 51.0659 54.6292 51.0625C54.569 51.059 54.5088 51.068 54.4522 51.0887C54.3956 51.1094 54.3439 51.1415 54.3003 51.1829C54.2567 51.2244 54.2221 51.2743 54.1987 51.3296C53.8692 51.8722 53.5124 52.3968 53.1284 52.9032C53.0928 52.9409 53.0651 52.9852 53.047 53.0336C53.0288 53.0821 53.0206 53.1336 53.0228 53.1853C53.0249 53.2369 53.0375 53.2876 53.0596 53.3344C53.0818 53.3811 53.1131 53.423 53.1517 53.4575C53.9301 54.4226 54.6891 55.3955 55.487 56.3606C55.6933 56.6087 55.6661 56.7482 55.487 56.973C54.9149 57.6053 54.3095 58.207 53.6733 58.7753C53.6405 58.8165 53.5987 58.8497 53.5512 58.8726C53.5037 58.8955 53.4516 58.9073 53.3989 58.9073C53.3461 58.9073 53.294 58.8955 53.2465 58.8726C53.199 58.8497 53.1573 58.8165 53.1245 58.7753C52.1709 58.0001 51.1784 57.2249 50.2325 56.4265C50.1983 56.3813 50.1546 56.3441 50.1044 56.3175C50.0542 56.291 49.9988 56.2757 49.9421 56.2727C49.8853 56.2698 49.8286 56.2792 49.7759 56.3004C49.7232 56.3216 49.6758 56.3541 49.637 56.3955C49.1274 56.776 48.5987 57.1305 48.0529 57.4575C47.9986 57.4758 47.949 57.5058 47.9077 57.5453C47.8664 57.5849 47.8344 57.6331 47.8139 57.6864C47.7935 57.7397 47.7851 57.7969 47.7894 57.8538C47.7937 57.9107 47.8106 57.966 47.8388 58.0156C48.1852 59.1784 48.5005 60.3412 48.8469 61.504C48.9403 61.8218 48.9209 62.004 48.5784 62.1552C47.8272 62.4924 47.076 62.818 46.2975 63.0893C46.2458 63.1217 46.1872 63.1416 46.1264 63.1473C46.0656 63.153 46.0043 63.1444 45.9475 63.1221C45.8906 63.0998 45.8398 63.0646 45.7992 63.0191C45.7586 62.9737 45.7293 62.9194 45.7137 62.8606C45.1454 61.7792 44.546 60.7172 43.9661 59.6319C43.9493 59.5788 43.9212 59.5299 43.8838 59.4886C43.8463 59.4472 43.8004 59.4144 43.749 59.3923C43.6977 59.3702 43.6422 59.3594 43.5863 59.3607C43.5304 59.3619 43.4754 59.3751 43.4251 59.3994C42.7906 59.5544 42.1484 59.6746 41.5062 59.787C41.261 59.8257 41.1715 59.9032 41.1442 60.1552C41.0119 61.4032 40.8445 62.6435 40.7122 63.8877C40.6849 64.1552 40.6227 64.2753 40.323 64.2753C39.4531 64.3238 38.5812 64.3238 37.7113 64.2753C37.4077 64.2753 37.3221 64.1319 37.3026 63.849C37.1897 62.6164 37.0457 61.3877 36.9134 60.1552C36.89 59.9226 36.8044 59.8451 36.5787 59.8063C35.9053 59.6978 35.2281 59.5815 34.5664 59.4187C34.3017 59.3528 34.2161 59.4187 34.1032 59.6358C33.5155 60.7094 32.9005 61.7715 32.3206 62.849C32.1766 63.1164 32.052 63.1978 31.7484 63.0893C30.97 62.8063 30.2149 62.4963 29.4637 62.1552C29.1056 61.9924 29.0745 61.7947 29.1873 61.4769C29.5298 60.3684 29.8529 59.256 30.2032 58.1474C30.2927 57.8528 30.2694 57.6901 29.9697 57.5195C29.4067 57.1888 28.8623 56.8278 28.3388 56.4381C28.3064 56.403 28.267 56.375 28.2231 56.3558C28.1792 56.3366 28.1318 56.3267 28.0839 56.3267C28.036 56.3267 27.9886 56.3366 27.9447 56.3558C27.9008 56.375 27.8614 56.403 27.829 56.4381C26.8987 57.1901 25.9451 57.9149 25.0188 58.6707C24.7424 58.8994 24.5556 58.9381 24.2793 58.6707C23.6915 58.1164 23.1116 57.5622 22.5706 56.9614C22.3565 56.7211 22.3254 56.5738 22.5706 56.3063C23.349 55.3994 24.0769 54.4536 24.8397 53.535C24.8811 53.4986 24.9143 53.4539 24.937 53.4038C24.9598 53.3537 24.9715 53.2993 24.9715 53.2443C24.9715 53.1893 24.9598 53.135 24.937 53.0848C24.9143 53.0347 24.8811 52.99 24.8397 52.9536C24.4505 52.4187 24.0613 51.8645 23.7188 51.2986C23.7003 51.2536 23.6727 51.2129 23.6378 51.1789C23.6029 51.1449 23.5614 51.1184 23.5158 51.101C23.4703 51.0836 23.4216 51.0756 23.3728 51.0776C23.3241 51.0796 23.2762 51.0915 23.2322 51.1125C22.0879 51.4497 20.9281 51.7482 19.7876 52.1009C19.4412 52.2056 19.2894 52.1319 19.1454 51.8218C18.7951 51.0777 18.476 50.3257 18.1996 49.5505C18.1671 49.4983 18.1475 49.4391 18.1425 49.3779C18.1375 49.3166 18.1472 49.2551 18.1707 49.1983C18.1943 49.1415 18.2311 49.0911 18.2781 49.0512C18.3251 49.0114 18.3809 48.9833 18.4409 48.9691C19.4879 48.4265 20.5194 47.8528 21.5547 47.3063C21.6084 47.2901 21.6579 47.2624 21.6999 47.2253C21.7418 47.1882 21.7752 47.1425 21.7978 47.0913C21.8203 47.0401 21.8315 46.9847 21.8305 46.9288C21.8295 46.8729 21.8164 46.8179 21.7921 46.7676C21.5941 46.1162 21.4573 45.448 21.3834 44.7715C21.3523 44.5234 21.2394 44.4459 20.9942 44.4187C19.8032 44.2908 18.6161 44.1319 17.429 44.0079C17.1487 43.9808 17.0397 43.9187 17.0125 43.6203C16.9385 42.7394 16.9385 41.8539 17.0125 40.973C17.0125 40.7443 17.0942 40.6629 17.3355 40.6397C18.5577 40.5273 19.776 40.3877 21.002 40.2753C21.2394 40.2559 21.3095 40.1629 21.3406 39.942C21.4226 39.2356 21.5619 38.5369 21.7571 37.8528C21.8388 37.5738 21.6987 37.4652 21.4846 37.3567C20.461 36.8025 19.4529 36.2249 18.4254 35.6746C18.1529 35.5273 18.0906 35.3955 18.1996 35.0932C18.4785 34.2881 18.8074 33.501 19.1843 32.7366C19.305 32.4963 19.4218 32.442 19.6903 32.5234C20.8152 32.8761 21.9517 33.1901 23.0804 33.5389C23.1297 33.5665 23.1843 33.583 23.2406 33.5875C23.2969 33.5919 23.3535 33.584 23.4065 33.5645C23.4595 33.5449 23.5075 33.5142 23.5473 33.4743C23.5871 33.4344 23.6177 33.3863 23.637 33.3335C23.9912 32.7521 24.3766 32.1707 24.7736 31.6358C24.81 31.5998 24.839 31.5569 24.8588 31.5097C24.8785 31.4624 24.8887 31.4118 24.8887 31.3606C24.8887 31.3094 24.8785 31.2588 24.8588 31.2115C24.839 31.1643 24.81 31.1214 24.7736 31.0854C23.9951 30.1629 23.2867 29.2133 22.5316 28.2908C22.4915 28.2575 22.4596 28.2155 22.4383 28.1679C22.417 28.1204 22.4069 28.0687 22.4088 28.0167C22.4107 27.9647 22.4245 27.9138 22.4492 27.868C22.4738 27.8221 22.5087 27.7825 22.5511 27.7521C23.1242 27.1006 23.7392 26.4869 24.3921 25.9149C24.4257 25.8736 24.4681 25.8403 24.5163 25.8174C24.5644 25.7945 24.6171 25.7827 24.6704 25.7827C24.7238 25.7827 24.7764 25.7945 24.8246 25.8174C24.8727 25.8403 24.9151 25.8736 24.9487 25.9149C25.8712 26.6901 26.8053 27.4187 27.7278 28.1784C27.7588 28.2151 27.7975 28.2446 27.8412 28.2649C27.8849 28.2851 27.9326 28.2956 27.9807 28.2956C28.0289 28.2956 28.0766 28.2851 28.1203 28.2649C28.164 28.2446 28.2027 28.2151 28.2337 28.1784C28.7758 27.7373 29.3583 27.348 29.9736 27.0156C30.2382 26.8761 30.2616 26.7211 30.1837 26.4614C29.8529 25.3528 29.5454 24.2327 29.2107 23.1203C29.1212 22.8296 29.1718 22.6707 29.4559 22.5389C30.1876 22.1978 30.9272 21.8839 31.69 21.6125C32.0092 21.5001 32.1999 21.5118 32.379 21.8645C32.9005 22.8877 33.4804 23.8761 34.0176 24.8877C34.0336 24.941 34.0609 24.9903 34.0977 25.0321C34.1346 25.0739 34.18 25.1074 34.231 25.1302C34.2819 25.153 34.3372 25.1646 34.3931 25.1642C34.4489 25.1639 34.5041 25.1515 34.5547 25.128C35.1965 24.9666 35.846 24.8372 36.5008 24.7404C36.781 24.6978 36.89 24.6048 36.9251 24.3141C37.0263 23.2366 37.1703 22.1629 37.2754 21.0815C37.3182 20.659 37.4155 20.3839 37.937 20.38C38.7597 20.3457 39.5837 20.3599 40.4047 20.4226C40.4469 20.4221 40.4888 20.4301 40.5278 20.4461C40.5668 20.4622 40.6022 20.486 40.6317 20.5161C40.6611 20.5462 40.6842 20.5819 40.6994 20.6212C40.7145 20.6604 40.7216 20.7023 40.72 20.7443C40.7805 21.0794 40.8104 21.4193 40.8095 21.7598C40.7667 22.2133 41.0742 22.473 41.2766 22.7908C41.3002 22.8318 41.3337 22.8664 41.374 22.8914C41.4143 22.9164 41.4602 22.9311 41.5076 22.9341C41.555 22.9372 41.6024 22.9285 41.6456 22.909C41.6888 22.8894 41.7265 22.8594 41.7553 22.8218C41.8254 22.7443 41.8876 22.6164 41.6969 22.5893C41.5724 22.566 41.3816 22.6513 41.3816 22.4304C41.3816 22.2094 41.6035 22.3296 41.7008 22.2482L41.8448 22.1513C41.7709 21.9575 41.6152 21.9963 41.4867 21.9963C41.3583 21.9963 41.2727 21.9187 41.2921 21.7947C41.3116 21.6707 41.4478 21.6552 41.549 21.6784C41.6819 21.6927 41.8048 21.755 41.8945 21.8536C41.9842 21.9523 42.0344 22.0803 42.0355 22.2133C42.0355 22.318 41.9149 22.4691 42.1212 22.5156C42.1588 22.5257 42.1989 22.5214 42.2335 22.5034C42.2681 22.4855 42.2947 22.4553 42.308 22.4187C42.3547 22.3063 42.4364 22.1862 42.2769 22.0932C42.2228 22.0635 42.1812 22.0155 42.1597 21.9578C42.1383 21.9002 42.1384 21.8368 42.1601 21.7792L44.1062 22.1668C44.2035 22.1862 44.3125 22.2714 44.3864 22.128L44.437 22.1474ZM48.3876 51.1629C49.4113 51.1629 50.4388 51.1397 51.4625 51.1629C51.5436 51.178 51.6268 51.1769 51.7074 51.1596C51.7881 51.1424 51.8645 51.1094 51.9322 51.0625C51.9999 51.0156 52.0576 50.9558 52.1019 50.8866C52.1462 50.8173 52.1763 50.74 52.1903 50.659C52.9065 48.4536 53.6538 46.2598 54.3816 44.0699C54.6225 43.4851 54.8075 42.8791 54.9343 42.2598C54.9423 42.1994 54.9423 42.1381 54.9343 42.0777C53.9963 39.2753 53.0505 36.4769 52.1203 33.6746C52.0346 33.4226 51.8906 33.3955 51.6688 33.3994C50.7502 33.3994 49.8316 33.3994 48.917 33.3994C48.7798 33.4068 48.6428 33.3839 48.5156 33.3323C48.3884 33.2807 48.2742 33.2016 48.1813 33.1009C46.9639 31.887 45.5158 30.9269 43.9215 30.2767C42.3272 29.6265 40.6188 29.2993 38.8961 29.3141C37.1733 29.3288 35.4708 29.6854 33.8881 30.3629C32.3053 31.0404 30.874 32.0252 29.6778 33.2598C29.6096 33.3314 29.5266 33.3873 29.4345 33.4234C29.3423 33.4596 29.2434 33.4752 29.1445 33.4691C28.0858 33.4691 27.0272 33.4963 25.9685 33.4691C25.552 33.4691 25.4197 33.6125 25.3185 33.9846C24.5634 36.7288 23.7849 39.4653 23.0182 42.2056C23.7966 45.035 24.5751 47.8645 25.3535 50.7017C25.4391 51.0079 25.5792 51.0893 25.8673 51.0893C27.0933 51.0893 28.3194 51.0893 29.5454 51.0893C29.6143 51.1895 29.6911 51.2841 29.7751 51.3722C33.7451 55.1164 38.3379 56.1087 43.5029 54.3877C45.3846 53.7533 47.0681 52.6419 48.3876 51.1629Z" fill="#B74B38"/>
<path d="M34.6598 12.6394C34.7182 12.6394 34.8272 12.6626 34.8116 12.5929C34.7338 12.1704 34.7104 11.7053 34.3796 11.3991C34.2933 11.3253 34.2281 11.2303 34.1905 11.1234C34.1529 11.0166 34.1443 10.9017 34.1655 10.7905C34.4185 10.7905 34.4808 10.9882 34.5548 11.1471C34.6287 11.306 34.6715 11.4649 34.7338 11.6239C34.8583 11.9494 34.7571 12.4533 35.0335 12.5967C35.3098 12.7401 35.7886 12.651 36.1778 12.6549H37.2754C37.4194 11.9301 36.7577 11.5192 36.5904 10.8874C36.9095 10.868 36.9796 11.0696 37.073 11.2363C37.2417 11.5844 37.3634 11.9532 37.435 12.3332C37.4778 12.5425 37.5245 12.7208 37.7775 12.651C38.0305 12.5812 37.832 12.4146 37.8359 12.2944C37.8209 12.0362 37.8209 11.7774 37.8359 11.5192C37.8709 11.2556 37.9838 10.9533 38.3146 11.0115C38.3855 11.0208 38.4538 11.0444 38.5152 11.0808C38.5766 11.1173 38.6298 11.1659 38.6718 11.2236C38.7137 11.2813 38.7433 11.3469 38.7588 11.4164C38.7744 11.4859 38.7756 11.5578 38.7622 11.6277C38.591 11.527 38.517 11.2867 38.2913 11.3758C38.0655 11.4649 38.0655 11.6665 38.0305 11.8409C37.8982 12.4921 38.0305 12.6665 38.7077 12.6665H41.8215C41.9305 12.6665 42.0395 12.6665 42.1485 12.6665C42.3431 12.6665 42.3586 12.8409 42.382 12.9649C42.417 13.1781 42.2302 13.0967 42.129 13.1161C42.0668 13.12 42.0044 13.12 41.9422 13.1161C41.1637 13.1161 41.1637 13.1161 41.2221 13.9611C41.7009 13.7014 41.8215 14.0308 41.9149 14.3836C42.0475 14.908 41.9723 15.4632 41.7048 15.9339C41.4401 15.8215 41.5062 15.6239 41.588 15.4378C41.7245 15.1573 41.7823 14.8453 41.7554 14.5347C41.7242 14.2634 41.5763 14.2711 41.4089 14.4107C41.3318 14.4756 41.2716 14.5581 41.2337 14.6513C41.1957 14.7445 41.181 14.8455 41.191 14.9456C41.191 15.3913 41.191 15.8409 41.191 16.3215C40.8679 16.1239 40.9847 15.837 40.9613 15.5929C40.9613 15.4339 41.0042 15.2053 40.7045 15.368C40.6607 15.3851 40.612 15.3851 40.5682 15.368C40.1323 15.2091 40.1089 14.8138 40.0739 14.4533C40.0389 14.0929 40.0311 13.7828 40.3853 13.5967C40.5916 13.4882 40.7083 13.7246 40.8757 13.7789C41.0664 13.1626 41.0314 13.1161 40.4164 13.1161C39.7392 13.1161 39.7392 13.1161 39.7392 13.8138V16.2789C39.4628 16.1859 39.494 15.9727 39.494 15.7789C39.494 15.0037 39.494 14.2285 39.494 13.4533C39.494 13.2944 39.5446 13.1122 39.2643 13.1006C38.9841 13.089 38.9958 13.2789 38.9958 13.4649C38.9958 13.8991 38.9958 14.3332 38.9958 14.7673C38.9958 14.8835 38.9958 15.0425 38.8518 15.0657C38.7077 15.089 38.6727 14.9417 38.6533 14.8487C38.6027 14.6277 38.3808 14.4611 38.6883 14.1587C38.8985 13.9611 38.7856 13.5037 38.7194 13.1781C38.6883 13.0347 38.4703 13.1122 38.3302 13.1122C38.1356 13.1122 38.1901 13.2867 38.1901 13.3952C38.1901 14.2944 38.1901 15.1988 38.1901 16.1084V16.3215C37.9371 16.1975 37.9215 15.9998 37.9215 15.7789C37.9215 15.0386 37.9215 14.2944 37.9215 13.5502C37.9215 13.3991 38.0539 13.1355 37.7269 13.1277C37.4 13.12 37.5089 13.4068 37.5051 13.5696C37.5051 14.4611 37.5051 15.3525 37.5051 16.2828C37.217 16.1704 37.2521 15.9766 37.2521 15.8022C37.2521 15.027 37.2521 14.2518 37.2521 13.4766C37.2521 13.3254 37.3299 13.089 37.038 13.1161C36.7461 13.1432 36.8278 13.3409 36.8278 13.5037C36.8278 14.4184 36.8278 15.3293 36.8278 16.2518C36.532 16.2518 36.641 15.9572 36.4931 15.8409C36.2946 15.996 36.1039 16.2556 35.8158 16.0618C35.6827 15.9644 35.5797 15.8318 35.5185 15.679C35.4572 15.5262 35.4402 15.3594 35.4694 15.1975C35.522 14.8996 35.4826 14.5928 35.3565 14.3177C35.1425 13.8564 35.232 13.7208 35.773 13.5153C35.804 13.5098 35.8329 13.4963 35.857 13.4761C35.881 13.4558 35.8993 13.4297 35.9099 13.4002C35.9206 13.3708 35.9232 13.339 35.9177 13.3082C35.9121 13.2774 35.8984 13.2485 35.8781 13.2246C35.6679 13.0192 35.3838 13.1549 35.1347 13.1394C34.8856 13.1239 34.9556 13.3099 34.9556 13.4417V16.2401C34.6988 16.151 34.7338 15.9611 34.7338 15.7944C34.7338 15.0192 34.7338 14.244 34.7338 13.4688C34.7338 13.3099 34.7922 13.1084 34.508 13.1161C34.2239 13.1239 34.2979 13.3332 34.2979 13.4804C34.2979 14.3952 34.2979 15.3099 34.2979 16.2479C34.076 16.2014 34.0604 16.0541 34.0565 15.8991C34.0429 15.668 34.0429 15.4363 34.0565 15.2053C34.0877 14.8952 33.9631 14.7518 33.6479 14.7363C33.6303 14.9982 33.5873 15.2578 33.5194 15.5115C33.3287 15.8991 33.0601 15.9417 32.8305 15.5851C32.5991 15.2362 32.4537 14.8378 32.4062 14.4223C32.6787 14.6277 32.6398 14.9223 32.7955 15.12C32.8772 15.2324 32.9278 15.3874 33.0874 15.3835C33.247 15.3797 33.317 15.2053 33.3676 15.0618C33.4515 14.8753 33.4667 14.6654 33.4104 14.4688C33.3754 14.3487 33.3248 14.2246 33.1574 14.3448C33.0679 14.4107 32.9784 14.5618 32.8655 14.368C32.8452 14.3396 32.8312 14.3073 32.8243 14.2731C32.8174 14.2389 32.8178 14.2036 32.8255 14.1696C32.8333 14.1356 32.8481 14.1036 32.8691 14.0757C32.89 14.0478 32.9167 14.0246 32.9473 14.0076C33.0599 13.9227 33.1584 13.8207 33.2392 13.7053C33.3145 13.6146 33.358 13.5018 33.3629 13.3842C33.3678 13.2667 33.3339 13.1507 33.2664 13.0541C33.0601 12.837 32.9473 13.1975 32.7604 13.213C32.6164 13.027 32.6009 12.8564 32.811 12.7053C32.8457 12.6732 32.8867 12.6486 32.9313 12.6331C32.976 12.6176 33.0234 12.6115 33.0706 12.6151C33.1178 12.6187 33.1637 12.6321 33.2054 12.6543C33.2472 12.6765 33.2838 12.707 33.3131 12.744C33.4299 12.8642 33.461 12.9146 33.644 12.744C33.8269 12.5735 34.2083 12.7053 34.4964 12.6704L34.6598 12.6394ZM36.606 14.12C36.606 13.9184 36.606 13.7324 36.606 13.5153C36.606 13.2983 36.7149 13.1277 36.4308 13.1277C36.1467 13.1277 36.2167 13.3642 36.2089 13.5153C36.2089 13.7634 36.2089 13.9882 35.8509 13.9611C35.7146 13.9611 35.5083 13.8991 35.5239 14.1587C35.5395 14.4184 35.6718 14.4378 35.8781 14.4146C36.0844 14.3913 36.2284 14.4146 36.2673 14.6394C36.3062 14.8642 36.1272 14.8642 35.9637 14.9068C35.7224 14.9727 35.7263 15.2091 35.7302 15.4107C35.7302 15.5425 35.7302 15.7324 35.8742 15.775C36.0182 15.8177 36.1583 15.6277 36.2634 15.5153C36.6604 15.1161 36.5865 14.6122 36.5865 14.12H36.606ZM33.5233 12.9572C33.5899 13.2883 33.5725 13.6306 33.4727 13.9533C33.3871 14.1936 33.57 14.3409 33.7646 14.3952C33.9592 14.4494 34.0371 14.2208 34.041 14.0618C34.0527 13.6239 34.2512 13.0967 33.5077 12.9456L33.5233 12.9572ZM40.2724 14.5076C40.2724 14.7246 40.3152 14.9611 40.5254 14.9494C40.5835 14.947 40.6406 14.933 40.6933 14.9084C40.7459 14.8839 40.7932 14.8491 40.8323 14.8062C40.8714 14.7633 40.9015 14.7131 40.921 14.6585C40.9405 14.6039 40.9489 14.546 40.9458 14.4882C40.9458 14.275 40.8212 14.0696 40.5955 14.0657C40.3697 14.0618 40.2685 14.2944 40.2568 14.496L40.2724 14.5076Z" fill="#B74B38"/>
<path d="M19.4106 12.5618C19.5429 12.7285 19.7297 12.651 19.8893 12.651C20.6678 12.651 21.4735 12.651 22.3025 12.651C22.2055 12.319 22.166 11.9729 22.1857 11.6277C22.2247 11.3641 22.2636 11.0734 22.575 10.9843C22.8863 10.8951 23.0342 11.1858 23.1744 11.399C23.3022 11.5516 23.3663 11.7472 23.3534 11.9455C23.2094 11.8874 23.2172 11.7362 23.1393 11.6471C23.0615 11.5579 22.933 11.2982 22.7073 11.3603C22.4815 11.4223 22.4621 11.6277 22.4348 11.8099C22.4251 11.9635 22.4251 12.1175 22.4348 12.2711C22.4348 12.5618 22.5555 12.6587 22.8591 12.6587C24.0268 12.6587 25.1594 12.6587 26.3115 12.6587C26.6462 12.6587 26.8097 12.7517 26.7941 13.12H26.3504C25.572 13.12 25.572 13.12 25.6148 13.9494C26.0351 13.7517 26.1908 13.9765 26.2803 14.337C26.4237 14.8676 26.351 15.4331 26.0779 15.9107C25.8794 15.7866 25.895 15.6432 25.969 15.4494C26.1045 15.1857 26.1727 14.8929 26.1675 14.5967C26.1675 14.4882 26.1675 14.368 26.039 14.3215C25.9106 14.275 25.8133 14.3641 25.7238 14.4572C25.6758 14.518 25.6405 14.5877 25.6198 14.6622C25.5991 14.7367 25.5934 14.8146 25.6031 14.8913C25.6031 15.3564 25.6031 15.8176 25.6031 16.3254C25.1672 16.0386 25.428 15.6122 25.3034 15.2905C24.8324 15.4145 24.6806 15.3331 24.525 14.8641C24.4624 14.6398 24.44 14.4063 24.4588 14.1742C24.4462 14.0652 24.4638 13.9548 24.5098 13.855C24.5558 13.7552 24.6283 13.6699 24.7196 13.6083C24.9687 13.4804 25.1088 13.6897 25.3229 13.9494C25.3229 13.682 25.3229 13.5347 25.3229 13.3913C25.3462 13.1587 25.2333 13.0967 25.0232 13.1083C24.8367 13.1258 24.6491 13.1258 24.4627 13.1083C24.1708 13.0734 24.0929 13.1897 24.0968 13.4727C24.0968 14.4029 24.0968 15.3293 24.0968 16.2866C23.801 16.1393 23.8555 15.899 23.8516 15.6781C23.8477 15.4572 23.8516 15.182 23.8516 14.9339C23.8516 14.7517 23.9411 14.5192 23.5986 14.5037C23.2561 14.4882 23.2561 14.6742 23.2639 14.8913C23.2554 14.9541 23.2424 15.0163 23.225 15.0773C23.0886 14.9867 22.983 14.8571 22.9219 14.7057C22.8607 14.5542 22.847 14.3879 22.8824 14.2285C22.9175 13.9649 23.1744 14.0734 23.3456 14.0502C23.5169 14.0269 23.7621 14.1355 23.8127 13.961C23.8769 13.7066 23.8769 13.4403 23.8127 13.1858C23.7738 13.0192 23.5402 13.1006 23.3923 13.0967C22.5788 13.0967 22.5788 13.0967 22.5788 13.8719V16.2672C22.2947 16.1703 22.3103 15.9572 22.3103 15.7479C22.3103 15.0037 22.3103 14.2595 22.3103 13.5153C22.3103 13.368 22.4543 13.1006 22.1312 13.0928C21.8082 13.0851 21.9211 13.3796 21.9211 13.5386C21.9211 14.4378 21.9211 15.337 21.9211 16.2517C21.6369 16.151 21.6603 15.9339 21.6603 15.7285C21.6603 14.9533 21.6603 14.2091 21.6603 13.4494C21.6603 13.3021 21.7498 13.0618 21.4579 13.0618C21.166 13.0618 21.2516 13.2789 21.2477 13.43C21.2477 14.2052 21.2477 14.9804 21.2477 15.7556C21.2477 15.9029 21.2983 16.0657 21.1893 16.2052C20.983 16.1006 20.9947 15.9107 20.9947 15.7285C20.9947 15.3409 20.9947 14.9223 20.9947 14.5192C20.9947 13.8913 20.9947 13.8913 20.3369 13.9262C20.4732 14.2362 20.7262 14.5076 20.6756 14.8641C20.6756 14.9417 20.6756 15.0347 20.6756 15.0928C20.5341 15.3112 20.4516 15.5621 20.4359 15.8214C20.4202 16.0808 20.4719 16.3398 20.586 16.5734C20.3488 16.1777 20.0889 15.7959 19.8076 15.43C19.7567 15.3588 19.7351 15.2709 19.7475 15.1843C19.7598 15.0978 19.805 15.0192 19.8738 14.9649C20.0333 14.8525 20.045 15.0734 20.1268 15.1432C20.298 15.2944 20.3447 15.1432 20.3681 15.0231C20.411 14.8251 20.4013 14.6194 20.3398 14.4263C20.2784 14.2332 20.1674 14.0595 20.0178 13.9223C19.9399 13.8331 19.792 13.775 19.8426 13.6238C19.8932 13.4727 20.0723 13.5037 20.2007 13.4959C20.3291 13.4882 20.5899 13.4959 20.7612 13.4959C20.7918 13.5006 20.823 13.4985 20.8527 13.4895C20.8823 13.4806 20.9095 13.4651 20.9323 13.4443C20.9551 13.4234 20.9729 13.3977 20.9844 13.3691C20.9959 13.3405 21.0007 13.3096 20.9986 13.2789C20.9986 13.1122 20.9208 13.0579 20.7729 13.0618H20.7067C19.4378 12.9417 19.4378 12.9417 19.4378 14.1897V16.2711C19.0486 15.9843 19.2938 15.5734 19.1615 15.2672C18.6244 15.5541 18.4103 15.4688 18.1884 14.8796C18.0796 14.5697 18.0796 14.2322 18.1884 13.9223C18.2468 13.7479 18.3285 13.5696 18.5426 13.5347C18.7567 13.4998 18.8851 13.6432 18.998 13.7982C19.0408 13.8525 19.0797 13.9107 19.2043 14.0889C19.2043 13.744 19.2043 13.5347 19.2043 13.3138C19.2043 13.0928 19.1109 13.0424 18.9202 13.0502C18.7294 13.0579 18.4803 13.0502 18.2663 13.0502C18.2252 13.0591 18.1826 13.0594 18.1414 13.0508C18.1002 13.0423 18.0612 13.0253 18.0271 13.0008C17.9929 12.9763 17.9644 12.9449 17.9432 12.9087C17.922 12.8724 17.9088 12.8322 17.9043 12.7905C17.9043 12.5347 18.1184 12.6742 18.239 12.6471C18.4842 12.5889 18.7606 12.7479 18.9863 12.5424H19.0253H19.072C19.0968 12.5747 19.1295 12.6002 19.1669 12.6165C19.2044 12.6327 19.2454 12.6393 19.286 12.6355L19.4106 12.5618ZM18.3402 14.6781C18.3791 14.8176 18.3169 15.0231 18.5076 15.1122C18.6983 15.2014 18.8229 15.0231 18.9241 14.9068C19.0914 14.7207 19.2432 14.5192 19.0408 14.2517C18.9318 14.1083 18.8268 13.9494 18.6321 14.0269C18.3519 14.1355 18.3714 14.4145 18.3402 14.6781ZM24.6339 14.5192C24.6573 14.7014 24.6339 14.9572 24.883 14.9378C24.999 14.9279 25.1068 14.8742 25.1842 14.7877C25.2617 14.7012 25.3029 14.5885 25.2995 14.4727C25.307 14.3704 25.2736 14.2694 25.2065 14.1917C25.1393 14.114 25.044 14.0659 24.9414 14.0579C24.6456 14.0463 24.6612 14.3138 24.6339 14.5192Z" fill="#B74B38"/>
<path d="M46.4374 16.1936C46.2194 15.806 46.3907 15.3719 46.3284 14.9688C46.3011 14.7905 46.4763 14.5191 46.0754 14.5036C45.6745 14.4881 45.7679 14.7013 45.7484 14.9145C45.7314 14.9811 45.7052 15.045 45.6706 15.1044C45.5623 15.0126 45.4753 14.8986 45.4155 14.7701C45.3557 14.6417 45.3245 14.5018 45.3242 14.3602C45.2814 14.0695 45.5266 14.0734 45.7368 14.0657C46.3362 14.0657 46.4529 13.8951 46.3323 13.2905C46.3323 13.2168 46.3323 13.1238 46.2194 13.1199C45.8629 13.1005 45.5056 13.1005 45.149 13.1199C44.9466 13.1199 45.0362 13.3486 45.0362 13.4688C45.0362 14.399 45.0362 15.3292 45.0362 16.2982C44.6781 16.0773 44.8065 15.7633 44.7832 15.4959C44.7832 15.3098 44.7832 15.1083 44.7832 14.9377C44.7832 14.7672 44.5808 14.7633 44.4679 14.7439C44.355 14.7246 44.3745 14.8719 44.3745 14.9416C44.3794 15.1756 44.3158 15.4058 44.1916 15.6044C44.0281 15.8719 43.8296 15.8874 43.6389 15.6393C43.3695 15.2741 43.2005 14.8453 43.1484 14.3951C43.417 14.5657 43.3703 14.8292 43.4832 15.0036C43.596 15.1781 43.6194 15.3602 43.8257 15.3408C44.032 15.3215 44.0826 15.1044 44.1254 14.9222C44.1254 14.8757 44.1487 14.8331 44.1526 14.7866C44.1526 14.6005 44.1993 14.399 44.0398 14.2711C43.8802 14.1432 43.8296 14.461 43.6505 14.4494C43.61 14.4186 43.5779 14.3781 43.5573 14.3317C43.5366 14.2853 43.528 14.2344 43.5323 14.1838C43.5366 14.1332 43.5535 14.0845 43.5817 14.0422C43.6098 13.9999 43.6482 13.9653 43.6933 13.9416C43.8042 13.8565 43.898 13.7513 43.9697 13.6315C44.0392 13.546 44.0771 13.4393 44.0771 13.3292C44.0771 13.2192 44.0392 13.1124 43.9697 13.0269C43.7673 12.8253 43.6583 13.1354 43.4676 13.1664C43.3041 12.9881 43.2808 12.8215 43.5221 12.6626C43.5646 12.6278 43.6145 12.6032 43.6679 12.5905C43.7214 12.5779 43.7771 12.5775 43.8307 12.5895C43.8844 12.6014 43.9346 12.6254 43.9776 12.6595C44.0205 12.6937 44.0551 12.7371 44.0787 12.7866C44.1796 12.9349 44.2448 13.1044 44.2691 13.2819C44.2934 13.4594 44.2762 13.6401 44.2188 13.8098C44.1682 13.9843 44.1254 14.1354 44.2889 14.2711C44.3706 14.3408 44.4484 14.43 44.5691 14.3951C44.6217 14.3776 44.6672 14.3436 44.6987 14.2981C44.7303 14.2527 44.7463 14.1984 44.7442 14.1432C44.7442 13.8641 44.7442 13.585 44.7442 13.3098C44.7442 13.2129 44.7442 13.1044 44.608 13.1044C44.3083 13.1044 44.3317 12.8757 44.2889 12.6432H48.5392C48.5859 12.6432 48.6326 12.6781 48.6754 12.6703C48.8895 12.647 49.1347 12.3874 49.2942 12.7595C49.3762 12.9104 49.4107 13.0823 49.3933 13.253C49.376 13.4237 49.3076 13.5853 49.1969 13.7168C49.1969 13.7168 49.1969 13.7439 49.1969 13.775C49.2436 13.9067 49.3721 13.8486 49.4694 13.8602C49.5667 13.8719 49.6329 13.9765 49.6484 14.0889C49.664 14.2013 49.5939 14.2943 49.4616 14.2866C49.3827 14.2809 49.3045 14.3054 49.2431 14.3551C49.1816 14.4048 49.1415 14.4759 49.1308 14.554C49.095 14.6412 49.0882 14.7375 49.1113 14.8289C49.1344 14.9202 49.1863 15.0018 49.2592 15.0618C49.4694 15.1936 49.5901 14.9881 49.7146 14.8564C49.7689 14.7903 49.8093 14.7141 49.8334 14.6322C49.8574 14.5503 49.8647 14.4644 49.8547 14.3796C49.8547 13.7905 49.9871 13.1742 49.3721 12.6393C50.4619 12.6393 51.4077 12.6393 52.3574 12.6393C52.5442 12.6393 52.591 12.7439 52.6338 12.8835C52.6766 13.023 52.6338 13.0812 52.4859 13.1044C52.2445 13.1354 52.3341 13.3408 52.3302 13.4726C52.3302 14.4029 52.3302 15.3331 52.3302 16.2982C52.24 16.2672 52.1644 16.2042 52.1178 16.1213C52.0711 16.0385 52.0567 15.9414 52.0772 15.8486C52.0772 15.5385 52.0772 15.2284 52.0772 14.9184C52.0772 14.7439 52.1823 14.5075 51.8281 14.4881C51.4739 14.4688 51.4933 14.6587 51.4933 14.8757C51.4818 14.9355 51.4608 14.9931 51.4311 15.0463C51.1975 14.9688 51.1781 14.7633 51.1236 14.6005C50.9796 14.1664 51.0769 14.0424 51.5323 14.0385C51.8164 14.0385 52.1083 14.1277 52.1005 13.6277C52.0927 13.1277 51.976 13.0463 51.5284 13.0695C50.7811 13.1083 50.7772 13.0695 50.7811 13.8447V16.2711C50.5086 16.147 50.5242 15.9416 50.5242 15.7401C50.5242 14.9649 50.5242 14.1897 50.5242 13.4145C50.5242 13.275 50.5904 13.085 50.3296 13.0812C50.0688 13.0773 50.1272 13.2633 50.1272 13.4029C50.1272 14.3486 50.1272 15.2943 50.1272 16.2711C49.7107 16.0579 49.9442 15.6781 49.8469 15.4029C49.7039 15.443 49.5522 15.4416 49.4099 15.3986C49.2677 15.3557 49.1407 15.2731 49.0441 15.1605C48.9475 15.048 48.8852 14.9103 48.8647 14.7637C48.8442 14.617 48.8663 14.4676 48.9284 14.3331C49.0996 13.8447 48.6948 13.5579 48.6871 13.1703C48.6871 13.116 48.6053 13.085 48.5353 13.1044C48.4652 13.1238 48.438 13.2168 48.438 13.2866C48.438 13.6122 48.438 13.9377 48.438 14.2633V16.2788C48.3558 16.2561 48.285 16.204 48.239 16.1324C48.1931 16.0609 48.1752 15.975 48.1889 15.8912C48.1889 15.3796 48.3368 14.7943 47.5194 14.6897C46.9901 15.275 47.8853 15.7517 47.7257 16.3564C47.4338 15.7207 47.0484 15.1315 46.9472 14.4184C46.9335 14.3735 46.9366 14.3252 46.956 14.2824C46.9753 14.2397 47.0095 14.2054 47.0523 14.1858C47.1496 14.147 47.3053 14.4804 47.3442 14.1664C47.4234 13.8358 47.41 13.4899 47.3053 13.1664C47.2314 13.0075 46.9161 13.1044 46.7371 13.1122C46.558 13.1199 46.5853 13.3137 46.5853 13.4377C46.5853 14.3486 46.5853 15.2633 46.5619 16.1781L46.4374 16.1936ZM48.1966 13.775V13.4998C48.1966 13.3021 48.2472 13.1122 47.9164 13.1122C47.5856 13.1122 47.6089 13.2788 47.6167 13.4998C47.6245 13.7207 47.6167 13.8874 47.6167 14.054C47.6167 14.2207 47.6673 14.4959 47.9125 14.5036C48.1577 14.5114 48.2005 14.2827 48.1966 14.0695V13.775ZM49.123 13.5308C49.1854 13.4353 49.2237 13.3262 49.2345 13.2128C49.2453 13.0994 49.2284 12.9851 49.1853 12.8796C49.1619 12.8253 49.0607 12.837 49.0335 12.899C48.9706 12.9977 48.9451 13.1155 48.9615 13.2313C48.9779 13.347 49.0352 13.4532 49.123 13.5308Z" fill="#B74B38"/>
<path d="M55.7567 11.3761C55.3675 11.3761 55.1846 11.6668 55.2274 12.19C55.2508 12.504 55.3364 12.6745 55.7295 12.6668C57.0022 12.6358 58.2789 12.6668 59.5555 12.6668C59.7424 12.6668 59.9448 12.6396 59.972 12.9109C59.9993 13.1823 59.7696 13.1086 59.6295 13.1241C59.3103 13.1513 59.4388 13.3916 59.4271 13.5466C59.4271 13.7675 59.4543 14.0001 59.1079 13.9691C58.9017 13.9691 58.6798 13.9458 58.6603 14.2327C58.6409 14.5195 58.5903 14.9342 58.9561 15.1474C59.1508 14.9962 58.8705 14.6202 59.2091 14.6706C59.4427 14.7055 59.5283 14.973 59.4349 15.2365C59.3866 15.5441 59.4174 15.8588 59.5244 16.1513C59.5478 16.3102 59.6567 16.4652 59.5244 16.6396C59.3648 16.5892 59.4154 16.4381 59.3843 16.3412C59.2792 15.9962 59.3142 15.6319 58.8588 15.4148C58.4696 15.2249 58.31 14.1861 58.493 13.783C58.5322 13.6889 58.6027 13.611 58.6927 13.5623C58.7826 13.5137 58.8866 13.4972 58.9873 13.5156C59.143 13.5156 59.2091 13.4536 59.2014 13.2947C59.1936 13.1358 59.0963 13.128 58.9795 13.1241H58.8394C58.1193 13.1241 58.1193 13.1241 58.1193 13.8257C58.1193 14.6435 58.1193 15.4613 58.1193 16.3179C57.8079 16.128 57.9014 15.8606 57.8858 15.6319C57.8702 15.4032 57.9597 15.2443 57.5861 15.3063C57.1463 15.3644 57.0451 14.9497 56.9945 14.6125C56.9439 14.2753 56.9945 13.9342 56.9711 13.5931C56.9711 13.4109 57.1112 13.1319 56.722 13.1241C56.3328 13.1164 56.4573 13.4226 56.4457 13.6125C56.4184 14.0737 56.5118 14.5466 56.2121 14.9613C56.1148 15.0892 56.2472 15.1861 56.2861 15.2985C56.4029 15.6513 56.652 15.9536 56.6208 16.3606C56.2474 15.774 55.964 15.1351 55.7801 14.4652C55.7801 14.3683 55.7801 14.1823 55.9163 14.2404C56.2822 14.4032 56.1927 14.1202 56.216 13.9652C56.2394 13.8102 56.216 13.6551 56.216 13.5001C56.2588 13.1861 56.1187 13.1125 55.8268 13.1125C55.5349 13.1125 55.4025 13.1474 55.4142 13.5001C55.4415 14.2753 55.4142 15.0505 55.4142 15.8257C55.4142 15.9691 55.4609 16.128 55.3636 16.2637C55.1496 16.1745 55.1963 15.9846 55.1924 15.8218C55.1924 15.0466 55.1924 14.2714 55.1924 13.4962C55.1924 13.3412 55.2624 13.1319 54.9744 13.1358C54.6864 13.1396 54.7603 13.3451 54.7603 13.4962C54.7603 14.4265 54.7603 15.3528 54.7603 16.314C54.4217 16.1358 54.5268 15.8528 54.519 15.6125C54.5112 15.3722 54.5618 15.1706 54.1921 15.1513C53.9235 15.1513 53.8028 14.8412 53.7561 14.6009C53.7191 14.4501 53.7072 14.2942 53.7211 14.1396C53.7658 13.8815 53.7504 13.6166 53.6762 13.3653C53.602 13.114 53.4709 12.883 53.293 12.69H55.1768C55.0264 12.2816 54.9994 11.8383 55.099 11.4148C55.1573 11.2327 55.2352 11.0582 55.4415 11.0272C55.6478 10.9962 55.7879 11.1202 55.8852 11.2908L55.7567 11.3761ZM57.5394 13.8683C57.3487 13.8373 57.4148 13.566 57.2008 13.5234C57.2008 13.9109 57.2008 14.252 57.2008 14.6086C57.2008 14.7559 57.2008 14.9962 57.446 14.9613C57.4992 14.9549 57.5506 14.9376 57.5968 14.9104C57.6431 14.8833 57.6832 14.8469 57.7146 14.8036C57.746 14.7603 57.7681 14.711 57.7795 14.6587C57.7909 14.6065 57.7913 14.5525 57.7807 14.5001C57.7642 14.411 57.7421 14.3229 57.7145 14.2365C58.0142 14.0892 57.8663 13.8179 57.8741 13.6047C57.8936 13.0544 57.8741 13.0544 57.3253 13.1745C57.337 13.4265 57.625 13.5931 57.5394 13.8683ZM54.5151 13.942C54.5151 13.6551 54.5151 13.473 54.5151 13.2869C54.5151 13.1009 54.3361 13.1241 54.2037 13.1164C54.0714 13.1086 53.943 13.1164 53.9469 13.2908C53.9209 13.7355 53.934 14.1816 53.9858 14.6241C54.0052 14.7171 54.0208 14.8179 54.122 14.8451C54.2232 14.8722 54.3088 14.7675 54.375 14.6861C54.5038 14.4648 54.5532 14.2065 54.5151 13.9536V13.942Z" fill="#B74B38"/>
<path d="M31.1112 16.3371C31.0177 16.2762 30.944 16.1896 30.8991 16.0877C30.8542 15.9859 30.84 15.8732 30.8582 15.7635C30.8582 14.9883 30.8582 14.2131 30.8582 13.4379C30.8582 13.2906 30.9049 13.1162 30.6519 13.1123C30.3989 13.1084 30.4456 13.2945 30.4456 13.4379C30.4456 14.3797 30.4456 15.3255 30.4456 16.31C29.9902 16.0348 30.3211 15.5774 30.1226 15.2325C29.8696 15.3797 29.5854 15.5619 29.383 15.1937C29.2157 14.8914 28.8965 14.5735 29.3091 14.2208C29.4453 14.1007 29.3908 14.0232 29.2818 13.9263C29.1352 13.7848 29.0465 13.5942 29.0327 13.3914C29.0327 13.2828 29.0639 13.1045 28.8654 13.1356C28.6669 13.1666 28.7681 13.3061 28.7681 13.403C28.7681 14.2712 28.7681 15.1356 28.7681 16.0038V16.2945C28.5073 16.1898 28.5151 15.9883 28.5151 15.7867V14.5387C28.5151 14.3294 28.5462 14.1511 28.2193 14.1511C27.8923 14.1511 27.7717 14.2208 27.7444 14.5387C27.743 14.8938 27.7769 15.2483 27.8456 15.5968C27.8532 15.6845 27.8532 15.7727 27.8456 15.8604C27.5742 15.3477 27.463 14.7659 27.5264 14.1898C27.5296 14.1197 27.5474 14.0509 27.5787 13.988C27.6101 13.9251 27.6543 13.8694 27.7085 13.8245C27.7628 13.7796 27.8258 13.7465 27.8937 13.7273C27.9615 13.7081 28.0327 13.7033 28.1025 13.7131C28.301 13.7131 28.5384 13.7983 28.5423 13.4263C28.5462 13.0542 28.266 13.1511 28.0636 13.1317C27.955 13.1181 27.8452 13.1181 27.7366 13.1317C27.4097 13.1743 27.2851 13.0154 27.2773 12.6666C27.8729 12.7325 28.4684 12.5542 29.0561 12.7673L29.1223 12.7983C29.3947 12.3449 29.7761 12.7635 30.1031 12.6898C30.4463 12.6455 30.793 12.6338 31.1384 12.6549C31.3214 12.6549 31.3681 12.7635 31.4187 12.903C31.4693 13.0425 31.372 13.0929 31.2357 13.1201C30.9944 13.1666 31.1034 13.3681 31.1034 13.5076C31.1034 14.4263 31.1112 15.3565 31.1112 16.3371ZM30.1848 14.0115V13.279C30.1848 13.1588 30.1187 13.1162 30.0175 13.1084C29.8501 13.1084 29.9085 13.2247 29.9124 13.2945C29.9319 13.5168 29.905 13.7408 29.8333 13.9522C29.7616 14.1637 29.6467 14.3581 29.4959 14.5232C29.3597 14.6666 29.2896 14.7906 29.4492 14.9534C29.6088 15.1162 29.7528 15.0115 29.9007 14.9224C30.2977 14.6743 30.1693 14.279 30.1848 13.9921V14.0115ZM29.2507 13.2363C29.2507 13.465 29.2507 13.7557 29.4726 13.7906C29.6944 13.8255 29.6594 13.5232 29.6749 13.372C29.6905 13.2208 29.7255 12.8797 29.4531 12.8487C29.2468 12.8294 29.2818 13.089 29.2507 13.2363Z" fill="#B74B38"/>
<path d="M51.6889 59.1551C51.6346 59.2323 51.5646 59.2972 51.4836 59.3458C51.4025 59.3944 51.3122 59.4256 51.2183 59.4372C51.1244 59.4489 51.0291 59.4409 50.9385 59.4137C50.848 59.3864 50.7641 59.3406 50.6924 59.2792C50.5887 59.2126 50.4777 59.158 50.3616 59.1164C50.1748 59.0272 49.9724 58.9187 49.8011 59.0931C49.6299 59.2675 49.8712 59.4187 49.9179 59.5815C49.9646 59.7443 50.3694 59.9691 49.9179 60.2016C49.7583 60.2792 49.6766 60.2714 49.5909 60.1164C49.2536 59.5091 48.9098 58.9045 48.5595 58.3024C48.4583 58.1319 48.5206 58.0582 48.6646 57.9807C49.0227 57.7947 49.3691 57.5931 49.7311 57.4109C49.8549 57.3375 50.0006 57.3097 50.1429 57.3324C50.2851 57.3551 50.4149 57.4268 50.5095 57.535C50.6322 57.6327 50.7148 57.7717 50.7421 57.9258C50.7693 58.0799 50.7392 58.2386 50.6574 58.3722C50.5095 58.6047 50.6029 58.628 50.7975 58.7055C51.0856 58.8218 51.3775 58.9923 51.6889 59.1551ZM49.8556 57.8683C49.6649 58.0156 49.3107 58.0117 49.2406 58.3102C49.2134 58.4187 49.3341 58.7443 49.5403 58.6706C49.7466 58.597 50.1397 58.5156 50.1709 58.1512C50.1865 57.973 50.0775 57.8644 49.8556 57.8683Z" fill="#B74B38"/>
<path d="M35.1002 62.9805C34.843 63.0048 34.5854 62.9386 34.3721 62.7935C34.1588 62.6483 34.0033 62.4333 33.9326 62.1859C33.9092 62.0541 33.8119 61.8332 34.0454 61.8177C34.1894 61.8177 34.4347 61.7557 34.4697 62.0464C34.5047 62.337 34.7694 62.4843 35.0769 62.4882C35.1393 62.4903 35.2008 62.4727 35.2525 62.4379C35.3042 62.4031 35.3436 62.3529 35.3649 62.2944C35.4272 62.1432 35.3221 62.0541 35.2209 61.9882C35.0263 61.8603 34.8317 61.7595 34.6215 61.6316C34.4691 61.5477 34.3531 61.4107 34.2957 61.247C34.2382 61.0833 34.2434 60.9042 34.3101 60.744C34.3699 60.5946 34.4809 60.471 34.6233 60.3951C34.7657 60.3192 34.9305 60.2959 35.0886 60.3293C35.2914 60.3218 35.492 60.3735 35.6656 60.4782C35.8392 60.5829 35.9782 60.736 36.0655 60.9184C36.1239 61.0657 36.229 61.306 36.0188 61.3525C35.9316 61.3869 35.8342 61.3853 35.7481 61.3483C35.662 61.3112 35.5942 61.2417 35.5595 61.1549C35.5399 61.0811 35.5069 61.0115 35.4622 60.9495C35.3934 60.8869 35.3102 60.8422 35.2199 60.8192C35.1296 60.7962 35.0351 60.7957 34.9445 60.8177C34.9253 60.8186 34.9064 60.8235 34.889 60.8318C34.8717 60.8402 34.8562 60.852 34.8435 60.8665C34.8307 60.8809 34.8211 60.8978 34.815 60.916C34.809 60.9343 34.8067 60.9536 34.8083 60.9727C34.8083 61.1588 34.9757 61.2169 35.108 61.2944C35.2403 61.3719 35.3999 61.465 35.5439 61.558C35.6988 61.6351 35.8199 61.766 35.8844 61.9259C35.949 62.0859 35.9525 62.2638 35.8942 62.4262C35.8444 62.5944 35.7387 62.7408 35.5945 62.8415C35.4503 62.9421 35.276 62.9911 35.1002 62.9805Z" fill="#B74B38"/>
<path d="M36.5876 23.1899C36.3618 23.2092 36.2451 23.1317 36.1983 22.9302C36.1983 22.8294 36.1633 22.686 36.0037 22.7325C35.8442 22.779 35.6145 22.5968 35.5367 22.8023C35.4588 23.0077 35.6963 23.0232 35.7819 23.1356C35.8675 23.248 35.9025 23.2325 35.8325 23.372C35.5311 23.2102 35.2661 22.9886 35.054 22.7209C34.984 22.6433 34.984 22.5038 35.0891 22.4961C35.2759 22.4961 35.3537 22.4147 35.2915 22.2441C35.2292 22.0736 35.0229 22.1588 34.9022 22.1588C34.7816 22.1588 34.6142 22.1899 34.6454 22.3953C34.6765 22.6007 34.6921 22.7015 34.7232 22.8526C34.7354 22.8862 34.7387 22.9222 34.733 22.9574C34.7272 22.9926 34.7126 23.0258 34.6903 23.0537C34.6681 23.0817 34.6391 23.1035 34.606 23.1172C34.5729 23.1308 34.5369 23.1358 34.5013 23.1317C34.3184 23.1317 34.26 23.0464 34.3573 22.8643C34.4546 22.6821 34.3573 22.593 34.3106 22.4573C34.2639 22.3216 34.1744 22.3216 34.0576 22.3255C33.9409 22.3294 33.8825 22.4224 33.8942 22.5464C33.937 22.934 34.0031 23.2829 34.443 23.4224C34.6038 23.4805 34.7548 23.5629 34.8906 23.6666C34.9189 23.6816 34.9432 23.7034 34.961 23.73C34.9789 23.7567 34.9898 23.7873 34.9929 23.8191C34.996 23.851 34.9911 23.8831 34.9787 23.9126C34.9663 23.9422 34.9467 23.9682 34.9217 23.9883C34.8994 24.0054 34.8731 24.0165 34.8453 24.0205C34.8174 24.0245 34.789 24.0213 34.7628 24.0111C34.7366 24.001 34.7134 23.9843 34.6956 23.9626C34.6777 23.941 34.6658 23.9151 34.6609 23.8875C34.6142 23.6317 34.404 23.5852 34.225 23.5309C34.0481 23.5004 33.888 23.4078 33.7738 23.2698C33.6595 23.1319 33.5987 22.9578 33.6022 22.779C33.6022 22.6162 33.6022 22.4302 33.3376 22.3914C33.3182 22.3891 33.2995 22.3828 33.2826 22.3731C33.2658 22.3633 33.2511 22.3502 33.2394 22.3347C33.2278 22.3191 33.2194 22.3013 33.2149 22.2824C33.2103 22.2635 33.2097 22.2439 33.213 22.2247C33.213 22.1278 33.3298 22.1433 33.3998 22.1278C34.3301 21.9495 35.2603 21.7635 36.1906 21.5891C36.3229 21.562 36.4825 21.5038 36.5798 21.6472C36.6771 21.7906 36.4436 21.81 36.4202 21.8992C36.4016 22.143 36.432 22.3881 36.5097 22.6201C36.5331 22.8216 36.5876 22.9999 36.5876 23.1899ZM35.8091 22.4806C35.9531 22.4457 36.0933 22.3953 36.066 22.2209C36.066 22.124 36.1283 21.9418 35.922 21.9612C35.7936 21.9612 35.6184 21.9612 35.6301 22.1627C35.6418 22.2984 35.6379 22.4573 35.8091 22.4806Z" fill="#B74B38"/>
<path d="M23.1747 31.1203C23.1738 31.2471 23.1472 31.3725 23.0966 31.489C23.046 31.6054 22.9724 31.7105 22.8801 31.798C22.7879 31.8855 22.6789 31.9537 22.5597 31.9984C22.4404 32.0431 22.3134 32.0635 22.1861 32.0583C21.9361 32.0493 21.6992 31.9449 21.5246 31.7666C21.3499 31.5883 21.2509 31.3499 21.248 31.1009C21.2531 30.8442 21.3591 30.5997 21.5433 30.42C21.7274 30.2402 21.9749 30.1396 22.2328 30.1396C22.36 30.1401 22.4858 30.166 22.6027 30.216C22.7196 30.266 22.8252 30.3389 22.9132 30.4305C23.0011 30.522 23.0696 30.6303 23.1145 30.7488C23.1595 30.8673 23.1799 30.9937 23.1747 31.1203Z" fill="#B74B38"/>
<path d="M22.8598 52.1822C22.9877 52.1806 23.1146 52.2045 23.2331 52.2524C23.3516 52.3003 23.4593 52.3713 23.5499 52.4612C23.6405 52.5511 23.7122 52.658 23.7608 52.7759C23.8094 52.8937 23.8339 53.02 23.8328 53.1473C23.8328 53.4043 23.7303 53.6508 23.5478 53.8325C23.3653 54.0142 23.1178 54.1163 22.8598 54.1163C22.6017 54.1163 22.3542 54.0142 22.1717 53.8325C21.9892 53.6508 21.8867 53.4043 21.8867 53.1473C21.8867 53.0202 21.9119 52.8944 21.9609 52.7771C22.0098 52.6597 22.0815 52.5532 22.172 52.4635C22.2624 52.3738 22.3697 52.3028 22.4877 52.2545C22.6057 52.2063 22.7322 52.1817 22.8598 52.1822Z" fill="#B74B38"/>
<path d="M55.6595 32.1705C55.4694 32.1557 55.2879 32.0855 55.1377 31.9685C54.9875 31.8515 54.8753 31.693 54.8151 31.5128C54.755 31.3327 54.7495 31.1388 54.7994 30.9556C54.8494 30.7723 54.9525 30.6078 55.0958 30.4826C55.2392 30.3574 55.4164 30.2772 55.6054 30.2518C55.7944 30.2265 55.9866 30.2572 56.1581 30.3401C56.3297 30.4231 56.4728 30.5545 56.5696 30.7181C56.6665 30.8817 56.7127 31.07 56.7026 31.2596C56.6807 31.5163 56.5598 31.7546 56.3654 31.9244C56.1709 32.0942 55.9179 32.1824 55.6595 32.1705Z" fill="#B74B38"/>
<path d="M56.0477 52.9962C56.0406 53.2529 55.9318 53.4964 55.7452 53.6735C55.5585 53.8507 55.3091 53.9472 55.0513 53.9419C54.8022 53.9276 54.5675 53.821 54.3932 53.6432C54.2189 53.4653 54.1177 53.2291 54.1094 52.9807C54.1134 52.7236 54.2183 52.4783 54.4016 52.2973C54.5849 52.1162 54.832 52.0137 55.0902 52.0117C55.2181 52.0132 55.3445 52.0399 55.462 52.0903C55.5796 52.1407 55.6859 52.2138 55.7749 52.3053C55.8639 52.3969 55.9339 52.505 55.9807 52.6236C56.0275 52.7422 56.0503 52.8688 56.0477 52.9962Z" fill="#B74B38"/>
<path d="M26.9219 58.9458C26.9396 58.6893 27.0198 58.4409 27.1554 58.2222C27.291 58.0034 27.478 57.8207 27.7003 57.69C27.8922 57.5831 28.1116 57.5356 28.3307 57.5535C28.5498 57.5715 28.7585 57.6541 28.9303 57.7907C29.0504 57.8639 29.1517 57.9641 29.226 58.0832C29.3004 58.2023 29.3457 58.3371 29.3584 58.4768C29.3584 58.6047 29.4207 58.7907 29.2144 58.8024C29.0081 58.814 28.8563 58.8024 28.8252 58.5698C28.8208 58.4364 28.7672 58.3092 28.6745 58.2126C28.5819 58.1161 28.4568 58.057 28.3231 58.0465C28.0078 58 27.8327 58.2132 27.6925 58.4341C27.5942 58.5917 27.5194 58.7628 27.4707 58.9419C27.437 59.0468 27.4377 59.1597 27.4727 59.2642C27.5077 59.3687 27.5751 59.4595 27.6653 59.5233C27.7467 59.5988 27.8538 59.6407 27.965 59.6407C28.0762 59.6407 28.1833 59.5988 28.2647 59.5233C28.5371 59.2791 28.6773 59.5233 28.7707 59.6706C28.8641 59.8179 28.6422 59.9497 28.5216 60.0194C27.8716 60.4303 26.9336 59.8411 26.9219 58.9458Z" fill="#B74B38"/>
<path d="M28.0638 24.3486C28.2895 24.3486 28.453 24.3486 28.5231 24.682C28.6778 25.0508 28.895 25.3903 29.1653 25.6858C28.924 25.8254 28.7761 25.7168 28.6827 25.5502C28.5892 25.3835 28.4141 25.1626 28.2934 24.9765C28.2156 24.868 28.1455 24.7827 27.9937 24.8758C27.8419 24.9688 27.8847 25.0967 27.9704 25.2207L28.5815 26.0967C28.3752 26.2052 28.2312 26.1742 28.1222 26.0037C28.1125 25.9748 28.0954 25.949 28.0726 25.9287C28.0498 25.9085 28.022 25.8945 27.9921 25.8882C27.9622 25.882 27.9312 25.8836 27.9021 25.893C27.873 25.9023 27.8469 25.9191 27.8264 25.9417C27.7096 26.0269 27.4644 25.9649 27.48 26.182C27.4955 26.399 27.6979 26.3137 27.8186 26.3719C27.8559 26.3859 27.8898 26.4076 27.918 26.4357C27.9461 26.4638 27.968 26.4975 27.9821 26.5347C27.5962 26.529 27.2184 26.4249 26.8844 26.2324C26.7755 26.1665 26.8377 26.0967 26.9389 26.0386C27.0401 25.9804 27.0285 25.8564 26.9389 25.7595C26.8494 25.6626 26.7599 25.6742 26.6665 25.7595C26.5731 25.8448 26.4291 25.9029 26.2539 25.7285C26.7249 25.399 27.1841 25.0851 27.6395 24.7556C27.7797 24.6548 27.9859 24.6044 28.0288 24.368L28.0638 24.3486ZM27.4877 25.244C27.3904 25.3176 27.2231 25.3409 27.2542 25.4959C27.2853 25.651 27.3515 25.7789 27.515 25.7711C27.5464 25.7707 27.5773 25.7639 27.6059 25.7509C27.6345 25.7379 27.66 25.7192 27.6809 25.6958C27.7018 25.6725 27.7175 25.6451 27.7272 25.6153C27.7368 25.5856 27.7401 25.5541 27.7368 25.5231C27.732 25.4557 27.705 25.3918 27.6599 25.3413C27.6149 25.2909 27.5544 25.2566 27.4877 25.244Z" fill="#B74B38"/>
<path d="M43.0485 62.8836C42.815 62.9649 42.7838 62.8487 42.7566 62.7169C42.6165 62.0386 42.4764 61.3603 42.3207 60.6859C42.2701 60.4533 42.418 60.4262 42.5698 60.3913C42.7216 60.3564 42.8344 60.3603 42.8734 60.558C43.0096 61.2556 43.1497 61.9494 43.3054 62.6394C43.3755 62.9572 43.1069 62.8293 43.0485 62.8836Z" fill="#B74B38"/>
<path d="M46.439 16.1938H46.5635C46.7464 16.5814 46.9527 16.969 46.8243 17.4264C46.6959 17.8838 46.4351 17.9031 46.1509 17.6125C45.9306 17.4278 45.7911 17.1651 45.7617 16.8799C45.9524 16.8993 45.9485 17.1008 46.0614 17.1977C46.1111 17.2479 46.1743 17.2826 46.2433 17.2978C46.3124 17.3129 46.3844 17.3078 46.4506 17.283C46.5018 17.2625 46.5444 17.2252 46.5713 17.1772C46.5983 17.1293 46.6079 17.0736 46.5985 17.0194C46.5985 16.8295 46.4662 16.8528 46.3417 16.8411C46.2787 16.8356 46.2189 16.8112 46.1703 16.771C46.1216 16.7309 46.0863 16.6769 46.0692 16.6163C46.0381 16.3683 46.3417 16.3605 46.439 16.1938Z" fill="#DF8B3E"/>
<path d="M27.7952 24.2285C27.297 24.1859 27.2192 24.2866 27.406 24.7556C27.3043 24.739 27.2109 24.6893 27.1405 24.6142C27.0701 24.5392 27.0266 24.4431 27.0168 24.3409C27.0104 24.2702 27.0303 24.1996 27.0726 24.1425C27.1149 24.0854 27.1767 24.0457 27.2464 24.0308C27.3519 23.9803 27.4722 23.9693 27.5851 23.9999C27.6981 24.0305 27.7962 24.1007 27.8614 24.1975L27.7952 24.2285Z" fill="#B74B38"/>
<path d="M19.0713 11.7366C18.9974 11.3994 18.4719 11.2599 18.6821 10.7754C19.0713 10.9847 19.1336 11.3723 19.2348 11.7328L19.0713 11.7366Z" fill="#B74B38"/>
<path d="M48.2988 11.1396C48.3599 11.1898 48.4092 11.2529 48.443 11.3242C48.4768 11.3956 48.4943 11.4735 48.4943 11.5524C48.4943 11.6313 48.4768 11.7093 48.443 11.7806C48.4092 11.852 48.3599 11.915 48.2988 11.9652C48.235 11.9168 48.1834 11.8543 48.1478 11.7827C48.1122 11.7111 48.0938 11.6323 48.0938 11.5524C48.0938 11.4726 48.1122 11.3938 48.1478 11.3222C48.1834 11.2506 48.235 11.1881 48.2988 11.1396Z" fill="#B74B38"/>
<path d="M34.6598 12.6396H34.4847C34.488 12.5515 34.4681 12.4641 34.4272 12.3859C34.3862 12.3078 34.3256 12.2416 34.2511 12.1939C34.0254 12.0699 34.0799 11.8799 34.0254 11.6357C34.5236 11.8567 34.5197 12.2947 34.6598 12.6396Z" fill="#DF8B3E"/>
<path d="M19.0727 12.5583H19.0376H18.9987C18.9213 12.3934 18.8002 12.2527 18.6484 12.1513C18.4694 12.0621 18.5239 11.8683 18.5628 11.6396C18.7201 11.7359 18.8498 11.8712 18.9391 12.0321C19.0285 12.1931 19.0745 12.3743 19.0727 12.5583Z" fill="#DF8B3E"/>
<path d="M44.4376 22.1475H44.3986C44.2313 21.9343 44.1573 21.7017 44.3986 21.4963C44.5582 21.3452 44.7295 21.3917 44.9007 21.6281C44.5115 21.632 44.4142 21.849 44.4376 22.1475Z" fill="#DF8B3E"/>
<path d="M55.7559 11.376L55.8765 11.2559C56.1387 11.5323 56.2897 11.8951 56.3008 12.2752C56.1396 11.9636 55.9576 11.6632 55.7559 11.376Z" fill="#DF8B3E"/>
<path d="M19.0723 11.7363H19.2163C19.3223 12.0014 19.3866 12.2812 19.407 12.5658L19.263 12.6549C19.2046 12.3449 19.1423 12.0425 19.0723 11.7363Z" fill="#DF8B3E"/>
<path d="M27.9646 24.252L28.0619 24.3489L28.0152 24.3837L27.9062 24.3062L27.9646 24.252Z" fill="#B74B38"/>
<path d="M27.8494 24.1821L27.9662 24.2519L27.9078 24.3062L27.7949 24.2286L27.8494 24.1821Z" fill="#B74B38"/>
<path d="M62.7117 70.7095C63.533 70.7095 63.533 70.7095 63.533 71.4847C63.533 72.1397 63.533 72.1397 62.8168 72.1397C61.8515 72.1397 61.8788 72.1397 61.8438 71.2172C61.8438 70.7792 61.9722 70.6358 62.3848 70.6978C62.4933 70.7095 62.6026 70.7133 62.7117 70.7095Z" fill="#B74B38"/>
<path d="M45.0479 70.7094C45.8458 70.7094 45.8458 70.7094 45.8263 71.5311C45.8263 72.0659 45.6473 72.2249 45.0479 72.2171C44.4485 72.2094 44.2422 72.0156 44.2383 71.5194V71.4768C44.2539 70.7016 44.2538 70.7016 45.0479 70.7094Z" fill="#B74B38"/>
<path d="M52.3229 71.3878C52.3229 72.0777 52.1866 72.225 51.5444 72.2172C50.9022 72.2095 50.7193 72.0002 50.7271 71.2909C50.7348 70.5816 50.6375 70.7133 51.381 70.7095C52.3229 70.7056 52.3229 70.7095 52.3229 71.3878Z" fill="#B74B38"/>
<path d="M56.5502 72.6937C56.5255 72.7927 56.4677 72.8804 56.3864 72.9424C56.3051 73.0044 56.205 73.037 56.1026 73.0348C56.0563 73.0405 56.0092 73.0355 55.9651 73.0204C55.921 73.0052 55.8809 72.9803 55.8479 72.9474C55.8149 72.9145 55.7898 72.8746 55.7746 72.8307C55.7594 72.7867 55.7544 72.7399 55.7601 72.6937C55.7601 72.4263 55.9313 72.3527 56.1493 72.3682C56.2436 72.3681 56.335 72.4004 56.4081 72.4598C56.4811 72.5191 56.5313 72.6018 56.5502 72.6937Z" fill="#B74B38"/>
<path d="M20.9166 70.7092C21.7651 70.7092 21.7651 70.7092 21.7651 71.5542C21.7651 72.1472 21.7651 72.1472 21.1696 72.1472H20.8933C20.0681 72.1472 20.0642 72.1472 20.0681 71.3216C20.0681 70.6201 19.9786 70.717 20.6831 70.7092H20.9166Z" fill="#B74B38"/>
<path d="M24.008 71.5385C24.0158 71.447 24.0158 71.3549 24.008 71.2633C23.9341 70.8254 24.0859 70.6936 24.5491 70.6858C25.0122 70.6781 25.2068 70.8331 25.1407 71.306C25.1231 71.5537 25.1231 71.8024 25.1407 72.0502C25.1528 72.1334 25.1451 72.2183 25.1181 72.298C25.0911 72.3777 25.0456 72.4499 24.9853 72.5089C24.925 72.5678 24.8516 72.6117 24.7711 72.637C24.6906 72.6624 24.6052 72.6685 24.5218 72.6548C24.1326 72.6548 23.9886 72.4106 23.9925 72.0502C24.0054 71.8796 24.0106 71.7091 24.008 71.5385Z" fill="#B74B38"/>
<path d="M29.6984 71.6553C30.1343 71.6553 30.9284 72.0041 30.8661 72.1902C30.7221 72.5235 30.329 72.6049 30.0176 72.7522C29.8043 72.8447 29.5728 72.8884 29.3403 72.8801C29.2095 72.901 29.0755 72.873 28.9641 72.8014C28.8527 72.7299 28.7719 72.6198 28.737 72.4925C28.7066 72.356 28.7249 72.2131 28.7888 72.0886C28.8528 71.964 28.9583 71.8656 29.0873 71.8103C29.2759 71.7115 29.4853 71.6584 29.6984 71.6553Z" fill="#B74B38"/>
<path d="M14.7363 71.7054C15.1046 71.6772 15.4696 71.791 15.756 72.0232C15.9078 72.1434 15.9312 72.2635 15.721 72.3682C15.4011 72.5569 15.038 72.661 14.6662 72.6705C14.351 72.6705 14.0435 72.6007 14.0279 72.2209C14.0123 71.8411 14.3276 71.7674 14.6234 71.7093C14.6606 71.702 14.6987 71.7007 14.7363 71.7054Z" fill="#B74B38"/>
<path d="M23.0078 42.2094C24.4985 42.2831 25.9931 42.2366 27.4839 42.2327H48.8599C49.2491 42.1823 49.6383 42.3257 49.9848 42.1436C50.265 42.3374 50.5764 42.2288 50.8761 42.2288H51.818L54.9318 42.2482C54.8049 42.8675 54.6199 43.4735 54.3791 44.0583C53.6512 46.2598 52.9039 48.4536 52.1878 50.6474C52.1737 50.7283 52.1436 50.8057 52.0993 50.8749C52.055 50.9442 51.9973 51.004 51.9296 51.0509C51.8619 51.0977 51.7855 51.1308 51.7049 51.148C51.6242 51.1652 51.541 51.1664 51.4599 51.1513C50.4363 51.1242 49.4087 51.1513 48.3851 51.1513C48.2916 51.1513 48.1982 51.1513 48.1048 51.1513L29.5428 51.0854C28.3168 51.0854 27.0907 51.0854 25.8647 51.0854C25.5767 51.0854 25.4366 51.0234 25.3509 50.6978C24.5842 47.8684 23.794 45.0389 23.0078 42.2094ZM37.2728 45.0234H35.136C34.4392 45.0234 34.4509 45.0234 34.4743 45.7443C34.4743 45.9885 34.5638 46.0622 34.8012 46.0622C35.904 46.0622 37.0081 46.0622 38.1135 46.0622C38.347 46.0622 38.4093 45.973 38.3937 45.756C38.358 45.3237 38.2624 44.8985 38.1096 44.4924C37.4324 42.6358 35.4824 41.7792 33.8282 42.6862C32.7189 43.2753 32.1973 44.287 31.9988 45.4963C31.7186 47.1823 32.7773 49.0428 34.2875 49.5389C35.7976 50.035 37.5803 49.2288 37.9734 47.7521C37.4401 47.7521 36.9653 47.6707 36.5021 48.1397C36.3045 48.3227 36.0707 48.4628 35.8158 48.551C35.5608 48.6393 35.2902 48.6737 35.0212 48.6522C34.7522 48.6307 34.4906 48.5537 34.253 48.4261C34.0155 48.2985 33.8072 48.1231 33.6413 47.911C33.2877 47.4937 33.0575 46.9868 32.9764 46.4468C32.8953 45.9067 32.9665 45.3549 33.1821 44.8529C33.3294 44.4334 33.6002 44.0679 33.9591 43.8038C34.318 43.5397 34.7484 43.3893 35.1943 43.3722C36.1246 43.38 36.903 43.973 37.2728 45.0234ZM46.8866 45.6048L46.8048 45.5738C46.8048 44.6552 46.8048 43.7327 46.8048 42.8102C46.8048 42.4691 46.618 42.4691 46.3922 42.4963C46.1665 42.5234 45.8629 42.349 45.8629 42.7947C45.8629 44.942 45.8629 47.0919 45.8629 49.2443C45.8629 49.4846 45.9369 49.5738 46.1821 49.5699C46.727 49.5699 47.2719 49.5699 47.8129 49.5699C48.7509 49.5156 49.5527 49.2249 49.8875 48.2288C50.3857 46.7521 49.8291 45.6474 48.3072 45.1552L49.9886 42.5699C49.8345 42.506 49.6688 42.4739 49.5018 42.4756C49.3348 42.4773 49.1699 42.5127 49.0171 42.5798C48.8642 42.6468 48.7266 42.7441 48.6126 42.8656C48.4987 42.9872 48.4106 43.1305 48.3539 43.287C47.9413 44.0854 47.3848 44.8296 46.8866 45.6048ZM25.3003 46.0195C25.2713 46.9904 25.6231 47.9343 26.2812 48.6513C26.5957 49.0252 26.9991 49.3151 27.4546 49.4945C27.9101 49.6739 28.4034 49.7372 28.8898 49.6787C29.3761 49.6202 29.8401 49.4417 30.2396 49.1594C30.6391 48.8771 30.9615 48.5 31.1776 48.0622C31.2321 47.9575 31.3955 47.8335 31.2009 47.7172C30.9998 47.6727 30.7915 47.6719 30.59 47.7147C30.3885 47.7575 30.1986 47.8429 30.0333 47.9653C29.8389 48.1827 29.5997 48.3558 29.3321 48.4727C29.0644 48.5897 28.7746 48.6478 28.4823 48.643C28.19 48.6382 27.9022 48.5707 27.6386 48.445C27.3749 48.3194 27.1416 48.1385 26.9545 47.9149C26.5225 47.3918 26.2799 46.7391 26.2658 46.062C26.2517 45.3849 26.4669 44.7228 26.8767 44.1823C27.0601 43.942 27.2949 43.7454 27.5641 43.6067C27.8333 43.468 28.1301 43.3906 28.433 43.3802C28.7359 43.3698 29.0373 43.4267 29.3155 43.5466C29.5936 43.6666 29.8414 43.8467 30.041 44.0738C30.4004 44.2583 30.8108 44.3196 31.2087 44.2482C31.3021 44.1668 31.2321 44.0854 31.2087 44.004C30.9253 43.4308 30.4656 42.9626 29.8964 42.6677C29.3272 42.3728 28.6784 42.2666 28.0443 42.3645C26.4291 42.6939 25.3003 44.1862 25.3003 46.0195ZM44.9171 44.256C44.7525 43.8135 44.4833 43.4171 44.1321 43.1004C43.781 42.7836 43.3583 42.5559 42.9 42.4365C42.4416 42.317 41.9611 42.3094 41.4992 42.4143C41.0372 42.5192 40.6075 42.7334 40.2464 43.0389C39.757 43.4677 39.3825 44.0111 39.1569 44.6202C38.9313 45.2292 38.8616 45.8847 38.9542 46.5273C39.0045 47.4015 39.3964 48.2215 40.0459 48.8118C40.6954 49.4021 41.5511 49.716 42.43 49.6862C43.5976 49.6203 44.6797 48.756 44.8821 47.7482C44.0647 47.6591 44.0647 47.6591 43.4925 48.1668C43.1108 48.4926 42.6218 48.6668 42.1191 48.6561C41.6164 48.6453 41.1354 48.4505 40.768 48.1087C40.2916 47.6252 39.9938 46.9953 39.9232 46.3217C39.8525 45.648 40.0131 44.9704 40.3788 44.3994C41.1027 43.318 42.5779 43.0001 43.4381 43.8567C43.9051 44.318 44.3722 44.2831 44.9288 44.256H44.9171ZM51.8141 46.0467C51.8141 44.9924 51.8141 43.9381 51.8141 42.8839C51.8141 42.5312 51.674 42.4614 51.3743 42.4963C51.0746 42.5312 50.8488 42.411 50.8527 42.8606C50.8722 44.9808 50.8527 47.1242 50.8527 49.2288C50.8527 49.6436 51.1018 49.566 51.3431 49.5738C51.5845 49.5815 51.8258 49.6125 51.818 49.2133C51.8102 48.1513 51.8258 47.1009 51.8258 46.0467H51.8141Z" fill="#DF8B3E"/>
<path d="M36.2638 42.2481H34.1347C32.5778 41.4264 31.8811 40.1047 31.959 38.3721C32.0602 36.2403 33.9401 34.6706 35.894 35.0853C36.3375 35.1781 36.7527 35.3739 37.1058 35.6568C37.4589 35.9397 37.7398 36.3016 37.9257 36.7132C38.0347 36.9341 37.988 37.0078 37.735 37.0078C37.5108 37.0336 37.2836 37.0106 37.0693 36.9403C36.8549 36.87 36.6584 36.7542 36.4934 36.6008C35.4192 35.5581 33.7105 36.1318 33.1461 37.6628C32.9442 38.1861 32.8966 38.756 33.009 39.3054C33.1214 39.8547 33.3891 40.3606 33.7805 40.7636C34.7302 41.6628 36.4156 41.6085 37.1979 39.9419C37.3263 39.6667 37.1278 39.7016 36.9799 39.7016C36.2638 39.7016 35.5476 39.6744 34.8353 39.7016C34.3332 39.7248 34.485 39.3954 34.4734 39.1473C34.4617 38.8992 34.3955 38.6318 34.8392 38.6473C35.8979 38.6744 36.9566 38.6706 38.0153 38.6473C38.3734 38.6473 38.4317 38.7868 38.4045 39.0853C38.2254 40.4147 37.6883 41.5116 36.4272 42.1473C36.3704 42.1769 36.3157 42.2106 36.2638 42.2481Z" fill="#B74B38"/>
<path d="M49.9834 42.1397C49.6215 42.3218 49.2322 42.1784 48.8586 42.2288L46.9125 39.128L46.8152 39.1745V42.2482H45.8927C45.8927 40.0001 45.8927 37.7559 45.8927 35.5117C45.8927 35.3722 45.8266 35.159 46.0757 35.1668C46.8814 35.19 47.6987 35.0621 48.4927 35.2521C49.5436 35.504 50.0808 36.2443 50.0885 37.4032C50.1308 37.8853 49.9964 38.3664 49.7103 38.7575C49.4241 39.1487 49.0054 39.4234 48.5317 39.5311L48.3682 39.5815L49.9834 42.1397ZM47.329 38.8296C47.5588 38.8092 47.7875 38.7769 48.014 38.7327C48.843 38.5311 49.1817 38.0893 49.1155 37.2714C49.0688 36.6009 48.6951 36.2676 47.8583 36.1629C47.6287 36.1358 47.3951 36.1629 47.1655 36.128C46.8658 36.1009 46.7996 36.2404 46.8074 36.5156C46.8074 37.1203 46.8385 37.7249 46.8074 38.3257C46.7763 38.7598 46.9203 38.8877 47.329 38.8296Z" fill="#B74B38"/>
<path d="M29.6236 42.248H27.4829C25.8598 41.4108 25.2137 40.0542 25.3149 38.279C25.4278 36.2131 27.3233 34.655 29.2071 35.0968C29.7015 35.2045 30.1585 35.4405 30.5318 35.7808C30.905 36.1212 31.1812 36.5538 31.3323 37.0348C30.7562 37.0348 30.2891 37.1123 29.8299 36.6123C29.0514 35.7829 27.7125 35.9496 26.9457 36.841C26.5447 37.3387 26.3128 37.9503 26.2834 38.5878C26.254 39.2252 26.4287 39.8554 26.7823 40.3875C26.952 40.6575 27.1833 40.8836 27.4574 41.0477C27.7315 41.2118 28.0406 41.3091 28.3596 41.3318C28.6786 41.3545 28.9985 41.3018 29.2932 41.1782C29.5879 41.0545 29.8491 40.8633 30.0556 40.6201C30.4033 40.4343 30.8049 40.374 31.1921 40.4496C31.3945 40.562 31.2311 40.6899 31.1921 40.7945C30.8346 41.4303 30.286 41.9385 29.6236 42.248Z" fill="#B74B38"/>
<path d="M43.2341 42.2483H41.1129C38.6102 41.0429 38.544 38.1204 39.4898 36.6165C40.6224 34.8103 42.8838 34.4654 44.3006 35.9111C44.6055 36.2229 44.8333 36.6011 44.9662 37.0157C44.429 37.0157 43.9697 37.1475 43.5338 36.6514C43.1856 36.3012 42.7165 36.0962 42.2219 36.0782C41.7274 36.0602 41.2445 36.2305 40.8715 36.5545C39.5365 37.6863 39.626 40.0429 41.035 40.977C41.4339 41.2553 41.9215 41.3779 42.4053 41.3214C42.889 41.265 43.335 41.0334 43.6584 40.6708C44.0166 40.4478 44.4456 40.3662 44.8611 40.4421C45.0051 40.5312 44.9 40.632 44.8611 40.7173C44.5884 41.2796 44.1462 41.7431 43.5961 42.0429L43.2341 42.2483Z" fill="#B74B38"/>
<path d="M51.8169 42.2481H50.875C50.875 40.0078 50.875 37.7636 50.875 35.5233C50.875 35.0698 51.1474 35.1822 51.3927 35.1706C51.6379 35.159 51.8558 35.1396 51.8519 35.5311C51.813 37.7481 51.8208 39.9923 51.8169 42.2481Z" fill="#B74B38"/>
<path d="M57.5351 13.8604C57.6831 13.8604 57.7181 13.934 57.6325 14.058C57.5235 14.0309 57.5079 13.9534 57.5351 13.8604Z" fill="#B74B38"/>
<path d="M57.6273 14.0464C57.7869 14.0464 57.7908 14.1278 57.7246 14.2441C57.604 14.2169 57.604 14.1394 57.6273 14.0464Z" fill="#B74B38"/>
<path d="M46.8029 47.213C46.8185 46.9031 46.8185 46.5926 46.8029 46.2828C46.7718 45.9417 46.9197 45.8409 47.231 45.8952C47.5424 45.9494 47.7915 45.9262 48.064 45.9766C48.8424 46.12 49.1849 46.6355 49.1266 47.4727C49.0837 48.1161 48.6361 48.5153 47.9044 48.5657C46.8107 48.6432 46.8107 48.6432 46.8107 47.5463L46.8029 47.213Z" fill="#DF8B3E"/>
</g>
<defs>
<clipPath id="clip0_950_4570">
<rect width="78" height="80" fill="white"/>
</clipPath>
</defs>
</svg>
