<svg width="81" height="74" viewBox="0 0 81 74" fill="none" xmlns="http://www.w3.org/2000/svg">
<path fill-rule="evenodd" clip-rule="evenodd" d="M7.27844 23.4187L0.535156 29.549L16.7803 47.4801H22.3087H50.1481H57.0868L75.1712 60.5069L80.5352 54.6832L79.4624 30.4685H47.1251V13.4569C47.3959 6.18375 48.0355 2.55322 43.7535 1.01357C41.0021 -0.768105 36.5887 -0.0426903 33.6086 4.62441C29.7289 3.72685 26.6534 8.16987 26.5887 11.4647L27.8325 11.954L34.5455 14.5951L35.9374 15.1427C37.7254 13.5079 40.8416 9.62544 35.9374 5.79409C38.8493 1.34959 43.7535 2.42237 43.7535 7.63313V30.4685H32.5657V37.5184H20.4584L7.27844 23.4187ZM60.3052 37.5184H35.9374V33.2272H76.857L77.4947 52.1034L60.3052 37.5184Z" fill="white"/>
<path d="M27.8325 11.954C27.8325 11.954 26.5528 15.4472 29.5593 16.8526C32.5657 18.258 34.5455 14.5951 34.5455 14.5951L27.8325 11.954Z" fill="#F06F38"/>
<path d="M29.5593 52.1034C29.5593 52.1034 37.1046 61.0234 41.9393 66.7389C43.1562 66.4842 45.6577 66.9043 47.1251 66.7389L33.6086 52.1034H29.5593Z" fill="white"/>
<path d="M22.3087 47.4801L25.2651 52.1034H29.5593H33.6086H45.9599L50.1481 47.4801H22.3087Z" fill="white"/>
<path d="M75.1712 73.6372V66.7389H69.1184H29.5593H16.7803V73.6372H75.1712Z" fill="#F06F38"/>
</svg>
