<svg width="18" height="17" viewBox="0 0 18 17" fill="none" xmlns="http://www.w3.org/2000/svg">
<path d="M17 14.5C17.2549 14.5003 17.5 14.5979 17.6854 14.7728C17.8707 14.9478 17.9822 15.187 17.9972 15.4414C18.0121 15.6958 17.9293 15.9464 17.7657 16.1418C17.6021 16.3373 17.3701 16.4629 17.117 16.493L17 16.5H1C0.74512 16.4997 0.499968 16.4021 0.314632 16.2272C0.129296 16.0522 0.017765 15.813 0.00282788 15.5586C-0.0121092 15.3042 0.0706746 15.0536 0.234265 14.8582C0.397855 14.6627 0.629904 14.5371 0.883 14.507L1 14.5H17ZM17 7.5C17.2652 7.5 17.5196 7.60536 17.7071 7.79289C17.8946 7.98043 18 8.23478 18 8.5C18 8.76522 17.8946 9.01957 17.7071 9.20711C17.5196 9.39464 17.2652 9.5 17 9.5H1C0.734784 9.5 0.48043 9.39464 0.292893 9.20711C0.105357 9.01957 0 8.76522 0 8.5C0 8.23478 0.105357 7.98043 0.292893 7.79289C0.48043 7.60536 0.734784 7.5 1 7.5H17ZM17 0.5C17.2652 0.5 17.5196 0.605357 17.7071 0.792893C17.8946 0.98043 18 1.23478 18 1.5C18 1.76522 17.8946 2.01957 17.7071 2.20711C17.5196 2.39464 17.2652 2.5 17 2.5H1C0.734784 2.5 0.48043 2.39464 0.292893 2.20711C0.105357 2.01957 0 1.76522 0 1.5C0 1.23478 0.105357 0.98043 0.292893 0.792893C0.48043 0.605357 0.734784 0.5 1 0.5H17Z" fill="#0D1924"/>
</svg>
