<svg width="81" height="80" viewBox="0 0 81 80" fill="none" xmlns="http://www.w3.org/2000/svg">
<path d="M20.2326 66.0396L21.053 64.9074L16.0539 60.1788L12.2604 62.2158L11.804 62.2872L8.42829 61.6593L8.10143 61.5981L7.94169 61.3091L5.9003 57.6193L5.73661 57.3226L5.87035 57.0102L7.04822 54.2622L7.33265 53.937L11.3789 51.5247L9.71242 44.9596L5.46617 45.0112L5.04803 44.8776L2.4749 43.006L2.20261 42.8078L2.18475 42.4757L1.95076 38.0894L1.93164 37.7299L2.21585 37.5048L5.02355 35.2824L5.4492 35.1317L9.44668 35.0807L10.8233 28.2989L7.68246 26.0476L7.45553 25.7717L5.93492 22.4964L5.77333 22.1487L5.97876 21.8274L8.25956 18.2598L8.44677 17.9669L8.79237 17.9376L12.1846 17.6451L12.5863 17.738L16.0502 19.7027L21.0431 14.8608L18.8594 11.6613L18.7363 11.2211L18.9701 7.71211L18.9944 7.35363L19.3039 7.16317L23.1053 4.82388L23.394 4.64593L23.7117 4.76353L26.87 5.93324L27.2143 6.2063L29.4038 9.54224L36.0029 8.01979L36.1066 3.7065L36.2707 3.27505L38.3762 0.760345L38.5939 0.500145L38.928 0.509087L43.3728 0.625992L43.7192 0.634926L43.9221 0.912636L45.9691 3.71973L46.1028 4.09701L46.3089 7.95985L52.7608 9.48389L55.1791 5.9615L55.5287 5.69404L58.7456 4.58266L59.0824 4.46652L59.3739 4.66998L62.8829 7.1265L63.1559 7.31772L63.1806 7.65102L63.4144 10.8094L63.3107 11.2219L61.0839 14.8473L65.8283 19.5913L69.8735 17.4374L70.2643 17.3584L73.4806 17.6508L73.8509 17.6845L74.03 18.0087L76.1938 21.9272L76.3572 22.2232L76.2238 22.5364L75.0544 25.2853L74.8193 25.5802L71.2751 28.1196L72.7571 34.8655L77.1354 35.0742L77.5399 35.2299L79.9376 37.1595L80.2142 37.3828L80.2004 37.7308L80.025 41.942L80.0108 42.2808L79.7352 42.4799L76.9865 44.4683L76.5929 44.6023L72.4161 44.7055L71.043 51.673L74.6374 53.7042L74.9298 54.0235L76.2162 56.8312L76.3565 57.1369L76.2052 57.4348L74.3337 61.1193L74.1776 61.4259L73.842 61.4909L70.5085 62.1342L70.0574 62.0684L65.8984 59.9104L61.1869 64.8222L62.2554 66.1588L63.1689 67.3003L61.709 67.2939L20.7979 67.1478L19.4319 67.1414L20.2325 66.0372L20.2326 66.0396Z" fill="#9C1116" stroke="#9C1116" stroke-width="0.583793" stroke-miterlimit="2.61313"/>
<path d="M22.5446 65.2295L22.164 65.7544L60.25 65.8906L59.7127 65.2188L59.3308 64.7417L59.7565 64.2979L65.2541 58.5665L65.6148 58.1905L66.0765 58.4303L70.4825 60.7164L73.2438 60.1836L74.8084 57.1035L73.7573 54.8106L69.9185 52.6414L69.4771 52.3913L69.5747 51.898L71.1535 43.8856L71.2623 43.3338L71.8229 43.3198L76.3444 43.208L78.6404 41.5477L78.7869 38.024L76.8464 36.4617L72.1574 36.2383L71.6227 36.2128L71.5073 35.6863L69.8112 27.966L69.7127 27.5188L70.0871 27.2504L73.8484 24.5559L74.8069 22.3025L72.9855 19.0043L70.3455 18.7645L66.0261 21.0642L65.568 21.3081L65.2037 20.9441L59.7061 15.446L59.3169 15.0572L59.6048 14.5883L62 10.6896L61.8067 8.08211L58.8623 6.02092L56.1999 6.94076L53.6416 10.6666L53.3696 11.0627L52.9067 10.9536L45.479 9.19892L44.9658 9.07749L44.9385 8.55394L44.7155 4.37635L42.9937 2.0152L39.2299 1.91613L37.5002 3.9821L37.3891 8.59333L37.3757 9.13499L36.845 9.2575L29.242 11.0116L28.7686 11.1208L28.5016 10.7142L26.1713 7.16336L23.5488 6.19201L20.3455 8.16327L20.1511 11.077L22.5274 14.5584L22.8581 15.0433L22.4371 15.452L16.647 21.0666L16.2714 21.4308L15.8164 21.1728L12.0935 19.0612L9.25311 19.306L7.36477 22.2598L8.64457 25.0167L12.006 27.4259L12.3741 27.6897L12.2847 28.1308L10.7055 35.9093L10.5929 36.4647L10.0279 36.4724L5.70628 36.5278L3.36914 38.3783L3.5661 42.0727L5.67951 43.6097L10.2452 43.5536L10.7949 43.5466L10.9313 44.0831L12.8612 51.6866L12.9884 52.188L12.5416 52.454L8.24255 55.0169L7.28873 57.243L9.00591 60.3476L11.8149 60.8701L15.8387 58.7092L16.2846 58.4694L16.65 58.8156L22.4597 64.3112L22.9045 64.7322L22.5446 65.2289L22.5446 65.2295Z" fill="white" stroke="#9C1116" stroke-width="0.583793" stroke-miterlimit="2.61313"/>
<path fill-rule="evenodd" clip-rule="evenodd" d="M20.0575 35.4354L28.7474 29.4897L28.9002 34.673L37.2853 29.1085V34.3681L45.9756 29.6421L46.0517 34.2157L54.5896 29.4897L54.742 34.2157L62.8223 29.6421L63.5847 43.0585L61.8316 43.1344L20.4386 43.2109L18.228 43.3633L18.4564 35.3593L20.0575 35.4354Z" fill="#9C1116" stroke="#9C1116" stroke-width="1.10127" stroke-miterlimit="2.61313"/>
<path d="M41.1496 16.3041H41.1503C47.4673 16.3041 53.2033 18.9128 57.3604 23.1206C61.5131 27.3245 64.0882 33.1246 64.0886 39.5125V39.5138V39.5145C64.0886 45.9032 61.5131 51.7041 57.3596 55.9079C53.2033 60.115 47.4677 62.7237 41.1511 62.7241H41.1497H41.1491C34.8317 62.7241 29.0957 60.1154 24.939 55.9076C20.7859 51.7037 18.2108 45.9034 18.2104 39.5157V39.5143C18.2108 33.1257 20.7859 27.3245 24.9394 23.1207C29.0961 18.9134 34.8317 16.3049 41.1483 16.3045H41.1496V16.3041ZM41.1503 17.7027H41.1496H41.1483C35.2173 17.703 29.8337 20.1506 25.9338 24.0982C22.0299 28.0496 19.6094 33.5041 19.6094 39.5137V39.5153C19.6098 45.5237 22.0299 50.9778 25.9334 54.9291C29.8337 58.8772 35.2177 61.3248 41.1491 61.3248H41.1498H41.1511C47.0817 61.3248 52.4654 58.8772 56.3652 54.9295C60.2691 50.9782 62.6896 45.5237 62.6896 39.5141V39.5134V39.5121C62.6896 33.5037 60.2691 28.0492 56.366 24.0981C52.4654 20.1502 47.0817 17.7026 41.1503 17.7023" fill="#9C1116"/>
<path fill-rule="evenodd" clip-rule="evenodd" d="M20.896 36.2741H23.1832V37.9512H20.896V36.2741Z" fill="white"/>
<path fill-rule="evenodd" clip-rule="evenodd" d="M24.6313 36.2741H26.9181V37.9512H24.6313V36.2741Z" fill="white"/>
<path fill-rule="evenodd" clip-rule="evenodd" d="M29.6626 36.2741H31.9493V37.9512H29.6626V36.2741Z" fill="white"/>
<path fill-rule="evenodd" clip-rule="evenodd" d="M33.5498 36.2741H35.8368V37.9512H33.5498V36.2741Z" fill="white"/>
<path fill-rule="evenodd" clip-rule="evenodd" d="M37.8188 36.2741H40.1059V37.9512H37.8188V36.2741Z" fill="white"/>
<path fill-rule="evenodd" clip-rule="evenodd" d="M41.8589 36.2741H44.1459V37.9512H41.8589V36.2741Z" fill="white"/>
<path fill-rule="evenodd" clip-rule="evenodd" d="M46.0518 36.2741H48.3388V37.9512H46.0518V36.2741Z" fill="white"/>
<path fill-rule="evenodd" clip-rule="evenodd" d="M50.3203 36.2741H52.6073V37.9512H50.3203V36.2741Z" fill="white"/>
<path fill-rule="evenodd" clip-rule="evenodd" d="M54.5132 36.2741H56.8002V37.9512H54.5132V36.2741Z" fill="white"/>
<path fill-rule="evenodd" clip-rule="evenodd" d="M58.7061 36.2741H60.9927V37.9512H58.7061V36.2741Z" fill="white"/>
<path d="M48.8532 18.5115C48.8532 18.5115 40.7118 25.9377 54.5226 21.6515" stroke="#9C1116" stroke-width="10.819" stroke-miterlimit="2.61313"/>
<path d="M47.229 23.3206V34.4116" stroke="#9C1116" stroke-width="16.0345" stroke-miterlimit="2.61313"/>
<path fill-rule="evenodd" clip-rule="evenodd" d="M20.6641 26.1305L20.2095 26.9853L19.1446 26.8548L18.3179 28.4102L19.0312 29.2012L18.5883 30.0347L15.5034 26.4503L15.9449 25.6196L20.6641 26.1305ZM18.3555 26.7584L16.6269 26.527L17.7912 27.82L18.3555 26.7584ZM20.982 25.8016L17.5574 23.0284L18.1022 22.3557L21.5244 22.8055L19.2374 20.9538L19.7578 20.3113L23.1826 23.0844L22.62 23.7788L19.2687 23.3505L21.5025 25.1588L20.982 25.8016ZM23.828 22.3543L20.9956 18.9785L21.6585 18.4219L24.932 19.5164L23.0403 17.2622L23.6736 16.7309L26.5064 20.1063L25.8218 20.6808L22.6142 19.6209L24.4613 21.8225L23.828 22.3543ZM30.7446 17.6106L29.8978 18.0801L29.0755 17.3909L27.5351 18.2447L27.7029 19.2968L26.8773 19.7544L26.2421 15.068L27.0648 14.612L30.7446 17.6106ZM28.4664 16.88L27.1427 15.7445L27.415 17.4632L28.4664 16.88ZM31.5812 12.5515L32.4404 12.3217L33.058 14.6266C33.1559 14.9921 33.2305 15.227 33.2802 15.3297C33.3639 15.4941 33.4896 15.6104 33.6551 15.6784C33.8226 15.7475 34.0258 15.7493 34.2655 15.6848C34.5097 15.6194 34.6802 15.5207 34.7778 15.3874C34.8747 15.2551 34.9164 15.1121 34.9021 14.9609C34.889 14.8081 34.8368 14.5643 34.7461 14.2273L34.1153 11.8727L34.9741 11.6425L35.5735 13.878C35.7105 14.3896 35.7844 14.7565 35.7942 14.9798C35.8045 15.2035 35.7668 15.4034 35.681 15.5828C35.5951 15.7609 35.458 15.922 35.273 16.0638C35.087 16.2059 34.825 16.3218 34.488 16.4121C34.0816 16.521 33.7615 16.5571 33.5258 16.5192C33.2904 16.4816 33.0924 16.4037 32.9304 16.2871C32.7685 16.1698 32.6458 16.0338 32.5631 15.8796C32.4414 15.6512 32.3173 15.2985 32.1896 14.8219L31.5812 12.5515ZM37.0726 15.6597L36.7652 11.2637L37.6288 11.2034L39.6334 14.013L39.4283 11.0777L40.2532 11.0199L40.5606 15.416L39.6692 15.4782L37.6969 12.735L37.8975 15.6017L37.0726 15.6597ZM41.4833 15.4525L41.5602 11.0466L42.4496 11.0619L42.3725 15.4678L41.4833 15.4525ZM44.3211 15.7182L43.5351 11.105L44.486 11.2727L45.0167 14.6782L46.6459 11.6536L47.5756 11.8177L45.2564 15.883L44.3211 15.7182ZM47.2412 16.2682L48.676 12.1016L51.7646 13.1651L51.5218 13.8705L49.274 13.0964L48.9559 14.0199L51.0475 14.7403L50.8063 15.4415L48.7144 14.7212L48.3241 15.8557L50.6513 16.6567L50.4094 17.3592L47.2412 16.2682ZM51.1327 17.6335L53.2688 13.779L54.9076 14.6876C55.3194 14.9156 55.599 15.1166 55.747 15.2892C55.8954 15.4617 55.9773 15.6678 55.9915 15.9068C56.0053 16.1465 55.9486 16.379 55.8227 16.607C55.6622 16.8961 55.4444 17.0883 55.1703 17.183C54.8966 17.2762 54.5757 17.2542 54.2106 17.1154C54.3245 17.3076 54.4038 17.4925 54.4481 17.6705C54.4923 17.8488 54.5241 18.1387 54.5435 18.5414L54.598 19.5544L53.6675 19.0388L53.57 17.8875C53.5363 17.4771 53.5042 17.213 53.4738 17.0941C53.4434 16.9754 53.3949 16.8793 53.3287 16.8036C53.2618 16.7294 53.1397 16.6429 52.9603 16.5435L52.8032 16.4564L51.9114 18.0652L51.1327 17.6335ZM53.1445 15.8407L53.7193 16.1593C54.0932 16.3666 54.3345 16.4805 54.4456 16.501C54.5552 16.5208 54.6582 16.5062 54.7544 16.4586C54.8486 16.41 54.9291 16.3289 54.9934 16.213C55.0653 16.0829 55.0881 15.9598 55.0632 15.8413C55.0381 15.7234 54.9685 15.6188 54.8538 15.527C54.7953 15.4844 54.6086 15.3746 54.2928 15.1997L53.6865 14.8634L53.1445 15.8407ZM55.7217 18.6145L56.4398 19.106C56.2922 19.3622 56.236 19.5936 56.2707 19.8012C56.3054 20.0069 56.4257 20.1976 56.6332 20.3717C56.8521 20.5558 57.0572 20.6486 57.2464 20.648C57.4358 20.6486 57.5827 20.5872 57.6872 20.4629C57.7541 20.3829 57.7874 20.2956 57.787 20.2002C57.787 20.1044 57.7471 19.9872 57.6645 19.8482C57.6086 19.7532 57.4675 19.5516 57.2428 19.2427C56.9534 18.8454 56.7906 18.5191 56.7546 18.2636C56.7026 17.904 56.7889 17.5909 57.0133 17.3233C57.1576 17.1515 57.3411 17.0321 57.5644 16.9636C57.787 16.8961 58.0234 16.9001 58.2726 16.9752C58.5215 17.0521 58.7752 17.1979 59.035 17.4157C59.4589 17.772 59.6997 18.1312 59.7587 18.4971C59.816 18.8625 59.721 19.2046 59.4714 19.5244L58.7645 18.9824C58.8812 18.7843 58.9232 18.6067 58.8906 18.4507C58.8589 18.2939 58.7467 18.1353 58.5548 17.9744C58.3571 17.8082 58.1677 17.7179 57.9876 17.7063C57.8717 17.6972 57.7767 17.737 57.7036 17.8238C57.636 17.9039 57.6127 18.0011 57.6328 18.114C57.6579 18.2584 57.8034 18.5091 58.0699 18.8654C58.3358 19.2222 58.5127 19.509 58.6019 19.7257C58.6896 19.9429 58.7185 20.161 58.6868 20.3825C58.6545 20.6028 58.5489 20.8196 58.3703 21.0327C58.208 21.2259 58.0022 21.3626 57.7533 21.4408C57.5037 21.5191 57.2468 21.5176 56.9819 21.4344C56.7162 21.3522 56.4362 21.1874 56.1432 20.9414C55.7166 20.5836 55.4711 20.2101 55.4082 19.8209C55.345 19.4317 55.4494 19.0293 55.7217 18.6149V18.6145ZM58.0486 22.5757L61.1646 19.4598L61.7935 20.0888L58.6776 23.2047L58.0486 22.5757ZM59.8328 24.612L62.6369 22.2589L61.7967 21.2579L62.3684 20.7784L64.6189 23.4605L64.0477 23.9399L63.2097 22.9412L60.4051 25.2943L59.8328 24.612ZM62.0669 27.8807L63.7045 27.0102L65.2 24.3869L65.6897 25.3082L64.6375 27.0427L66.6534 27.1213L67.1351 28.0261L64.116 27.7963L62.4835 28.6646L62.0669 27.8807Z" fill="#9C1116"/>
<path d="M33.3246 46.7985C33.6563 46.5094 33.8917 46.3168 34.2239 46.0278C37.3624 45.7664 40.8746 43.2872 41.1932 45.9634C42.5099 43.0194 45.1439 46.2097 48.3233 46.0921C48.5586 46.2953 48.7944 46.4345 49.0298 46.6381C50.1966 50.0529 51.3639 53.5324 52.5309 56.9476C46.6652 57.138 42.4237 53.2126 42.0926 57.7505C41.525 57.761 40.9579 57.7722 40.3903 57.7827C40.1129 53.5679 34.251 57.4447 29.9199 56.9477C31.055 53.5647 32.1898 50.1816 33.3246 46.7985Z" stroke="#9C1116" stroke-width="1.62285" stroke-miterlimit="2.61313"/>
<path d="M33.3246 46.7985C33.6563 46.5094 33.8917 46.3168 34.2239 46.0278C37.3624 45.7664 40.8746 43.2872 41.1932 45.9634C42.5099 43.0194 45.1439 46.2097 48.3233 46.0921C48.5586 46.2953 48.7944 46.4345 49.0298 46.6381C50.1966 50.0529 51.3639 53.5324 52.5309 56.9476C46.6652 57.138 42.4237 53.2126 42.0926 57.7505C41.525 57.761 40.9579 57.7722 40.3903 57.7827C40.1129 53.5679 34.251 57.4447 29.9199 56.9477C31.055 53.5647 32.1898 50.1816 33.3246 46.7985Z" stroke="#9C1116" stroke-width="1.62285" stroke-miterlimit="2.61313"/>
<path d="M34.2428 45.9849C37.3814 45.7485 40.8936 43.4106 41.2122 45.8304C42.5553 43.3741 44.5788 45.747 48.2781 46.0748L51.4258 55.8582C45.464 55.1954 43.3418 52.192 41.2766 56.5522C38.4427 51.8989 37.1029 55.3492 31.0308 55.9226L34.2428 45.9849Z" stroke="#9C1116" stroke-width="1.61928" stroke-miterlimit="2.61313"/>
<path d="M41.2256 45.8672V56.3696" stroke="#9C1116" stroke-width="1.62285" stroke-miterlimit="2.61313"/>
<path d="M34.834 47.5693C34.834 47.5693 37.9174 46.4774 38.9129 46.959C39.9087 47.4411 40.1657 47.216 40.1657 47.216" stroke="#9C1116" stroke-width="1.62285" stroke-miterlimit="2.61313" stroke-dasharray="3.25 1.62"/>
<path d="M34.8423 48.2935C34.8423 48.2935 37.87 47.2014 38.8477 47.6835C39.8253 48.1652 40.0775 47.9404 40.0775 47.9404" stroke="#9C1116" stroke-width="1.62128" stroke-miterlimit="2.61313" stroke-dasharray="3.24 1.63"/>
<path d="M34.8242 49.1763C34.8242 49.1763 37.7775 48.0843 38.7313 48.5663C39.6848 49.048 39.9311 48.8232 39.9311 48.8232" stroke="#9C1116" stroke-width="1.79977" stroke-miterlimit="2.61313" stroke-dasharray="3.59 1.8"/>
<path d="M34.8237 50.0205C34.8237 50.0205 37.684 48.9285 38.608 49.4102C39.5315 49.8922 39.7697 49.6671 39.7697 49.6671" stroke="#9C1116" stroke-width="1.81004" stroke-miterlimit="2.61313" stroke-dasharray="3.62 1.81"/>
<path d="M34.4165 50.8774C34.4165 50.8774 37.4999 49.7855 38.4953 50.2671C39.4909 50.7492 39.7478 50.524 39.7478 50.524" stroke="#9C1116" stroke-width="1.62285" stroke-miterlimit="2.61313" stroke-dasharray="3.25 1.62"/>
<path d="M34.2881 51.6479C34.2881 51.6479 37.3714 50.556 38.367 51.0377C39.3628 51.5197 39.6198 51.295 39.6198 51.295" stroke="#9C1116" stroke-width="1.62285" stroke-miterlimit="2.61313" stroke-dasharray="3.25 1.62"/>
<path d="M34.0635 52.4834C34.0635 52.4834 37.1469 51.3914 38.1423 51.8731C39.1382 52.3551 39.3951 52.13 39.3951 52.13" stroke="#9C1116" stroke-width="1.62285" stroke-miterlimit="2.61313" stroke-dasharray="3.25 1.62"/>
<path d="M33.8384 53.1582C33.8384 53.1582 36.9217 52.0663 37.9173 52.548C38.9128 53.0296 39.1696 52.8048 39.1696 52.8048" stroke="#9C1116" stroke-width="1.62285" stroke-miterlimit="2.61313" stroke-dasharray="3.25 1.62"/>
<path d="M47.7776 47.5693C47.7776 47.5693 44.6942 46.4774 43.6988 46.959C42.7032 47.4411 42.4463 47.216 42.4463 47.216" stroke="#9C1116" stroke-width="1.62285" stroke-miterlimit="2.61313" stroke-dasharray="3.25 1.62"/>
<path d="M47.7855 48.2935C47.7855 48.2935 44.758 47.2014 43.7803 47.6835C42.8028 48.1652 42.5503 47.9404 42.5503 47.9404" stroke="#9C1116" stroke-width="1.62128" stroke-miterlimit="2.61313" stroke-dasharray="3.24 1.63"/>
<path d="M47.7672 49.1763C47.7672 49.1763 44.8139 48.0843 43.8605 48.5663C42.9067 49.048 42.6606 48.8232 42.6606 48.8232" stroke="#9C1116" stroke-width="1.79977" stroke-miterlimit="2.61313" stroke-dasharray="3.59 1.8"/>
<path d="M47.7669 50.0205C47.7669 50.0205 44.9065 48.9285 43.983 49.4102C43.0591 49.8922 42.8208 49.6671 42.8208 49.6671" stroke="#9C1116" stroke-width="1.81004" stroke-miterlimit="2.61313" stroke-dasharray="3.62 1.81"/>
<path d="M48.1951 50.8774C48.1951 50.8774 45.1121 49.7855 44.1163 50.2671C43.1207 50.7492 42.8638 50.524 42.8638 50.524" stroke="#9C1116" stroke-width="1.62285" stroke-miterlimit="2.61313" stroke-dasharray="3.25 1.62"/>
<path d="M48.3235 51.6479C48.3235 51.6479 45.2401 50.556 44.2446 51.0377C43.2491 51.5197 42.9922 51.295 42.9922 51.295" stroke="#9C1116" stroke-width="1.62285" stroke-miterlimit="2.61313" stroke-dasharray="3.25 1.62"/>
<path d="M48.5482 52.4834C48.5482 52.4834 45.4648 51.3914 44.4693 51.8731C43.4737 52.3551 43.2168 52.13 43.2168 52.13" stroke="#9C1116" stroke-width="1.62285" stroke-miterlimit="2.61313" stroke-dasharray="3.25 1.62"/>
<path d="M48.7727 53.1582C48.7727 53.1582 45.6897 52.0663 44.6938 52.548C43.6984 53.0296 43.4414 52.8048 43.4414 52.8048" stroke="#9C1116" stroke-width="1.62285" stroke-miterlimit="2.61313" stroke-dasharray="3.25 1.62"/>
<path d="M1.914 66.0266H78.9393H79.6389V66.726V78.2405V78.9399H78.9393H1.914H1.21436V78.2405V66.726V66.0266H1.914Z" fill="#9C1116" stroke="#9C1116" stroke-width="0.583793" stroke-miterlimit="2.61313"/>
<path d="M78.2394 67.4251H2.61328V77.541H78.2394V67.4251Z" fill="white" stroke="#9C1116" stroke-width="0.583793" stroke-miterlimit="2.61313"/>
<path fill-rule="evenodd" clip-rule="evenodd" d="M4.52783 75.3722V70.3168H5.47042C5.82162 70.3168 6.05111 70.3417 6.15889 70.3896C6.33139 70.4674 6.4732 70.6345 6.58537 70.8888C6.69753 71.1442 6.75388 71.4725 6.75388 71.8751C6.75388 72.2414 6.70489 72.5472 6.60845 72.7942C6.51189 73.0418 6.39056 73.2145 6.24552 73.3147C6.10112 73.4149 5.85151 73.4653 5.49671 73.4653H5.11252V75.3722H4.52783ZM5.11252 71.1723V72.6061H5.43677C5.65414 72.6061 5.80188 72.5848 5.88039 72.5414C5.95788 72.4979 6.02221 72.4189 6.07159 72.3049C6.122 72.1906 6.14677 72.0516 6.14677 71.8858C6.14677 71.7187 6.12123 71.5763 6.07004 71.4622C6.01783 71.3466 5.95454 71.2703 5.8786 71.2301C5.80253 71.1914 5.64279 71.1723 5.39758 71.1723H5.11252ZM7.23632 75.3722V70.3168H8.47079C8.78653 70.3168 9.01241 70.3625 9.14804 70.4536C9.28316 70.5438 9.3943 70.7016 9.48095 70.9253C9.56823 71.15 9.61142 71.4183 9.61142 71.7304C9.61142 72.1259 9.54527 72.445 9.41261 72.6861C9.27878 72.9273 9.0899 73.0793 8.8461 73.1404C8.97142 73.2701 9.07521 73.4101 9.15682 73.5633C9.23933 73.7159 9.3515 73.9904 9.49332 74.3858L9.84567 75.3722H9.14804L8.72221 74.2718C8.56982 73.875 8.46564 73.6253 8.41046 73.5256C8.35605 73.4254 8.29751 73.3571 8.23653 73.3183C8.17555 73.2807 8.07718 73.2617 7.94193 73.2617H7.82062V75.3722H7.23632ZM7.82062 72.4544H8.25626C8.52198 72.4544 8.69075 72.438 8.76359 72.4047C8.83631 72.3718 8.89472 72.3049 8.9401 72.2037C8.98458 72.1024 9.00765 71.9669 9.00765 71.7998C9.00765 71.6387 8.98457 71.5093 8.9401 71.4114C8.89472 71.3138 8.83373 71.2466 8.75625 71.21C8.70171 71.1841 8.54248 71.1723 8.28037 71.1723H7.82062V72.4544ZM10.0467 72.8758C10.0467 72.2731 10.1084 71.7775 10.2341 71.388C10.3584 70.9984 10.5218 70.7075 10.7231 70.5167C10.9241 70.3263 11.1683 70.2309 11.4556 70.2309C11.8711 70.2309 12.2092 70.4568 12.4715 70.91C12.7329 71.3631 12.864 72.0081 12.864 72.845C12.864 73.69 12.7255 74.3515 12.4484 74.8274C12.205 75.2487 11.8751 75.4581 11.4578 75.4581C11.0371 75.4581 10.7056 75.2497 10.4626 74.8342C10.1851 74.3589 10.0467 73.7053 10.0467 72.8758ZM10.6504 72.8414C10.6504 73.4229 10.7279 73.8585 10.8821 74.1494C11.0371 74.4399 11.2285 74.5858 11.4578 74.5858C11.6879 74.5858 11.8783 74.441 12.0303 74.1527C12.1821 73.8643 12.257 73.4218 12.257 72.8239C12.257 72.2376 12.1835 71.8046 12.0359 71.5233C11.8893 71.2432 11.6964 71.103 11.4578 71.103C11.2194 71.103 11.025 71.2444 10.8755 71.5269C10.7257 71.8105 10.6504 72.2483 10.6504 72.8414ZM14.6735 73.5135V72.6613H15.9368V74.6752C15.81 74.8894 15.6291 75.0732 15.396 75.2276C15.1624 75.3818 14.9285 75.4581 14.6924 75.4581C14.4062 75.4581 14.153 75.358 13.9345 75.1566C13.7152 74.9557 13.5412 74.6541 13.4133 74.2529C13.2854 73.8515 13.2211 73.3804 13.2211 72.8382C13.2211 72.2812 13.2861 71.8057 13.4159 71.4103C13.5452 71.0149 13.7133 70.7192 13.9205 70.5241C14.1275 70.3285 14.3759 70.2309 14.6635 70.2309C15.01 70.2309 15.2878 70.3566 15.4964 70.6088C15.7051 70.8606 15.8388 71.2291 15.898 71.7173L15.3185 71.907C15.2753 71.6468 15.1956 71.448 15.0791 71.3102C14.9639 71.1723 14.8251 71.103 14.6635 71.103C14.4147 71.103 14.2115 71.2418 14.0572 71.5185C13.9022 71.7952 13.8255 72.2175 13.8255 72.7862C13.8255 73.3948 13.9089 73.8585 14.0763 74.175C14.2199 74.4495 14.4147 74.5858 14.6588 74.5858C14.7731 74.5858 14.892 74.547 15.0159 74.4706C15.1386 74.3928 15.2482 74.2883 15.3455 74.1553V73.5135H14.6735ZM16.4806 75.3722V70.3168H17.7151C18.0308 70.3168 18.2567 70.3625 18.3924 70.4536C18.5276 70.5438 18.6386 70.7016 18.7252 70.9253C18.8126 71.15 18.8557 71.4183 18.8557 71.7304C18.8557 72.1259 18.7896 72.445 18.6569 72.6861C18.5232 72.9273 18.3342 73.0793 18.0905 73.1404C18.2155 73.2701 18.3196 73.4101 18.4011 73.5633C18.4838 73.7159 18.5959 73.9904 18.7378 74.3858L19.09 75.3722H18.3924L17.9666 74.2718C17.8142 73.875 17.7101 73.6253 17.6549 73.5256C17.6004 73.4254 17.542 73.3571 17.4808 73.3183C17.4199 73.2807 17.3215 73.2617 17.1864 73.2617H17.065V75.3722H16.4806ZM17.065 72.4544H17.5006C17.7663 72.4544 17.9352 72.438 18.0079 72.4047C18.0802 72.3718 18.1391 72.3049 18.1844 72.2037C18.229 72.1024 18.252 71.9669 18.252 71.7998C18.252 71.6387 18.229 71.5093 18.1844 71.4114C18.1391 71.3138 18.078 71.2466 18.0001 71.21C17.9461 71.1841 17.7868 71.1723 17.5244 71.1723H17.065V72.4544ZM19.4091 75.3722V70.3168H21.565V71.1723H19.9938V72.2932H21.4535V73.144H19.9938V74.52H21.6176V75.3722H19.4091ZM21.9658 73.7276L22.5381 73.63C22.6025 74.2762 22.8134 74.5999 23.1715 74.5999C23.348 74.5999 23.4873 74.5342 23.5889 74.4011C23.6911 74.2692 23.7413 74.1055 23.7413 73.9103C23.7413 73.7949 23.7241 73.6973 23.6887 73.6173C23.6532 73.5362 23.5987 73.4701 23.526 73.4181C23.4536 73.3667 23.2785 73.2807 22.9997 73.1583C22.7501 73.0497 22.567 72.9332 22.4515 72.8063C22.3349 72.6803 22.2429 72.5143 22.1745 72.3082C22.1058 72.1024 22.0722 71.881 22.0722 71.6446C22.0722 71.3689 22.1156 71.1209 22.203 70.8994C22.2915 70.6793 22.4128 70.512 22.567 70.399C22.722 70.2873 22.9124 70.2309 23.1401 70.2309C23.4813 70.2309 23.7478 70.3625 23.9393 70.6275C24.1315 70.8913 24.2327 71.2703 24.2434 71.7622L23.6572 71.8068C23.6309 71.5349 23.5757 71.3456 23.4899 71.2374C23.4046 71.1299 23.2825 71.0759 23.1251 71.0759C22.9676 71.0759 22.8455 71.1231 22.7606 71.2173C22.6748 71.3112 22.6321 71.4278 22.6321 71.5693C22.6321 71.7067 22.6708 71.8221 22.7483 71.9165C22.8258 72.0118 23.0041 72.1141 23.2819 72.2271C23.5771 72.3495 23.7899 72.4778 23.921 72.6119C24.0522 72.746 24.1528 72.9203 24.2222 73.1324C24.2913 73.3454 24.326 73.6031 24.326 73.9067C24.326 74.3457 24.2313 74.7141 24.0424 75.013C23.8526 75.3119 23.5563 75.4614 23.154 75.4614C22.4423 75.4614 22.0455 74.8836 21.9658 73.7276ZM24.6717 73.7276L25.244 73.63C25.3084 74.2762 25.5196 74.5999 25.8773 74.5999C26.0538 74.5999 26.1931 74.5342 26.2947 74.4011C26.397 74.2692 26.4472 74.1055 26.4472 73.9103C26.4472 73.7949 26.4299 73.6973 26.3944 73.6173C26.359 73.5362 26.3046 73.4701 26.2319 73.4181C26.1595 73.3667 25.9845 73.2807 25.706 73.1583C25.456 73.0497 25.2729 72.9332 25.1574 72.8063C25.0412 72.6803 24.9487 72.5143 24.8803 72.3082C24.8116 72.1024 24.7781 71.881 24.7781 71.6446C24.7781 71.3689 24.8219 71.1209 24.9092 70.8994C24.9973 70.6793 25.1187 70.512 25.2729 70.399C25.4279 70.2873 25.6183 70.2309 25.846 70.2309C26.1873 70.2309 26.4538 70.3625 26.6452 70.6275C26.8374 70.8913 26.9386 71.2703 26.9496 71.7622L26.3631 71.8068C26.3367 71.5349 26.2815 71.3456 26.1956 71.2374C26.1109 71.1299 25.9885 71.0759 25.8309 71.0759C25.6735 71.0759 25.5514 71.1231 25.4666 71.2173C25.3807 71.3112 25.3379 71.4278 25.3379 71.5693C25.3379 71.7067 25.3767 71.8221 25.4542 71.9165C25.5317 72.0118 25.71 72.1141 25.9877 72.2271C26.2831 72.3495 26.4958 72.4778 26.6269 72.6119C26.7582 72.746 26.8586 72.9203 26.9281 73.1324C26.9972 73.3454 27.0319 73.6031 27.0319 73.9067C27.0319 74.3457 26.9372 74.7141 26.7482 75.013C26.5586 75.3119 26.2626 75.4614 25.8602 75.4614C25.1482 75.4614 24.7518 74.8836 24.6717 73.7276ZM29.3072 75.3722V71.1723H28.4448V70.3168H30.7523V71.1723H29.892V75.3722H29.3072ZM31.1342 75.3722V70.3168H31.7189V72.306H32.8694V70.3168H33.4563V75.3722H32.8694V73.1615H31.7189V75.3722H31.1342ZM34.0626 75.3722V70.3168H35.2971C35.6132 70.3168 35.8391 70.3625 35.9743 70.4536C36.1096 70.5438 36.221 70.7016 36.3076 70.9253C36.395 71.15 36.4377 71.4183 36.4377 71.7304C36.4377 72.1259 36.372 72.445 36.2389 72.6861C36.1056 72.9273 35.9166 73.0793 35.6724 73.1404C35.7978 73.2701 35.9016 73.4101 35.9835 73.5633C36.066 73.7159 36.1779 73.9904 36.32 74.3858L36.672 75.3722H35.9743L35.5489 74.2718C35.3962 73.875 35.2923 73.6253 35.2369 73.5256C35.1827 73.4254 35.1239 73.3571 35.0628 73.3183C35.0019 73.2807 34.9039 73.2617 34.7686 73.2617H34.6473V75.3722H34.0626ZM34.6473 72.4544H35.0829C35.3483 72.4544 35.5176 72.438 35.5899 72.4047C35.6626 72.3718 35.7211 72.3049 35.7664 72.2037C35.811 72.1024 35.834 71.9669 35.834 71.7998C35.834 71.6387 35.811 71.5093 35.7664 71.4114C35.7211 71.3138 35.66 71.2466 35.5825 71.21C35.5281 71.1841 35.3692 71.1723 35.1067 71.1723H34.6473V72.4544ZM36.8734 72.8758C36.8734 72.2731 36.9351 71.7775 37.0604 71.388C37.1851 70.9984 37.3484 70.7075 37.5494 70.5167C37.7508 70.3263 37.995 70.2309 38.2819 70.2309C38.6978 70.2309 39.0358 70.4568 39.2978 70.91C39.5595 71.3631 39.6907 72.0081 39.6907 72.845C39.6907 73.69 39.5518 74.3515 39.2749 74.8274C39.0314 75.2487 38.7018 75.4581 38.2845 75.4581C37.8638 75.4581 37.5323 75.2497 37.2889 74.8342C37.0118 74.3589 36.8734 73.7053 36.8734 72.8758ZM37.4771 72.8414C37.4771 73.4229 37.5546 73.8585 37.7088 74.1494C37.8638 74.4399 38.0552 74.5858 38.2845 74.5858C38.5147 74.5858 38.705 74.441 38.8568 74.1527C39.0084 73.8643 39.0833 73.4218 39.0833 72.8239C39.0833 72.2376 39.0102 71.8046 38.8626 71.5233C38.7157 71.2432 38.5227 71.103 38.2845 71.103C38.0462 71.103 37.8514 71.2444 37.7022 71.5269C37.552 71.8105 37.4771 72.2483 37.4771 72.8414ZM40.1424 70.3168H40.7271V73.0545C40.7271 73.4806 40.7336 73.7573 40.7488 73.8856C40.7743 74.1093 40.836 74.281 40.9333 74.4033C41.0305 74.5248 41.1595 74.5858 41.3185 74.5858C41.4537 74.5858 41.5645 74.5423 41.65 74.4563C41.7351 74.3705 41.7936 74.2503 41.825 74.0975C41.8561 73.9455 41.8719 73.6173 41.8719 73.1133V70.3168H42.4591V72.9723C42.4591 73.6501 42.4334 74.141 42.383 74.4425C42.3322 74.7447 42.2183 74.9896 42.0402 75.1768C41.8619 75.3653 41.6269 75.4581 41.3356 75.4581C41.0334 75.4581 40.7966 75.3802 40.6267 75.225C40.4568 75.0707 40.3339 74.8519 40.2572 74.5708C40.1805 74.2894 40.1424 73.7701 40.1424 73.0135L40.1424 70.3168ZM44.4286 73.5135V72.6613H45.6919V74.6752C45.5652 74.8894 45.3842 75.0732 45.1511 75.2276C44.9176 75.3818 44.6834 75.4581 44.4475 75.4581C44.1614 75.4581 43.9081 75.358 43.6896 75.1566C43.4703 74.9557 43.2964 74.6541 43.1684 74.2529C43.0406 73.8515 42.9762 73.3804 42.9762 72.8382C42.9762 72.2812 43.0412 71.8057 43.171 71.4103C43.3003 71.0149 43.4685 70.7192 43.6756 70.5241C43.8826 70.3285 44.1308 70.2309 44.4187 70.2309C44.7651 70.2309 45.0429 70.3566 45.2515 70.6088C45.4603 70.8606 45.5939 71.2291 45.6532 71.7173L45.0736 71.907C45.0304 71.6468 44.9505 71.448 44.8342 71.3102C44.7187 71.1723 44.5802 71.103 44.4187 71.103C44.1694 71.103 43.9667 71.2418 43.8124 71.5185C43.6575 71.7952 43.5806 72.2175 43.5806 72.7862C43.5806 73.3948 43.664 73.8585 43.8314 74.175C43.975 74.4495 44.1694 74.5858 44.4136 74.5858C44.5284 74.5858 44.6471 74.547 44.7706 74.4706C44.8938 74.3928 45.0035 74.2883 45.1007 74.1553V73.5135H44.4286ZM46.2354 75.3722V70.3168H46.8202V72.306H47.9706V70.3168H48.5578V75.3722H47.9706V73.1615H46.8202V75.3722H46.2354ZM50.2972 75.3722V70.3168H50.8823V72.5615L52.0689 70.3168H52.859L51.7645 72.2859L52.9167 75.3722H52.1577L51.358 72.9993L50.8823 73.8442V75.3722H50.2972ZM53.2259 75.3722V70.3168H53.7968L54.9849 73.6926V70.3168H55.5309V75.3722H54.9414L53.7719 72.0754V75.3722H53.2259ZM56.0316 72.8758C56.0316 72.2731 56.0934 71.7775 56.2187 71.388C56.3433 70.9984 56.5067 70.7075 56.7077 70.5167C56.9091 70.3263 57.1531 70.2309 57.4401 70.2309C57.8559 70.2309 58.1941 70.4568 58.4561 70.91C58.7178 71.3631 58.8489 72.0081 58.8489 72.845C58.8489 73.69 58.7104 74.3515 58.433 74.8274C58.19 75.2487 57.86 75.4581 57.4427 75.4581C57.022 75.4581 56.6906 75.2497 56.4471 74.8342C56.1701 74.3589 56.0316 73.7053 56.0316 72.8758ZM56.6353 72.8414C56.6353 73.4229 56.7129 73.8585 56.8671 74.1494C57.022 74.4399 57.2135 74.5858 57.4427 74.5858C57.6728 74.5858 57.8633 74.441 58.015 74.1527C58.1667 73.8643 58.2419 73.4218 58.2419 72.8239C58.2419 72.2376 58.1685 71.8046 58.0208 71.5233C57.8738 71.2432 57.681 71.103 57.4427 71.103C57.2043 71.103 57.0095 71.2444 56.8605 71.5269C56.7103 71.8105 56.6353 72.2483 56.6353 72.8414ZM59.7154 75.3722L59.023 70.3168H59.6242L60.0586 73.789L60.5907 70.3168H61.2891L61.7989 73.8479L62.2459 70.3168H62.8355L62.1297 75.3722H61.5062L60.9262 71.5926L60.3513 75.3722H59.7154ZM63.1522 75.3722V70.3582H63.7371V74.52H65.196V75.3722H63.1522ZM65.6166 75.3722V70.3168H67.7721V71.1723H66.2014V72.2932H67.6609V73.144H66.2014V74.52H67.825V75.3722H65.6166ZM68.3181 70.3168H69.3878C69.6585 70.3168 69.8628 70.3603 70.0007 70.4462C70.1384 70.5321 70.2652 70.6779 70.3807 70.8829C70.4969 71.0865 70.588 71.3526 70.6545 71.6785C70.7206 72.0056 70.7535 72.4105 70.7535 72.8955C70.7535 73.3334 70.7188 73.7127 70.6497 74.0361C70.5802 74.3588 70.4921 74.6143 70.3858 74.8035C70.2794 74.9921 70.1515 75.1332 70.0007 75.2286C69.8497 75.324 69.6567 75.3722 69.4192 75.3722H68.3181V70.3168ZM68.9021 71.1723V74.52H69.3424C69.5306 74.52 69.6673 74.4951 69.7514 74.4447C69.8366 74.3939 69.9059 74.3175 69.9593 74.2152C70.0138 74.1129 70.0583 73.9513 70.0938 73.7302C70.1292 73.5103 70.1465 73.2193 70.1465 72.8579C70.1465 72.4836 70.1287 72.1884 70.0924 71.9717C70.0559 71.7564 69.9999 71.5857 69.9232 71.4622C69.8464 71.3372 69.7539 71.256 69.6443 71.2173C69.5617 71.1867 69.4035 71.1723 69.1685 71.1723H68.9021ZM72.6017 73.5135V72.6613H73.8654V74.6752C73.7382 74.8894 73.5577 75.0732 73.3242 75.2276C73.0909 75.3818 72.8567 75.4581 72.6206 75.4581C72.3345 75.4581 72.0816 75.358 71.863 75.1566C71.6433 74.9557 71.4694 74.6541 71.3415 74.2529C71.2136 73.8515 71.1497 73.3804 71.1497 72.8382C71.1497 72.2812 71.2147 71.8057 71.3441 71.4103C71.4738 71.0149 71.6419 70.7192 71.8487 70.5241C72.0561 70.3285 72.3041 70.2309 72.5917 70.2309C72.9381 70.2309 73.2164 70.3566 73.425 70.6088C73.6337 70.8606 73.767 71.2291 73.8267 71.7173L73.2467 71.907C73.2039 71.6468 73.1238 71.448 73.0077 71.3102C72.8921 71.1723 72.7537 71.103 72.5917 71.103C72.3429 71.103 72.1401 71.2418 71.9858 71.5185C71.8309 71.7952 71.7541 72.2175 71.7541 72.7862C71.7541 73.3948 71.8375 73.8585 72.0048 74.175C72.1481 74.4495 72.3429 74.5858 72.5869 74.5858C72.7014 74.5858 72.8202 74.547 72.9441 74.4706C73.0668 74.3928 73.1765 74.2883 73.2741 74.1553V73.5135H72.6017ZM74.4088 75.3722V70.3168H76.5647V71.1723H74.9936V72.2932H76.4532V73.144H74.9936V74.52H76.6173V75.3722H74.4088Z" fill="#9C1116"/>
</svg>
