<svg width="80" height="80" viewBox="0 0 80 80" fill="none" xmlns="http://www.w3.org/2000/svg">
<g clip-path="url(#clip0_950_4417)">
<path d="M80 40C80 62.0938 62.0938 80 40 80C17.9062 80 0 62.0938 0 40C0 17.9062 17.9062 0 40 0C62.0938 0 80 17.9062 80 40Z" fill="#781F19"/>
<path d="M70.8606 40.0001C70.8606 57.0517 57.0309 70.861 39.9996 70.861C22.948 70.861 9.13867 57.0314 9.13867 40.0001C9.13867 22.9485 22.9684 9.13916 39.9996 9.13916C57.0512 9.13916 70.8606 22.9485 70.8606 40.0001Z" fill="#D6A64F"/>
<path d="M70.8605 40.0001H70.7512C70.7512 48.5048 67.3105 56.197 61.7434 61.7642C56.1762 67.3313 48.4824 70.772 39.9793 70.772C31.4762 70.772 23.7824 67.3313 18.2152 61.7642C12.648 56.197 9.20586 48.5048 9.20586 40.0001C9.20586 31.4954 12.6465 23.8032 18.2137 18.236C23.7809 12.6688 31.4746 9.22822 39.9777 9.22822C48.4809 9.22822 56.1746 12.6688 61.7418 18.236C67.309 23.8032 70.7496 31.4954 70.7496 40.0001H70.8605H70.9699C70.9699 22.9048 57.0965 9.02979 39.9996 9.02979C22.9027 9.02979 9.0293 22.9048 9.0293 40.0001C9.0293 57.0954 22.9043 70.9704 39.9996 70.9704C57.0949 70.9704 70.9699 57.0954 70.9699 40.0001H70.8605Z" fill="white"/>
<path d="M13.2617 66.5639L16.593 63.167L17.3602 63.9342L14.0289 67.3092L13.2617 66.5639Z" fill="white"/>
<path d="M15.6066 62.225L11.9238 65.2063L11.1348 64.2187L11.8582 62.3562C12.077 61.8297 12.3629 61.2391 12.6254 60.7344V60.7125C12.1863 61.1516 11.6832 61.5672 11.1348 62.0281L10.0613 62.9047L9.44727 62.1375L13.1301 59.1562L13.8316 60.0328L13.0426 61.9828C12.8238 62.5312 12.5379 63.1437 12.2535 63.6703L12.2754 63.6922C12.7582 63.275 13.2613 62.8375 13.8535 62.3547L14.9707 61.4563L15.6066 62.225Z" fill="white"/>
<path d="M11.1336 57.5342C11.1117 57.4467 11.0242 57.3155 10.9586 57.2061C10.4758 56.3514 9.68674 56.067 8.70081 56.6358C7.82424 57.1405 7.67112 57.8858 8.13049 58.6967C8.23987 58.8936 8.34924 59.0248 8.41487 59.0905L11.1336 57.5342ZM8.30549 60.3826C8.04299 60.0764 7.75706 59.6373 7.49456 59.1764C7.03362 58.3873 6.88049 57.7951 6.94612 57.2483C7.01174 56.6342 7.38518 56.0655 8.10706 55.6483C8.89612 55.1873 9.59768 55.1655 10.168 55.3639C10.7821 55.5826 11.3289 56.153 11.7899 56.9639C12.0742 57.4467 12.2289 57.8186 12.3383 58.0592L8.30549 60.3826Z" fill="white"/>
<path d="M5.08398 54.2249L9.44648 52.3608L9.86211 53.3483L5.50117 55.2108L5.08398 54.2249Z" fill="white"/>
<path d="M6.33359 49.4687L5.45703 50.039C5.21641 50.1921 4.88672 50.3671 4.64609 50.5218V50.5437C4.93047 50.5218 5.30391 50.4999 5.58828 50.478H6.63984L6.33359 49.4687ZM7.45078 50.389L8.72266 50.3671L9.02891 51.4405L4.05391 51.3968L3.66016 50.0593L7.80234 47.2983L8.13047 48.4155L7.05703 49.1171L7.45078 50.389Z" fill="white"/>
<path d="M7.58242 46.2468L2.86992 46.8608L2.7168 45.6108L4.3168 44.4046C4.77773 44.0546 5.32461 43.703 5.8293 43.4187V43.3968C5.21523 43.5499 4.5793 43.6374 3.8793 43.7468L2.51992 43.9218L2.38867 42.9358L7.10117 42.3218L7.2543 43.439L5.5668 44.689C5.08398 45.039 4.53711 45.4343 4.01055 45.7187V45.7405C4.62461 45.6312 5.3043 45.5218 6.07148 45.4343L7.49648 45.2593L7.58242 46.2468Z" fill="white"/>
<path d="M2.36797 37.8735L7.10234 38.072L7.05859 39.1454L2.32422 38.9485L2.36797 37.8735Z" fill="white"/>
<path d="M7.16719 36.7125L2.47656 35.9672L2.67344 34.7391L4.53594 34.0375C5.08438 33.8406 5.69688 33.6656 6.26719 33.5328V33.5109C5.63125 33.4672 4.99531 33.4016 4.29531 33.2922L2.93594 33.0734L3.08906 32.1094L7.77969 32.8547L7.60469 33.9719L5.63281 34.6953C5.08437 34.8922 4.42656 35.1125 3.85781 35.2437V35.2656C4.49375 35.3312 5.15156 35.4188 5.91875 35.55L7.32188 35.7687L7.16719 36.7125Z" fill="white"/>
<path d="M7.10188 31.1453C7.32063 30.9266 7.60657 30.5312 7.73782 30.0938C7.89094 29.6328 7.75969 29.3047 7.47532 29.2172C7.19094 29.1297 6.97063 29.2828 6.59876 29.7875C6.09407 30.4453 5.52532 30.8172 4.86751 30.6203C4.10032 30.3797 3.70657 29.5469 4.05657 28.4719C4.20969 27.9453 4.42844 27.6172 4.64876 27.3984L5.39407 27.8812C5.26282 28.0344 5.02219 28.3203 4.88938 28.7578C4.75813 29.1969 4.88938 29.4813 5.13001 29.5469C5.41438 29.6344 5.63469 29.4375 6.02844 28.9109C6.57688 28.2094 7.10188 27.9687 7.75969 28.1656C8.52688 28.4062 8.98782 29.1734 8.59251 30.4234C8.43938 30.95 8.13157 31.4094 7.91282 31.6297L7.10188 31.1453Z" fill="white"/>
<path d="M6.37891 25.0516L5.83047 26.2141L5.01953 25.8406L6.55391 22.5312L7.36484 22.9047L6.81797 24.0875L10.3023 25.7094L9.86328 26.6734L6.37891 25.0516Z" fill="white"/>
<path d="M7.84727 20.3174L11.9238 22.7502L11.3754 23.6721L7.29883 21.2393L7.84727 20.3174Z" fill="white"/>
<path d="M10.1039 18.5641L9.33672 19.5938L8.61328 19.0469L10.782 16.1094L11.5055 16.6578L10.7383 17.6875L13.8289 19.9891L13.193 20.8437L10.1039 18.5641Z" fill="white"/>
<path d="M12.6242 14.0939L14.5523 16.0221C15.1445 16.5924 15.6477 16.6799 16.043 16.2846C16.4367 15.8908 16.3711 15.3861 15.7805 14.7939L13.8508 12.8658L14.5961 12.0986L16.4805 13.983C17.5102 15.0127 17.4883 16.0221 16.6336 16.9205C15.8008 17.7752 14.8148 17.7971 13.7617 16.7236L11.8789 14.8611L12.6242 14.0939Z" fill="white"/>
<path d="M17.4254 10.9375L16.4176 11.7047L15.8691 11.0031L18.7832 8.78906L19.3316 9.5125L18.2801 10.3016L20.6035 13.3703L19.7488 14.0062L17.4254 10.9375Z" fill="white"/>
<path d="M23.9348 8.92012L22.4223 9.7748L22.9926 10.7607L24.6801 9.79668L25.1176 10.5639L22.4879 12.0545L20.1426 7.93418L22.6848 6.4873L23.102 7.25449L21.502 8.1748L21.9832 9.02949L23.5176 8.15293L23.9348 8.92012Z" fill="white"/>
<path d="M29.5677 7.93451C30.2474 7.71576 30.4442 6.9267 30.1599 6.05014C29.8974 5.2392 29.2833 4.66889 28.5817 4.8892C27.8802 5.10951 27.7052 5.91889 27.9896 6.77358C28.2521 7.62826 28.888 8.15326 29.5677 7.93451ZM29.7864 8.74545C28.4489 9.18451 27.3317 8.41733 26.9146 7.14545C26.4755 5.78608 27.0239 4.49389 28.3396 4.0767C29.7208 3.61576 30.8161 4.4267 31.2333 5.65483C31.7161 7.14545 31.1239 8.32826 29.7864 8.74545Z" fill="white"/>
<path d="M32.3281 3.06875L35.1781 2.58594L35.3094 3.4625L33.5125 3.77031L33.7094 4.82188L35.375 4.5375L35.5281 5.41406L33.8406 5.69844L34.1703 7.58281L33.1172 7.75938L32.3281 3.06875Z" fill="white"/>
<path d="M40.0219 3.2001L38.75 3.17822V2.27979L42.4109 2.34541L42.3891 3.24385L41.0953 3.22197L41.0297 7.07979L39.9563 7.05791L40.0219 3.2001Z" fill="white"/>
<path d="M46.4008 5.61104L44.6695 5.37041L44.5164 6.46572L46.4445 6.7501L46.3133 7.62822L43.332 7.18916L44.0117 2.49854L46.9055 2.91572L46.7727 3.79229L44.932 3.52822L44.8008 4.49385L46.532 4.73447L46.4008 5.61104Z" fill="white"/>
<path d="M50.8282 8.70134C50.6313 8.74509 50.1485 8.72322 49.6001 8.57009C48.0219 8.13103 47.4954 6.90447 47.8688 5.58884C48.3079 4.03259 49.6657 3.48415 51.0469 3.87947C51.5735 4.03259 51.9672 4.25134 52.1204 4.40603L51.6813 5.15134C51.5063 4.99822 51.2422 4.84509 50.8704 4.73415C50.0594 4.49353 49.2704 4.82165 48.986 5.82947C48.7235 6.74978 49.0954 7.47322 50.0157 7.73572C50.3438 7.82322 50.6954 7.86697 50.936 7.82322L50.8282 8.70134Z" fill="white"/>
<path d="M54.8164 5.32676L54.0711 6.99238L55.6711 7.73769L56.4383 6.07207L57.4023 6.50957L55.4289 10.8283L54.4648 10.3893L55.2758 8.59238L53.6758 7.84707L52.843 9.64394L51.8789 9.20644L53.8508 4.8877L54.8164 5.32676Z" fill="white"/>
<path d="M56.6367 11.4844L59.2664 7.53906L60.318 8.24063L60.1648 10.2344C60.1211 10.8047 60.0117 11.4625 59.9023 12.0094H59.9242C60.2086 11.4609 60.5602 10.9141 60.9539 10.3L61.7211 9.16094L62.532 9.70937L59.9023 13.6547L58.9602 13.0187L59.1352 10.9375C59.1789 10.3453 59.2664 9.66563 59.3758 9.09688L59.3539 9.075C59.0258 9.62344 58.6742 10.1922 58.2367 10.8281L57.4477 12.0109L56.6367 11.4844Z" fill="white"/>
<path d="M63.0136 15.3641C63.5402 15.8688 64.3074 15.6485 64.9418 14.9703C65.5339 14.3563 65.7308 13.5453 65.1824 13.0422C64.6339 12.5375 63.8449 12.7797 63.2324 13.436C62.6402 14.05 62.4652 14.861 63.0136 15.3641ZM62.3777 15.9344C61.348 14.9703 61.4792 13.6328 62.3996 12.6469C63.3636 11.6172 64.7667 11.4641 65.7746 12.4063C66.848 13.3922 66.673 14.7516 65.7746 15.6938C64.723 16.8547 63.4074 16.8985 62.3777 15.9344Z" fill="white"/>
<path d="M68.5816 15.3857L69.2395 16.2186L66.2363 18.6295L67.4191 20.0982L66.7176 20.6686L64.877 18.367L68.5816 15.3857Z" fill="white"/>
<path d="M68.9307 22.6624C69.3026 23.2765 70.1135 23.2984 70.9026 22.8155C71.626 22.3765 72.0635 21.6546 71.6698 21.0187C71.2979 20.3827 70.4635 20.4046 69.6979 20.8655C68.9307 21.3265 68.5588 22.0499 68.9307 22.6624ZM68.1635 23.0796C67.4401 21.8734 67.9229 20.6249 69.0838 19.9234C70.312 19.1999 71.6917 19.4187 72.4151 20.6249C73.1604 21.8749 72.6338 23.1234 71.5167 23.803C70.1807 24.5921 68.887 24.2624 68.1635 23.0796Z" fill="white"/>
<path d="M71.5822 29.6549C71.3634 29.3924 70.99 28.8659 70.7494 28.2737C70.4212 27.4627 70.3994 26.8049 70.6181 26.2346C70.8369 25.6862 71.3415 25.2268 71.9775 24.9627C73.4462 24.3924 74.7165 25.1159 75.2869 26.5627C75.5056 27.133 75.5712 27.6143 75.5712 27.8784L74.6728 27.9877C74.6947 27.7034 74.6509 27.3737 74.454 26.8924C74.1259 26.0596 73.4025 25.6205 72.4369 25.994C71.5165 26.3659 71.2087 27.133 71.5384 27.9659C71.6259 28.1846 71.7353 28.3596 71.779 28.4268L72.6994 28.0549L72.4369 27.3752L73.2259 27.069L73.8837 28.7127L71.5822 29.6549Z" fill="white"/>
<path d="M71.9785 32.0219L73.8629 31.5828L76.252 29.5L76.5363 30.7063L75.5285 31.4297C75.2223 31.6484 75.002 31.8016 74.7176 32V32.0219C75.0238 32.0656 75.3316 32.1094 75.6816 32.175L76.9098 32.3938L77.1723 33.5766L74.1254 32.6781L72.1973 33.1172L71.9785 32.0219Z" fill="white"/>
<path d="M74.7828 41.3594C75.3531 41.3375 76.0328 41.2937 76.7328 41.2937V41.2719C76.1188 41.1188 75.4391 40.9437 74.8922 40.7672L73.0297 40.2187L73.0078 39.3859L74.8266 38.8594C75.3969 38.7062 76.0547 38.5312 76.6891 38.3984V38.3766C76.0531 38.3547 75.3078 38.3547 74.7172 38.3328L72.9203 38.2672L72.8984 37.2812L77.6547 37.5L77.6766 38.925L76.0984 39.4078C75.55 39.5609 74.9594 39.7141 74.4109 39.8469V39.8687C74.9594 39.9781 75.5938 40.1312 76.1203 40.2859L77.6984 40.7688L77.7203 42.1719L72.9859 42.5L72.9641 41.4484L74.7828 41.3594Z" fill="white"/>
<path d="M74.3895 46.3564L75.441 46.2252C75.7254 46.2033 76.0988 46.1814 76.3832 46.1596V46.1377C76.1207 46.0283 75.7691 45.8971 75.5066 45.7877L74.5645 45.3268L74.3895 46.3564ZM73.7973 45.0408L72.6582 44.5143L72.8551 43.4189L77.2832 45.6549L77.0426 47.0143L72.1113 47.6721L72.3082 46.533L73.5801 46.3799L73.7973 45.0408Z" fill="white"/>
<path d="M72.2617 49.972C72.2179 50.0595 72.1523 50.1907 72.1304 50.322C71.8023 51.2423 72.1085 52.0313 73.182 52.3829C74.146 52.711 74.8039 52.3173 75.0882 51.4407C75.1539 51.222 75.1976 51.0688 75.1976 50.9579L72.2617 49.972ZM76.2726 50.2142C76.207 50.6079 76.0757 51.1126 75.9007 51.6173C75.6164 52.472 75.2867 52.9985 74.8054 53.3048C74.3007 53.6548 73.6445 53.7657 72.8336 53.4798C71.9789 53.1954 71.4961 52.6688 71.2554 52.1204C71.0148 51.5063 71.0804 50.7173 71.3867 49.8407C71.5617 49.3142 71.7367 48.9423 71.8476 48.7017L76.2726 50.2142Z" fill="white"/>
<path d="M71.868 55.8686L71.6711 56.2404C71.4305 56.7232 71.518 57.117 71.8898 57.3139C72.2617 57.5107 72.6133 57.3576 72.832 56.9201C72.9414 56.6795 73.007 56.5482 73.0289 56.4811L71.868 55.8686ZM74.1477 55.8686C74.0383 56.1967 73.8414 56.6795 73.5773 57.1842C73.2492 57.8201 72.9414 58.192 72.5258 58.367C72.1977 58.5201 71.8242 58.4982 71.4305 58.3014C70.9039 58.017 70.7289 57.4467 70.7945 57.0295H70.7727C70.5102 57.2701 70.1367 57.2701 69.6992 57.1826C69.1508 57.0732 68.5383 56.8982 68.3398 56.8982L68.8445 55.9342C68.9977 55.9342 69.393 55.9998 69.9836 56.1529C70.5742 56.3061 70.8164 56.1967 71.0133 55.8029L71.1664 55.5186L69.5008 54.6639L69.9836 53.7217L74.1477 55.8686Z" fill="white"/>
<path d="M68.077 60.8654L69.0629 61.2154C69.3254 61.3248 69.677 61.4561 69.9395 61.5654L69.9613 61.5436C69.7645 61.3248 69.5223 61.0607 69.3473 60.842L68.6895 60.0092L68.077 60.8654ZM68.1207 59.4186L67.3316 58.4326L67.9895 57.5342L70.9926 61.5014L70.1598 62.6404L65.4473 61.0623L66.127 60.1201L67.3332 60.5373L68.1207 59.4186Z" fill="white"/>
<path d="M65.49 62.5969C65.1837 62.7062 64.7666 62.925 64.4603 63.2547C64.1103 63.6047 64.0884 63.9344 64.3072 64.1531C64.5041 64.35 64.79 64.3062 65.3369 64.0437C66.0822 63.6719 66.7619 63.6047 67.265 64.0875C67.8572 64.6578 67.8134 65.5562 67.0462 66.3672C66.6744 66.7609 66.3228 66.9594 66.0384 67.0687L65.5775 66.3016C65.7744 66.2359 66.1041 66.0828 66.4322 65.7531C66.7603 65.425 66.7603 65.0953 66.5853 64.9422C66.3666 64.7234 66.0806 64.8328 65.49 65.1172C64.6791 65.5109 64.1087 65.4891 63.6056 65.0078C63.0353 64.4594 62.9697 63.5609 63.8681 62.6188C64.24 62.225 64.7228 61.9391 65.0072 61.8516L65.49 62.5969Z" fill="white"/>
<path d="M62.3562 68.2733C62.3562 68.6671 62.05 68.9749 61.6547 68.9749C61.2609 68.9749 60.9531 68.6687 60.9531 68.2733C60.9531 67.8796 61.2594 67.5718 61.6547 67.5718C62.0281 67.5718 62.3562 67.8796 62.3562 68.2733Z" fill="white"/>
<path d="M19.0477 68.2733C19.0477 68.6671 18.7414 68.9749 18.3461 68.9749C17.9523 68.9749 17.6445 68.6687 17.6445 68.2733C17.6445 67.8796 17.9508 67.5718 18.3461 67.5718C18.7398 67.5718 19.0477 67.8796 19.0477 68.2733Z" fill="white"/>
<path d="M23.2109 58.8936L34.4328 60.9092L33.2281 62.3123L44.2297 63.2545L43.1344 64.1529L54.0063 64.6357L39.6281 66.0607L41.425 64.4607L30.0281 63.2982L31.9344 61.8951L23.2109 58.8936Z" fill="white"/>
<path d="M21.9164 68.647L22.9023 69.2173C22.9023 69.0205 22.9242 68.8455 22.968 68.6689C23.0117 68.4939 23.0773 68.3408 23.1648 68.1861C23.2961 67.9455 23.5148 67.8142 23.8008 67.747C24.0852 67.6814 24.3492 67.747 24.6117 67.9001C24.9398 68.097 25.2039 68.4267 25.4227 68.9298C25.6414 69.4345 25.7727 70.0251 25.8164 70.7048L25.6195 70.7267C25.5758 70.222 25.4445 69.7845 25.2477 69.3892C25.0508 68.9955 24.7648 68.7095 24.4367 68.5126C24.2617 68.4033 24.043 68.4033 23.8227 68.4908C23.6023 68.5783 23.4055 68.7314 23.2742 68.9736C23.1648 69.1486 23.1211 69.258 23.0992 69.3455L23.493 69.5642L23.5586 70.1783L23.032 69.872L21.2133 72.9845L20.8633 72.3048L22.4852 69.5439L21.9805 69.2595L21.9164 68.647Z" fill="white"/>
<path d="M24.4834 71.2328C24.4396 71.4297 24.3521 71.6266 24.2646 71.8469C24.3302 72 24.4177 72.1313 24.5052 72.2188C24.5927 72.3281 24.6802 72.3937 24.7896 72.4594C24.899 72.5031 25.0084 72.5469 25.1396 72.525C25.2709 72.525 25.4021 72.5031 25.5115 72.4375L26.0162 71.4078L24.5474 70.6844C24.549 70.8609 24.549 71.0359 24.4834 71.2328ZM24.6146 74.2797L25.1849 73.0969C25.1412 73.0969 25.0756 73.0969 25.0099 73.075C24.9443 73.0531 24.8568 73.0094 24.7474 72.9656C24.5943 72.9 24.4631 72.7688 24.3302 72.5938C24.2209 72.4188 24.1334 72.2219 24.0677 72.0016C23.9365 72.1328 23.7834 72.2422 23.6287 72.3078C23.4756 72.3734 23.3224 72.3953 23.1677 72.3734C23.2771 72.9438 23.4959 73.5125 23.8256 74.1047L23.4318 74.2797C22.8396 72.6141 22.6427 71.6062 22.7959 71.2547C22.8396 71.1672 22.9052 71.1016 22.9927 71.0578C23.0802 71.0141 23.1459 71.0141 23.2115 71.0578C23.299 71.1016 23.3427 71.1672 23.3865 71.2547C23.4302 71.3422 23.4521 71.4516 23.4521 71.5828C23.5834 71.5828 23.7146 71.5391 23.8459 71.4734C23.9552 71.4078 24.0427 71.2984 24.1084 71.1672C24.1521 71.0578 24.1959 70.9484 24.2177 70.8391C24.2396 70.7297 24.2396 70.6422 24.2177 70.5328L23.1224 70.0063L23.0131 69.4141L27.0021 71.3422L27.1115 71.9344L26.5631 71.6719L24.9849 74.9156L24.6146 74.2797Z" fill="white"/>
<path d="M26.607 71.1455L27.6805 71.5627C27.6586 71.3877 27.6367 71.1909 27.6586 71.0143C27.6805 70.8393 27.7242 70.6643 27.768 70.5096C27.8773 70.2471 28.0523 70.0705 28.3164 69.983C28.5789 69.8955 28.8648 69.8955 29.1492 70.0049C29.4992 70.1362 29.8289 70.444 30.1133 70.8815C30.3977 71.3424 30.618 71.8893 30.793 72.569L30.5961 72.6346C30.4648 72.1518 30.2898 71.7362 30.0258 71.3846C29.7633 71.0346 29.4555 70.7924 29.1055 70.6612C28.9086 70.5737 28.7117 70.5955 28.4914 70.7268C28.2727 70.858 28.1195 71.033 28.0305 71.2971C27.9648 71.4721 27.9211 71.6034 27.9211 71.6909L28.3383 71.844L28.4914 72.4362L27.9211 72.2174L26.6055 75.5705L26.1445 74.9565L27.3055 71.9752L26.757 71.7565L26.607 71.1455Z" fill="white"/>
<path d="M28.7341 75.9673C28.7778 76.0329 28.8434 76.0985 28.9309 76.1204C29.1059 76.1642 29.3028 76.1642 29.5012 76.0985C29.6981 76.0329 29.8731 75.9017 30.0278 75.7267C29.6778 75.6173 29.4356 75.5079 29.3262 75.3767C29.1731 75.3767 29.0419 75.3985 28.9325 75.4642C28.8231 75.5298 28.7356 75.6173 28.7137 75.7267C28.6903 75.8142 28.6903 75.9017 28.7341 75.9673ZM32.1309 73.0298L32.3497 73.6001L31.6481 73.3814L31.32 74.4767L29.7856 74.0157C29.6762 73.972 29.545 73.9938 29.4356 74.0595C29.3262 74.1251 29.2606 74.2345 29.2169 74.3438C29.1731 74.4751 29.195 74.6282 29.2825 74.761C29.37 74.8923 29.5012 74.9798 29.6762 75.0454L30.1591 75.1548C30.1591 75.111 30.1591 75.0892 30.1372 75.0454C30.1372 75.0017 30.1372 74.9798 30.1372 74.9579C30.1591 74.8485 30.2466 74.7829 30.3559 74.7392C30.4653 74.6954 30.5966 74.6954 30.7278 74.7392C30.8591 74.7829 30.9684 74.8704 31.0341 75.0017C31.0997 75.1329 31.1216 75.286 31.0559 75.4407C31.0341 75.5501 30.9684 75.6157 30.8591 75.6813C30.7716 75.747 30.6403 75.7907 30.5091 75.7907L31.1231 76.997L30.7512 77.1282L30.4231 76.2298C30.2262 76.3829 30.0059 76.4923 29.7872 76.536C29.5684 76.5798 29.3481 76.5798 29.1294 76.5142C28.8887 76.4485 28.6466 76.2735 28.4497 76.0313C28.2528 75.7907 28.1653 75.5923 28.2091 75.4173C28.2309 75.3517 28.2528 75.3079 28.2747 75.2642C28.2966 75.2204 28.3403 75.1767 28.3841 75.1329C28.1216 75.0235 27.9231 74.8923 27.7919 74.6938C27.6606 74.497 27.6169 74.3001 27.6825 74.1235C27.7044 74.0579 27.7481 73.9704 27.8356 73.8829C27.9231 73.7954 28.0325 73.7079 28.1637 73.6204L28.5809 74.2563C28.4934 74.3001 28.4059 74.3438 28.3403 74.3876C28.2747 74.4313 28.2528 74.497 28.2309 74.5407C28.2091 74.6063 28.2309 74.6938 28.2966 74.7595C28.3622 74.847 28.4497 74.8907 28.5591 74.9345L28.9528 74.8032C28.8653 74.6501 28.7997 74.497 28.7778 74.3423C28.7559 74.1673 28.7559 74.0142 28.7997 73.8595C28.8653 73.6845 28.9966 73.5532 29.1934 73.4657C29.4122 73.3782 29.6325 73.3782 29.895 73.4657L30.7934 73.7282L30.9466 73.1798L27.9872 72.3032L27.7684 71.7329L32.1309 73.0298Z" fill="white"/>
<path d="M32.4606 73.8624C32.5481 73.9718 32.6793 74.0593 32.8543 74.103L32.9856 73.4233C33.0074 73.3577 32.9856 73.2702 32.9637 73.2264C32.9418 73.1608 32.9199 73.1389 32.8762 73.1171C32.7449 73.0952 32.6356 73.1171 32.5481 73.1827C32.4387 73.2483 32.3949 73.3577 32.3731 73.4671C32.3278 73.6218 32.3715 73.7311 32.4606 73.8624ZM33.7528 73.3155L35.7246 73.6655L35.9871 74.2139L35.3949 74.1046L34.759 77.6546L34.1887 77.128L34.3856 76.0764L33.2246 75.8577L33.159 76.2514C33.1371 76.3389 33.0934 76.4046 33.0496 76.4702C32.984 76.5139 32.9184 76.5358 32.8746 76.5358C32.6778 76.4921 32.4809 76.3389 32.3043 76.0311C32.1074 75.7249 32.0418 75.4827 32.0637 75.2639C32.0637 75.2202 32.1074 75.1764 32.1731 75.1327C32.2387 75.1108 32.3043 75.0889 32.3699 75.1108L32.6981 75.1764L32.8293 74.4093C32.5231 74.2561 32.2809 74.0811 32.1278 73.8171C31.9746 73.5764 31.909 73.3343 31.9528 73.0718C31.9746 72.9186 32.0621 72.7874 32.2153 72.6999C32.3684 72.6124 32.5215 72.5905 32.6981 72.6124C32.9387 72.6561 33.159 72.8311 33.3559 73.1389C33.5528 73.4452 33.6184 73.7311 33.5746 73.9718L33.334 75.2655L34.4949 75.4843L34.7793 73.9499L34.0121 73.8186L33.7528 73.3155Z" fill="white"/>
<path d="M34.7614 71.6717C34.9364 71.5404 35.1114 71.4967 35.3317 71.5186C35.5505 71.5404 35.7489 71.6279 35.902 71.7592C36.077 71.8904 36.1864 72.0654 36.252 72.2857L36.1208 72.3951C36.0552 72.2857 35.9895 72.2201 35.902 72.1545C35.8145 72.0889 35.727 72.067 35.6395 72.0451C35.4427 72.0232 35.2895 72.067 35.1348 72.1982C34.9817 72.3076 34.8942 72.4607 34.8723 72.6592C34.8505 72.7686 34.8723 72.8779 34.9161 73.0092C34.9598 73.1404 35.0473 73.2717 35.1348 73.4029L34.9598 73.5123C34.7848 73.3154 34.6317 73.0951 34.5661 72.8545C34.4786 72.6139 34.4567 72.3936 34.4786 72.1529C34.477 71.9561 34.5864 71.7811 34.7614 71.6717Z" fill="white"/>
<path d="M36.2961 76.3609C36.3836 76.4484 36.5148 76.5141 36.668 76.5141C36.8648 76.5359 37.0852 76.4922 37.3258 76.4047C37.5664 76.3172 37.7867 76.2078 38.0273 76.0328C37.8961 75.8578 37.7648 75.7047 37.6102 75.6156C37.457 75.5063 37.3039 75.4625 37.1492 75.4406C36.9086 75.4188 36.6883 75.4625 36.4914 75.5938C36.3164 75.7031 36.207 75.8562 36.207 76.0328C36.1648 76.1641 36.1867 76.2734 36.2961 76.3609ZM39.0586 73.9281L39.3867 74.4547L38.7727 74.4109L38.5102 78.0047L37.8961 77.5438L37.9617 76.7328C37.7867 76.8422 37.6336 76.9516 37.457 76.9953C37.282 77.0609 37.1289 77.0828 36.9523 77.0609C36.6461 77.0391 36.3602 76.8641 36.0539 76.5781C35.7695 76.2719 35.6367 75.9859 35.6602 75.7016C35.682 75.4609 35.7914 75.2625 36.0102 75.1094C36.2289 74.9563 36.4711 74.8906 36.7555 74.9125C36.9961 74.9344 37.2383 75.0219 37.4789 75.175C37.7195 75.3281 37.8961 75.525 38.0492 75.7891L38.1586 74.3641L35.5508 74.1672L35.2227 73.6406L39.0586 73.9281Z" fill="white"/>
<path d="M38.6621 73.8845L39.8012 73.9064C39.7137 73.7314 39.648 73.5783 39.6043 73.4017C39.5605 73.2267 39.5387 73.0517 39.5387 72.8751C39.5387 72.6126 39.648 72.3704 39.8668 72.1954C40.0855 72.0204 40.3496 71.9111 40.6559 71.9329C41.0277 71.9329 41.4449 72.108 41.8621 72.4376C42.3012 72.7658 42.6949 73.2048 43.0902 73.7751L42.9152 73.8845C42.6309 73.4673 42.3012 73.1392 41.9293 72.9205C41.5574 72.6798 41.184 72.5704 40.8121 72.5486C40.5934 72.5486 40.4184 72.6361 40.2637 72.833C40.1105 73.0298 40.023 73.2501 40.023 73.5126C40.023 73.7095 40.023 73.8408 40.0668 73.9298H40.5059L40.8559 74.4345L40.2418 74.4126L40.1762 78.0064L39.5402 77.5892L39.584 74.4111H39.0137L38.6621 73.8845Z" fill="white"/>
<path d="M43.8574 73.7095L44.2512 74.1704L43.6371 74.2142L43.8777 77.8079L43.198 77.436L43.0887 75.6392L41.8168 75.7267C41.7074 75.7267 41.6199 75.7923 41.5324 75.9017C41.4668 76.011 41.423 76.1423 41.4449 76.2735C41.4668 76.4923 41.5543 76.7345 41.7074 76.9532C41.8605 77.1938 42.0793 77.4142 42.3652 77.611L42.1246 77.8298C41.7309 77.4798 41.4012 77.1282 41.1824 76.822C40.9637 76.4938 40.8324 76.2298 40.8105 75.9892C40.7887 75.7485 40.8543 75.5501 40.9855 75.3751C41.1168 75.2001 41.2918 75.0907 41.4902 75.0907L43.0465 74.9813L43.0027 74.236L40.4387 74.411L40.0449 73.9501L43.8574 73.7095Z" fill="white"/>
<path d="M46.4 75.7923C46.4875 75.8579 46.5969 75.8798 46.7063 75.8579C46.8813 75.8142 47.0344 75.7485 47.1891 75.6173C47.3438 75.486 47.4734 75.3329 47.5609 75.1345C47.4734 75.0251 47.3641 74.9376 47.2328 74.8938C47.1016 74.8501 46.9922 74.8282 46.8828 74.8501C46.6641 74.8938 46.5109 74.9813 46.3781 75.1126C46.2469 75.2438 46.2031 75.3751 46.225 75.5298C46.2469 75.661 46.3125 75.7485 46.4 75.7923ZM49.3594 72.7017L49.8203 73.1188L47.8922 73.5126L48.1109 74.586C48.1766 74.4767 48.2422 74.3892 48.3297 74.3235C48.4172 74.2579 48.5266 74.2142 48.6578 74.1923C48.8766 74.1485 49.1406 74.2579 49.425 74.5423C49.7094 74.8267 49.8859 75.1126 49.9516 75.4407C49.9734 75.5938 49.9734 75.747 49.9516 75.9235C49.9297 76.0985 49.8641 76.2954 49.7766 76.472L49.1625 76.1001C49.2938 75.9032 49.3813 75.7282 49.425 75.5517C49.4688 75.3767 49.4906 75.2235 49.4688 75.0688C49.4469 74.9376 49.3812 74.8282 49.2719 74.7626C49.1625 74.697 49.0531 74.6532 48.9219 74.697C48.8125 74.7188 48.7031 74.7845 48.5719 74.8938C48.4625 75.0032 48.3531 75.1563 48.2438 75.3329L48.5937 77.0642L47.8703 76.8017L47.6953 75.9251C47.6297 76.0345 47.5422 76.122 47.4328 76.1876C47.3234 76.2532 47.2141 76.3188 47.0828 76.3407C46.8422 76.3845 46.5781 76.297 46.2719 76.0782C45.9656 75.8595 45.7891 75.5954 45.7453 75.3329C45.7016 75.136 45.7453 74.961 45.8766 74.8063C46.0078 74.6313 46.1828 74.5438 46.4031 74.5001C46.5781 74.4563 46.7531 74.4782 46.9516 74.5657C47.1484 74.6313 47.3234 74.7626 47.5 74.9157L47.2594 73.7095L45.2422 74.1267L44.7812 73.7095L49.3594 72.7017Z" fill="white"/>
<path d="M51.1352 74.1923L52.2961 73.7985L51.7914 72.3298L50.6305 72.7235L51.1352 74.1923ZM52.4945 71.561L52.9992 71.911L52.4289 72.1079L53.5898 75.5048L52.8445 75.3298L52.5383 74.4095L51.3773 74.8032L51.5086 75.197C51.5305 75.2845 51.5305 75.372 51.5086 75.4376C51.4867 75.5032 51.443 75.5688 51.3773 75.5907C51.1805 75.6563 50.9164 75.6126 50.5883 75.4376C50.2602 75.2626 50.0617 75.0657 49.9961 74.8673C49.9742 74.8017 49.9742 74.736 50.018 74.6704C50.0617 74.6048 50.1055 74.561 50.193 74.5392L50.543 74.4298L50.0383 72.961L49.2273 73.2454L48.7227 72.8954L52.4945 71.561Z" fill="white"/>
<path d="M50.6725 70.2908C50.76 70.0939 50.9131 69.9627 51.1115 69.8971C51.3084 69.8096 51.5287 69.7877 51.7475 69.8314C51.9662 69.8752 52.1412 69.9627 52.3178 70.1158L52.2522 70.2689C52.1428 70.2033 52.0334 70.1814 51.9459 70.1596C51.8365 70.1377 51.749 70.1596 51.6615 70.2033C51.4865 70.2689 51.3553 70.4002 51.2897 70.5752C51.224 70.7502 51.2022 70.9252 51.2897 71.1018C51.3334 71.1893 51.399 71.2986 51.5084 71.3861C51.6178 71.4736 51.749 71.5611 51.9021 71.6268L51.7928 71.8018C51.5303 71.7143 51.31 71.583 51.1131 71.4299C50.9162 71.2549 50.785 71.0799 50.6959 70.8596C50.5631 70.6627 50.585 70.4658 50.6725 70.2908Z" fill="white"/>
<path d="M56.1535 69.8735L56.702 70.1579L56.1535 70.4204L57.6879 73.6642L56.9207 73.5767L56.1754 72.0204L55.1457 72.5032C55.3645 72.5688 55.5848 72.6563 55.7379 72.7876C55.9129 72.9188 56.0441 73.0501 56.1098 73.2267C56.1973 73.4017 56.1973 73.5985 56.1316 73.797C56.0441 73.9938 55.9129 74.1251 55.7379 74.236C55.4098 74.3892 55.0145 74.3454 54.5316 74.1267C54.0488 73.9079 53.5895 73.5345 53.1504 73.0095L53.3254 72.8345C53.6316 73.2063 53.9613 73.4485 54.3113 73.6235C54.6613 73.7767 54.9473 73.7985 55.1879 73.6892C55.2973 73.6454 55.3629 73.5579 55.3848 73.4485C55.4285 73.3392 55.4066 73.2298 55.3629 73.0985C55.2754 72.9235 55.1223 72.7704 54.8801 72.6376C54.6379 72.5048 54.3316 72.4188 53.9816 72.3532L55.9098 71.4329L55.5598 70.6876L52.5348 72.1126L51.9863 71.8282L56.1535 69.8735Z" fill="white"/>
<path d="M57.2934 69.1499L57.8621 69.3921L57.3371 69.6983L59.134 72.8108L58.3668 72.789L56.7668 70.028L56.2621 70.3124L55.6934 70.0718L57.2934 69.1499Z" fill="white"/>
<path d="M18.082 44.8219C18.082 45.8516 20.493 46.3781 21.1289 46.5531C23.8242 47.2547 26.6305 47.5828 29.4133 47.7594C31.9773 47.9344 35.1117 47.5188 37.5664 46.8828C36.1195 44.9547 34.7164 43.025 33.7086 40.8109C24.5477 41.425 18.082 43.2656 18.082 44.8219ZM46.2898 40.7891C45.282 42.9813 43.8789 44.9313 42.432 46.8609C44.9086 47.4969 48.0211 47.9125 50.5852 47.7375C53.368 47.5406 56.1742 47.2109 58.8695 46.5313C59.5055 46.3781 61.9164 45.8516 61.9164 44.8C61.9164 43.2438 55.4508 41.4031 46.2898 40.7891Z" fill="white"/>
<path d="M18.082 44.8219H17.9727C17.9727 45.1281 18.1477 45.3703 18.3898 45.5891C18.7617 45.8953 19.3102 46.1375 19.8367 46.3125C20.3633 46.4875 20.8445 46.5969 21.0867 46.6625C23.8039 47.3641 26.6102 47.6922 29.393 47.8906C29.8102 47.9125 30.2258 47.9344 30.643 47.9344C32.9445 47.9344 35.4867 47.5406 37.5914 47.0141L37.7445 46.9703L37.657 46.8609C36.2102 44.9328 34.807 43.0031 33.8211 40.8109L33.7992 40.7453H33.7336C29.1523 41.0516 25.2289 41.6656 22.468 42.3891C21.0867 42.7609 19.9695 43.1562 19.2242 43.55C18.8523 43.7469 18.5445 43.9672 18.3477 44.1641C18.1508 44.3828 18.0195 44.6031 18.0195 44.8219H18.082H18.1914C18.1914 44.6687 18.2789 44.4937 18.4539 44.2953C18.782 43.9672 19.3961 43.6156 20.2727 43.2656C22.8805 42.2359 27.7242 41.3156 33.7305 40.9203V40.8109L33.643 40.8547C34.6508 43.0687 36.0539 44.9969 37.5008 46.9266L37.5883 46.8609L37.5664 46.7734C35.5055 47.3219 32.9633 47.6937 30.6836 47.6937C30.2664 47.6937 29.8508 47.6719 29.4336 47.65C26.6727 47.4531 23.8664 47.1234 21.1711 46.4437C20.8648 46.3562 20.0977 46.1812 19.418 45.9172C19.0898 45.7859 18.7602 45.6109 18.5414 45.4344C18.3227 45.2375 18.1914 45.0406 18.1914 44.8203L18.082 44.8219ZM46.2898 40.7891L46.2023 40.7453C45.1945 42.9375 43.8133 44.8656 42.3664 46.7953L42.2789 46.9047L42.432 46.9484C44.5148 47.4969 47.0789 47.8687 49.3805 47.8687C49.8195 47.8687 50.2352 47.8469 50.6305 47.825C53.4133 47.6281 56.2195 47.2984 58.9367 46.5969C59.243 46.5094 60.0102 46.3344 60.7117 46.0484C61.0617 45.8953 61.3914 45.7422 61.632 45.5219C61.8727 45.325 62.0492 45.0609 62.0492 44.7547C62.0492 44.5141 61.9398 44.2937 61.7211 44.0969C61.3711 43.725 60.7133 43.3734 59.8367 43.0234C57.1852 41.9937 52.3414 41.0516 46.3133 40.6562H46.2477L46.2258 40.7219L46.2898 40.7891V40.8984C50.8711 41.2047 54.7727 41.8187 57.5117 42.5422C58.893 42.9141 59.9883 43.3094 60.7117 43.7031C61.0836 43.9 61.3695 44.0969 61.5445 44.2953C61.7195 44.4922 61.807 44.6672 61.807 44.8219C61.807 45.0406 61.6758 45.2391 61.457 45.4359C61.1289 45.7203 60.5805 45.9406 60.0758 46.1156C59.5711 46.2906 59.0898 46.4 58.8477 46.4656C56.1523 47.1453 53.3461 47.4953 50.5852 47.6719C50.1914 47.6937 49.7742 47.7156 49.3352 47.7156C47.0555 47.7156 44.5133 47.3437 42.4523 46.7953L42.4305 46.8828L42.518 46.9484C43.9648 45.0203 45.368 43.0687 46.3758 40.8766L46.2898 40.7891Z" fill="#1F1917"/>
<path d="M37.5666 46.8829C36.1197 44.9548 34.7385 43.0032 33.7307 40.811C33.665 40.636 33.5775 40.4829 33.5119 40.3063C33.0072 39.1001 32.6135 37.8954 32.3728 36.7126C31.3213 31.386 33.0088 25.9954 35.9447 21.5673C37.6541 18.9813 39.4947 16.3501 39.9557 13.2173H40.065C40.526 16.3517 42.3666 18.9813 44.076 21.5673C47.0135 25.9954 48.701 31.386 47.6478 36.7126C47.4072 37.8954 47.0119 39.1235 46.5088 40.3063C46.4432 40.4813 46.3557 40.6345 46.29 40.811C45.2822 43.0032 43.8791 44.9532 42.4322 46.8829C41.5338 46.6423 40.701 46.3782 40.0432 46.0938C39.3853 46.3782 38.5525 46.6423 37.6541 46.8829H37.5666Z" fill="white"/>
<path d="M37.5668 46.8827L37.6543 46.8171C36.2074 44.9108 34.8262 42.9374 33.8402 40.7671C33.7527 40.5921 33.6871 40.439 33.6215 40.2624C33.1168 39.0796 32.723 37.8515 32.4824 36.6687C32.2637 35.5952 32.1762 34.4983 32.1762 33.4249C32.1762 29.2171 33.7105 25.0968 36.0559 21.589C37.7652 19.003 39.6277 16.3718 40.0887 13.1952L39.9793 13.1733V13.2827H40.0887V13.1733L39.9793 13.1952C40.4621 16.3733 42.3027 19.003 44.0121 21.589C46.3574 25.0952 47.8918 29.2171 47.8918 33.4249C47.8918 34.4983 47.7824 35.5733 47.5855 36.6687C47.3449 37.8515 46.9496 39.0577 46.4465 40.2624C46.3809 40.4374 46.2934 40.5905 46.2277 40.7671C45.2199 42.9593 43.8387 44.8874 42.3918 46.8171L42.4793 46.8827L42.5012 46.7952C41.6027 46.5546 40.7918 46.2905 40.134 46.028L40.0902 46.0062L40.0465 46.028C39.3887 46.3124 38.5777 46.5765 37.6574 46.7952L37.6793 46.8827L37.6574 46.7733H37.5918H37.5043V46.8608H37.5699L37.6574 46.7952L37.5668 46.8827L37.5887 46.9921H37.6543C38.5746 46.7515 39.3855 46.4874 40.0652 46.203L40.0215 46.1155L39.9777 46.203C40.6574 46.4874 41.4684 46.7515 42.3887 46.9921L42.4543 47.014L42.498 46.9702C43.9449 45.0421 45.348 43.0905 46.3559 40.8983C46.4215 40.7233 46.509 40.5702 46.5746 40.3937C47.0793 39.1874 47.4949 37.9608 47.7137 36.7765C47.9324 35.6812 48.0418 34.5843 48.0418 33.5108C48.0418 29.2593 46.4855 25.0937 44.1402 21.5655C42.409 18.9796 40.5902 16.3483 40.1293 13.2374L40.1074 13.1499H39.9105H39.823L39.8012 13.2374C39.3402 16.3499 37.5215 18.9796 35.7902 21.5655C33.4449 25.0937 31.8887 29.2593 31.8887 33.5108C31.8887 34.6062 31.998 35.703 32.2168 36.7983C32.4574 37.9812 32.8527 39.2312 33.3559 40.4155C33.4215 40.5905 33.509 40.7655 33.5746 40.9202C34.5824 43.1124 35.9855 45.0843 37.4105 47.014L37.5855 47.2546V46.9483H37.5637V46.8827H37.5668Z" fill="#1F1917"/>
<path d="M37.5672 46.883C35.0906 47.5189 31.9781 47.9346 29.4141 47.7596C26.6312 47.5627 23.825 47.233 21.1297 46.5533C20.5594 46.4002 18.5219 45.9611 18.1484 45.1064C20.2531 52.7783 29.2391 58.5643 40.0219 58.5643C50.8047 58.5643 59.7922 52.8002 61.8734 45.1064H61.8516C61.4578 45.9393 59.4406 46.3783 58.8703 46.5314C56.175 47.233 53.3688 47.5611 50.5859 47.7377C48.0219 47.9127 44.8875 47.4971 42.4328 46.8611C41.5344 46.6205 40.7016 46.3564 40.0438 46.0721C39.3859 46.3564 38.5531 46.6205 37.6547 46.8611L37.5672 46.883Z" fill="#781F19"/>
<path d="M37.5453 46.7937C35.4844 47.3421 32.9422 47.714 30.6625 47.714C30.2453 47.714 29.8297 47.6921 29.4125 47.6702C26.6516 47.4733 23.8453 47.1437 21.15 46.464C20.8656 46.3983 20.2078 46.2452 19.5937 46.003C19.2875 45.8937 18.9797 45.7405 18.7391 45.5858C18.4984 45.4327 18.3219 45.2577 18.2344 45.0593L18.2125 44.9937H18.1469H18.0156L18.0594 45.1249C20.1641 52.8624 29.2156 58.6483 40.0203 58.6483C50.825 58.6483 59.8563 52.8624 61.9813 45.1249L62.025 44.9937H61.8719H61.8063L61.7844 45.0593C61.6969 45.2343 61.5 45.4093 61.2578 45.564C60.8859 45.8046 60.4031 45.9812 59.9422 46.1343C59.4813 46.2655 59.0875 46.3749 58.8688 46.4187C56.1734 47.0983 53.3672 47.4483 50.6063 47.6249C50.2125 47.6468 49.7953 47.6687 49.3563 47.6687C47.0766 47.6687 44.5344 47.2968 42.4734 46.7483C41.575 46.5077 40.7641 46.2437 40.1062 45.9812L40.0625 45.9593L40.0187 45.9812C39.3609 46.2655 38.55 46.5296 37.6297 46.7483L37.6516 46.8358L37.6297 46.7265L37.5453 46.7937L37.5891 46.9687H37.6547C38.575 46.728 39.3859 46.464 40.0656 46.1796L40.0219 46.0921L39.9781 46.1796C40.6578 46.464 41.4688 46.728 42.3891 46.9687C44.4719 47.5171 47.0359 47.889 49.3375 47.889C49.7766 47.889 50.1922 47.8671 50.5875 47.8452C53.3703 47.6483 56.1766 47.3187 58.8937 46.6171C59.1781 46.5515 59.8141 46.3983 60.45 46.1562C60.7563 46.0468 61.0859 45.8937 61.3484 45.739C61.6109 45.564 61.8312 45.389 61.9406 45.1468L61.8531 45.103V45.2124H61.875V45.103L61.7875 45.0812C59.7047 52.7093 50.7625 58.4515 40.0234 58.4515C29.2844 58.4515 20.3187 52.6874 18.2594 45.0812L18.1719 45.103L18.0844 45.1468C18.1937 45.3874 18.4125 45.5858 18.6766 45.7608C19.0703 46.0233 19.575 46.1999 20.0359 46.353C20.4969 46.5062 20.9125 46.5937 21.1313 46.6593C23.8484 47.3608 26.6547 47.689 29.4375 47.8874C29.8547 47.9093 30.2703 47.9312 30.6875 47.9312C32.9891 47.9312 35.5312 47.5374 37.6359 47.0108L37.5453 46.7937Z" fill="#1F1917"/>
<path d="M40.3934 40.4389C40.2184 40.6139 40.0652 40.8107 40.0652 40.9654H40.0434C40.0434 40.7904 39.8684 40.5936 39.6934 40.417V46.1373H39.8902C39.934 46.1154 39.9996 46.0936 40.0434 46.0717C40.0871 46.0936 40.1309 46.1154 40.1965 46.1373H40.4152V40.4389" fill="#BDA345"/>
<path d="M40.393 40.4392L40.3273 40.3735C40.2398 40.461 40.1523 40.5485 40.0867 40.6579C40.0211 40.7454 39.9773 40.8548 39.9773 40.9642H40.0867V40.8548H40.0648V40.9642H40.1742C40.1742 40.8548 40.1086 40.7454 40.043 40.636C39.9773 40.5267 39.8898 40.4392 39.7805 40.3298L39.6055 40.1548V46.2267H39.9117H39.9336H39.9555C39.9992 46.2048 40.043 46.1829 40.1086 46.161L40.0648 46.0735L40.0211 46.161C40.0648 46.1829 40.1305 46.2048 40.1742 46.2267H40.1961H40.4367H40.5461V40.1767L40.3711 40.3517L40.393 40.4392H40.2836V46.0501H40.1742V46.1595L40.218 46.072C40.1742 46.0501 40.1086 46.0282 40.0648 46.0064L40.0211 45.9845L39.9773 46.0064C39.9336 46.0282 39.8898 46.0501 39.8242 46.072L39.868 46.1595V46.0501H39.7805V40.4173H39.6711L39.6055 40.4829C39.693 40.5704 39.7805 40.6579 39.8461 40.7454C39.9117 40.8329 39.9336 40.9204 39.9336 40.9642V41.0517H40.043H40.1305V40.9642C40.1305 40.9204 40.1523 40.8329 40.218 40.7673C40.2836 40.6798 40.3492 40.5923 40.4367 40.5048L40.393 40.4392Z" fill="#1F1917"/>
<path d="M40.1307 36.3389H39.9776C39.1885 36.3389 38.5307 36.9092 38.3557 37.6982C38.1369 38.7279 38.5963 39.3857 39.2979 40.0436C39.4729 40.2186 40.0432 40.6576 40.0432 40.9639H40.0651C40.0869 40.6576 40.6354 40.2186 40.8104 40.0436C41.5119 39.3857 41.9713 38.7279 41.7526 37.6982C41.5776 36.8873 40.9198 36.3389 40.1307 36.3389Z" fill="#D9261C"/>
<path d="M40.1316 36.2295H39.9785C39.1457 36.2295 38.4441 36.8436 38.2473 37.6764C38.2035 37.8514 38.1816 38.0264 38.1816 38.2029C38.1816 38.5967 38.291 38.9482 38.4879 39.2545C38.6629 39.5607 38.927 39.8467 39.2332 40.1311C39.3207 40.2186 39.5176 40.3717 39.6723 40.5482C39.7598 40.6357 39.8254 40.7232 39.8691 40.7889C39.9129 40.8764 39.9566 40.942 39.9566 40.9857C39.9566 41.0295 40.0004 41.0732 40.066 41.0732H40.0879C40.1316 41.0732 40.1754 41.0295 40.1973 40.9857C40.1973 40.942 40.2191 40.8764 40.2848 40.7889C40.3504 40.6795 40.4816 40.5482 40.6129 40.417C40.7441 40.3076 40.8535 40.1982 40.9191 40.1326C41.2035 39.8482 41.4676 39.5842 41.6645 39.2561C41.8395 38.9498 41.9707 38.5982 41.9707 38.2045C41.9707 38.0295 41.9488 37.8545 41.9051 37.6779C41.666 36.8436 40.9863 36.2295 40.1316 36.2295H39.9785V36.4264H40.1316C40.877 36.4264 41.491 36.9529 41.666 37.7201C41.7098 37.8951 41.7316 38.0482 41.7316 38.2029C41.7316 38.5529 41.6223 38.8607 41.4691 39.1451C41.2941 39.4295 41.052 39.6936 40.7676 39.9779C40.6801 40.0654 40.4832 40.2186 40.3285 40.3951C40.241 40.4826 40.1754 40.5701 40.1098 40.6795C40.0441 40.767 40.0004 40.8764 40.0004 40.9857H40.1098V40.8764H40.0879V40.9857H40.1973C40.1973 40.8764 40.1535 40.7889 40.0879 40.6795C40.0004 40.5482 39.8691 40.3951 39.7379 40.2857C39.6066 40.1545 39.4973 40.067 39.4316 40.0014C39.1473 39.7389 38.9051 39.4529 38.7301 39.1686C38.5551 38.8842 38.4676 38.5764 38.4676 38.2264C38.4676 38.0732 38.4895 37.9201 38.5332 37.7436C38.7082 36.9982 39.3223 36.4498 40.0676 36.4498H40.2207V36.2311H40.1316V36.2295Z" fill="#1F1917"/>
<path d="M38.3562 37.6985C38.4656 37.1719 38.8172 36.7344 39.2547 36.5157L39.3203 36.4282C39.3203 36.4282 37.3703 34.8282 34.9141 36.7563C35.0234 36.7126 35.9875 37.5235 36.0969 37.611C36.7547 38.0719 37.4344 38.2688 38.2453 38.1157L38.3109 38.0063C38.3125 37.8954 38.3344 37.786 38.3562 37.6985Z" fill="#D9261C"/>
<path d="M38.3569 37.6983L38.4444 37.7202C38.5538 37.2155 38.8835 36.8218 39.2991 36.603L39.3429 36.5593L39.4085 36.4718C39.4304 36.428 39.4304 36.3624 39.3866 36.3405C39.3866 36.3405 38.5976 35.7046 37.3929 35.7046C36.6694 35.7046 35.7929 35.9452 34.8507 36.6687C34.8069 36.6905 34.8069 36.7562 34.8288 36.7999C34.8507 36.8437 34.9163 36.8655 34.9601 36.8437L34.9382 36.778V36.8437H34.9601L34.9382 36.778V36.8437C34.9382 36.8437 34.9819 36.8655 35.0038 36.8874C35.1351 36.9749 35.3757 37.1499 35.596 37.3265C35.7054 37.414 35.7929 37.5015 35.8804 37.5671C35.9679 37.6327 36.0116 37.6765 36.0554 37.6983C36.5819 38.0702 37.1288 38.2687 37.7429 38.2687C37.9179 38.2687 38.0929 38.2468 38.2913 38.2249C38.3132 38.2249 38.3351 38.203 38.3569 38.1812L38.4226 38.0718L38.4444 38.028C38.4444 37.9405 38.4663 37.8312 38.4882 37.7437L38.3569 37.6983L38.2913 37.764C38.3132 37.7858 38.3569 37.8077 38.4007 37.7858C38.4444 37.7858 38.4663 37.7421 38.4663 37.7202L38.3569 37.6983L38.4226 37.6327C38.4007 37.6108 38.3569 37.589 38.3351 37.6108C38.2913 37.6108 38.2694 37.6546 38.2694 37.6765C38.2476 37.7858 38.2257 37.8952 38.2257 37.9827H38.3351L38.2476 37.939L38.1819 38.0483L38.2694 38.0921L38.2476 38.0046C38.0726 38.0265 37.8976 38.0483 37.7429 38.0483C37.1726 38.0483 36.6694 37.8733 36.1866 37.4999C36.1648 37.478 36.0773 37.4124 35.9898 37.3249C35.8366 37.1937 35.6179 37.0187 35.4413 36.8858C35.3538 36.8202 35.2663 36.7546 35.1788 36.7108C35.1351 36.689 35.1132 36.6671 35.0694 36.6452C35.0257 36.6233 35.0038 36.6233 34.9601 36.6233L34.8944 36.6452L34.9382 36.7327L35.0038 36.8202C35.9023 36.1187 36.7351 35.8999 37.4148 35.8999C37.9851 35.8999 38.4444 36.053 38.7741 36.2062C38.9273 36.2718 39.0585 36.3593 39.146 36.403C39.1898 36.4249 39.2116 36.4468 39.2335 36.4687L39.2554 36.4905L39.321 36.403L39.2335 36.3593L39.1679 36.4468L39.2554 36.4905L39.2116 36.403C38.7288 36.6437 38.3788 37.1046 38.2476 37.653L38.3569 37.6983Z" fill="#1F1917"/>
<path d="M40.6797 36.3827L40.7016 36.4264C41.2281 36.6233 41.6219 37.0842 41.7531 37.6983C41.775 37.8514 41.7969 37.9827 41.7969 38.1155C42.5641 38.2248 43.2219 38.0498 43.8578 37.5889C43.9891 37.5014 44.9313 36.6686 45.0406 36.7342C42.6078 34.828 40.6797 36.3827 40.6797 36.3827Z" fill="#D9261C"/>
<path d="M40.6801 36.3828L40.5926 36.4266L40.6145 36.4703L40.6582 36.5141C41.141 36.6891 41.5348 37.1281 41.666 37.6969C41.6879 37.8281 41.7098 37.9594 41.7098 38.0906C41.7098 38.1344 41.7535 38.1781 41.7973 38.1781C41.9504 38.2 42.1035 38.2219 42.2582 38.2219C42.8723 38.2219 43.4191 38.025 43.9457 37.6516C43.9895 37.6297 44.0551 37.5641 44.1645 37.4766C44.3176 37.3453 44.5363 37.1703 44.7129 37.0375C44.8004 36.9719 44.8879 36.9062 44.9535 36.8625C44.9973 36.8406 45.0191 36.8187 45.041 36.8187H45.0629V36.7531L45.041 36.8187H45.0629V36.7531L45.041 36.8187C45.0848 36.8406 45.1504 36.8187 45.1723 36.775C45.1941 36.7312 45.1941 36.6656 45.1504 36.6437C44.2082 35.9203 43.3316 35.6797 42.6082 35.6797C41.4254 35.6797 40.6363 36.2937 40.6363 36.3156L40.6801 36.3828V36.2734C40.6363 36.2734 40.6145 36.2953 40.5926 36.3172C40.5707 36.3391 40.5707 36.3828 40.5926 36.4266L40.6801 36.3828V36.4922L40.7457 36.4703C40.8332 36.4047 41.5348 35.8781 42.5863 35.8781C43.266 35.8781 44.0988 36.0969 44.9973 36.7984L45.0629 36.7109L45.1066 36.6234L45.041 36.6016C44.9754 36.6016 44.9535 36.6234 44.9098 36.6453C44.7566 36.7328 44.516 36.9078 44.2957 37.1062C44.1863 37.1937 44.077 37.2812 43.9895 37.3469C43.902 37.4125 43.8363 37.4781 43.8145 37.4781C43.3316 37.8281 42.8285 38.0047 42.2582 38.0047C42.127 38.0047 41.9738 37.9828 41.841 37.9609L41.8191 38.0703H41.9285C41.9285 37.9391 41.9066 37.7859 41.8629 37.6531C41.7316 37.0172 41.2926 36.5359 40.7457 36.3156L40.702 36.4031L40.7894 36.3594L40.7676 36.3156L40.6801 36.3828Z" fill="#1F1917"/>
<path d="M39.9554 25.1392C39.9554 25.1392 34.9148 32.8329 39.3414 36.2517H40.5695C44.996 32.8548 39.9554 25.1392 39.9554 25.1392Z" fill="#D9261C"/>
<path d="M39.8684 25.0955C39.8684 25.0955 39.2543 26.0377 38.6402 27.3971C38.0262 28.7565 37.4121 30.5533 37.4121 32.2846C37.4121 33.7971 37.8949 35.2877 39.2746 36.3393L39.3402 36.3612H40.5684L40.634 36.3393C42.0152 35.2877 42.4965 33.7971 42.4965 32.2846C42.4965 30.5533 41.8824 28.7565 41.2684 27.3971C40.6543 26.0377 40.0402 25.0955 40.0402 25.0955C40.0184 25.0518 39.9527 25.0299 39.909 25.0737C39.8652 25.0955 39.8434 25.1612 39.8871 25.2049C39.8871 25.2049 39.9309 25.2705 39.9965 25.358C40.4574 26.1033 42.3199 29.3252 42.3199 32.2627C42.3199 33.7315 41.859 35.1346 40.5449 36.1643L40.6105 36.2518V36.1424H39.3387V36.2518L39.4043 36.1643C38.0887 35.1565 37.6293 33.7533 37.6293 32.2627C37.6293 30.5752 38.2434 28.8002 38.8355 27.4627C39.1418 26.783 39.4496 26.2127 39.6684 25.819C39.7777 25.6221 39.8652 25.469 39.9527 25.358C40.0184 25.2487 40.0621 25.2049 40.0621 25.2049C40.084 25.1612 40.084 25.0955 40.0402 25.0737C39.9559 25.0299 39.9121 25.0518 39.8684 25.0955Z" fill="#1F1917"/>
<path d="M38.8607 27.1564L36.7342 25.2939C36.9311 25.4689 36.8436 26.5439 36.8436 26.7846C36.8436 27.3768 36.8217 27.9674 36.7561 28.5596C36.6686 29.3486 36.5154 30.0939 36.3842 30.8611C36.1873 32.0674 36.3404 33.3596 37.0201 34.4111C37.5248 35.1783 38.4451 35.858 39.2779 36.208C36.3607 33.9064 37.6982 29.6768 38.8607 27.1564Z" fill="#D9261C"/>
<path d="M38.8605 27.1563L38.9262 27.0907L36.7996 25.2282C36.7559 25.1845 36.6902 25.2063 36.6684 25.2282C36.6246 25.272 36.6465 25.3376 36.6684 25.3595C36.6684 25.3595 36.6902 25.3813 36.7121 25.4251C36.7559 25.5563 36.7777 25.8423 36.7777 26.1048C36.7777 26.3673 36.7559 26.6313 36.7559 26.7626V26.7845C36.7559 26.8501 36.7559 26.9157 36.7559 26.9813C36.7559 27.5079 36.734 28.0329 36.6684 28.5595C36.6027 29.3267 36.4277 30.0938 36.2965 30.861C36.2527 31.1892 36.209 31.5189 36.209 31.847C36.209 32.7673 36.4277 33.6876 36.9324 34.4767C37.4371 35.2657 38.3793 35.9454 39.234 36.3173C39.2777 36.3392 39.3434 36.3173 39.3652 36.2735C39.3871 36.2298 39.3871 36.186 39.3434 36.1423C38.0496 35.1345 37.6121 33.7313 37.6121 32.2845C37.6121 30.4876 38.2918 28.6017 38.9496 27.222C38.9715 27.1782 38.9496 27.1345 38.9277 27.1126L38.8605 27.1563L38.773 27.1126C38.1152 28.4938 37.4355 30.422 37.4355 32.2626C37.4355 33.7532 37.8965 35.222 39.2543 36.2735L39.3199 36.186L39.3637 36.0985C38.5309 35.7485 37.6324 35.0907 37.1496 34.3454C36.6668 33.5782 36.4699 32.7235 36.4699 31.8251C36.4699 31.497 36.4918 31.1892 36.5355 30.861C36.6668 30.0938 36.8199 29.3267 36.9074 28.5595C36.9512 28.0329 36.9949 27.5079 36.9949 26.9595C36.9949 26.8938 36.9949 26.8282 36.9949 26.7626V26.7407C36.9949 26.6313 37.0168 26.347 37.0168 26.0829C37.0168 25.9079 37.0168 25.711 36.9949 25.5563C36.9949 25.4688 36.973 25.4032 36.9512 25.3376C36.9293 25.272 36.9074 25.2282 36.8637 25.1845C36.8418 25.1626 36.8199 25.1626 36.798 25.1626C36.7762 25.1626 36.7543 25.1845 36.7324 25.2063C36.7105 25.2282 36.7105 25.2501 36.7105 25.272C36.7105 25.2938 36.7324 25.3157 36.7543 25.3376L38.8809 27.2001L38.8605 27.1563Z" fill="#1F1917"/>
<path d="M43.5273 30.8826C43.3961 30.1154 43.243 29.3482 43.1555 28.5811C43.0898 27.9889 43.068 27.3982 43.068 26.8061C43.068 26.5654 43.0023 25.4686 43.1773 25.3154L41.0508 27.1998C42.2336 29.7201 43.5492 33.9498 40.5898 36.2514C41.4445 35.9014 42.4086 35.2217 42.8914 34.4326C43.5711 33.3592 43.7258 32.0873 43.5273 30.8826Z" fill="#D9261C"/>
<path d="M43.5276 30.8829L43.637 30.861C43.5058 30.0938 43.3526 29.3267 43.2651 28.5595C43.2214 28.0329 43.1776 27.5298 43.1776 27.0032C43.1776 26.9376 43.1776 26.872 43.1776 26.8063V26.7845C43.1776 26.6532 43.1558 26.3907 43.1558 26.1267C43.1558 25.9517 43.1558 25.7767 43.1776 25.622C43.1776 25.5563 43.1995 25.4907 43.2214 25.447C43.2433 25.4032 43.2433 25.3813 43.2651 25.3813C43.3089 25.3376 43.3089 25.272 43.2651 25.2501C43.2214 25.2063 43.1558 25.2063 43.1339 25.2501L41.0073 27.1345C40.9636 27.1563 40.9636 27.222 40.9855 27.2438C41.6214 28.6251 42.3011 30.5095 42.3011 32.2845C42.3011 33.7532 41.8402 35.1563 40.548 36.1642C40.5042 36.186 40.5042 36.2517 40.5261 36.2954C40.548 36.3392 40.6136 36.361 40.6573 36.3392C41.5339 35.9892 42.498 35.2876 43.0245 34.4767C43.5292 33.6876 43.748 32.7673 43.748 31.847C43.748 31.5188 43.7261 31.1892 43.6605 30.861L43.5276 30.8829L43.4183 30.9048C43.462 31.211 43.4839 31.5407 43.4839 31.8688C43.4839 32.7673 43.287 33.622 42.8042 34.3892C42.3214 35.1563 41.3792 35.836 40.5464 36.1642L40.5901 36.2517L40.6558 36.3392C42.0152 35.2876 42.4964 33.8188 42.4964 32.3063C42.4964 30.4657 41.7948 28.5579 41.1589 27.1782L41.0714 27.222L41.137 27.2876L43.2636 25.4032C43.2855 25.3813 43.2855 25.3595 43.3073 25.3376C43.3073 25.3157 43.3073 25.2938 43.2855 25.272C43.2636 25.2501 43.2417 25.2501 43.2198 25.2282C43.198 25.2282 43.1761 25.2282 43.1542 25.2501C43.1105 25.2938 43.0886 25.3595 43.0667 25.4032C43.0011 25.5782 43.0011 25.8642 43.0011 26.1267C43.0011 26.411 43.023 26.6751 43.023 26.7845V26.8063C43.023 26.872 43.023 26.9376 43.023 27.0251C43.023 27.5517 43.0448 28.0767 43.1105 28.6032C43.198 29.3923 43.3511 30.1376 43.4823 30.9048L43.5276 30.8829Z" fill="#1F1917"/>
<path d="M40.8984 36.0984L41.0078 36.1859C41.5125 35.9234 42.5203 35.55 43.7906 36.0109L43.8781 35.989C43.8781 35.989 44.3172 34.7828 45.0609 34.7828C45.0609 34.7828 44.075 34.2562 42.7594 34.6078C42.3016 35.2219 41.6 35.7703 40.8984 36.0984Z" fill="#D9261C"/>
<path d="M40.8991 36.0984L40.8335 36.1859L40.9428 36.2734C40.9647 36.2953 41.0085 36.2953 41.0522 36.2734C41.3585 36.0984 41.9069 35.8797 42.5866 35.8797C42.9366 35.8797 43.3319 35.9453 43.7694 36.0984H43.835L43.9225 36.0766C43.9444 36.0766 43.9663 36.0547 43.9881 36.0109C43.9881 36.0109 43.9881 35.9891 44.01 35.9672C44.0538 35.8578 44.185 35.5734 44.36 35.3312C44.4475 35.2 44.5569 35.0906 44.6881 35.0031C44.8194 34.9156 44.9288 34.8719 45.0819 34.8719C45.1256 34.8719 45.1694 34.85 45.1694 34.8062C45.1913 34.7625 45.1694 34.7187 45.1256 34.6969C45.1256 34.6969 44.5553 34.3906 43.7006 34.3906C43.4163 34.3906 43.0866 34.4344 42.7585 34.5219L42.7147 34.5656C42.2756 35.1578 41.5756 35.6828 40.896 36.0125L40.8991 36.0984L40.8335 36.1641C40.8553 36.1859 40.8991 36.2078 40.9428 36.1859C41.6444 35.8359 42.3678 35.3094 42.8491 34.6734L42.7616 34.6078L42.7835 34.6953C43.1116 34.6078 43.3975 34.5859 43.6819 34.5859C44.0756 34.5859 44.4272 34.6516 44.6678 34.7391C44.7772 34.7828 44.8866 34.8047 44.9303 34.8266C44.9522 34.8484 44.996 34.8484 44.996 34.8484H45.0178L45.0616 34.7609V34.6516C44.8428 34.6516 44.6678 34.7391 44.4913 34.8484C44.0085 35.2203 43.7678 35.9 43.7678 35.9L43.8553 35.9437L43.8335 35.8562L43.746 35.8781L43.7678 35.9656L43.8116 35.8781C43.3506 35.7031 42.935 35.6594 42.5616 35.6594C41.8381 35.6594 41.2678 35.8781 40.9397 36.0766L40.9835 36.1641L41.0491 36.0766L40.9397 35.9891C40.896 35.9672 40.8303 35.9672 40.8085 36.0109C40.7647 36.0547 40.7866 36.1203 40.8085 36.1422L40.8991 36.0984Z" fill="#1F1917"/>
<path d="M38.9262 36.1639L38.9918 36.142L38.9699 36.0545C38.2902 35.7264 37.6105 35.1998 37.173 34.6076C35.8574 34.2576 34.8496 34.7826 34.8496 34.7826C35.5949 34.7826 36.0324 35.9889 36.0324 35.9889L36.1199 36.0326C37.3918 35.5498 38.3996 35.9014 38.9262 36.1639Z" fill="#D9261C"/>
<path d="M38.9262 36.1641L38.9699 36.2516L39.0355 36.2297C39.0793 36.2078 39.1012 36.1641 39.0793 36.0984L39.0574 36.0109L39.0137 35.9453C38.3558 35.6172 37.6762 35.1125 37.2605 34.5203C37.2387 34.4984 37.2168 34.4766 37.1949 34.4766V34.5859L37.2168 34.4984C36.8668 34.4109 36.559 34.3672 36.2527 34.3672C35.398 34.3672 34.8277 34.6734 34.8277 34.6734C34.784 34.6953 34.7621 34.7391 34.784 34.7828C34.8058 34.8266 34.8277 34.8484 34.8715 34.8484C35.0246 34.8484 35.1777 34.9141 35.3105 35.0234C35.5074 35.1766 35.6824 35.4172 35.7933 35.6156C35.859 35.725 35.9027 35.8125 35.9246 35.8781C35.9465 35.9219 35.9465 35.9437 35.9465 35.9656V35.9875C35.9465 36.0094 35.9683 36.0313 35.9902 36.0531L36.0777 36.0969C36.0996 36.1188 36.1215 36.1188 36.1652 36.0969C36.6043 35.9219 37.0199 35.8781 37.3933 35.8781C38.0512 35.8781 38.5762 36.075 38.884 36.25L38.9262 36.1641V36.2734C38.9699 36.2734 39.0137 36.2297 39.0137 36.1859C39.0137 36.1422 38.9918 36.0984 38.9699 36.0766C38.6199 35.9016 38.0715 35.6828 37.3699 35.6828C36.9762 35.6828 36.5371 35.7484 36.0762 35.9234L36.1199 36.0109L36.1637 35.9234L36.0762 35.8797L36.0324 35.9672L36.1199 35.9234C36.1199 35.9234 36.0105 35.6172 35.7918 35.3094C35.6824 35.1562 35.5512 35.0031 35.398 34.8703C35.2449 34.7391 35.048 34.6734 34.8277 34.6734V34.7828L34.8715 34.8703C34.9371 34.8484 35.4418 34.5859 36.209 34.5859C36.4715 34.5859 36.7793 34.6297 37.1074 34.7172H37.1293V34.6078L37.0418 34.6734C37.5449 35.2875 38.2465 35.8141 38.9262 36.1641L38.9699 36.0547L38.8824 36.0984L38.9043 36.1859L38.9918 36.1422L38.948 36.0547L38.8824 36.0766C38.8387 36.0984 38.8168 36.1422 38.8168 36.1859C38.8168 36.2297 38.8605 36.2734 38.9262 36.2734V36.1641Z" fill="#1F1917"/>
<path d="M38.8387 27.2001C39.0574 26.7173 39.2777 26.3235 39.4527 25.9938L38.5762 24.7876L37.8965 26.2782V26.3438L38.8387 27.1767V27.2001Z" fill="#D9261C"/>
<path d="M38.8387 27.2001L38.9262 27.2438C39.1449 26.7829 39.3652 26.3673 39.5402 26.0376L39.5621 25.972L38.5543 24.5688L37.7871 26.2345V26.322V26.3657L38.773 27.2204L38.8387 27.1548L38.7512 27.111L38.7293 27.1329L38.6855 27.286H38.8387H38.9043L38.9262 27.2204L38.8387 27.2001L38.9262 27.2438L38.948 27.222L38.9699 27.1563L38.0059 26.3017V26.2798H37.8965L37.984 26.3235L38.598 24.986L39.3652 26.0595L39.4527 25.9938L39.3652 25.9501C39.1902 26.2782 38.9715 26.6954 38.7512 27.1782L38.8387 27.2001Z" fill="#1F1917"/>
<path d="M41.0516 27.178L42.1031 26.2577L41.4234 24.7671L40.5469 25.9952V26.1483C40.7219 26.4546 40.8969 26.828 41.0953 27.2218L41.0516 27.178Z" fill="#D9261C"/>
<path d="M41.0516 27.1781L41.1172 27.2438L42.2125 26.2797L41.4234 24.5703L40.4375 25.9734V26.1484V26.1703L40.4594 26.1922C40.6125 26.4984 40.8094 26.85 41.0078 27.2656L41.1828 27.1781L41.1609 27.1344L41.0516 27.1781H40.9422V27.2L40.9641 27.2656L41.1391 27.1781C40.9422 26.7609 40.7672 26.4109 40.5906 26.1047L40.5031 26.1484H40.6125V26.0391L41.3797 24.9875L41.95 26.2594L40.9203 27.1578V27.2016H41.0516V27.1781Z" fill="#1F1917"/>
</g>
<defs>
<clipPath id="clip0_950_4417">
<rect width="80" height="80" fill="white"/>
</clipPath>
</defs>
</svg>
