<svg width="73" height="80" viewBox="0 0 73 80" fill="none" xmlns="http://www.w3.org/2000/svg">
<g clip-path="url(#clip0_950_4773)">
<path d="M34.5349 0.764657C32.3769 1.26574 30.4858 2.72448 29.4847 4.65088C28.795 5.98712 28.6504 6.61068 28.6504 8.21416C28.6615 9.40564 28.706 9.72858 28.9507 10.4524C29.7405 12.7685 31.6205 14.6615 33.8119 15.3519C35.2914 15.8196 37.0156 15.8196 38.4839 15.3519C40.7754 14.6281 42.8 12.4901 43.4452 10.1072C43.7455 9.00477 43.7233 7.16744 43.3896 6.09846C42.8556 4.37249 41.9546 3.06966 40.6086 2.07862C39.8633 1.53299 38.6174 0.965092 37.7052 0.764657C37.0934 0.619896 35.1468 0.631034 34.5349 0.764657Z" fill="#FF0000"/>
<path d="M22.689 17.0557C22.6667 18.648 22.7001 57.254 22.7224 57.2763C22.7335 57.2874 25.6479 56.2073 29.1965 54.8711L35.6483 52.4547L35.6817 37.1326L35.7039 21.8216L34.903 21.5209C34.4581 21.3539 33.3123 20.9196 32.3668 20.5633C25.7481 18.0578 22.689 16.9443 22.689 17.0557Z" fill="#FF0000"/>
<path d="M43.1568 19.3493C39.6416 20.6744 36.6938 21.788 36.627 21.8325C36.5158 21.9104 36.4824 25.084 36.4824 37.0989C36.4824 49.1139 36.5158 52.3097 36.627 52.3877C36.6938 52.4545 39.6416 53.5791 43.1568 54.9042L49.553 57.2983L49.5864 47.1652C49.5975 41.5976 49.5975 32.5112 49.5864 26.9881L49.553 16.9441L43.1568 19.3493Z" fill="#FF0000"/>
<path d="M8.89453 37.166C8.89453 48.2456 8.91678 57.3208 8.95015 57.3208C9.07251 57.3208 12.076 56.1627 12.2095 56.0625C12.3096 55.9734 12.3429 52.0984 12.3207 37.0769L12.2873 18.1914L11.453 17.8685C10.2739 17.4231 9.09476 17.0111 8.98352 17.0111C8.93903 17.0111 8.89453 26.0752 8.89453 37.166Z" fill="#FFCC00"/>
<path d="M12.9004 37.166C12.9004 48.2456 12.9226 57.3208 12.9449 57.3208C12.9671 57.3208 13.579 57.0981 14.3131 56.8197C15.0362 56.5413 15.8482 56.2296 16.1263 56.1293C16.4044 56.0403 16.6936 55.9066 16.7715 55.8509C16.8716 55.7619 16.905 51.8645 16.905 37.0658V18.403L15.0362 17.7015C14.0128 17.3229 13.1117 17.0111 13.0339 17.0111C12.9338 17.0111 12.9004 21.3873 12.9004 37.166Z" fill="#FF7F2A"/>
<path d="M17.4609 37.166C17.4609 48.2456 17.4943 57.3208 17.5499 57.3208C17.5944 57.3208 18.6067 56.9422 19.797 56.4968L21.9661 55.6728L21.9995 37.2105C22.0106 25.8748 21.9772 18.7037 21.9216 18.648C21.7881 18.5144 17.828 17.0111 17.6167 17.0111C17.4832 17.0111 17.4609 20.1735 17.4609 37.166Z" fill="#FF6600"/>
<path d="M53.1676 17.5235C52.4668 17.7907 51.5213 18.147 51.0763 18.3029L50.2754 18.6036L50.2976 37.1327L50.331 55.6729L52.3889 56.4524C53.5236 56.8755 54.5247 57.2319 54.6137 57.243C54.7583 57.2653 54.7806 54.9491 54.8139 37.1327C54.8362 18.0246 54.8251 17.0113 54.6471 17.0224C54.5358 17.0224 53.8684 17.2451 53.1676 17.5235Z" fill="#FF6600"/>
<path d="M57.2058 17.7128L55.3926 18.4031V37.077C55.3926 51.6642 55.426 55.7731 55.5261 55.8399C55.793 56.0181 59.2303 57.2875 59.3193 57.243C59.3638 57.2207 59.3972 48.1566 59.3972 37.0993C59.3972 18.0357 59.3861 17.0112 59.2081 17.0224C59.0968 17.0224 58.1958 17.3453 57.2058 17.7128Z" fill="#FF7F2A"/>
<path d="M62.4004 17.2782C61.9999 17.423 61.2991 17.6902 60.843 17.8684L60.0087 18.1913L59.9753 37.0545C59.9642 49.2142 59.9865 55.9511 60.0643 56.029C60.2201 56.1849 63.2235 57.3096 63.3236 57.2427C63.3681 57.2205 63.4015 48.1564 63.4015 37.099C63.4015 21.0976 63.3681 17.011 63.268 17.011C63.1902 17.0221 62.8008 17.1335 62.4004 17.2782Z" fill="#FFCC00"/>
<path d="M22.1552 64.7211C22.0833 64.8157 22.033 64.9291 22.033 64.9669C22.033 65.0047 22.2272 65.3166 22.4645 65.6569C22.8745 66.2524 22.9896 66.536 22.817 66.536C22.7738 66.536 22.5437 66.2808 22.3135 65.9689C21.9467 65.4679 21.8675 65.4112 21.7453 65.4962C21.5079 65.6664 21.5726 65.9216 21.8891 66.1106C22.0474 66.2052 22.1768 66.347 22.1768 66.4226C22.1768 66.536 21.9898 66.5549 20.9397 66.5266L19.6953 66.4887V66.7723C19.6953 67.0086 19.7313 67.0653 19.9111 67.1031L20.1269 67.1504L20.0981 67.8404L20.0765 68.5305L20.3786 68.9085C20.7239 69.3434 20.7095 69.4095 20.1844 69.816C19.8176 70.0996 19.7672 70.4115 20.0621 70.5911C20.2348 70.6951 20.2779 70.6573 20.803 69.9861C21.5295 69.0598 21.6589 69.0503 21.5295 69.9389C21.4432 70.5249 21.5223 70.7234 21.81 70.6761L21.997 70.6478V68.9275C21.997 67.7837 22.0258 67.1693 22.0761 67.1031C22.1193 67.0464 22.2847 67.0086 22.4358 67.0275L22.7163 67.0559V68.7951C22.7163 70.3453 22.7307 70.5438 22.8458 70.6383C22.9321 70.714 23.004 70.714 23.0975 70.6383C23.2054 70.5438 23.2198 70.3737 23.191 68.8235L23.1622 67.1126L23.3349 67.0559C23.4284 67.0275 23.8455 67.0086 24.2627 67.0275C24.9101 67.0559 25.018 67.0748 25.0395 67.2166C25.0611 67.3584 25.0036 67.3867 24.6799 67.3867C24.234 67.3867 23.975 67.538 23.8527 67.8593C23.7736 68.0578 23.788 68.1429 23.9462 68.5021C24.0829 68.7951 24.1189 68.9842 24.0829 69.1827C24.0182 69.5608 24.198 69.9767 24.5217 70.1752C24.8525 70.3737 25.3201 70.2981 25.7085 69.9767C25.8595 69.8538 26.0178 69.7498 26.0609 69.7498C26.0969 69.7498 26.1329 69.9389 26.1329 70.1752C26.1329 70.6383 26.2623 70.8085 26.4853 70.6289C26.586 70.5438 26.5932 70.317 26.5716 68.8235L26.55 67.1126L26.7299 67.0559C26.8234 67.0181 27.0032 67.0086 27.1111 67.0275L27.3197 67.0559V68.7951C27.3197 70.3453 27.334 70.5438 27.4419 70.6383C27.5354 70.714 27.6074 70.714 27.6937 70.6383C27.8088 70.5438 27.8232 70.3548 27.8088 68.8424C27.8016 67.6136 27.816 67.1409 27.8807 67.0842C28.0102 66.9708 28.4202 66.9992 28.4777 67.1126C28.5065 67.1788 28.528 67.9917 28.5352 68.9369L28.5424 70.6478L28.7294 70.6761C28.8301 70.6951 28.9452 70.6478 28.9812 70.5816C29.0244 70.506 29.0387 69.8349 29.01 68.8518C28.9668 67.0181 28.9668 67.0086 29.5135 67.0086C29.8947 67.0086 30.017 67.1315 30.017 67.4907C30.017 67.8877 29.945 68.0484 29.7652 68.0484C29.5422 68.0484 29.4631 68.3603 29.6142 68.6628C29.8084 69.0503 30.1177 69.3812 30.2687 69.3528C30.3982 69.3245 30.4126 69.2299 30.4485 68.1902L30.4845 67.0559H30.8082H31.1318L31.1031 68.8235L31.0743 70.6005L31.2469 70.6856C31.3692 70.7423 31.4555 70.7329 31.5346 70.6383C31.6353 70.5249 31.6425 70.2791 31.6138 68.8046C31.585 67.3962 31.5994 67.1031 31.6785 67.1031C31.736 67.1031 32.1676 67.0748 32.6495 67.0559C33.7284 66.9897 33.7212 66.9803 33.6637 68.0767C33.6205 68.7573 33.5918 68.8802 33.4335 69.0598C33.2034 69.3245 33.1099 69.3339 32.9085 69.0882C32.592 68.7006 32.8006 68.0106 33.2393 68.0011C33.4983 68.0011 33.5414 67.7081 33.2969 67.5663C33.0523 67.4151 32.7718 67.5285 32.4841 67.9066C32.1316 68.3698 32.1748 69.0314 32.5848 69.5135C32.7502 69.7026 32.8653 69.7404 33.2034 69.7498H33.6205L33.599 70.1374C33.5702 70.5911 33.7356 70.8179 33.9586 70.6383C34.0665 70.5438 34.0809 70.402 34.0521 69.5891C34.0305 68.6912 34.0377 68.6439 34.2247 68.3509C34.4405 68.0106 34.6131 67.9728 34.7858 68.2185C34.9728 68.4832 34.9296 68.814 34.6563 69.2678C34.3686 69.7404 34.347 69.8916 34.5484 70.0334C34.7642 70.1846 34.9224 70.0239 35.1814 69.3906C35.4475 68.729 35.4619 68.5115 35.2677 68.0862C35.0879 67.7081 34.7498 67.5474 34.347 67.6325C34.009 67.6986 33.9011 67.5474 34.0377 67.2071C34.1096 67.0275 34.1816 67.0181 35.0016 67.037L35.8791 67.0559L35.8575 68.7951C35.8359 70.6478 35.8503 70.6951 36.1812 70.6951C36.3538 70.6951 36.5264 70.3831 36.4617 70.1752C36.4473 70.109 36.4185 69.4001 36.4113 68.6061L36.397 67.1599L36.6127 67.0842C36.735 67.0464 36.8573 66.933 36.8789 66.8479C36.9436 66.6211 36.7206 66.4226 36.4905 66.4887C36.2819 66.5455 36.174 66.4509 35.8575 65.9027C35.728 65.6853 35.4475 65.3639 35.2389 65.1749C34.9224 64.9007 34.7786 64.8346 34.4981 64.8346C33.8651 64.8346 33.5055 65.345 33.5558 66.1673L33.5774 66.4887L32.5057 66.5076L31.4267 66.5266L30.9592 65.8838C30.7003 65.534 30.3262 65.1559 30.1392 65.0331C29.2401 64.4565 28.3842 65.0142 28.4489 66.1201L28.4705 66.4887L28.1109 66.5171L27.7512 66.5455L27.3988 65.9216C27.2118 65.5813 27.0104 65.2505 26.9672 65.1843C26.9169 65.1181 26.8377 64.9763 26.7874 64.8535C26.6435 64.5037 26.2048 64.6266 26.2048 65.0331C26.2048 65.1181 26.435 65.449 26.7083 65.7703C26.9888 66.1012 27.2118 66.4037 27.2118 66.4509C27.2118 66.5076 26.4565 66.5266 25.2913 66.5171L23.3636 66.4887L23.0256 65.7325C22.4501 64.447 22.3926 64.3808 22.1552 64.7211ZM29.8947 65.553C30.2327 65.7798 30.7434 66.347 30.7003 66.4509C30.6715 66.4982 30.2687 66.536 29.794 66.536C28.8661 66.536 28.8949 66.5549 28.9308 65.9689C28.9596 65.4584 29.4415 65.2505 29.8947 65.553ZM34.8577 65.553C35.1454 65.742 35.5554 66.2524 35.5554 66.4131C35.5554 66.6022 34.1672 66.5833 34.0449 66.3942C33.9298 66.2052 34.0233 65.7231 34.2103 65.5435C34.4046 65.3639 34.57 65.3639 34.8577 65.553ZM21.4935 67.122C21.5367 67.1504 21.5582 67.4529 21.5439 67.7932C21.5151 68.5021 21.364 68.8046 21.026 68.8046C20.7167 68.8046 20.5944 68.5116 20.5944 67.7459C20.5944 67.1693 20.6088 67.1126 20.7598 67.0842C21.0188 67.037 21.4144 67.0559 21.4935 67.122ZM26.0969 68.0389V69.0314L25.7013 69.3434C25.392 69.5891 25.241 69.6458 24.9892 69.6269C24.3994 69.5891 24.385 68.9747 24.9748 68.918C25.3129 68.8802 25.428 68.6911 25.2409 68.4454C25.1474 68.313 25.0827 68.3131 24.8238 68.3981C24.5648 68.4927 24.4929 68.4832 24.3922 68.3603C24.0973 68.0106 24.3706 67.8215 25.0899 67.8782L25.4495 67.9066L25.4711 67.5285C25.4999 67.0937 25.579 66.9992 25.8811 67.0275L26.0969 67.0559V68.0389Z" fill="#000080"/>
<path d="M53.0543 64.7589L52.9032 64.9764L53.3995 65.6664C53.6729 66.0539 53.8814 66.4037 53.8599 66.4509C53.7592 66.6589 53.5218 66.4982 53.1478 65.9594C52.709 65.345 52.5076 65.2694 52.4717 65.7042C52.4501 65.9216 52.4932 65.9878 52.745 66.1579C53.155 66.432 53.0543 66.5738 52.5004 66.5076C51.9897 66.4415 51.8603 66.5171 51.8962 66.829C51.9178 67.0559 51.925 67.0559 52.8529 67.0559C53.7376 67.0559 53.7879 67.0653 53.7879 67.2449C53.7879 67.4151 53.7304 67.434 53.1406 67.4813C52.7881 67.5096 52.4501 67.5663 52.4069 67.6041C52.2703 67.7175 52.2918 68.02 52.4645 68.4265C52.6083 68.7668 52.6155 68.7951 52.5004 69.0031C52.335 69.315 52.3566 69.8633 52.5364 70.1657C52.745 70.5155 53.1981 70.799 53.6369 70.8463C54.0685 70.903 54.2627 70.7801 54.1404 70.5344C54.0972 70.4493 53.9893 70.3453 53.8886 70.3075C53.7951 70.2697 53.5793 70.1941 53.4139 70.1374C53.0327 70.005 52.8888 69.816 52.8888 69.4568C52.8888 69.2205 52.932 69.1449 53.1406 69.0314C53.4787 68.8518 53.7088 68.8613 53.8527 69.0787C53.9534 69.2299 53.9606 69.2961 53.8886 69.4473C53.7592 69.7215 53.8527 69.9389 54.1116 69.9389C54.3849 69.9389 54.5144 69.6364 54.4425 69.1543C54.3706 68.6533 54.126 68.4926 53.4787 68.4926C52.932 68.5021 52.9032 68.4832 52.8601 68.0484C52.8529 68.02 53.1622 67.9822 53.5362 67.9539L54.2195 67.9066L54.2267 67.5474C54.2339 67.3584 54.2555 67.1693 54.2771 67.141C54.3346 67.0653 56.1831 66.9897 56.3486 67.0559C56.5068 67.122 56.5284 67.3395 56.3989 67.4529C56.3486 67.4907 56.104 67.5285 55.8595 67.5285C55.5214 67.5285 55.3704 67.5758 55.2121 67.727C54.5144 68.4076 55.1186 69.9389 56.0896 69.9389C56.3486 69.9389 56.4493 70.0523 56.5212 70.4398C56.5859 70.7518 56.7945 70.9219 57.0319 70.8463C57.2405 70.7707 57.2549 70.506 57.0607 70.2697C56.8593 70.0239 56.8233 69.7971 56.9456 69.4852C57.075 69.1543 57.0319 68.8613 56.8233 68.7384C56.5931 68.5966 56.3701 68.7479 56.2838 69.0787C56.1975 69.4095 56.0752 69.4379 55.766 69.2299C55.5286 69.0693 55.4063 68.8235 55.4063 68.5021C55.4063 68.1335 55.5358 68.0484 56.1328 68.0484C56.8736 68.0484 56.9168 68.02 56.9168 67.5285C56.9168 67.2827 56.9528 67.1126 57.0103 67.0937C57.0535 67.0748 57.4635 67.0653 57.9094 67.0842L58.715 67.1126V67.5285C58.715 68.1051 58.6646 68.2374 58.4129 68.2374C58.2547 68.2374 58.1755 68.1713 58.082 67.9539C57.8806 67.4812 57.5642 67.4623 57.5642 67.9161C57.5642 68.1807 58.3266 69.6837 58.8445 70.4304C58.9955 70.6478 59.0459 70.6667 59.1897 70.5816C59.4702 70.4115 59.3983 70.1374 58.9236 69.5041C58.5208 68.9653 58.4992 68.918 58.6071 68.7668C58.6718 68.6817 58.7653 68.6155 58.8157 68.6155C59.0099 68.6155 59.1394 68.2752 59.1609 67.7176L59.1825 67.1504L59.5278 67.1031C59.7148 67.0748 59.9018 67.0748 59.945 67.1126C59.9953 67.1504 60.0169 67.7365 60.0025 68.8235C59.9953 69.7309 60.0097 70.5249 60.0385 70.5816C60.1176 70.7518 60.4269 70.714 60.4916 70.5249C60.5276 70.4399 60.5348 69.6647 60.5132 68.8046C60.4916 67.9444 60.4916 67.2166 60.5132 67.1788C60.5348 67.141 60.9735 67.0842 61.4914 67.0464C62.2538 66.9992 62.4481 67.0086 62.4984 67.1126C62.5847 67.2827 62.5991 68.6061 62.52 68.6722C62.3905 68.7762 61.7791 68.1902 61.851 68.0389C61.8726 67.9917 61.9949 67.9539 62.1316 67.9539C62.4409 67.9539 62.5056 67.8215 62.297 67.6325C62.0812 67.4245 61.7503 67.4434 61.4698 67.6703C61.1749 67.9066 61.0742 68.1524 61.0742 68.6912C61.0742 69.0787 61.1102 69.1732 61.3404 69.4473C61.5921 69.7498 61.6281 69.7687 62.0453 69.7309L62.4912 69.7026L62.5272 70.1752C62.5631 70.6289 62.5703 70.6478 62.7789 70.6478H62.9947V68.9464C62.9947 68.0106 63.0235 67.1882 63.0522 67.1315C63.1098 67.0086 63.3687 66.9897 63.6349 67.0748C63.7643 67.122 63.7715 67.2166 63.7356 68.814C63.6924 70.6289 63.714 70.7423 64.052 70.6762L64.2175 70.6478L64.1959 68.9369C64.1743 67.7932 64.1959 67.1977 64.2462 67.1599C64.3469 67.0748 66.1164 66.9897 66.2818 67.0653C66.3537 67.0937 66.4113 67.1788 66.4113 67.2449C66.4113 67.4529 66.1811 67.5663 65.8574 67.5096C65.5266 67.4529 65.0878 67.6797 64.9655 67.9633C64.8792 68.1902 64.8648 68.6817 64.9368 68.9936C65.0518 69.5135 65.4474 69.8538 66.0157 69.9389C66.3609 69.9861 66.3753 69.9956 66.4472 70.3548C66.512 70.6289 66.5839 70.7518 66.7278 70.8179C67.1449 70.9975 67.2528 70.6667 66.9507 70.1374C66.7925 69.8444 66.7853 69.7971 66.8788 69.5513C67.0802 69.0503 66.9795 68.7101 66.6342 68.7101C66.3969 68.7101 66.289 68.8046 66.2602 69.0314C66.2099 69.3717 66.0013 69.4379 65.7136 69.2205C65.4115 68.9936 65.2748 68.5588 65.4043 68.2374C65.469 68.0767 65.5697 68.0484 66.1811 68.0295L66.8788 68.0011L66.9004 67.5569L66.922 67.1126L67.2241 67.0842C67.5046 67.0559 67.5262 67.037 67.5262 66.7818V66.5076L60.9088 66.4982L54.2914 66.4887L53.8527 65.5435C53.6153 65.0236 53.3708 64.5888 53.3132 64.5699C53.2557 64.5604 53.1406 64.6455 53.0543 64.7589ZM62.0093 68.7857C62.3905 69.1638 62.261 69.4663 61.8223 69.2205C61.5705 69.0882 61.4195 68.7384 61.5346 68.5494C61.6137 68.417 61.6568 68.4359 62.0093 68.7857Z" fill="#000080"/>
<path d="M13.7756 64.9577C13.4879 65.1751 13.3872 65.4681 13.4159 65.9975L13.4375 66.489L10.2727 66.5079C8.53203 66.5174 7.06471 66.5268 7.02155 66.5268C6.9712 66.5363 6.92804 66.6402 6.92804 66.7631C6.92804 66.9427 6.97839 66.9994 7.23733 67.0656C7.53943 67.1507 7.53943 67.1507 7.56101 67.6044C7.58978 68.1432 7.49627 68.3322 7.21575 68.3322C6.82015 68.3322 6.78419 68.266 6.78419 67.6044C6.78419 66.8954 6.71945 66.6875 6.42455 66.489C6.12964 66.2905 5.69088 66.4323 5.5758 66.7726C5.39598 67.2925 5.54703 67.8407 5.83474 67.7273C5.94982 67.68 5.99298 67.5855 5.99298 67.3964C5.99298 67.2452 6.03614 67.0845 6.08649 67.0183C6.25192 66.8482 6.35262 67.1034 6.35262 67.68C6.35262 68.2377 6.30227 68.3322 5.98579 68.3322C5.72685 68.3322 5.82755 68.7387 6.20157 69.2207C6.61156 69.7501 6.76261 69.7501 6.79857 69.2113L6.82015 68.8521H7.17979H7.53943V69.7501C7.53943 70.6197 7.54662 70.6481 7.71206 70.6764C7.80556 70.6953 7.91346 70.667 7.94942 70.6197C7.99977 70.5535 8.02135 69.8541 8.01415 68.8143L7.99977 67.1129L8.17959 67.0467C8.28748 67.0183 8.45291 67.0183 8.55361 67.0467L8.74062 67.1129L8.71904 68.7859C8.70466 69.7028 8.71904 70.5157 8.74782 70.5724C8.83413 70.752 9.14342 70.7237 9.21535 70.5252C9.25131 70.4401 9.25131 69.665 9.22254 68.8048C9.19377 67.9447 9.20096 67.2074 9.23693 67.1601C9.32324 67.0372 10.8193 67.0561 10.8769 67.1885C10.9057 67.2452 10.9057 67.491 10.8841 67.7367C10.8481 68.1621 10.8337 68.1904 10.6179 68.2188C10.4237 68.2471 10.3734 68.1999 10.2799 67.9636C10.2151 67.8123 10.136 67.6611 10.0929 67.6233C9.99217 67.5382 9.73323 67.7462 9.73323 67.9258C9.73323 68.0581 10.2511 69.1168 10.8409 70.1943C11.0279 70.5252 11.0999 70.5913 11.2797 70.5724C11.6537 70.5346 11.6105 70.2038 11.143 69.561C10.92 69.2586 10.7402 68.9655 10.7402 68.9088C10.7402 68.8521 10.8697 68.7009 11.0207 68.578C11.33 68.3228 11.4307 67.973 11.3516 67.4815C11.3156 67.283 11.33 67.1885 11.402 67.1601C11.4523 67.1412 12.0061 67.0939 12.6247 67.0656C13.6821 67.0089 13.754 67.0183 13.7971 67.179C13.8907 67.5949 13.79 67.6705 13.0779 67.6705C12.524 67.6705 12.3874 67.6989 12.2291 67.8596C11.8407 68.2661 11.9126 69.0128 12.4305 69.9391C12.783 70.563 12.9268 70.6859 13.1066 70.5346C13.3224 70.355 13.2721 70.1282 12.9412 69.6839C12.6103 69.2586 12.4089 68.6725 12.4881 68.3984C12.5168 68.2944 12.6679 68.2471 13.0203 68.2188C13.8187 68.1621 13.7756 68.0959 13.754 69.3814C13.7324 70.6197 13.7684 70.7615 14.0921 70.6575L14.2863 70.5913L14.2431 68.9088C14.2143 67.7084 14.2287 67.1885 14.2863 67.1129C14.3942 66.9711 14.8761 66.9805 14.9624 67.1223C14.9983 67.1979 15.0055 67.9163 14.984 68.8521C14.9552 69.8068 14.9624 70.5063 15.0055 70.5724C15.0415 70.6386 15.1494 70.6953 15.2357 70.6953C15.5234 70.6953 15.545 70.5441 15.4875 68.8521C15.4443 67.4626 15.4515 67.2263 15.5522 67.1223C15.6097 67.0561 15.7104 67.0278 15.7608 67.0561C15.8183 67.0845 16.0341 67.1034 16.2499 67.1034C16.6239 67.1034 16.6527 67.1223 16.739 67.4059C16.8109 67.6233 16.8181 67.7651 16.7606 67.9258C16.6886 68.1337 16.4513 68.3039 16.3722 68.1999C16.3506 68.1715 16.2715 68.1904 16.1995 68.2471C16.0916 68.3133 16.0701 68.3984 16.106 68.5969C16.1995 69.0884 16.4585 69.5799 16.7246 69.7595C17.0483 69.9769 17.2713 69.9864 17.5446 69.8068C17.8035 69.6272 17.8683 69.6934 17.8539 70.1187C17.8395 70.3078 17.8611 70.5157 17.8898 70.5819C17.9546 70.7237 18.2639 70.7331 18.3286 70.6008C18.3574 70.5441 18.3718 69.7406 18.3646 68.8048L18.3574 67.1129L18.5947 67.0845C18.8033 67.0561 18.8321 67.0278 18.8321 66.7726V66.489L17.1346 66.5268L15.4371 66.5552L15.3148 66.1298C15.1494 65.5532 14.9552 65.2507 14.6171 65.0239C14.3006 64.8065 14.0129 64.7876 13.7756 64.9577ZM14.6819 65.8368C14.8041 66.0069 14.912 66.2432 14.912 66.3472C14.912 66.5174 14.8689 66.5363 14.4157 66.5363C13.8835 66.5363 13.8331 66.489 13.8331 65.988C13.8403 65.3264 14.2575 65.2507 14.6819 65.8368ZM17.7819 67.0939C17.8539 67.1601 17.8755 67.387 17.8683 68.0108C17.8611 68.7859 17.8395 68.871 17.6741 69.0601C17.4583 69.3153 17.0986 69.3436 16.8685 69.1262C16.6455 68.9277 16.6743 68.7009 16.9476 68.474C17.2353 68.2377 17.3432 67.8596 17.2353 67.4815C17.1778 67.2925 17.1778 67.1885 17.2353 67.1129C17.3288 66.99 17.6453 66.9805 17.7819 67.0939Z" fill="#000080"/>
<path d="M40.4523 65.2033C40.3947 65.2506 40.3516 65.4302 40.3516 65.5909C40.3516 65.9406 40.4738 66.073 40.7687 66.0446C40.963 66.0163 40.9845 65.9785 41.0061 65.6476C41.0349 65.2601 40.9486 65.1183 40.6968 65.1183C40.6177 65.1183 40.5098 65.1561 40.4523 65.2033Z" fill="#000080"/>
<path d="M37.8571 66.5174C37.7564 66.5646 37.7708 66.8766 37.8787 66.99C37.929 67.0467 38.2455 67.1034 38.5764 67.1223L39.1877 67.1507L39.2093 67.6044C39.2453 68.3606 38.9863 68.5685 38.7274 67.9919C38.5476 67.5949 38.2671 67.5666 38.2311 67.9352C38.2095 68.1432 39.0798 69.9769 39.4395 70.4874C39.5833 70.6859 39.6121 70.6953 39.7488 70.5724C40.0149 70.3456 39.9789 70.1471 39.5546 69.561C39.3316 69.2586 39.1518 68.975 39.1518 68.9277C39.1518 68.8899 39.2453 68.7765 39.3676 68.6914C39.6049 68.5118 40.317 68.5496 40.4393 68.7481C40.4824 68.8143 40.4896 69.1546 40.4537 69.6083C40.3889 70.4874 40.4033 70.5819 40.6335 70.6575C40.9931 70.7804 41.0147 70.6386 40.9715 68.7954C40.9356 67.3775 40.9428 67.1034 41.0291 67.0939C41.4175 67.0656 42.4029 67.1034 42.4605 67.1507C42.5036 67.179 42.5324 67.4153 42.5324 67.6611C42.5324 68.3889 42.2734 68.5591 42.0145 68.0014C41.8563 67.6422 41.7052 67.6044 41.5686 67.8785C41.4822 68.0676 41.5326 68.1999 42.1512 69.4192C42.7626 70.6386 42.8201 70.7142 43.0359 70.5724C43.338 70.3739 43.2948 70.1565 42.8633 69.5894C42.6403 69.2964 42.4605 69.0222 42.4605 68.975C42.4605 68.9277 42.5324 68.8048 42.6259 68.7009C42.7482 68.5685 42.8561 68.5402 43.1078 68.578C43.676 68.6631 43.7336 68.7009 43.9206 69.079C44.1292 69.4949 44.6111 69.8446 44.9635 69.8446C45.093 69.8446 45.316 69.7784 45.4598 69.7028C45.8842 69.4665 45.9202 69.5043 45.8986 70.0431C45.8842 70.4212 45.9058 70.5535 46.0065 70.6386C46.0928 70.7142 46.1647 70.7142 46.2582 70.6386C46.3661 70.5441 46.3805 70.3739 46.3517 68.8899C46.3302 67.576 46.3446 67.2168 46.4237 67.1318C46.51 67.0372 46.7761 67.0278 47.0926 67.0939C47.1286 67.0939 47.1358 67.8029 47.107 68.7954C47.071 70.2322 47.0782 70.4968 47.1717 70.6008C47.294 70.7331 47.6105 70.6575 47.6536 70.4874C47.668 70.4212 47.6536 69.6745 47.6177 68.8238C47.5745 67.8123 47.5745 67.2452 47.6177 67.1885C47.6608 67.1318 48.1571 67.0845 48.7613 67.0845L49.8331 67.075V67.4437V67.8123L49.0922 67.8218C48.5096 67.8312 48.3226 67.869 48.2363 67.9825C48.1284 68.1243 48.1356 68.1715 48.3657 68.6158C48.6175 69.1168 48.898 69.3153 49.0131 69.079C49.0419 69.0033 49.0562 68.8616 49.0347 68.7576C48.9771 68.4267 49.0994 68.3228 49.4806 68.3511L49.8331 68.3795L49.8403 69.3814C49.8474 70.6008 49.8762 70.7142 50.1352 70.6764L50.3366 70.6481V68.8994V67.1507L50.5164 67.1223C50.7465 67.075 50.876 66.9333 50.876 66.7253C50.876 66.6308 50.8329 66.5363 50.7897 66.5174C50.6458 66.4417 45.4958 66.5173 45.4095 66.5835C45.2584 66.7064 45.3735 66.9333 45.6253 67.0467L45.877 67.1507L45.8986 67.8123C45.9202 68.6914 45.8339 68.8994 45.3448 69.1168C45.0211 69.2586 44.9132 69.268 44.7478 69.1735C44.4744 69.0317 44.496 68.9372 44.8269 68.7103C45.2153 68.4551 45.3376 68.1904 45.3376 67.6233C45.3304 67.2452 45.2944 67.094 45.1218 66.8293C44.9492 66.5646 44.8485 66.4985 44.5679 66.4701C44.2658 66.4228 44.1867 66.4606 43.9853 66.678C43.5753 67.1318 43.7264 67.9541 44.2299 67.9541C44.5104 67.9541 44.5392 67.8218 44.3234 67.5193C44.1292 67.2452 44.1867 67.0089 44.46 67.0089C44.9132 67.0089 45.0642 67.7462 44.7118 68.1904C44.4385 68.5213 44.2155 68.5874 44.0357 68.37C43.935 68.2566 43.7408 68.1904 43.4243 68.1621C43.151 68.1337 42.9639 68.077 42.9568 68.0108C42.8992 67.2074 42.9496 66.9427 43.1582 67.0467C43.4027 67.179 43.7552 66.7537 43.5394 66.5835C43.4674 66.5268 37.9865 66.4606 37.8571 66.5174ZM40.4033 67.1318C40.4968 67.2263 40.5256 67.3586 40.504 67.6705L40.4824 68.0959H40.0868H39.6912L39.6697 67.6327C39.6553 67.3303 39.6769 67.1412 39.7416 67.0939C39.8854 66.9711 40.2595 66.99 40.4033 67.1318Z" fill="#000080"/>
<path d="M5.10042 74.0601C5.07165 74.1546 5.07165 74.5138 5.10042 74.873C5.12919 75.2227 5.12919 75.5157 5.1148 75.5157C5.09323 75.5157 4.95656 75.4496 4.81271 75.3739C4.28763 75.0809 3.93519 75.4401 3.86326 76.3381C3.80572 77.0659 3.87764 77.6803 4.05027 77.9545C4.23009 78.238 4.6185 78.3231 4.90621 78.1341C5.09323 78.0112 5.13638 78.0112 5.20831 78.1246C5.25866 78.2002 5.36655 78.2569 5.44567 78.238C5.59672 78.2097 5.59672 78.1719 5.59672 76.0829V73.9561L5.37374 73.9277C5.20831 73.9088 5.13638 73.9466 5.10042 74.0601ZM4.8199 75.856C5.09323 75.9505 5.20831 76.6784 5.04287 77.2833C4.94218 77.6425 4.72639 77.7654 4.48903 77.5953C4.35956 77.5102 4.33798 77.4062 4.33798 76.8202C4.33798 76.3286 4.36675 76.1018 4.46026 75.9695C4.58973 75.7804 4.59692 75.7804 4.8199 75.856Z" fill="#000080"/>
<path d="M31.2325 74.0884C31.1102 74.2207 31.0526 74.3908 31.0239 74.7689C30.9951 75.2132 30.9663 75.2794 30.8225 75.3077C30.6139 75.3455 30.6283 75.6858 30.844 75.8371C31.0598 75.9978 31.0598 75.9978 31.0239 77.0375C31.0023 77.6047 31.0095 78.0773 31.0526 78.1435C31.0886 78.2096 31.2181 78.2569 31.3403 78.238L31.5633 78.2096V77.0848C31.5633 75.9505 31.5633 75.9505 31.7431 75.8938C31.8726 75.856 31.9302 75.7615 31.9445 75.5913C31.9661 75.3739 31.9373 75.3361 31.7647 75.3077C31.5849 75.2794 31.5633 75.2416 31.5633 74.958C31.5633 74.6839 31.5921 74.6272 31.8151 74.5326C31.9517 74.4759 32.0668 74.3719 32.0596 74.3058C32.0524 74.2491 32.0452 74.1262 32.0452 74.0506C32.0237 73.8332 31.441 73.8615 31.2325 74.0884Z" fill="#000080"/>
<path d="M38.6685 74.0225C38.6325 74.0981 38.6253 75.015 38.6469 76.1776L38.6829 78.2099L38.8483 78.2383C39.1648 78.295 39.2151 78.1343 39.172 77.1796C39.1216 76.1493 39.1936 75.8941 39.51 75.8941C39.8337 75.8941 39.8984 76.1493 39.8409 77.2268L39.7906 78.1532L39.9776 78.2193C40.366 78.3422 40.3876 78.2761 40.3588 76.9338C40.3372 75.8373 40.3228 75.6861 40.1862 75.5065C40.0135 75.2891 39.6251 75.2418 39.3806 75.412C39.3014 75.4687 39.2079 75.516 39.1792 75.516C39.1576 75.516 39.1576 75.2135 39.1792 74.8448C39.2367 74.117 39.172 73.909 38.8986 73.909C38.8123 73.909 38.7044 73.9658 38.6685 74.0225Z" fill="#000080"/>
<path d="M45.3659 74.0131C45.3084 74.1454 45.3156 78.0398 45.3731 78.1627C45.4306 78.2856 45.7471 78.2856 45.8047 78.1627C45.855 78.0587 45.9054 74.2116 45.855 74.0226C45.819 73.8808 45.4378 73.8713 45.3659 74.0131Z" fill="#000080"/>
<path d="M59.7288 74.117C59.7 74.2399 59.6929 74.5707 59.7216 74.8543C59.7504 75.1378 59.7576 75.4025 59.7288 75.4498C59.7 75.4876 59.5706 75.4498 59.4411 75.3647C59.1102 75.1473 58.8009 75.2796 58.6067 75.705C58.4917 75.9697 58.4629 76.1965 58.4629 76.8676C58.4629 77.69 58.4629 77.7089 58.7002 77.983C58.9592 78.2949 59.3044 78.3422 59.5562 78.1154C59.6857 77.9925 59.7144 77.9925 59.7935 78.1154C59.8943 78.276 60.1244 78.3044 60.182 78.1721C60.2035 78.1248 60.2323 77.1607 60.2395 76.0264L60.2611 73.9563L60.0237 73.9279C59.8367 73.8996 59.7792 73.9374 59.7288 74.117ZM59.5778 75.9886C59.7864 76.2627 59.7792 77.189 59.5778 77.482C59.2397 77.9547 58.9304 77.5955 58.9304 76.7258C58.9304 76.1587 59.0815 75.7995 59.326 75.7995C59.3836 75.7995 59.4986 75.8846 59.5778 75.9886Z" fill="#000080"/>
<path d="M66.4408 74.0033C66.3473 74.1262 66.3905 78.0773 66.484 78.2002C66.52 78.2474 66.635 78.238 66.7645 78.1718C66.9156 78.0868 67.0163 78.0773 67.117 78.1529C67.3327 78.3042 67.6492 78.2758 67.8434 78.1057C68.088 77.8788 68.2103 77.3967 68.2103 76.6689C68.2103 76.149 68.1743 75.9505 68.052 75.7047C67.8362 75.2888 67.5629 75.1659 67.268 75.3645C66.9084 75.6008 66.894 75.5724 66.9371 74.8446C66.9587 74.4854 66.9587 74.1167 66.9371 74.0411C66.894 73.8899 66.5487 73.8615 66.4408 74.0033ZM67.5629 75.9883C67.678 76.1396 67.7068 76.3002 67.7068 76.7634C67.7068 77.6141 67.4047 77.9544 67.0594 77.5007C66.9443 77.3495 66.9156 77.1888 66.9156 76.7445C66.9156 76.1585 67.0666 75.7993 67.3112 75.7993C67.3687 75.7993 67.4838 75.8843 67.5629 75.9883Z" fill="#000080"/>
<path d="M72.0296 74.0413C71.972 74.1264 71.9648 74.3911 71.9936 74.8542C72.0368 75.4214 72.0296 75.5348 71.9433 75.4876C71.4326 75.2134 71.3031 75.1945 71.1017 75.393C70.8643 75.6199 70.7349 76.0736 70.7349 76.6975C70.7205 77.7561 71.0226 78.3138 71.5476 78.2288C71.6987 78.2004 71.8497 78.1248 71.8857 78.0586C71.9289 77.9641 71.972 77.9641 72.0799 78.0964C72.2166 78.2571 72.5259 78.3233 72.5259 78.1815C72.5331 77.8318 72.5331 74.117 72.5331 74.0224C72.5259 73.8712 72.1303 73.8807 72.0296 74.0413ZM71.8354 75.9224C71.9792 76.0642 72.0727 76.7731 71.9936 77.1606C71.9001 77.6427 71.5692 77.8412 71.3463 77.5387C71.2599 77.4348 71.2312 77.2079 71.2312 76.7447C71.2312 76.1776 71.2527 76.0736 71.3894 75.9507C71.5836 75.7711 71.6699 75.7617 71.8354 75.9224Z" fill="#000080"/>
<path d="M6.13576 74.136C5.9991 74.3629 6.07822 74.7032 6.3012 74.7977C6.54575 74.9111 6.73996 74.7883 6.76873 74.4858C6.80469 74.2022 6.66084 74.0037 6.42347 74.0037C6.31558 74.0037 6.18611 74.0699 6.13576 74.136Z" fill="#000080"/>
<path d="M19.184 74.136C19.1624 74.2116 19.1552 74.3912 19.1696 74.5424C19.184 74.7504 19.2343 74.8166 19.3926 74.8355C19.5077 74.8544 19.6443 74.8166 19.7019 74.7504C19.8241 74.6181 19.8313 74.2683 19.7162 74.1171C19.594 73.9564 19.2343 73.9753 19.184 74.136Z" fill="#000080"/>
<path d="M0.583156 74.3723C0.511228 74.5046 0.496841 74.9584 0.525609 76.3762L0.561574 78.21L0.770167 78.2384C0.885252 78.2573 1.00033 78.2384 1.0363 78.1911C1.11542 78.0871 1.15138 74.4763 1.07226 74.3061C0.993143 74.136 0.691047 74.1738 0.583156 74.3723Z" fill="#000080"/>
<path d="M12.7021 74.3061C12.6733 74.3723 12.6445 75.2702 12.6445 76.2911C12.6445 77.7657 12.6661 78.1721 12.738 78.21C12.8819 78.2856 13.184 78.2667 13.184 78.1816C13.1912 77.9736 13.1984 74.4101 13.1912 74.3061C13.184 74.2494 13.0905 74.1927 12.9754 74.1927C12.8531 74.1927 12.738 74.2494 12.7021 74.3061Z" fill="#000080"/>
<path d="M32.9643 74.429C32.8708 74.7409 33.0074 74.9394 33.3455 74.9678L33.6476 74.9961V76.603V78.21H33.8993H34.1511L34.1655 76.6976C34.1727 75.8658 34.1799 75.1379 34.1799 75.0718C34.1871 75.0056 34.3165 74.9489 34.482 74.93C34.8272 74.9016 34.9926 74.6748 34.8632 74.4101C34.8056 74.2777 34.6474 74.2589 33.9065 74.2494C33.0794 74.24 33.0146 74.2494 32.9643 74.429Z" fill="#000080"/>
<path d="M53.9977 74.3156C53.9833 74.3817 53.9761 75.2797 53.9833 76.3195L54.0049 78.21H54.2926H54.5803V77.3592V76.5085H55.0119H55.4434V77.3592V78.21H55.6952H55.9469V76.2249V74.24L55.7815 74.2116C55.4722 74.1549 55.4003 74.3439 55.4218 75.1285L55.4434 75.8469H55.0119H54.5803L54.6019 75.1568C54.6163 74.7126 54.5947 74.4195 54.5443 74.3345C54.4364 74.1643 54.048 74.1454 53.9977 74.3156Z" fill="#000080"/>
<path d="M18.0184 74.6276C17.9321 74.7032 17.8602 74.8639 17.8602 74.9868C17.8602 75.1286 17.7954 75.242 17.6731 75.3082C17.4358 75.4594 17.4574 75.8186 17.7163 75.8942C17.8889 75.9509 17.8889 75.9604 17.8673 76.8111C17.8386 77.9737 17.9537 78.2573 18.4428 78.2573C18.9031 78.2573 18.9894 77.8036 18.5722 77.6051C18.3636 77.5106 18.3636 77.5106 18.3636 76.7071V75.9037L18.565 75.8753C18.7161 75.8564 18.7664 75.7902 18.7808 75.5917C18.8024 75.3743 18.7736 75.3365 18.601 75.3082C18.45 75.2893 18.4068 75.2326 18.414 75.0908C18.4428 74.7883 18.3708 74.4764 18.2701 74.4764C18.2198 74.4764 18.1047 74.5425 18.0184 74.6276Z" fill="#000080"/>
<path d="M20.6086 74.6276C20.5223 74.7032 20.4503 74.8639 20.4503 74.9868C20.4503 75.1286 20.3856 75.242 20.2633 75.3176C20.0403 75.4499 20.0547 75.7052 20.2993 75.8564C20.4575 75.9604 20.4647 76.0171 20.4791 76.9812C20.4863 77.8603 20.5007 78.0021 20.623 78.125C20.7956 78.2857 21.2487 78.3046 21.371 78.1439C21.4789 78.0021 21.3566 77.7091 21.1265 77.5956C20.961 77.5106 20.9538 77.4633 20.9538 76.7071V75.9037L21.1552 75.8753C21.3063 75.8564 21.3566 75.7902 21.371 75.5917C21.3926 75.3743 21.3638 75.3365 21.1912 75.3082C21.0329 75.2893 20.9898 75.2325 20.9826 75.0435C20.9682 74.5425 20.9538 74.4764 20.8603 74.4764C20.81 74.4764 20.6949 74.5425 20.6086 74.6276Z" fill="#000080"/>
<path d="M24.2765 74.6273C24.1902 74.7029 24.1183 74.8636 24.1183 74.9865C24.1183 75.1283 24.0536 75.2417 23.9313 75.3173C23.7083 75.4497 23.7227 75.7049 23.9673 75.8561C24.1255 75.9601 24.1327 76.0168 24.1471 76.9621C24.1471 77.5954 24.183 78.0018 24.2406 78.0774C24.2837 78.1342 24.4851 78.2098 24.6793 78.2381C24.967 78.2665 25.039 78.2476 25.0749 78.1153C25.1469 77.8978 25.0102 77.6143 24.8232 77.5765C24.665 77.5481 24.6578 77.5008 24.6362 76.7163C24.6146 75.8939 24.6146 75.8939 24.7944 75.8939C24.9023 75.8939 25.0102 75.8183 25.0606 75.6954C25.1541 75.4591 25.0893 75.3551 24.8376 75.3079C24.7081 75.289 24.665 75.2323 24.6721 75.0905C24.7009 74.788 24.629 74.4761 24.5283 74.4761C24.4779 74.4761 24.3629 74.5422 24.2765 74.6273Z" fill="#000080"/>
<path d="M1.75655 75.3172C1.69901 75.3644 1.67743 75.7898 1.69182 76.8012L1.71339 78.2096L1.95075 78.238C2.21689 78.2758 2.19531 78.3514 2.18092 77.1131C2.17373 76.3853 2.19531 76.1774 2.28882 76.045C2.42548 75.8654 2.72038 75.8465 2.8067 76.0072C2.83547 76.0734 2.86424 76.5933 2.86424 77.1699V78.2096L3.07283 78.238C3.18791 78.2569 3.31019 78.2285 3.35335 78.1718C3.46124 78.03 3.41808 76.1112 3.2958 75.7331C3.13756 75.2416 2.82828 75.1092 2.43986 75.3739C2.31759 75.459 2.2025 75.4873 2.15215 75.4401C2.01549 75.2983 1.85006 75.251 1.75655 75.3172Z" fill="#000080"/>
<path d="M7.44502 75.3363C7.31555 75.4025 7.27958 75.4781 7.30116 75.6766C7.32274 75.9602 7.3659 75.9696 7.87658 75.8467C8.10675 75.7806 8.14991 75.8089 8.265 76.0358C8.42324 76.3572 8.32973 76.4612 7.8622 76.4612C7.38028 76.4612 7.12134 76.7636 7.11415 77.3308C7.10695 77.6711 7.14292 77.8223 7.27958 78.0113C7.47379 78.276 7.82624 78.3422 8.09237 78.1531C8.20026 78.0775 8.28657 78.0775 8.41604 78.1531C8.51674 78.2193 8.6606 78.2382 8.73253 78.2098C8.862 78.1531 8.86919 78.068 8.83322 76.9999C8.79007 75.7617 8.71814 75.4875 8.39447 75.3269C8.17149 75.2134 7.66799 75.2134 7.44502 75.3363ZM8.35131 77.0094C8.38008 77.2835 8.20745 77.6522 8.01325 77.7183C7.83343 77.775 7.57449 77.5387 7.57449 77.3119C7.57449 77.0661 7.92693 76.7258 8.14272 76.7636C8.27219 76.7825 8.33692 76.8581 8.35131 77.0094Z" fill="#000080"/>
<path d="M9.38673 75.3079C9.322 75.3741 9.30042 75.7333 9.31481 76.8014L9.33638 78.2098H9.58813H9.83988V77.2078C9.83988 76.1303 9.90462 75.894 10.1995 75.894C10.4872 75.894 10.5376 76.0924 10.516 77.1228C10.4944 78.1625 10.5304 78.2854 10.8541 78.2382L11.0627 78.2098L11.0339 76.981C11.0195 76.1397 10.9835 75.686 10.9116 75.5442C10.7749 75.2606 10.3793 75.1756 10.0844 75.3646C9.88303 75.4969 9.83988 75.4969 9.71041 75.3741C9.53059 75.2134 9.51621 75.2039 9.38673 75.3079Z" fill="#000080"/>
<path d="M13.8386 75.3648C13.781 75.4498 13.7595 75.9319 13.7738 76.8488L13.7954 78.2099L14.004 78.2383C14.1191 78.2572 14.2342 78.2194 14.263 78.1532C14.2989 78.0965 14.3061 77.6333 14.2845 77.1324C14.2486 76.3478 14.263 76.1966 14.3637 76.0548C14.5075 75.8658 14.8024 75.8468 14.8887 76.0075C14.9175 76.0737 14.9391 76.5936 14.9463 77.1702V78.2099L15.1549 78.2383C15.2699 78.2572 15.3922 78.2289 15.4354 78.1721C15.5433 78.0304 15.5001 76.1115 15.3778 75.7334C15.2268 75.2513 14.9103 75.1096 14.5435 75.3648C14.3852 75.4687 14.3277 75.4687 14.1838 75.3648C13.9609 75.2041 13.9393 75.2041 13.8386 75.3648Z" fill="#000080"/>
<path d="M16.3491 75.2987C16.1765 75.3838 15.9751 75.639 15.9104 75.8659C15.8169 76.2061 15.9607 76.5842 16.306 76.8678C16.7375 77.227 16.8239 77.3688 16.7088 77.5484C16.644 77.6524 16.5074 77.6902 16.2484 77.6713C15.9463 77.6429 15.8816 77.6713 15.86 77.8131C15.8097 78.125 15.9823 78.2573 16.4211 78.2573C16.7735 78.2573 16.8814 78.2101 17.0684 78.0116C17.2626 77.7942 17.2914 77.7091 17.2698 77.3688C17.2482 77.0096 17.2123 76.9529 16.8382 76.622C16.27 76.1305 16.2844 75.7146 16.8598 75.8659C17.0684 75.9131 17.2051 75.8091 17.2123 75.5917C17.2195 75.3176 16.6872 75.138 16.3491 75.2987Z" fill="#000080"/>
<path d="M21.8373 75.2987C21.7006 75.3648 21.7078 77.4066 21.8444 77.8319C21.9595 78.1911 22.1897 78.3234 22.5206 78.21C22.722 78.1438 22.8514 78.1344 23.2183 78.1817L23.434 78.21L23.4556 76.8111L23.4772 75.4215L23.2974 75.3176C22.9449 75.1002 22.8946 75.223 22.8946 76.3479C22.8946 77.4916 22.8442 77.6334 22.4846 77.5767L22.2832 77.5483L22.276 76.4991C22.2688 75.9225 22.2472 75.4026 22.2185 75.3365C22.1681 75.2325 21.9955 75.2136 21.8373 75.2987Z" fill="#000080"/>
<path d="M25.8793 75.3457C25.5628 75.5915 25.3398 76.1964 25.3398 76.7825C25.3398 77.274 25.606 77.983 25.8433 78.1436C26.1167 78.3138 26.9223 78.2571 27.023 78.0397C27.138 77.8034 26.987 77.5387 26.7712 77.5954C26.3828 77.6899 26.0447 77.6332 25.944 77.4536C25.7354 77.085 25.8433 76.981 26.4188 76.9715C26.7137 76.9715 27.0014 76.9621 27.0517 76.9527C27.2531 76.9148 27.0805 75.8373 26.8072 75.5064C26.613 75.2701 26.0879 75.1756 25.8793 75.3457ZM26.4763 75.9129C26.5267 75.979 26.5626 76.1208 26.5626 76.2343C26.5626 76.4044 26.5123 76.4517 26.2821 76.48C25.8146 76.5367 25.7354 76.4233 25.9584 76.0074C26.0807 75.7806 26.3396 75.7333 26.4763 75.9129Z" fill="#000080"/>
<path d="M28.9806 75.4216C28.6641 75.6863 28.5131 76.1305 28.5059 76.8016C28.5059 77.728 28.8583 78.2573 29.4769 78.2573C29.8509 78.2573 30.0811 78.0966 30.2825 77.6996C30.5055 77.2648 30.5126 76.4046 30.2897 75.8848C30.0235 75.2704 29.405 75.0435 28.9806 75.4216ZM29.6855 75.9226C29.9588 76.1872 29.966 77.2932 29.6927 77.5956C29.5416 77.7658 29.2755 77.6713 29.1676 77.4066C29.0309 77.0569 29.0885 76.0927 29.2611 75.932C29.4265 75.7713 29.52 75.7619 29.6855 75.9226Z" fill="#000080"/>
<path d="M35.2887 75.327C35.2024 75.3743 35.0514 75.5728 34.9507 75.7713C34.7924 76.0738 34.7637 76.2345 34.7637 76.8016C34.7637 77.4255 34.7781 77.4917 35.0082 77.8319C35.2384 78.1817 35.2672 78.2006 35.7491 78.2384C36.2094 78.2762 36.267 78.2573 36.3677 78.0682C36.5619 77.7091 36.454 77.6051 35.9361 77.624C35.5261 77.6429 35.4542 77.6145 35.3391 77.4255C35.1089 77.0474 35.2168 76.9434 35.8642 76.9151L36.454 76.8867L36.4756 76.5653C36.5403 75.6673 35.9073 75.0057 35.2887 75.327ZM35.8714 75.9509C35.9361 76.0265 35.9864 76.1778 35.9864 76.2817C35.9864 76.4519 35.9433 76.4708 35.6124 76.4424C35.1952 76.4141 35.1161 76.2817 35.3319 75.9982C35.5117 75.7619 35.7203 75.743 35.8714 75.9509Z" fill="#000080"/>
<path d="M37.4607 75.2987C37.1154 75.4121 36.7773 76.2062 36.7773 76.9056C36.7773 77.6618 37.2377 78.2573 37.8347 78.2573C38.4964 78.2573 38.5612 77.6713 37.9066 77.6146C37.4966 77.5767 37.3528 77.3593 37.3528 76.7449C37.3528 76.1494 37.475 75.9604 37.8994 75.9037C38.1584 75.8564 38.2591 75.7997 38.2734 75.6768C38.331 75.2987 37.9714 75.138 37.4607 75.2987Z" fill="#000080"/>
<path d="M40.9053 75.3081C40.8478 75.3554 40.8262 75.8375 40.8334 76.7922L40.8406 78.21L41.0491 78.2384C41.3728 78.2856 41.416 78.1533 41.3944 77.1797C41.3656 76.1872 41.4376 75.8942 41.6965 75.8942C41.9986 75.8942 42.0633 76.121 42.0633 77.2081C42.0633 78.1911 42.0633 78.21 42.236 78.2384C42.3295 78.2573 42.4374 78.2289 42.4805 78.1722C42.6028 78.0115 42.5453 75.8091 42.4158 75.5444C42.2791 75.2609 41.8835 75.1758 41.5886 75.3648C41.38 75.4972 41.3441 75.4972 41.2362 75.3743C41.1067 75.2136 41.0276 75.2042 40.9053 75.3081Z" fill="#000080"/>
<path d="M43.4664 75.3456C43.1859 75.5441 42.9629 76.1491 42.9629 76.7257C42.9629 77.3401 43.0996 77.7749 43.3657 78.0585C43.5383 78.2381 43.639 78.2664 43.9771 78.2381C44.2504 78.2097 44.423 78.1435 44.5309 78.0112C44.6964 77.8033 44.9049 77.1321 44.9049 76.7918C44.9049 76.3854 44.6748 75.6576 44.495 75.478C44.2648 75.2511 43.7037 75.1849 43.4664 75.3456ZM44.1497 75.9317C44.3079 76.0829 44.3799 76.9431 44.2648 77.3306C44.1713 77.6615 43.8764 77.7749 43.6894 77.5575C43.3225 77.1132 43.5095 75.8182 43.9411 75.7993C43.9771 75.7993 44.0706 75.8561 44.1497 75.9317Z" fill="#000080"/>
<path d="M46.8824 75.3176C46.8033 75.3649 46.6594 75.5161 46.5587 75.6579C46.3933 75.8848 46.3789 75.9887 46.3789 76.726C46.3789 77.3971 46.4077 77.5957 46.5228 77.8036C46.7098 78.1344 46.9256 78.2573 47.3212 78.2573C47.9541 78.2573 48.3066 77.4444 48.1771 76.3101C48.1052 75.6674 47.8318 75.3082 47.3787 75.2704C47.1845 75.2515 46.9615 75.2704 46.8824 75.3176ZM47.5657 76.0549C47.6952 76.2818 47.7168 76.4141 47.6952 76.8773C47.6592 77.4444 47.5369 77.6902 47.278 77.6902C47.0119 77.6902 46.8968 77.4444 46.8608 76.8489C46.8321 76.3385 46.8464 76.2345 46.9975 76.0266C47.2061 75.7335 47.3715 75.743 47.5657 76.0549Z" fill="#000080"/>
<path d="M49.0203 75.327C48.6751 75.516 48.4521 76.7826 48.6463 77.4538C48.8189 78.0587 49.3728 78.3612 49.6677 78.002C49.8547 77.7846 49.9842 77.9547 49.8906 78.3234C49.7828 78.7487 49.5238 78.8905 49.0851 78.7393C48.6751 78.607 48.5744 78.6448 48.5744 78.9567C48.5744 79.297 48.7326 79.3915 49.2793 79.4199C49.6964 79.4388 49.8259 79.401 49.9913 79.2403C50.3582 78.8811 50.4085 78.6353 50.4229 76.915C50.4373 75.4877 50.4301 75.3364 50.315 75.2986C50.2503 75.2797 50.1064 75.327 49.9985 75.412C49.8187 75.5349 49.7899 75.5349 49.6677 75.3931C49.5238 75.2135 49.2793 75.1946 49.0203 75.327ZM49.7036 75.9414C50.0201 76.2344 49.9698 77.5105 49.6389 77.6239C49.4015 77.709 49.2361 77.5388 49.1498 77.1135C49.0563 76.6598 49.1138 76.225 49.3008 75.9792C49.4663 75.7618 49.5022 75.7618 49.7036 75.9414Z" fill="#000080"/>
<path d="M50.7519 75.3836C50.7303 75.4781 50.7447 75.6766 50.7951 75.8373C51.1115 76.9243 51.3849 78.1153 51.3633 78.3327C51.3489 78.5218 51.2698 78.6352 51.0756 78.7581C50.6296 79.0417 50.7735 79.571 51.2626 79.4481C51.6654 79.3441 51.6942 79.2874 52.1689 77.2173C52.2624 76.8298 52.3631 76.4706 52.399 76.4233C52.4278 76.3666 52.4566 76.2626 52.4566 76.187C52.4566 76.102 52.5069 75.9129 52.5645 75.7617C52.7011 75.4214 52.6076 75.2323 52.2983 75.2323C52.061 75.2323 52.0682 75.2134 51.8955 76.3099C51.8236 76.7825 51.7229 77.1795 51.687 77.189C51.5935 77.2362 51.4712 76.7731 51.3777 76.0358C51.3417 75.7428 51.2698 75.4403 51.2266 75.3647C51.1115 75.1851 50.8094 75.1945 50.7519 75.3836Z" fill="#000080"/>
<path d="M56.4142 75.3269C56.3279 75.4025 56.3639 75.6105 56.6516 76.7353C57.0544 78.2761 57.0688 78.6542 56.7451 78.7298C56.2704 78.8338 56.3207 79.4482 56.8026 79.4293C57.1767 79.4104 57.3637 79.1362 57.5147 78.38C57.6873 77.5671 57.824 76.9716 58.0542 76.102C58.2052 75.516 58.2196 75.3931 58.1333 75.3175C58.011 75.2135 57.8456 75.2135 57.7377 75.308C57.7017 75.3458 57.6082 75.7334 57.5363 76.1776C57.4716 76.6219 57.3996 77.0567 57.3781 77.1512C57.2917 77.5293 57.1263 77.0284 56.9896 75.998C56.8961 75.2891 56.7163 75.0717 56.4142 75.3269Z" fill="#000080"/>
<path d="M61.0525 75.5445C60.6785 76.036 60.5706 76.7638 60.7648 77.4539C60.923 77.9832 61.2467 78.2573 61.7286 78.2573C62.2033 78.2573 62.3832 78.1344 62.3832 77.8131C62.3832 77.5768 62.376 77.5673 62.0091 77.624C61.52 77.6996 61.3474 77.6335 61.2251 77.3499C61.0957 77.0191 61.2179 76.934 61.8509 76.934C62.4479 76.934 62.4839 76.8867 62.3904 76.2061C62.2537 75.2609 61.5344 74.9112 61.0525 75.5445ZM61.8221 75.9604C62.0163 76.1872 61.9876 76.4614 61.779 76.4614C61.6855 76.4614 61.5632 76.4803 61.5056 76.5086C61.4553 76.537 61.3474 76.4992 61.2683 76.4236C61.1388 76.3007 61.1388 76.2818 61.2539 76.0455C61.3978 75.7619 61.6279 75.7241 61.8221 75.9604Z" fill="#000080"/>
<path d="M62.8512 75.3457C62.8368 75.4118 62.8296 76.083 62.8368 76.8391L62.8512 78.2097L63.0526 78.2381C63.3978 78.2948 63.4482 78.153 63.4122 77.274C63.3691 76.3854 63.4338 76.1208 63.7503 75.9695C64.0092 75.8561 64.0955 75.5536 63.9373 75.3362C63.8294 75.1944 63.8006 75.1944 63.592 75.3551C63.3906 75.5064 63.3619 75.5064 63.2468 75.374C63.1029 75.2039 62.8943 75.185 62.8512 75.3457Z" fill="#000080"/>
<path d="M64.491 75.3743C64.3256 75.5256 64.268 75.8375 64.3831 75.932C64.4191 75.9604 64.5773 75.932 64.7499 75.8753C65.1383 75.743 65.426 75.8848 65.3901 76.2061C65.3685 76.3857 65.311 76.4236 64.9729 76.4708C64.4622 76.537 64.3399 76.6126 64.2177 76.9434C64.0522 77.3499 64.0882 77.6713 64.3184 77.9832C64.4838 78.1911 64.5989 78.2573 64.8147 78.2573C64.9729 78.2573 65.1383 78.2006 65.1815 78.125C65.2534 78.0116 65.2966 78.0116 65.4692 78.1439C65.5771 78.2195 65.721 78.2573 65.7929 78.229C65.9008 78.1723 65.908 78.0399 65.872 76.9623C65.836 75.847 65.8217 75.7335 65.6562 75.5256C65.4332 75.2231 64.7355 75.138 64.491 75.3743ZM65.3901 77.0569C65.4404 77.6335 64.8434 77.9549 64.6708 77.4444C64.5917 77.2176 64.6061 77.1703 64.7859 76.9623C65.0664 76.6504 65.3613 76.6977 65.3901 77.0569Z" fill="#000080"/>
<path d="M68.8274 75.3834C68.6835 75.5725 68.6763 75.8561 68.8202 75.9317C68.8777 75.96 69.0216 75.9317 69.1439 75.8844C69.4244 75.7521 69.6977 75.8466 69.7553 76.0829C69.8272 76.3759 69.7409 76.461 69.3525 76.461C69.0504 76.461 68.9569 76.5083 68.777 76.7351C68.2232 77.4724 68.8274 78.6351 69.5179 78.153C69.6186 78.0774 69.7193 78.0868 69.8631 78.1625C70.0861 78.2853 70.4098 78.1435 70.3307 77.9639C70.3019 77.9167 70.2731 77.4063 70.2587 76.8391C70.2444 76.272 70.194 75.7237 70.158 75.6198C70.007 75.2511 69.0576 75.081 68.8274 75.3834ZM69.7768 77.0471C69.8056 77.3968 69.5107 77.7938 69.2877 77.7182C69.2014 77.6898 69.0935 77.5575 69.0504 77.4252C68.9784 77.2267 68.9928 77.17 69.1726 76.962C69.4532 76.6501 69.7481 76.6973 69.7768 77.0471Z" fill="#000080"/>
<path d="M6.18707 75.3835C6.1583 75.4213 6.13672 76.0641 6.13672 76.8014V78.1625L6.31654 78.2193C6.70495 78.3421 6.71933 78.2854 6.69776 76.773L6.67618 75.3741L6.46039 75.3457C6.33812 75.3268 6.21584 75.3457 6.18707 75.3835Z" fill="#000080"/>
<path d="M19.2115 76.6689C19.1972 77.4156 19.2187 78.0773 19.2547 78.1435C19.2907 78.2096 19.4057 78.2569 19.5064 78.238L19.6935 78.2096V76.7918V75.3739L19.4633 75.3455L19.2331 75.3172L19.2115 76.6689Z" fill="#000080"/>
</g>
<defs>
<clipPath id="clip0_950_4773">
<rect width="73" height="80" fill="white"/>
</clipPath>
</defs>
</svg>
