<svg width="70" height="56" viewBox="0 0 70 56" fill="none" xmlns="http://www.w3.org/2000/svg">
<path d="M68.9338 22.0719C68.2675 20.3503 66.8992 18.8133 65.2339 17.7051C60.4263 14.7005 53.0995 14.4865 48.1458 17.2028C45.4442 18.5585 43.6685 21.2413 43.1159 24.0042C42.1135 28.5434 42.3724 33.9441 45.9254 37.3465C50.0684 40.9211 56.0982 41.7109 61.4601 40.2424C61.7149 40.1943 62.5222 39.9942 63.079 39.7034L63.2358 39.6373C64.9011 38.9562 66.4893 37.8471 67.675 36.3452C70.4116 32.4071 70.5991 26.5065 68.9338 22.0719ZM60.2039 32.265C60.0147 33.1258 59.4264 34.0176 58.4987 34.341C57.0218 34.9805 55.0237 34.8033 53.6554 34.0552C52.5079 33.2655 52.3602 31.9432 52.2125 30.6921C52.1005 28.2257 51.9196 25.6139 52.6216 23.359C53.1717 21.9625 54.6893 21.6031 56.0617 21.4978C57.503 21.4978 58.9061 21.7142 59.7965 22.8584C60.3507 23.6791 60.3167 24.7531 60.4263 25.7201C60.3873 27.7577 60.5731 30.1882 60.2039 32.265ZM16.3703 34.4864C15.1489 34.4129 13.7806 34.5183 12.5982 34.3753L12.6347 21.8163L12.7094 21.7117L16.3703 21.6766C16.4085 19.6382 16.445 17.4519 16.3321 15.5939L2.3897 15.5555L0.0937634 15.5947C0.0572541 17.4894 0.0572541 19.7051 0.0937634 21.6391C1.35251 21.6774 2.53408 21.6391 3.75548 21.7509V33.9139L3.7198 34.4137L0.0572541 34.4872C-0.0190847 36.4542 -0.0190847 38.4233 0.0572541 40.3903H16.3695L16.3703 34.4864ZM57.4267 43.0706C55.875 45.2553 53.9143 47.3656 51.7735 49.0072C51.6955 49.1191 51.474 49.0766 51.4035 48.9737C50.4758 48.4028 49.4776 47.9357 48.5881 47.3656C49.773 45.9715 50.9206 44.5766 51.8084 43.0323H50.6575C49.7382 44.361 48.774 45.7551 47.5542 46.932C45.9254 46.2892 44.4468 45.7175 42.7823 45.2847L42.5973 45.1483C42.8561 44.4255 43.3357 43.7469 43.4826 43.0306H42.4844L41.4862 44.9637C39.3064 44.499 36.901 44.2459 34.6814 44.1046C34.5694 43.7836 34.7162 43.3181 34.5694 43.0306H33.6077C33.5313 43.461 33.7189 43.7853 33.4965 44.1421C31.203 44.2459 28.9843 44.499 26.841 44.9327L25.8386 43.0306C25.4727 43.0306 25.0612 42.962 24.8056 43.069L25.7283 45.1802L25.6179 45.2847C23.9601 45.7568 22.3302 46.319 20.7356 46.9687L20.5888 46.8952C19.5507 45.7861 18.5517 44.575 17.7369 43.3581C17.5535 42.7464 16.8134 43.1041 16.406 43.0323C17.2905 44.6085 18.4779 46.0017 19.6594 47.435C18.6612 48.0092 17.6664 48.6495 16.6259 49.1191C14.3633 47.423 12.3909 45.3816 10.7835 43.0723C10.3388 43.002 10.0459 43.0339 9.59864 43.0723C12.2622 47.1508 16.406 50.7271 20.734 52.8383C20.734 52.8383 20.734 52.8064 20.7738 52.8064C20.8053 52.8064 20.8792 52.8726 20.8053 52.9101C23.7294 54.3059 26.8385 55.3071 30.1277 55.7383C41.4846 57.2035 52.3237 52.4479 58.6083 43.0723C58.2155 43.0325 57.8196 43.0319 57.4267 43.0706ZM42.0056 46.29L42.1143 46.2182C43.7091 46.5759 45.2226 47.0773 46.629 47.7552C45.4442 49.0758 43.9274 50.2232 42.5234 51.1885C41.6737 51.6875 40.8199 52.2298 39.9312 52.6561L38.3439 51.9767L38.4526 51.7292C39.7869 49.9774 40.9709 48.1864 42.0056 46.29ZM34.7162 45.2161C36.8263 45.2553 38.9355 45.4693 40.8929 45.9323L40.9319 46.041C39.8981 47.9708 38.6003 49.8353 37.1972 51.5846C36.5649 51.6581 35.9758 51.4107 35.3477 51.3723L34.7154 51.2988C34.6432 49.1877 34.6042 47.3272 34.7162 45.2161ZM27.5803 45.8596C29.5037 45.5019 31.5001 45.2161 33.5703 45.2161L33.6085 51.2686C32.8302 51.4417 31.9797 51.4417 31.2395 51.6255C29.7227 49.868 28.4665 47.9708 27.3953 46.0018L27.5803 45.8596ZM21.6218 47.7936C23.0681 47.1116 24.5824 46.6077 26.134 46.2174L26.2842 46.2549C27.3538 48.2231 28.6872 50.0819 30.0181 51.9424C29.5045 52.2306 28.8722 52.403 28.3561 52.6937C25.8547 51.4775 23.5786 49.8564 21.6227 47.8981V47.7936H21.6218ZM26.3954 53.9106C23.288 53.1208 20.4004 51.7619 17.7377 49.9047V49.7936C18.6256 49.262 19.5167 48.6878 20.4751 48.2901C22.5852 50.3351 24.7658 51.8738 27.1331 53.3373C26.9489 53.5521 26.6535 53.7677 26.3954 53.9106ZM40.1171 54.3728C36.1973 55.2009 31.8303 55.2328 27.9114 54.3042C27.8367 54.1262 28.0964 54.0878 28.2068 53.9833C31.6469 51.7986 37.008 51.7986 40.3777 54.1572C40.4872 54.3728 40.1918 54.3042 40.1171 54.3728ZM43.6693 53.3748L41.931 53.9098C41.6339 53.7668 41.3767 53.5521 41.1153 53.3364L41.19 53.227C43.5581 51.8729 45.7022 50.2224 47.7376 48.255C48.7366 48.6478 49.6992 49.1877 50.5895 49.7928C48.5159 51.4107 46.1105 52.4789 43.6693 53.3748ZM10.7113 12.8376C11.6263 11.5914 12.6271 10.4085 13.7068 9.29723C14.6651 8.40295 15.5563 7.54461 16.5935 6.89779C17.556 7.50541 18.6272 8.01176 19.5516 8.58181C18.4057 9.97018 17.2216 11.3716 16.3711 12.8702C16.6283 12.9821 17.1113 12.947 17.4822 12.8702C18.4057 11.5488 19.4014 10.2258 20.5896 9.04405C22.1761 9.61819 23.7319 10.2242 25.3615 10.6554L25.5051 10.7975L24.5841 12.8702C24.9923 12.947 25.2512 12.9094 25.6553 12.8702C25.9872 12.2659 26.2444 11.588 26.6145 10.9763C28.7627 11.4435 31.0197 11.6926 33.3131 11.762C33.6068 12.016 33.3861 12.5501 33.4973 12.8702H34.4955C34.6042 12.5191 34.4582 12.1205 34.6042 11.802C36.7516 11.6909 39.0069 11.4762 41.0854 10.9747L41.2655 11.0123L42.2645 12.8686C42.5981 12.8686 43.0412 12.9454 43.3001 12.7951L42.3732 10.7256L42.4504 10.6538C44.1489 10.2242 45.742 9.58062 47.3692 8.93788C48.5192 10.118 49.5888 11.5129 50.5538 12.8678C50.9587 12.8678 51.3661 12.907 51.6624 12.7943C51.2055 11.9956 50.6726 11.2414 50.0709 10.5419C49.5823 9.85671 49.0373 9.21234 48.4412 8.61529V8.4299L51.0309 6.96558L51.4043 6.82266C53.6564 8.50045 55.6272 10.5155 57.245 12.7943C57.6889 12.7943 58.0598 12.9446 58.4307 12.7641C53.4687 5.47185 45.2956 0.779964 36.4595 0.104561L36.4205 0.17398L36.345 0.104561C35.3477 -0.000792217 34.1221 -0.0424434 33.0509 0.0629096C32.6451 0.0318754 32.1655 0.0629096 31.6835 0.104561C22.8075 0.779964 14.6336 5.25461 9.52645 12.8719C9.89652 12.8376 10.3404 12.983 10.7113 12.8376ZM26.0643 9.69414L25.9166 9.72517C24.3982 9.33561 22.9171 8.86602 21.5115 8.26003L21.5828 8.04524C23.6174 6.1497 25.7623 4.57431 28.1296 3.36071C28.6872 3.5755 29.2415 3.75272 29.7958 4.00671L29.6871 4.28602C28.279 6.0076 27.1721 7.86394 26.0643 9.69414ZM33.4226 10.657C32.3896 10.7999 31.4644 10.6252 30.4247 10.5459C29.4307 10.4022 28.1703 10.2985 27.1721 9.97182C28.2449 8.01339 29.5045 6.11377 31.0197 4.36523L33.3878 4.68293C33.4973 6.54008 33.4226 8.68798 33.4226 10.657ZM34.5685 10.6954C34.4955 8.79333 34.5337 6.68545 34.5685 4.71723C35.3112 4.61269 36.121 4.50162 36.8628 4.39627C38.3049 6.18237 39.7139 8.01339 40.6764 9.97182C38.6763 10.4481 36.6263 10.691 34.5685 10.6954ZM46.3718 8.18735C44.9264 8.79251 43.4453 9.36583 41.8571 9.69414C40.7112 7.79778 39.4541 5.90225 38.0444 4.07041C38.563 3.79028 39.1953 3.5755 39.7487 3.29047C42.1575 4.46977 44.485 6.1497 46.4432 8.07546L46.3718 8.18735ZM41.6339 2.07033C44.7414 2.85926 47.6638 4.2166 50.3273 6.07702L50.2534 6.21994L47.7036 7.61321H47.5152C45.5578 5.68827 43.2652 4.00671 40.9319 2.67959C41.0058 2.42886 41.3775 2.24837 41.6339 2.07033ZM40.1561 1.71099V1.78694C36.9358 4.07041 31.7216 4.28602 28.3205 2.17487C28.1296 2.03195 27.7645 1.96253 27.7247 1.71181C31.6478 0.821615 36.2687 0.749746 40.1561 1.71099ZM17.5909 6.1497C19.9233 4.46977 22.5113 3.21778 25.2495 2.35863C25.3615 2.24674 25.4329 2.14139 25.5789 2.14139V2.21489C25.8743 2.28512 26.0975 1.9609 26.3556 2.17324C26.5788 2.35863 26.8402 2.49991 27.0227 2.67795C24.7309 4.07041 22.4732 5.71931 20.4012 7.71857C19.4022 7.36739 18.4812 6.82756 17.59 6.21994L17.5909 6.1497ZM33.4608 34.7657C29.9841 35.6976 26.2087 34.987 23.6946 32.4071C23.4 32.0494 23.2133 31.6231 22.9162 31.267L17.9244 31.3013C17.8456 34.1981 17.8107 37.5261 17.9244 40.3895L23.4705 40.3543L23.5444 38.636C24.1758 38.9219 24.8056 39.2788 25.4329 39.5997C29.2797 41.1759 34.2316 41.5336 38.0427 39.5997C40.8191 38.1011 42.2994 35.2043 41.8911 32.0853C41.4862 29.0481 38.5256 26.2917 35.5319 25.5428L26.578 23.0005L25.9158 22.6771C25.6196 22.4288 25.4337 22.1087 25.5059 21.7117C26.2087 20.5341 27.8384 20.8918 29.0589 20.9236C31.6478 21.2822 34.3105 22.1405 35.8281 24.4673C37.4536 24.4673 39.3396 24.4983 41.1137 24.4297C41.1892 21.497 41.0846 18.9227 41.0406 15.9524C39.3761 15.9149 37.3407 15.9149 35.6787 15.99C35.6041 16.4155 35.7501 17.0215 35.5651 17.4527L33.8649 16.5576C29.7941 14.8769 24.097 14.7013 20.3996 17.313C17.9941 19.0273 17.2565 22.107 17.8854 24.825C18.3642 27.3967 20.8792 29.2947 23.2847 30.1865C26.5763 31.3299 30.0148 32.158 33.3496 33.2655C33.6799 33.4108 34.1229 33.7351 34.0516 34.1279C34.0532 34.4456 33.718 34.6293 33.4608 34.7657Z" fill="white"/>
</svg>
