<svg width="83" height="80" viewBox="0 0 83 80" fill="none" xmlns="http://www.w3.org/2000/svg">
<g clip-path="url(#clip0_950_4371)">
<path fill-rule="evenodd" clip-rule="evenodd" d="M19.1829 12.6982L17.3711 16.3696L23.6388 17.7607L25.4204 14.119L19.1829 12.6982ZM26.7864 14.4455L25.0037 18.1163L31.272 19.5371L33.0222 15.8949L26.7864 14.4455ZM47.1295 19.1223L45.3776 22.7931L51.6453 24.244L53.4264 20.5732L47.1295 19.1223ZM54.7627 20.8997L52.9811 24.5695L59.2769 25.9913L61.0288 22.3491L54.7627 20.8997Z" fill="#0E88D3"/>
<path fill-rule="evenodd" clip-rule="evenodd" d="M47.7545 44.6123C47.3979 44.6123 47.0717 44.7607 46.7748 45.0277C46.5361 45.2642 46.3587 45.6486 46.3587 46.0331C46.3587 46.4191 46.5361 46.7441 46.7748 47.0401C47.0717 47.2766 47.3979 47.455 47.7545 47.455C48.1707 47.455 48.5564 47.2766 48.7936 47.0401C49.0905 46.7441 49.2097 46.4191 49.2097 46.0331C49.2097 45.6486 49.0905 45.2642 48.7936 45.0277C48.5564 44.7607 48.1707 44.6123 47.7545 44.6123ZM45.1699 48.1953V49.8828H49.2097H49.9516H55.1791C53.8126 50.1788 52.5961 50.83 51.704 51.747C51.2296 52.2215 50.7839 52.9617 50.3677 53.9092C50.1887 54.3227 50.0405 54.7379 49.863 55.2109C52.7735 55.2414 54.5853 55.3589 55.3871 55.6549C55.9212 55.8624 56.3973 56.1582 56.9023 56.5137C57.5252 56.9867 57.8521 57.4323 57.9409 57.8763H52.0607L50.071 59.8601H56.9618C58.9802 58.3496 59.9608 57.1058 59.9608 56.0988C59.9608 55.6548 59.7532 55.2415 59.3966 54.886C58.5948 54.0865 57.525 53.5827 56.189 53.3461C55.5065 53.2272 54.2884 53.1387 52.5654 53.1387C52.8026 52.8137 53.0705 52.3988 53.2786 52.0142C53.6352 51.5702 53.9609 51.3628 54.348 51.3628C55.2386 51.3628 56.7535 51.9546 58.772 53.1096L60.7919 51.0665C60.0206 50.5935 59.219 50.1788 58.4753 49.8828H61.5051H71.9596H82.0579V48.1953H71.9596H61.5051H49.9516H49.2097H45.1699ZM46.5365 51.2438V59.8601H49.0016V51.2438H46.5365ZM61.9504 51.2438V59.8601H64.4447V53.9975C65.0981 53.7306 65.7515 53.5536 66.4354 53.5536C67.1179 53.5536 67.6537 53.7614 68.0684 54.0864C68.5734 54.619 68.7813 55.449 68.6925 56.5735L70.801 54.5304C70.8607 53.4654 70.5932 52.6351 70.0591 52.1026C69.6123 51.6876 69.0784 51.4512 68.3959 51.4512C67.7425 51.4512 67.0001 51.6586 66.2274 52.1026C65.5143 52.4276 64.9206 52.9022 64.4447 53.3752V51.2438H61.9504ZM72.0774 51.2438V57.6689C72.0774 57.6689 72.1371 58.9126 72.9695 59.5336C73.5327 59.8891 74.3345 59.8601 74.3345 59.8601H81.0766V53.5536C81.0766 52.9311 80.8685 52.3985 80.5119 51.9544C80.1859 51.4814 79.7409 51.2438 79.2053 51.2438H72.0774ZM78.1608 53.5089C78.8055 53.4969 78.7601 53.6674 78.7601 54.678V57.5498H74.87C74.87 57.5498 74.4832 57.5804 74.3945 57.4614C74.2766 57.3134 74.3345 57.1362 74.3345 56.2772V53.5234H77.8404C77.9628 53.5161 78.0687 53.5106 78.1608 53.5089Z" fill="#0E88D3"/>
<path fill-rule="evenodd" clip-rule="evenodd" d="M20.7871 46.5363L43.3291 0.974121L43.1806 79.1322L36.9739 27.1463L20.7871 46.5363Z" fill="#F47216"/>
<path fill-rule="evenodd" clip-rule="evenodd" d="M30.6172 43.4864C30.4726 43.4916 30.3247 43.5017 30.1725 43.5165L29.3414 45.5004C31.685 45.0782 32.6858 45.7299 33.5703 48.1351H0.652344V49.8517H8.58219V50.8296C8.58219 50.8296 5.4327 49.586 2.76085 51.9831C0.652176 54.4107 2.43339 56.7805 2.43339 56.7805C2.43339 56.7805 4.15663 55.8327 6.88815 56.2768C9.44213 56.7208 9.32411 57.9341 9.32411 57.9341C9.32411 57.9341 8.96741 59.4445 6.91841 59.1485C4.86941 58.8221 5.01795 56.7805 5.01795 56.7805L2.76085 58.2897C2.76085 58.2897 3.61851 59.7452 5.54967 60.2105L7.27505 62.7908H9.82935L7.85919 60.2525C8.08218 60.213 8.31232 60.1623 8.55139 60.0963C13.5109 58.7932 11.7588 55.0626 8.07695 54.086C5.52152 53.4345 2.76085 54.6776 2.76085 54.6776C2.76085 54.6776 3.11617 51.5391 7.69005 52.2805C10.244 52.7231 11.1651 53.7606 11.1651 53.7606V49.8517H16.2845L14.1355 50.8587C14.1355 50.8587 15.2343 52.073 15.6199 53.6706C15.9473 55.3291 15.2341 55.6254 14.7888 55.6545C14.492 55.4484 13.0964 53.4648 13.0964 53.4648L12.1156 54.3226L15.6502 59.8597H18.1445C18.1445 59.8597 15.8581 57.1057 15.5016 56.6022C16.0874 56.5824 16.894 56.396 17.4242 55.6814C17.7944 55.8737 18.2439 56.0304 18.7686 56.0693C20.3417 56.2173 21.3229 55.4481 21.3229 55.4481V59.8597H23.9059V49.8517H29.4959L27.3215 50.8587C27.3215 50.8587 28.4795 52.073 28.807 53.6706C29.1329 55.3291 28.4507 55.6254 27.9748 55.6545C27.7376 55.4484 26.2824 53.4648 26.2824 53.4648L25.3016 54.3226L28.807 59.8597H31.3305C31.3305 59.8597 29.1041 57.1057 28.7475 56.6022C29.5494 56.5732 30.8852 56.1885 31.1224 54.2935C31.4689 51.7795 30.3433 50.2866 29.9531 49.8517H33.0229V59.8581H35.6074V49.8517H36.974V48.1351H35.0887C34.0217 44.4121 32.7181 43.4105 30.6172 43.4864ZM16.7406 49.8517H21.3229V52.7536C21.3229 52.7536 21.3229 53.5535 19.7483 54.3226C19.084 54.6831 18.4029 54.8225 17.8186 54.8614C17.8691 54.6881 17.9104 54.5016 17.9364 54.2935C18.2829 51.7796 17.1377 50.2867 16.7406 49.8517Z" fill="#F47216"/>
</g>
<defs>
<clipPath id="clip0_950_4371">
<rect width="83" height="80" fill="white"/>
</clipPath>
</defs>
</svg>
