<svg width="48" height="49" viewBox="0 0 48 49" fill="none" xmlns="http://www.w3.org/2000/svg">
<g id="Layer 2">
<g id="Layer 1">
<path id="Vector" d="M29.2274 26.9856C29.3321 20.9723 26.2753 16.5266 23.8482 11.5094C21.4247 16.5132 18.5357 21.0504 18.4545 26.9666C16.4298 24.5837 13.9306 23.3132 11.1859 22.2142C12.792 22.1913 12.7306 21.0428 12.9904 19.9018C13.2503 18.7609 12.9074 18.2847 12.0413 17.7818C10.632 16.9666 10.6933 16.9247 11.2906 15.3323C11.545 14.6561 11.85 14.439 12.4852 14.7609C13.7682 15.4047 14.7679 15.3151 15.7062 13.9171C16.2476 13.1266 16.401 12.6751 15.9607 11.8218C15.0332 10.0313 15.145 9.83134 16.8629 8.87705C17.1517 8.71896 17.2888 8.78753 17.4692 8.99324C18.0557 9.66753 18.5177 10.719 19.29 10.8828C20.0623 11.0466 20.8978 10.3113 21.7694 10.2161C22.1917 10.1666 22.4118 9.94372 22.4298 9.47896C22.4596 9.22778 22.5023 8.97852 22.558 8.73229C22.807 6.96848 22.807 7.018 24.4888 6.96277C25.1727 6.93991 25.438 7.20848 25.4109 7.84848C25.3405 9.45038 25.835 10.4047 27.5204 10.7056C28.3649 10.8599 28.7835 10.7951 29.2942 10.1209C30.5393 8.49991 30.6729 8.52467 32.1814 9.82753C32.4377 10.0485 32.5062 10.2085 32.3619 10.538C32.0786 11.1304 31.8674 11.7628 31.5661 12.3456C31.3189 12.8237 31.3856 13.1647 31.7736 13.4885C31.9534 13.6574 32.1166 13.845 32.2608 14.0485C33.2786 15.3228 33.2732 15.3056 34.8539 14.8256C35.2581 14.7037 35.785 14.2542 36.0918 14.6751C36.5123 15.2656 36.7306 16.0237 37.0031 16.7247C37.0608 16.8694 36.8894 16.9951 36.7577 17.079C36.6127 17.1921 36.4601 17.2939 36.3011 17.3837C34.9892 17.9551 34.4966 18.7856 34.7817 20.4313C34.9947 21.6542 35.6208 21.8523 36.4942 22.1704C33.8614 23.3228 31.3135 24.5209 29.2274 26.9856Z" fill="#FEC908"/>
<path id="Vector_2" d="M26.0625 35.3704C26.9648 32.1323 27.95 28.9323 30.3175 26.5056C31.633 25.157 33.1849 24.2199 34.8613 23.4961C37.3299 22.4256 39.8832 21.6428 42.5214 20.8809C42.5467 21.4142 42.341 21.8332 42.2219 22.2732C41.3954 25.1494 40.5076 28.0009 39.2463 30.7113C38.0455 33.3689 35.9635 35.4696 33.3942 36.6161C32.03 37.2447 30.6658 37.8866 29.0417 38.2828C29.3629 37.7913 29.7329 37.6599 30.0469 37.4828C34.421 35.0066 36.904 31.0066 38.2772 26.1056C38.3512 25.8447 38.5714 25.5342 38.3187 25.3228C38.104 25.1323 37.8081 25.3113 37.55 25.3932C32.99 26.8504 29.2366 29.4142 26.8763 33.9475C26.6237 34.4332 26.335 34.8961 26.0625 35.3704Z" fill="#F38325"/>
<path id="Vector_3" d="M18.6384 38.1357C18.4273 38.1833 18.3334 38.2366 18.2613 38.2138C13.7229 36.7719 9.76924 34.5947 7.88713 29.53C6.84413 26.7281 5.92924 23.8938 5.09375 20.9585C5.60082 20.89 5.99601 21.1262 6.41646 21.2481C8.84172 21.9681 11.2435 22.7585 13.5587 23.829C16.5253 25.2004 18.6655 27.4481 20.0369 30.5262C20.7439 32.0569 21.2722 33.6725 21.6104 35.3376C21.2495 34.7052 20.8616 34.0804 20.5097 33.4328C18.1386 29.1033 14.4014 26.7662 10.0183 25.3395C9.34698 25.1223 9.1539 25.269 9.37585 26.0271C10.7202 30.6176 12.8983 34.5547 16.9783 37.0366C17.5124 37.3662 18.0285 37.7319 18.6384 38.1357Z" fill="#F38325"/>
<path id="Vector_4" d="M26.6333 31.0727C27.3064 27.1146 26.1894 23.5375 24.6104 20.0613C24.421 19.648 24.3019 18.987 23.8525 18.9851C23.4032 18.9832 23.2986 19.6613 23.1145 20.0727C21.716 23.1584 20.6152 26.3242 20.9491 29.8384C20.978 30.1546 21.0249 30.467 21.0592 30.7813C21.0955 31.0654 21.1027 31.3527 21.0808 31.6384C20.498 30.3242 19.7076 29.1242 19.1536 27.8289C18.6754 26.7108 18.8901 25.3946 19.1211 24.1718C19.9043 20.0099 21.9271 16.4175 23.8381 12.5527C25.787 16.4023 27.9578 19.9299 28.6128 24.1337C28.8835 25.8727 29.0026 27.6594 27.8189 29.2156C27.402 29.7642 27.1746 30.4727 26.8607 31.107L26.6333 31.0727Z" fill="#F38325"/>
<path id="Vector_5" d="M47.4215 36.976C44.6065 39.8655 41.6164 42.0541 37.8468 42.7017C33.0522 43.5245 28.6997 41.9398 24.4844 39.7207C24.7216 39.6092 24.9802 39.5576 25.2396 39.5702C25.499 39.5827 25.752 39.6591 25.9785 39.7931C31.1755 42.7703 36.1975 41.9893 41.1057 38.9893C41.9538 38.4693 41.952 38.3893 41.2158 37.7569C40.1172 36.8217 38.9245 36.0168 37.6591 35.3569C37.4083 35.2236 36.8778 35.2331 37.0239 34.7855C37.1557 34.3779 37.5346 34.1188 38.0435 34.2141C38.9289 34.3801 39.7934 34.6523 40.6203 35.0255C42.1686 35.7074 43.6772 36.5074 45.3608 36.7684C45.9689 36.8541 46.586 36.8903 47.4215 36.976Z" fill="#F38325"/>
<path id="Vector_6" d="M0.367188 36.8501C2.24207 37.0844 3.82283 36.5301 5.3711 35.7815C6.61929 35.1602 7.92484 34.6764 9.26704 34.3377C9.95095 34.1701 10.4201 34.2653 10.8027 34.9625C9.35907 35.7244 7.92809 36.5301 6.66854 37.6158C5.76628 38.3987 5.74824 38.4768 6.76237 39.0825C11.5804 41.9625 16.5067 42.7015 21.6117 39.8939C22.1332 39.6063 22.6637 39.4387 23.2809 39.7034C19.6718 41.7206 15.8661 43.0234 11.7158 42.913C7.20448 42.7853 2.42974 39.5968 0.367188 36.8501Z" fill="#F38325"/>
</g>
</g>
</svg>
