<svg width="70" height="21" viewBox="0 0 70 21" fill="none" xmlns="http://www.w3.org/2000/svg">
<path d="M4.03003 20.4103C4.18602 19.5254 4.26401 18.4769 4.26401 17.2646C4.26401 14.5283 3.77104 11.1042 2.78521 6.99176C2.32512 5.05038 1.92254 3.73541 1.57746 3.04732C1.24062 2.35107 0.714799 1.77747 0 1.32698C0.829809 0.442326 1.51584 0 2.05811 0C3.09331 0 4.07915 1.66298 5.01574 4.98893C6.24815 9.33875 6.86435 13.3979 6.86435 17.1662C12.0241 10.2932 14.6038 5.58271 14.6038 3.03507C14.6038 2.67459 14.5094 2.32635 14.3204 1.99059C15.0106 1.52355 15.717 1.29025 16.4401 1.29025C17.0975 1.29025 17.426 1.60562 17.426 2.23635C17.426 3.32596 16.7196 5.11181 15.3064 7.59392C13.8932 10.0679 11.9377 12.9515 9.44014 16.2446C8.13383 17.9568 7.20543 19.0257 6.65493 19.4517C6.11263 19.8696 5.23766 20.189 4.03003 20.4103ZM17.0318 8.19609C16.818 7.74537 16.7114 7.31937 16.7114 6.91808C16.7114 5.50903 17.8533 4.21877 20.1373 3.04732C22.4296 1.87586 24.9437 1.29025 27.6796 1.29025C29.2078 1.29025 30.44 1.58091 31.3768 2.16267C32.3216 2.7442 32.7941 3.50597 32.7941 4.44821C32.7941 6.19303 31.5492 7.83153 29.0598 9.36323C30.5142 9.75659 31.652 10.3504 32.4735 11.145C33.3035 11.9397 33.7182 12.8409 33.7182 13.8484C33.7182 15.8308 32.6379 17.5185 30.4771 18.911C28.3163 20.3037 25.6996 21 22.6267 21C20.3675 21 19.2376 20.2915 19.2376 18.8743C19.2376 18.5383 19.3608 17.7518 19.6073 16.5148L21.345 7.80273C21.4848 7.10648 21.5546 6.61088 21.5546 6.31592C21.5546 6.02912 21.4559 5.76703 21.2588 5.52943C22.3434 5.11998 23.1033 4.91502 23.5388 4.91502C24.0481 4.91502 24.3028 5.2059 24.3028 5.78744C24.3028 5.93503 24.1672 6.65599 23.8962 7.95033L22.2818 16.0233C22.101 16.9574 22.0105 17.5675 22.0105 17.8543C22.0105 18.8865 22.9964 19.4025 24.9683 19.4025C26.5868 19.4025 27.9713 18.9398 29.1214 18.0141C30.28 17.0803 30.8591 15.9619 30.8591 14.6594C30.8591 13.6437 30.5387 12.849 29.898 12.2757C29.257 11.7021 28.1889 11.2597 26.6937 10.9484C26.1596 11.1616 25.5763 11.2679 24.9437 11.2679C24.73 11.2679 24.4631 11.2312 24.1427 11.1575C24.381 10.2808 24.6766 9.69107 25.0299 9.38795C25.3915 9.08483 25.9706 8.93315 26.7676 8.93315C26.9729 8.93315 27.2483 8.94562 27.5932 8.97011C29.3434 7.6921 30.2183 6.42656 30.2183 5.17326C30.2183 3.69029 29.0846 2.94892 26.8169 2.94892C23.1445 2.94892 19.8827 4.69805 17.0318 8.19609ZM51.4401 14.8684C51.5961 15.237 51.6744 15.5277 51.6744 15.7408C51.6744 16.8057 50.7582 17.8461 48.926 18.8618C47.1021 19.8777 45.229 20.3856 43.3062 20.3856C41.2029 20.3856 39.5394 19.7753 38.3152 18.5546C37.0992 17.3342 36.4911 15.6631 36.4911 13.5412C36.4911 10.1908 37.5921 7.31121 39.7941 4.90278C41.9958 2.49435 44.6291 1.29025 47.6936 1.29025C48.9426 1.29025 49.9942 1.5113 50.8485 1.95363C51.703 2.39596 52.1303 2.93668 52.1303 3.5758C52.1303 4.14917 51.7605 4.7799 51.0211 5.46799C50.027 3.48556 48.6179 2.49435 46.794 2.49435C44.7976 2.49435 43.0557 3.53068 41.5686 5.60311C40.0815 7.66761 39.338 10.0801 39.338 12.8409C39.338 14.602 39.7816 15.9988 40.6691 17.0311C41.5645 18.0549 42.7723 18.5671 44.2922 18.5671C46.8884 18.5671 49.2711 17.3342 51.4401 14.8684ZM69.3099 14.8684C69.4659 15.237 69.5441 15.5277 69.5441 15.7408C69.5441 16.8057 68.628 17.8461 66.7957 18.8618C64.9719 19.8777 63.0985 20.3856 61.176 20.3856C59.0727 20.3856 57.4089 19.7753 56.1849 18.5546C54.9689 17.3342 54.3609 15.6631 54.3609 13.5412C54.3609 10.1908 55.4619 7.31121 57.6638 4.90278C59.8656 2.49435 62.4989 1.29025 65.5633 1.29025C66.8121 1.29025 67.8637 1.5113 68.7182 1.95363C69.5727 2.39596 70 2.93668 70 3.5758C70 4.14917 69.6303 4.7799 68.8908 5.46799C67.8967 3.48556 66.4876 2.49435 64.6638 2.49435C62.6672 2.49435 60.9254 3.53068 59.4383 5.60311C57.9512 7.66761 57.2077 10.0801 57.2077 12.8409C57.2077 14.602 57.6513 15.9988 58.5388 17.0311C59.4342 18.0549 60.6421 18.5671 62.1619 18.5671C64.7582 18.5671 67.1409 17.3342 69.3099 14.8684Z" fill="#0D1924"/>
</svg>
