<svg width="70" height="22" viewBox="0 0 70 22" fill="none" xmlns="http://www.w3.org/2000/svg">
<path d="M4.03003 20.9103C4.18602 20.0254 4.26401 18.9769 4.26401 17.7646C4.26401 15.0283 3.77104 11.6042 2.78521 7.49176C2.32512 5.55038 1.92254 4.23541 1.57746 3.54732C1.24062 2.85107 0.714799 2.27747 0 1.82698C0.829809 0.942326 1.51584 0.5 2.05811 0.5C3.09331 0.5 4.07915 2.16298 5.01574 5.48893C6.24815 9.83875 6.86435 13.8979 6.86435 17.6662C12.0241 10.7932 14.6038 6.08271 14.6038 3.53507C14.6038 3.17459 14.5094 2.82635 14.3204 2.49059C15.0106 2.02355 15.717 1.79025 16.4401 1.79025C17.0975 1.79025 17.426 2.10562 17.426 2.73635C17.426 3.82596 16.7196 5.61181 15.3064 8.09392C13.8932 10.5679 11.9377 13.4515 9.44014 16.7446C8.13383 18.4568 7.20543 19.5257 6.65493 19.9517C6.11263 20.3696 5.23766 20.689 4.03003 20.9103ZM17.0318 8.69609C16.818 8.24537 16.7114 7.81937 16.7114 7.41808C16.7114 6.00903 17.8533 4.71877 20.1373 3.54732C22.4296 2.37586 24.9437 1.79025 27.6796 1.79025C29.2078 1.79025 30.44 2.08091 31.3768 2.66267C32.3216 3.2442 32.7941 4.00597 32.7941 4.94821C32.7941 6.69303 31.5492 8.33153 29.0598 9.86323C30.5142 10.2566 31.652 10.8504 32.4735 11.645C33.3035 12.4397 33.7182 13.3409 33.7182 14.3484C33.7182 16.3308 32.6379 18.0185 30.4771 19.411C28.3163 20.8037 25.6996 21.5 22.6267 21.5C20.3675 21.5 19.2376 20.7915 19.2376 19.3743C19.2376 19.0383 19.3608 18.2518 19.6073 17.0148L21.345 8.30273C21.4848 7.60648 21.5546 7.11088 21.5546 6.81592C21.5546 6.52912 21.4559 6.26703 21.2588 6.02943C22.3434 5.61998 23.1033 5.41502 23.5388 5.41502C24.0481 5.41502 24.3028 5.7059 24.3028 6.28744C24.3028 6.43503 24.1672 7.15599 23.8962 8.45033L22.2818 16.5233C22.101 17.4574 22.0105 18.0675 22.0105 18.3543C22.0105 19.3865 22.9964 19.9025 24.9683 19.9025C26.5868 19.9025 27.9713 19.4398 29.1214 18.5141C30.28 17.5803 30.8591 16.4619 30.8591 15.1594C30.8591 14.1437 30.5387 13.349 29.898 12.7757C29.257 12.2021 28.1889 11.7597 26.6937 11.4484C26.1596 11.6616 25.5763 11.7679 24.9437 11.7679C24.73 11.7679 24.4631 11.7312 24.1427 11.6575C24.381 10.7808 24.6766 10.1911 25.0299 9.88795C25.3915 9.58483 25.9706 9.43315 26.7676 9.43315C26.9729 9.43315 27.2483 9.44562 27.5932 9.47011C29.3434 8.1921 30.2183 6.92656 30.2183 5.67326C30.2183 4.19029 29.0846 3.44892 26.8169 3.44892C23.1445 3.44892 19.8827 5.19805 17.0318 8.69609ZM51.4401 15.3684C51.5961 15.737 51.6744 16.0277 51.6744 16.2408C51.6744 17.3057 50.7582 18.3461 48.926 19.3618C47.1021 20.3777 45.229 20.8856 43.3062 20.8856C41.2029 20.8856 39.5394 20.2753 38.3152 19.0546C37.0992 17.8342 36.4911 16.1631 36.4911 14.0412C36.4911 10.6908 37.5921 7.81121 39.7941 5.40278C41.9958 2.99435 44.6291 1.79025 47.6936 1.79025C48.9426 1.79025 49.9942 2.0113 50.8485 2.45363C51.703 2.89596 52.1303 3.43668 52.1303 4.0758C52.1303 4.64917 51.7605 5.2799 51.0211 5.96799C50.027 3.98556 48.6179 2.99435 46.794 2.99435C44.7976 2.99435 43.0557 4.03068 41.5686 6.10311C40.0815 8.16761 39.338 10.5801 39.338 13.3409C39.338 15.102 39.7816 16.4988 40.6691 17.5311C41.5645 18.5549 42.7723 19.0671 44.2922 19.0671C46.8884 19.0671 49.2711 17.8342 51.4401 15.3684ZM69.3099 15.3684C69.4659 15.737 69.5441 16.0277 69.5441 16.2408C69.5441 17.3057 68.628 18.3461 66.7957 19.3618C64.9719 20.3777 63.0985 20.8856 61.176 20.8856C59.0727 20.8856 57.4089 20.2753 56.1849 19.0546C54.9689 17.8342 54.3609 16.1631 54.3609 14.0412C54.3609 10.6908 55.4619 7.81121 57.6638 5.40278C59.8656 2.99435 62.4989 1.79025 65.5633 1.79025C66.8121 1.79025 67.8637 2.0113 68.7182 2.45363C69.5727 2.89596 70 3.43668 70 4.0758C70 4.64917 69.6303 5.2799 68.8908 5.96799C67.8967 3.98556 66.4876 2.99435 64.6638 2.99435C62.6672 2.99435 60.9254 4.03068 59.4383 6.10311C57.9512 8.16761 57.2077 10.5801 57.2077 13.3409C57.2077 15.102 57.6513 16.4988 58.5388 17.5311C59.4342 18.5549 60.6421 19.0671 62.1619 19.0671C64.7582 19.0671 67.1409 17.8342 69.3099 15.3684Z" fill="white"/>
</svg>
