<svg xmlns="http://www.w3.org/2000/svg" fill="none" viewBox="0.94 0.51 34.78 11.05">
<path d="M0.972533 6.26428C0.98972 8.47335 2.79446 10.2502 5.00353 10.233C7.2126 10.2158 8.98948 8.4111 8.97229 6.20203C8.9551 3.99296 7.15037 2.21609 4.94129 2.23328C2.73222 2.25047 0.955347 4.05521 0.972533 6.26428ZM35.5032 6.52593C35.7939 6.23076 35.7902 5.7559 35.495 5.4653L30.685 0.729613C30.3899 0.439007 29.915 0.442702 29.6244 0.737866C29.3338 1.03303 29.3375 1.50789 29.6327 1.79849L33.9082 6.00799L29.6987 10.2835C29.4081 10.5787 29.4118 11.0535 29.7069 11.3441C30.0021 11.6348 30.4769 11.6311 30.7676 11.3359L35.5032 6.52593ZM4.97825 6.98313L34.9746 6.74972L34.963 5.24976L4.96658 5.48318L4.97825 6.98313Z" fill="white"/>
<circle cx="4" cy="4" r="4" transform="matrix(-0.99997 0.00778117 -0.00777977 -0.99997 9.00317 10.2021)" fill="#F06F38"/>
</svg>