<svg xmlns="http://www.w3.org/2000/svg" fill="none" viewBox="0.25 0.48 34.75 11.05">
<path d="M34.9973 6C34.9973 3.79086 33.2065 2 30.9973 2C28.7882 2 26.9973 3.79086 26.9973 6C26.9973 8.20914 28.7882 10 30.9973 10C33.2065 10 34.9973 8.20914 34.9973 6ZM0.469679 5.46967C0.176786 5.76256 0.176786 6.23744 0.469679 6.53033L5.24265 11.3033C5.53554 11.5962 6.01042 11.5962 6.30331 11.3033C6.5962 11.0104 6.5962 10.5355 6.30331 10.2426L2.06067 6L6.30331 1.75736C6.5962 1.46447 6.5962 0.989593 6.30331 0.696699C6.01042 0.403806 5.53554 0.403806 5.24265 0.696699L0.469679 5.46967ZM30.9973 5.25L1.00001 5.25V6.75L30.9973 6.75V5.25Z" fill="white"/>
<circle cx="30.9976" cy="6" r="4" fill="#F06F38"/>
</svg>