<svg width="73" height="38" viewBox="0 0 73 38" fill="none" xmlns="http://www.w3.org/2000/svg">
<g id="Asset 2 2" clip-path="url(#clip0_2322_10738)">
<g id="Layer 2">
<g id="Layer 1">
<path id="Vector" d="M15.2672 26.5988L8.89685 8.00126C8.83658 7.73141 8.68326 7.49163 8.46397 7.32426C8.24467 7.15689 7.97352 7.0727 7.6984 7.08656L1.07853 7.04102C0.443388 7.04102 0.250577 7.34465 0.500098 7.95192L11.5849 36.9831C11.6717 37.2543 11.844 37.4899 12.0759 37.6542C12.3078 37.8185 12.5866 37.9027 12.8703 37.894H15.2672V26.5988Z" fill="white"/>
<path id="Vector_2" d="M15.9688 37.025V8.02804C15.9688 7.3942 16.275 7.07539 16.8799 7.07539H29.9949C31.1558 7.06762 32.3065 7.29333 33.3792 7.7392C34.4519 8.18507 35.4248 8.84207 36.2404 9.67145C37.0386 10.4949 37.6793 11.4584 38.1307 12.5142C38.607 13.6133 38.8504 14.7998 38.8453 15.9984C38.8901 17.9378 38.2287 19.8271 36.9852 21.312C37.9605 22.2465 38.7507 23.3579 39.3141 24.5874C39.9054 25.8398 40.209 27.2095 40.2025 28.5954C40.2052 29.8227 39.9595 31.0378 39.4804 32.1669C38.5514 34.3815 36.8228 36.1616 34.6412 37.1503C33.5575 37.6507 32.3786 37.9097 31.1857 37.9094H16.8799C16.275 37.8942 15.9688 37.6057 15.9688 37.025ZM30.9022 16.2186C30.9084 15.8217 30.835 15.4276 30.6862 15.0598C30.5375 14.6921 30.3165 14.3581 30.0364 14.0779C29.7454 13.7827 29.3966 13.5511 29.0121 13.3976C28.6276 13.2441 28.2156 13.1721 27.8021 13.186H23.995V19.2093H27.7189C28.5704 19.2503 29.4035 18.9515 30.0364 18.3781C30.324 18.0996 30.5498 17.7633 30.6989 17.3911C30.8481 17.019 30.9174 16.6194 30.9022 16.2186ZM32.0364 28.2614C32.0306 27.8293 31.9407 27.4026 31.7717 27.0051C31.6148 26.6033 31.3911 26.2312 31.1101 25.9045C30.8306 25.5829 30.4949 25.3154 30.1196 25.115C29.7238 24.9051 29.2818 24.7981 28.8342 24.8038H23.995V31.7494H28.8342C29.269 31.7545 29.6993 31.6602 30.0924 31.4734C30.4854 31.2866 30.8309 31.0124 31.1026 30.6715C31.6908 30.0072 32.0175 29.1503 32.0213 28.2614H32.0364Z" fill="#F26A26"/>
<path id="Vector_3" d="M51.5043 33.6812C50.5768 32.74 49.7691 31.687 49.0998 30.5462C48.6175 30.6576 48.1241 30.7136 47.6292 30.7132C46.5578 30.7253 45.4952 30.5178 44.5065 30.1034C43.5177 29.689 42.6236 29.0764 41.8788 28.3031C41.1531 27.5358 40.5841 26.6332 40.204 25.6463C39.798 24.6081 39.594 23.5014 39.6029 22.386C39.5927 21.278 39.7969 20.1785 40.204 19.1485C40.5859 18.1806 41.1551 17.2982 41.8788 16.5525C42.6068 15.8245 43.4717 15.2491 44.4232 14.8597C45.4392 14.432 46.5313 14.2164 47.6329 14.2259C48.1125 14.2271 48.5909 14.2728 49.062 14.3625C50.4927 11.9084 52.5684 9.89681 55.0619 8.54794C54.2869 8.1246 53.4849 7.7531 52.6612 7.43588C51.0516 6.84357 49.347 6.55408 47.6329 6.58191C43.4297 6.56649 39.3918 8.22481 36.4045 11.1933C34.9604 12.6343 33.8053 14.3402 33.0019 16.2185C32.1632 18.1715 31.7383 20.2783 31.7543 22.405C31.742 24.5318 32.164 26.6386 32.9944 28.5953C34.6124 32.431 37.6536 35.4841 41.4743 37.1085C43.4212 37.9405 45.517 38.3641 47.6329 38.3534C49.3435 38.3811 51.0456 38.1061 52.6612 37.5411C53.5163 37.2305 54.3446 36.8497 55.1375 36.4025C53.8036 35.6737 52.5801 34.7573 51.5043 33.6812Z" fill="white"/>
<path id="Vector_4" d="M67.8569 29.2178C68.095 29.0229 68.3787 28.8923 68.6811 28.8383C68.8164 28.8322 68.9506 28.8645 69.0684 28.9317C69.1861 28.9988 69.2825 29.098 69.3465 29.2178L72.7491 34.2012C72.9683 34.5048 73.0515 34.7478 72.9948 34.9261C72.8821 35.178 72.6946 35.3888 72.458 35.5296C71.2669 36.3761 69.9655 37.0543 68.5904 37.545C66.9719 38.1085 65.2674 38.3821 63.5546 38.3534C61.4362 38.3647 59.3378 37.941 57.3884 37.1085C53.5677 35.4842 50.5265 32.4311 48.9085 28.5954C48.0792 26.6383 47.6572 24.5318 47.6684 22.4051C47.6519 20.279 48.0741 18.1726 48.9085 16.2185C50.5398 12.4158 53.581 9.39945 57.3884 7.80788C59.3407 6.98684 61.438 6.56988 63.5546 6.58196C65.2675 6.55372 66.9709 6.84323 68.579 7.43593C69.9727 7.95993 71.2991 8.64926 72.5298 9.48925C72.6307 9.54379 72.7174 9.62129 72.783 9.71554C72.8487 9.80979 72.8914 9.91817 72.9079 10.032C72.9419 10.2155 72.9139 10.4052 72.8285 10.5709L69.2293 15.7631C69.1643 15.8625 69.0748 15.9434 68.9695 15.998C68.8642 16.0525 68.7466 16.0788 68.6282 16.0743C68.372 16.0499 68.1312 15.9404 67.9439 15.7631C67.3288 15.25 66.6289 14.8492 65.8759 14.5789C65.1292 14.3345 64.3475 14.2152 63.5622 14.2259C62.4592 14.2155 61.3657 14.4312 60.3486 14.8598C59.3919 15.2574 58.5251 15.845 57.8001 16.5872C57.0751 17.3294 56.5068 18.2109 56.1295 19.179C55.7223 20.2089 55.5182 21.3084 55.5283 22.4164C55.5194 23.5318 55.7235 24.6385 56.1295 25.6767C56.5058 26.6655 57.0752 27.5688 57.8043 28.3335C58.5269 29.086 59.3919 29.686 60.3486 30.0984C61.3611 30.5344 62.4529 30.7542 63.5546 30.7436C64.3764 30.7556 65.1919 30.5993 65.9515 30.2843C66.6225 29.9976 67.2613 29.6401 67.8569 29.2178Z" fill="white"/>
<path id="Vector_5" d="M4.39024 0.0778124C4.41221 0.0755103 4.43442 0.0777683 4.45548 0.084446C4.47655 0.0911238 4.49602 0.102079 4.51269 0.11663C4.52894 0.131001 4.54152 0.149077 4.54937 0.169341C4.55722 0.189605 4.56011 0.211464 4.5578 0.233082V1.37173C4.55758 1.4148 4.54151 1.45628 4.51269 1.48818C4.50207 1.508 4.48624 1.52451 4.46693 1.53592C4.44761 1.54733 4.42554 1.55319 4.40313 1.55288H3.11426V5.17584C3.11426 5.27936 3.05626 5.33111 2.94671 5.33111H1.57406C1.55299 5.33443 1.53145 5.3327 1.51117 5.32607C1.4909 5.31944 1.47247 5.3081 1.4574 5.29296C1.44232 5.27783 1.43102 5.25933 1.42441 5.23897C1.41781 5.21862 1.41609 5.19699 1.41939 5.17584V1.55288H0.130521C0.053189 1.55288 0.00163413 1.49465 0.00163413 1.37173V0.233082C-0.00166932 0.211935 5.11934e-05 0.190304 0.00665545 0.169951C0.0132597 0.149599 0.0245608 0.131101 0.0396377 0.115965C0.0547146 0.100829 0.0731406 0.0894835 0.0934139 0.0828534C0.113687 0.0762233 0.135234 0.074496 0.156299 0.0778124H4.39024Z" fill="#F26A26"/>
<path id="Vector_6" d="M8.64562 0.232862C8.64558 0.192836 8.65923 0.15401 8.68429 0.122879C8.69966 0.107985 8.71784 0.0963107 8.73775 0.0885359C8.75767 0.080761 8.77893 0.0770408 8.80029 0.0775917H10.1729C10.213 0.066584 10.2553 0.066584 10.2954 0.0775917C10.3138 0.0904189 10.3283 0.108056 10.3374 0.128587C10.3464 0.149118 10.3498 0.171757 10.3469 0.194044V5.17562C10.3492 5.19724 10.3464 5.2191 10.3385 5.23936C10.3307 5.25963 10.3181 5.2777 10.3018 5.29208C10.2731 5.31677 10.2366 5.33051 10.1987 5.33089H8.80029C8.77922 5.33421 8.75767 5.33248 8.7374 5.32585C8.71713 5.31922 8.6987 5.30788 8.68362 5.29274C8.66855 5.2776 8.65725 5.25911 8.65064 5.23875C8.64404 5.2184 8.64232 5.19677 8.64562 5.17562V3.31885H7.15053V5.17562C7.15053 5.27914 7.09253 5.33089 6.97009 5.33089H5.60388C5.50507 5.33089 5.45351 5.29207 5.44922 5.21444V0.232862C5.44922 0.129348 5.50077 0.0775917 5.60388 0.0775917H6.97009C7.01023 0.0816044 7.04832 0.09735 7.07964 0.122879C7.09774 0.13484 7.11254 0.151187 7.12268 0.170411C7.13281 0.189634 7.13796 0.211113 7.13764 0.232862V1.76615H8.63273L8.64562 0.232862Z" fill="#F26A26"/>
<path id="Vector_7" d="M15.3232 0.0776823C15.3482 0.0724021 15.3741 0.0731684 15.3988 0.0799178C15.4234 0.0866673 15.4461 0.0992064 15.465 0.1165C15.4736 0.134697 15.4781 0.154586 15.4781 0.174726C15.4781 0.194867 15.4736 0.214755 15.465 0.232952V1.21633C15.4641 1.25818 15.4507 1.29878 15.4263 1.33278C15.4142 1.35266 15.3971 1.36905 15.3768 1.38038C15.3565 1.39171 15.3336 1.3976 15.3103 1.39748H13.1837V2.12207H14.6466C14.6857 2.11964 14.7245 2.13109 14.7561 2.15442C14.7703 2.16478 14.7818 2.17842 14.7897 2.19418C14.7975 2.20995 14.8015 2.22737 14.8012 2.24499V3.23484C14.798 3.26642 14.7844 3.29602 14.7626 3.31894C14.7472 3.33384 14.729 3.34551 14.7091 3.35329C14.6892 3.36106 14.6679 3.36478 14.6466 3.36423H13.1837V4.02413H15.4006C15.4407 4.02228 15.48 4.03621 15.5101 4.06295C15.5264 4.07732 15.5389 4.09539 15.5468 4.11566C15.5546 4.13592 15.5575 4.15778 15.5552 4.1794V5.17571C15.5539 5.22249 15.5381 5.26769 15.5101 5.30511C15.4918 5.32149 15.4704 5.33396 15.4471 5.34174C15.4238 5.34953 15.3992 5.35247 15.3748 5.35039H11.7079C11.6849 5.35488 11.6611 5.35326 11.6388 5.3457C11.6166 5.33814 11.5967 5.32489 11.5811 5.30727C11.5655 5.28965 11.5547 5.26825 11.5498 5.24518C11.5449 5.22212 11.5461 5.19818 11.5533 5.17571V0.232952C11.555 0.192122 11.571 0.153204 11.5984 0.122969C11.6138 0.108076 11.6319 0.0964014 11.6519 0.0886265C11.6718 0.0808516 11.693 0.0771314 11.7144 0.0776823H15.3232Z" fill="#F26A26"/>
<path id="Vector_8" d="M22.8145 0.0778124C22.8543 0.0777688 22.893 0.0914722 22.924 0.11663C22.9388 0.132068 22.9505 0.150314 22.9582 0.170306C22.966 0.190299 22.9697 0.211638 22.9691 0.233082V1.37173C22.9689 1.4148 22.9528 1.45628 22.924 1.48818C22.9134 1.508 22.8976 1.52451 22.8783 1.53592C22.8589 1.54733 22.8369 1.55319 22.8145 1.55288H21.5256V5.17584C21.5256 5.27936 21.4676 5.33111 21.3516 5.33111H19.9725C19.9535 5.3304 19.9349 5.32569 19.9179 5.31729C19.9008 5.30888 19.8857 5.29697 19.8736 5.28232C19.8614 5.26768 19.8525 5.25063 19.8473 5.23228C19.8421 5.21394 19.8409 5.19471 19.8436 5.17584V1.55288H18.5547C18.4516 1.55288 18.4001 1.49465 18.4001 1.37173V0.233082C18.3968 0.211935 18.3985 0.190304 18.4051 0.169951C18.4117 0.149599 18.423 0.131101 18.4381 0.115965C18.4532 0.100829 18.4716 0.0894835 18.4919 0.0828534C18.5121 0.0762233 18.5337 0.074496 18.5547 0.0778124H22.8145Z" fill="#F26A26"/>
<path id="Vector_9" d="M27.8559 5.17518C27.8902 5.27869 27.858 5.33045 27.7592 5.33045H26.4252C26.371 5.33821 26.3158 5.32701 26.2689 5.29873C26.2219 5.27046 26.1861 5.22683 26.1674 5.17518L25.9741 4.56704H24.4919L24.2986 5.17518C24.2819 5.22281 24.2502 5.2637 24.2084 5.29171C24.1666 5.31971 24.1168 5.33331 24.0666 5.33045H22.7133C22.5586 5.35633 22.5586 5.30457 22.5586 5.17518L24.3372 0.232418C24.35 0.191558 24.3747 0.155492 24.4081 0.128905C24.43 0.103307 24.4593 0.0852108 24.4919 0.0771484H25.8903C25.9322 0.0794445 25.9715 0.0980092 25.9999 0.128905C26.0333 0.155492 26.058 0.191558 26.0708 0.232418L27.8559 5.17518ZM24.885 3.2343H25.5294L25.2201 1.94039L24.885 3.2343Z" fill="#F26A26"/>
<path id="Vector_10" d="M28.6843 5.17523V0.232472C28.6866 0.191759 28.7025 0.153008 28.7294 0.122489C28.7448 0.107595 28.763 0.0959208 28.7829 0.088146C28.8028 0.0803711 28.8241 0.0766508 28.8454 0.0772018H30.2245C30.2674 0.0774231 30.3087 0.0935515 30.3405 0.122489C30.3603 0.133145 30.3767 0.149035 30.3881 0.168428C30.3994 0.187822 30.4053 0.209974 30.405 0.232472V5.17523C30.405 5.27875 30.347 5.3305 30.2245 5.3305H28.8454C28.8241 5.33356 28.8024 5.33171 28.7819 5.32508C28.7614 5.31846 28.7427 5.30724 28.7272 5.29228C28.7117 5.27732 28.6997 5.259 28.6923 5.23872C28.6849 5.21844 28.6821 5.19673 28.6843 5.17523Z" fill="#F26A26"/>
<path id="Vector_11" d="M35.4664 3.8425C35.5062 3.84246 35.5449 3.85616 35.5759 3.88132C35.5922 3.89569 35.6047 3.91376 35.6126 3.93403C35.6204 3.95429 35.6233 3.97615 35.621 3.99777V5.17523C35.6208 5.21831 35.6047 5.25978 35.5759 5.29169C35.5629 5.30826 35.5462 5.32157 35.5272 5.33055C35.5082 5.33953 35.4874 5.34395 35.4664 5.34344H31.7737C31.7501 5.35173 31.7246 5.35328 31.7002 5.34792C31.6757 5.34255 31.6532 5.33048 31.6352 5.31305C31.6172 5.29562 31.6043 5.27351 31.5981 5.24918C31.5918 5.22485 31.5924 5.19925 31.5997 5.17523V0.232472C31.5981 0.212438 31.6007 0.192279 31.6073 0.173322C31.614 0.154365 31.6246 0.13704 31.6384 0.122489C31.6538 0.107595 31.672 0.0959208 31.6919 0.088146C31.7118 0.0803711 31.733 0.0766508 31.7544 0.0772018H33.0433C33.0862 0.0774231 33.1275 0.0935515 33.1593 0.122489C33.1766 0.134762 33.1905 0.151354 33.1995 0.170635C33.2086 0.189917 33.2125 0.211226 33.2108 0.232472V3.8425H35.4664Z" fill="#F26A26"/>
<path id="Vector_12" d="M36.043 2.72369C36.0426 2.358 36.1195 1.99638 36.2685 1.66268C36.5575 1.00322 37.0917 0.483199 37.7572 0.213496C38.0941 0.0725609 38.4555 0 38.8205 0C39.1855 0 39.5469 0.0725609 39.8838 0.213496C40.2129 0.351894 40.5143 0.549186 40.7731 0.795759C41.0275 1.04395 41.233 1.33806 41.3789 1.66268C41.5257 1.99687 41.6004 2.35846 41.598 2.72369C41.6004 3.08892 41.5257 3.45052 41.3789 3.78471C41.2329 4.10733 41.0273 4.39929 40.7731 4.64516C40.514 4.88976 40.2126 5.08489 39.8838 5.22095C39.5469 5.36189 39.1855 5.43445 38.8205 5.43445C38.4555 5.43445 38.0941 5.36189 37.7572 5.22095C37.0929 4.95608 36.5585 4.44048 36.2685 3.78471C36.1195 3.45101 36.0426 3.08939 36.043 2.72369ZM37.7314 2.72369C37.7276 2.87117 37.7585 3.01746 37.8216 3.15069C37.876 3.27902 37.9548 3.39549 38.0536 3.49357C38.1542 3.59219 38.2722 3.67117 38.4016 3.72648C38.678 3.83014 38.9823 3.83014 39.2587 3.72648C39.3898 3.67437 39.5084 3.59499 39.6067 3.49357C39.7094 3.3975 39.7907 3.28063 39.8451 3.15069C39.9047 3.01742 39.9355 2.873 39.9355 2.72693C39.9355 2.58086 39.9047 2.43644 39.8451 2.30317C39.7932 2.16628 39.7117 2.04257 39.6067 1.94087C39.5067 1.84153 39.3885 1.76245 39.2587 1.70797C38.9839 1.59611 38.6764 1.59611 38.4016 1.70797C38.2646 1.76353 38.1382 1.84231 38.0278 1.94087C37.9291 2.03896 37.8503 2.15543 37.7958 2.28376C37.7413 2.41906 37.7193 2.56532 37.7314 2.71076V2.72369Z" fill="#F26A26"/>
<path id="Vector_13" d="M42.4414 0.232533C42.4414 0.192507 42.455 0.153681 42.4801 0.12255C42.5135 0.09208 42.5574 0.0758411 42.6025 0.0772628H44.9676C45.2029 0.0744649 45.436 0.123029 45.6507 0.219594C45.8527 0.307187 46.0363 0.432304 46.192 0.58836C46.3442 0.748439 46.4665 0.934714 46.5529 1.13827C46.6358 1.34393 46.6795 1.56338 46.6818 1.78523C46.6874 2.09362 46.6095 2.39775 46.4562 2.6651C46.3176 2.93266 46.1079 3.15655 45.8505 3.31205L46.8687 5.17529C46.8795 5.19276 46.8853 5.21293 46.8853 5.23352C46.8853 5.25411 46.8795 5.27428 46.8687 5.29175C46.8561 5.30461 46.8411 5.31471 46.8244 5.32139C46.8078 5.32807 46.7899 5.3312 46.772 5.33056H45.3091C45.2582 5.3315 45.2084 5.31559 45.1674 5.28528C45.1376 5.25599 45.1193 5.21697 45.1158 5.17529L44.3425 3.69376H44.1363V5.17529C44.1363 5.27881 44.0783 5.33056 43.9687 5.33056H42.6025C42.493 5.33056 42.4414 5.27881 42.4414 5.17529V0.232533ZM45.0578 1.84346C45.0556 1.73668 45.0169 1.63389 44.9483 1.55233C44.914 1.51206 44.8716 1.47965 44.8237 1.45733C44.7759 1.435 44.7239 1.42327 44.6712 1.42294H44.1234V2.26398H44.6712C44.7239 2.26365 44.7759 2.25192 44.8237 2.22959C44.8716 2.20726 44.914 2.17486 44.9483 2.13459C45.0189 2.05419 45.0579 1.95066 45.0578 1.84346Z" fill="#F26A26"/>
<path id="Vector_14" d="M55.8838 5.17558C55.8838 5.26616 55.8323 5.30498 55.7356 5.30498H54.3759C54.2534 5.30498 54.1954 5.25322 54.189 5.14971L53.9892 3.07944L53.5445 5.17558C53.5303 5.21475 53.5108 5.25176 53.4865 5.28557C53.4752 5.30033 53.4605 5.31215 53.4437 5.32003C53.4269 5.32791 53.4084 5.33162 53.3899 5.33085H52.101C52.0806 5.33127 52.0604 5.32747 52.0415 5.31968C52.0227 5.31189 52.0056 5.30027 51.9915 5.28557C51.9688 5.25373 51.9595 5.21422 51.9657 5.17558L51.5081 3.11826L51.3212 5.17558C51.3212 5.2791 51.2568 5.33085 51.1408 5.33085H49.781C49.6779 5.33085 49.6328 5.28557 49.6328 5.19499V5.17558L50.1161 0.232823C50.1239 0.192408 50.1416 0.154591 50.1677 0.12284C50.1984 0.096216 50.2368 0.0803213 50.2772 0.0775534H51.927C51.9747 0.0757481 52.0215 0.0900761 52.0601 0.118236C52.0987 0.146395 52.1267 0.186752 52.1397 0.232823L52.739 2.71714L53.3577 0.232823C53.3696 0.18614 53.3973 0.145089 53.4361 0.116745C53.475 0.0884018 53.5224 0.0745415 53.5703 0.0775534H55.2201C55.265 0.0773896 55.3084 0.093466 55.3425 0.12284C55.3846 0.147631 55.4166 0.186601 55.4327 0.232823L55.8838 5.17558Z" fill="#F26A26"/>
<path id="Vector_15" d="M61.7184 5.17518C61.7184 5.27869 61.7184 5.33045 61.6282 5.33045H60.2684C60.2173 5.33369 60.1666 5.32034 60.1236 5.29238C60.0807 5.26441 60.0478 5.22332 60.03 5.17518L59.8431 4.56704H58.3222L58.1353 5.17518C58.1174 5.22332 58.0846 5.26441 58.0417 5.29238C57.9987 5.32034 57.948 5.33369 57.8969 5.33045H56.5436C56.4448 5.33045 56.4125 5.27869 56.4469 5.17518L58.2062 0.232418C58.2165 0.19203 58.239 0.155849 58.2707 0.128905C58.2998 0.0990424 58.3387 0.0806775 58.3802 0.0771484H59.7851C59.8266 0.0806775 59.8655 0.0990424 59.8946 0.128905C59.9263 0.155849 59.9488 0.19203 59.9591 0.232418L61.7184 5.17518ZM58.7475 3.2343H59.392L59.0826 1.94039L58.7475 3.2343Z" fill="#F26A26"/>
<path id="Vector_16" d="M62.5518 0.232472C62.5517 0.192446 62.5654 0.15362 62.5905 0.122489C62.6058 0.107595 62.624 0.0959208 62.6439 0.088146C62.6638 0.0803711 62.6851 0.0766508 62.7065 0.0772018H64.5044C64.864 0.0768861 65.2205 0.144937 65.5549 0.277759C65.8741 0.408047 66.1652 0.599186 66.412 0.840613C66.658 1.08042 66.855 1.36611 66.992 1.68166C67.1352 2.00993 67.2076 2.36489 67.2046 2.72326C67.2067 3.07466 67.1376 3.4228 67.0013 3.74648C66.865 4.07015 66.6645 4.36257 66.412 4.60591C66.1648 4.84527 65.8737 5.03423 65.5549 5.16229C65.2201 5.29306 64.8636 5.35891 64.5044 5.35638H62.7065C62.6827 5.36146 62.658 5.36001 62.6349 5.35219C62.6119 5.34436 62.5914 5.33045 62.5756 5.31191C62.5597 5.29337 62.5492 5.2709 62.545 5.24685C62.5408 5.22279 62.5432 5.19806 62.5518 5.17523V0.232472ZM64.4464 3.88132C64.5953 3.88447 64.743 3.8535 64.8782 3.79074C65.0113 3.73635 65.1303 3.65228 65.2262 3.5449C65.3294 3.44169 65.4106 3.31841 65.4646 3.1826C65.5766 2.90008 65.5766 2.58526 65.4646 2.30274C65.4091 2.16774 65.3281 2.04473 65.2262 1.94044C65.1264 1.83914 65.0083 1.7579 64.8782 1.70107C64.7421 1.64127 64.595 1.61043 64.4464 1.61049H64.1951V3.88132H64.4464Z" fill="#F26A26"/>
<path id="Vector_17" d="M71.8575 0.0773109C71.8977 0.0754662 71.937 0.0893886 71.9671 0.116128C71.9841 0.130182 71.9976 0.148024 72.0066 0.168239C72.0155 0.188453 72.0196 0.210483 72.0186 0.232581V1.21596C72.0178 1.25781 72.0043 1.29841 71.98 1.33241C71.9663 1.35238 71.9481 1.36871 71.9267 1.37998C71.9054 1.39126 71.8816 1.39713 71.8575 1.39711H69.718V2.1217H71.1809C71.22 2.11927 71.2588 2.13072 71.2904 2.15405C71.3055 2.16351 71.3177 2.17698 71.3257 2.19296C71.3336 2.20894 71.337 2.22682 71.3355 2.24462V3.23447C71.3323 3.26605 71.3187 3.29565 71.2969 3.31857C71.2815 3.33347 71.2633 3.34514 71.2434 3.35291C71.2235 3.36069 71.2022 3.36441 71.1809 3.36386H69.718V4.02376H71.9349C71.9768 4.02275 72.0179 4.03648 72.0509 4.06257C72.0657 4.07801 72.0773 4.09626 72.0851 4.11625C72.0928 4.13624 72.0965 4.15758 72.096 4.17903V5.17534C72.0919 5.22265 72.074 5.26769 72.0444 5.30473C72.0268 5.32221 72.0055 5.33538 71.982 5.34323C71.9585 5.35109 71.9336 5.35341 71.9091 5.35002H68.2422C68.2212 5.35334 68.1996 5.35161 68.1794 5.34498C68.1591 5.33835 68.1406 5.327 68.1256 5.31187C68.1105 5.29673 68.0992 5.27823 68.0926 5.25788C68.086 5.23753 68.0843 5.2159 68.0876 5.19475V0.232581C68.0875 0.192555 68.1012 0.153729 68.1262 0.122598C68.1416 0.107704 68.1598 0.09603 68.1797 0.0882551C68.1996 0.0804802 68.2209 0.07676 68.2422 0.0773109H71.8575Z" fill="#F26A26"/>
</g>
</g>
</g>
<defs>
<clipPath id="clip0_2322_10738">
<rect width="73" height="38" fill="white"/>
</clipPath>
</defs>
</svg>
