<svg width="71" height="36" viewBox="0 0 71 36" fill="none" xmlns="http://www.w3.org/2000/svg">
<g id="Asset 4 6 1" clip-path="url(#clip0_2318_49723)">
<g id="Clip path group">
<mask id="mask0_2318_49723" style="mask-type:luminance" maskUnits="userSpaceOnUse" x="0" y="0" width="71" height="36">
<g id="clip0_557_2183">
<path id="Vector" d="M71 0H0V35.4386H71V0Z" fill="white"/>
</g>
</mask>
<g mask="url(#mask0_2318_49723)">
<g id="Group">
<path id="Vector_2" d="M14.5458 23.9951L8.31546 5.9029C8.25584 5.64074 8.10571 5.4079 7.89141 5.24519C7.67709 5.08249 7.41226 5.00031 7.14335 5.01306L0.668968 4.96875C0.0477834 4.96875 -0.14079 5.26783 0.103246 5.8586L10.9444 34.1009C11.0288 34.3651 11.1973 34.5946 11.4241 34.7546C11.651 34.9145 11.924 34.9961 12.2015 34.987H14.5495L14.5458 23.9951Z" fill="white"/>
<path id="Vector_3" d="M15.2339 34.1476V5.94959C15.2339 5.32929 15.5298 5.01914 16.125 5.01914H28.9481C30.102 5.01378 31.2452 5.24109 32.3091 5.68744C33.3394 6.11507 34.2744 6.74256 35.0601 7.53358C35.8408 8.33597 36.4674 9.27461 36.9089 10.3028C37.3717 11.3739 37.6059 12.5295 37.5965 13.696C37.6438 15.5833 36.9966 17.4223 35.7775 18.8652C36.7419 19.771 37.5261 20.8509 38.0884 22.048C38.6667 23.2663 38.9636 24.5988 38.9573 25.947C38.9603 27.141 38.72 28.3231 38.2511 29.4214C37.3409 31.581 35.6423 33.3141 33.4998 34.2694C32.4418 34.7582 31.2896 35.0102 30.1239 35.0079H16.125C15.5334 34.9968 15.2339 34.7125 15.2339 34.1476ZM29.8391 13.9101C29.8464 13.5225 29.7748 13.1374 29.6286 12.7782C29.4824 12.4189 29.2647 12.093 28.9887 11.8204C28.7053 11.5325 28.365 11.3067 27.9894 11.1573C27.6138 11.008 27.2112 10.9382 26.8072 10.9527H23.0838V16.816H26.7259C27.5572 16.8579 28.3711 16.5683 28.9887 16.011C29.2712 15.7409 29.4931 15.4139 29.6397 15.0517C29.7863 14.6896 29.8543 14.3005 29.8391 13.9101ZM30.9484 25.6258C30.9425 25.2082 30.8559 24.7958 30.6933 24.411C30.5398 24.0212 30.321 23.6604 30.0463 23.344C29.7725 23.03 29.4428 22.7696 29.0737 22.576C28.6886 22.3698 28.2573 22.2643 27.8203 22.2695H23.0838V29.019H27.8166C28.2422 29.0236 28.6632 28.9312 29.0477 28.7488C29.4321 28.5665 29.7698 28.299 30.0351 27.9666C30.6105 27.3219 30.93 26.4893 30.9337 25.6258H30.9484Z" fill="#7498F4"/>
<path id="Vector_4" d="M49.978 30.8934C49.0697 29.9788 48.2798 28.9542 47.6264 27.8436C47.1544 27.9504 46.6719 28.0037 46.1881 28.0023C44.6206 28.0232 43.0842 27.5641 41.7859 26.6868C40.4876 25.8095 39.4895 24.5561 38.9261 23.0953C38.5308 22.0899 38.3313 21.0185 38.3382 19.9384C38.3285 18.8593 38.5281 17.7885 38.9261 16.7851C39.2999 15.8437 39.8566 14.9854 40.5641 14.2596C41.2735 13.5419 42.1196 12.9732 43.0525 12.5871C44.0455 12.174 45.1123 11.9668 46.1881 11.9778C46.6559 11.9803 47.1226 12.026 47.582 12.1145C48.9852 9.72785 51.0158 7.77038 53.4537 6.45416C52.6937 6.04379 51.9082 5.68244 51.102 5.37231C49.5285 4.79854 47.8629 4.5182 46.1881 4.54524C43.1452 4.53286 40.1659 5.41337 37.62 7.0774C35.074 8.74142 33.0737 11.1156 31.8675 13.9051C31.0462 15.8099 30.6319 17.8647 30.651 19.9384C30.6395 22.0065 31.0536 24.055 31.8675 25.9568C33.4439 29.6922 36.4202 32.6644 40.161 34.2386C42.0661 35.0489 44.1175 35.4598 46.1881 35.446C47.8596 35.4715 49.5229 35.2039 51.102 34.6558C51.9386 34.3512 52.7497 33.9809 53.5276 33.5481C52.2238 32.8365 51.0286 31.9426 49.978 30.8934Z" fill="white"/>
<path id="Vector_5" d="M65.965 26.5477C66.1992 26.3581 66.4778 26.231 66.7747 26.1784C66.9066 26.1719 67.0376 26.2031 67.1523 26.2685C67.267 26.334 67.3605 26.4308 67.4218 26.5477L70.7495 31.3957C70.9678 31.6947 71.049 31.9274 70.9936 32.1045C70.88 32.3474 70.6975 32.5516 70.4685 32.6916C69.3043 33.5153 68.0313 34.1739 66.686 34.6485C65.0989 35.2018 63.4268 35.4717 61.7461 35.446C59.6753 35.4584 57.624 35.0461 55.7191 34.2349C51.9824 32.6528 49.0111 29.6777 47.4366 25.9421C46.6233 24.0452 46.208 22.0019 46.2164 19.9384C46.1981 17.87 46.6111 15.8204 47.4292 13.9201C48.6307 11.1255 50.6285 8.74553 53.1741 7.07606C55.7197 5.40659 58.7006 4.52138 61.7461 4.53056C63.4221 4.50381 65.0889 4.78413 66.6637 5.35763C68.026 5.87088 69.3229 6.54259 70.5277 7.35885C70.6259 7.41154 70.7105 7.48637 70.7747 7.57738C70.8388 7.66839 70.8809 7.77309 70.8975 7.88315C70.9301 8.06328 70.9015 8.24916 70.8161 8.41115L67.2924 13.4585C67.231 13.5566 67.1444 13.6364 67.0417 13.6896C66.939 13.7428 66.8238 13.7676 66.7081 13.7613C66.4571 13.7392 66.221 13.6324 66.0389 13.4585C65.4368 12.9601 64.7525 12.5703 64.0164 12.3065C63.2836 12.0685 62.5166 11.9525 61.7461 11.9631C60.6756 11.9495 59.6131 12.1503 58.6217 12.5539C57.689 12.9419 56.844 13.5132 56.1369 14.2339C55.4276 14.9575 54.8696 15.8148 54.4952 16.7557C54.0966 17.769 53.8981 18.8498 53.911 19.9384C53.903 21.023 54.1012 22.0993 54.4952 23.1101C54.8668 24.0711 55.4247 24.9494 56.1369 25.6947C56.8423 26.4266 57.6871 27.0104 58.6217 27.4117C59.6111 27.8217 60.6749 28.0228 61.7461 28.0024C62.5506 28.0138 63.3491 27.863 64.094 27.5594C64.7525 27.2907 65.3799 26.9515 65.965 26.5477Z" fill="white"/>
<path id="Vector_6" d="M0.0870929 0.203494C0.0862552 0.175214 0.0960019 0.147636 0.114431 0.126145C0.124552 0.11467 0.137284 0.105789 0.151555 0.100247C0.165827 0.0947047 0.181221 0.0926638 0.196446 0.0942958H1.99167C2.15069 0.0936302 2.30732 0.132735 2.44732 0.208044C2.58814 0.28021 2.7135 0.379124 2.81639 0.49924C2.91829 0.620382 2.99706 0.759183 3.04876 0.908736C3.11745 1.05289 3.15768 1.20892 3.16723 1.36828C3.16364 1.68095 3.05266 1.98292 2.85284 2.22367C2.75202 2.34223 2.62995 2.44098 2.49288 2.51487C2.35183 2.58687 2.19564 2.6243 2.03724 2.62407H1.28999V3.69786C1.28999 3.77065 1.24898 3.80705 1.16696 3.80705H0.196446C0.181553 3.80938 0.166319 3.80817 0.151984 3.8035C0.137651 3.79884 0.124623 3.79086 0.113963 3.78022C0.103303 3.76957 0.0953124 3.75656 0.0906431 3.74225C0.0859737 3.72794 0.0847572 3.71273 0.0870929 3.69786V0.203494ZM2.02357 1.36828C2.02471 1.28155 2.00099 1.1963 1.95522 1.12258C1.93189 1.08272 1.8976 1.05038 1.8564 1.02941C1.81521 1.00844 1.76886 0.99972 1.72285 1.00428H1.2672V1.71862H1.72285C1.76732 1.7226 1.81207 1.71506 1.85278 1.69673C1.89348 1.67839 1.92876 1.6499 1.95522 1.61398C2.00099 1.54026 2.02471 1.45501 2.02357 1.36828Z" fill="#7498F4"/>
<path id="Vector_7" d="M6.81868 3.69733C6.84146 3.77013 6.81868 3.80653 6.75489 3.80653H5.8026C5.76724 3.80782 5.73238 3.79797 5.70293 3.77837C5.6735 3.75877 5.65098 3.73042 5.63857 3.69733L5.50188 3.26509H4.43112L4.29443 3.69733C4.28331 3.73126 4.26108 3.76047 4.23134 3.78028C4.20159 3.80008 4.16604 3.80933 4.13039 3.80653H3.17355C3.1052 3.80653 3.07787 3.77013 3.1052 3.69733L4.34455 0.202976C4.35357 0.17424 4.37103 0.148875 4.39467 0.130177C4.40387 0.11852 4.41565 0.109162 4.4291 0.102845C4.44254 0.0965263 4.45727 0.093422 4.47213 0.0937774H5.45176C5.46656 0.093758 5.48118 0.0970119 5.49458 0.103305C5.50796 0.109599 5.5198 0.118775 5.52922 0.130177C5.55161 0.149126 5.56754 0.174572 5.57478 0.202976L6.81868 3.69733ZM4.71817 2.33235H5.17381L4.94144 1.38596L4.71817 2.33235Z" fill="#7498F4"/>
<path id="Vector_8" d="M7.91619 2.42526L8.10301 2.5663C8.15971 2.61216 8.21906 2.6547 8.2807 2.6937C8.33374 2.73335 8.39201 2.7655 8.45385 2.78924C8.51343 2.81196 8.5769 2.82279 8.64066 2.8211C8.80469 2.8211 8.88671 2.7574 8.88671 2.63C8.87977 2.57253 8.85027 2.52017 8.80469 2.4844C8.70988 2.41484 8.60104 2.36671 8.48574 2.34335C8.2796 2.29239 8.08062 2.21597 7.89341 2.11586C7.75614 2.04036 7.63408 1.94008 7.53345 1.8201C7.4507 1.71612 7.38882 1.59716 7.35119 1.46976C7.31803 1.33887 7.30119 1.20438 7.30107 1.06937C7.29784 0.911907 7.3322 0.755941 7.40131 0.614373C7.47166 0.489303 7.56798 0.380706 7.68382 0.295878C7.81899 0.192486 7.97411 0.11813 8.13945 0.0774802C8.31723 0.026462 8.50125 0.000428745 8.68623 0.000131148C8.92386 -0.00238691 9.16049 0.0313689 9.38791 0.10023C9.62445 0.175827 9.83773 0.310517 10.0076 0.491526C10.0207 0.510548 10.0296 0.532206 10.0335 0.554992C10.0375 0.577779 10.0363 0.601147 10.0304 0.623474C10.016 0.673236 9.98936 0.718605 9.95292 0.755422L9.53374 1.23772C9.52029 1.25824 9.50076 1.27407 9.47788 1.28304C9.45508 1.292 9.42995 1.29366 9.40613 1.28777C9.35895 1.2706 9.31558 1.24431 9.27855 1.21041C9.19924 1.14282 9.11014 1.08761 9.01428 1.04662C8.93503 1.00671 8.84786 0.984941 8.75912 0.98292C8.69785 0.980834 8.63694 0.993305 8.58143 1.01932C8.55401 1.0317 8.53127 1.0525 8.51651 1.07869C8.50176 1.10488 8.49577 1.13509 8.49941 1.16491C8.49896 1.18421 8.50235 1.20339 8.5094 1.22135C8.51643 1.23931 8.52698 1.25571 8.54042 1.26956C8.56923 1.29843 8.60323 1.32158 8.64066 1.33782C8.68488 1.35796 8.73057 1.37469 8.77735 1.38786L8.92316 1.42426C9.09934 1.4819 9.26337 1.54105 9.41528 1.60171C9.55467 1.65646 9.68518 1.7316 9.80251 1.82466C9.90948 1.91198 9.99524 2.02244 10.0532 2.1477C10.1173 2.30022 10.1485 2.46461 10.1442 2.63C10.1465 2.80697 10.1062 2.98189 10.027 3.14018C9.94769 3.29848 9.83175 3.43555 9.68863 3.53999C9.54495 3.65002 9.38072 3.73045 9.20566 3.77658C9.00862 3.83269 8.80453 3.86027 8.59965 3.85848C8.47052 3.85724 8.34201 3.84044 8.21692 3.80843C8.08632 3.77658 7.95953 3.73083 7.83873 3.67194C7.71794 3.61667 7.60209 3.55122 7.49244 3.47629C7.39146 3.40572 7.29554 3.32818 7.20539 3.24424C7.14616 3.1851 7.11426 3.14414 7.11426 3.12139C7.11426 3.09864 7.11426 3.05769 7.1735 3.01219L7.68382 2.4207C7.71262 2.39262 7.74907 2.37364 7.78861 2.3661C7.83395 2.3791 7.87699 2.39906 7.91619 2.42526Z" fill="#7498F4"/>
<path id="Vector_9" d="M11.4158 2.42526L11.6025 2.5663C11.6592 2.61216 11.7186 2.6547 11.7802 2.6937C11.8333 2.73335 11.8916 2.7655 11.9534 2.78924C12.0101 2.81082 12.0704 2.82162 12.1311 2.8211C12.2951 2.8211 12.3772 2.7574 12.3772 2.63C12.3715 2.6001 12.3597 2.5717 12.3424 2.54662C12.3251 2.52155 12.3028 2.50036 12.2769 2.4844C12.1821 2.41484 12.0733 2.36671 11.958 2.34335C11.7518 2.29239 11.5528 2.21597 11.3656 2.11586C11.2381 2.03766 11.1255 1.93753 11.033 1.8201C10.9502 1.71612 10.8884 1.59716 10.8507 1.46976C10.8176 1.33887 10.8008 1.20438 10.8006 1.06937C10.7974 0.911907 10.8317 0.755941 10.9008 0.614373C10.9712 0.489303 11.0675 0.380706 11.1833 0.295878C11.3185 0.192486 11.4737 0.11813 11.639 0.0774802C11.8167 0.026462 12.0008 0.000428745 12.1857 0.000131148C12.4234 -0.00238691 12.66 0.0313689 12.8874 0.10023C13.1207 0.17721 13.3308 0.311808 13.498 0.491526C13.5112 0.510548 13.5201 0.532206 13.524 0.554993C13.5279 0.577779 13.5268 0.601147 13.5208 0.623474C13.5064 0.673237 13.4798 0.718605 13.4434 0.755422L13.0241 1.23772C13.0106 1.25824 12.9912 1.27407 12.9683 1.28304C12.9454 1.292 12.9204 1.29366 12.8966 1.28777C12.8494 1.2706 12.8061 1.24431 12.769 1.21041C12.6896 1.14282 12.6005 1.08761 12.5047 1.04662C12.4255 1.00671 12.3383 0.984941 12.2495 0.98292C12.1883 0.980834 12.1273 0.993305 12.0719 1.01932C12.0444 1.0317 12.0217 1.0525 12.0069 1.07869C11.9922 1.10488 11.9862 1.13509 11.9898 1.16491C11.9894 1.18421 11.9928 1.20339 11.9998 1.22135C12.0068 1.23931 12.0174 1.25571 12.0308 1.26956C12.0596 1.29843 12.0936 1.32158 12.1311 1.33782C12.1753 1.35796 12.221 1.37469 12.2678 1.38786L12.409 1.42426C12.5913 1.48341 12.7553 1.54256 12.9056 1.60171C13.0437 1.6565 13.1727 1.73166 13.2884 1.82466C13.3978 1.91077 13.4852 2.02146 13.5436 2.1477C13.6109 2.29954 13.6451 2.46395 13.6439 2.63C13.646 2.80697 13.6058 2.98189 13.5265 3.14018C13.4473 3.29848 13.3313 3.43555 13.1881 3.53999C13.0519 3.64366 12.8973 3.72083 12.7325 3.76748C12.5355 3.8236 12.3314 3.85117 12.1265 3.84939C11.9974 3.84815 11.8689 3.83134 11.7438 3.79934C11.613 3.76823 11.4861 3.72245 11.3656 3.66283C11.2448 3.60757 11.129 3.54211 11.0193 3.46719C10.9183 3.39662 10.8224 3.31908 10.7323 3.23514C10.6731 3.17599 10.6411 3.13505 10.6411 3.11229C10.6411 3.08955 10.6411 3.04859 10.7003 3.00309L11.1833 2.4207C11.2122 2.39262 11.2486 2.37364 11.2881 2.3661C11.3335 2.3791 11.3765 2.39906 11.4158 2.42526Z" fill="#7498F4"/>
<path id="Vector_10" d="M14.3937 3.69786V0.203494C14.3929 0.175214 14.4026 0.147636 14.4211 0.126145C14.4312 0.11467 14.4439 0.105789 14.4582 0.100247C14.4725 0.0947047 14.4878 0.0926638 14.503 0.0942958H15.4644C15.494 0.0949068 15.5225 0.104425 15.5465 0.121595C15.5591 0.13125 15.5693 0.14364 15.5764 0.157828C15.5835 0.172016 15.5874 0.187632 15.5875 0.203494V3.69786C15.5875 3.77065 15.5465 3.80705 15.4644 3.80705H14.503C14.4882 3.80938 14.473 3.80817 14.4586 3.8035C14.4443 3.79884 14.4313 3.79086 14.4205 3.78022C14.4099 3.76957 14.402 3.75656 14.3973 3.74225C14.3926 3.72794 14.3914 3.71273 14.3937 3.69786Z" fill="#7498F4"/>
<path id="Vector_11" d="M16.3033 1.95168C16.3005 1.69472 16.3534 1.44017 16.4582 1.20549C16.563 0.978131 16.7081 0.771569 16.8866 0.595798C17.067 0.42146 17.2788 0.282551 17.5108 0.186303C17.7503 0.0864773 18.0075 0.03543 18.2671 0.0361546C18.5253 0.0349233 18.781 0.0860025 19.0189 0.186303C19.2516 0.283635 19.4647 0.422387 19.6477 0.595798C19.8261 0.771569 19.9712 0.978131 20.076 1.20549C20.1809 1.44017 20.2337 1.69472 20.2309 1.95168C20.2334 2.20715 20.1805 2.46013 20.076 2.69332C19.9723 2.91994 19.8271 3.12519 19.6477 3.29847C19.4647 3.47188 19.2516 3.61063 19.0189 3.70796C18.781 3.80826 18.5253 3.85934 18.2671 3.85811C18.0075 3.85883 17.7503 3.80779 17.5108 3.70796C17.0443 3.5146 16.6682 3.15212 16.4582 2.69332C16.3538 2.46013 16.3009 2.20715 16.3033 1.95168ZM17.4971 1.95168C17.4959 2.05478 17.5161 2.157 17.5563 2.25198C17.5991 2.34095 17.656 2.4224 17.7249 2.49312C17.7962 2.56111 17.8797 2.61512 17.971 2.65237C18.1653 2.73104 18.3826 2.73104 18.577 2.65237C18.6694 2.61731 18.7532 2.56303 18.823 2.49312C18.8946 2.4247 18.952 2.34273 18.9916 2.25198C19.0332 2.1573 19.055 2.05508 19.0554 1.95168C19.0553 1.84823 19.0336 1.74595 18.9916 1.65139C18.952 1.56195 18.8946 1.48147 18.823 1.41479C18.7523 1.34492 18.6687 1.2893 18.577 1.25099C18.3826 1.17233 18.1653 1.17233 17.971 1.25099C17.8806 1.29185 17.7974 1.34718 17.7249 1.41479C17.6564 1.48413 17.5995 1.56402 17.5563 1.65139C17.517 1.74343 17.4969 1.84251 17.4971 1.94258V1.95168Z" fill="#7498F4"/>
<path id="Vector_12" d="M23.2562 0.203186C23.2553 0.174905 23.265 0.147328 23.2835 0.125837C23.2936 0.114363 23.3063 0.105481 23.3206 0.0999387C23.3349 0.0943965 23.3503 0.0923556 23.3655 0.0939876H24.2768C24.3079 0.0839052 24.3413 0.0839052 24.3724 0.0939876C24.3827 0.105756 24.3905 0.119503 24.3951 0.134375C24.3998 0.149247 24.4014 0.164925 24.3998 0.180436V3.72029C24.3998 3.75669 24.3998 3.77944 24.368 3.78855C24.3457 3.79584 24.3218 3.79584 24.2996 3.78855H23.3428C23.3174 3.79321 23.2913 3.78951 23.2683 3.77801C23.2452 3.76652 23.2266 3.74786 23.2151 3.72484L22.0533 2.02316V3.69754C22.0533 3.77034 22.0122 3.80674 21.9302 3.80674H21.019C21.0033 3.80826 20.9875 3.80571 20.9731 3.79933C20.9587 3.79295 20.9463 3.78296 20.937 3.77034C20.9293 3.74823 20.9293 3.72421 20.937 3.70209V0.203186C20.9279 0.178194 20.9279 0.150829 20.937 0.125837C20.9466 0.11501 20.9586 0.106516 20.972 0.100998C20.9854 0.0954802 20.9999 0.093083 21.0144 0.0939876H22.0761C22.0987 0.0896837 22.1218 0.0896837 22.1443 0.0939876C22.1717 0.105943 22.1942 0.126792 22.2082 0.153137L23.2562 1.75017V0.203186Z" fill="#7498F4"/>
<path id="Vector_13" d="M29.5898 0.0938642C29.6182 0.0925673 29.646 0.102358 29.6673 0.121164C29.6788 0.131271 29.6876 0.143984 29.6932 0.158235C29.6988 0.172486 29.7008 0.187859 29.6991 0.203063V0.981102C29.6972 1.01027 29.6877 1.03845 29.6719 1.06301C29.6627 1.07614 29.6504 1.08678 29.6361 1.09393C29.6217 1.10108 29.6058 1.10453 29.5898 1.10395H28.191V1.89109H29.1615C29.1897 1.89106 29.2171 1.9007 29.2389 1.91839C29.2495 1.92925 29.2577 1.94208 29.2631 1.95614C29.2686 1.97021 29.2713 1.98521 29.2709 2.00029V2.69644C29.2684 2.72623 29.2573 2.75468 29.2389 2.77833C29.2305 2.79111 29.219 2.80156 29.2055 2.80872C29.1919 2.81587 29.1768 2.81951 29.1615 2.81928H28.191V3.69742C28.191 3.77022 28.15 3.80662 28.0725 3.80662H27.0656C27.0533 3.80475 27.0415 3.80009 27.0312 3.79299C27.0209 3.78589 27.0124 3.77655 27.0064 3.76567C27.0018 3.74468 27.0018 3.72296 27.0064 3.70197V0.203063C27.0064 0.157564 27.0064 0.125714 27.0336 0.116614C27.0547 0.112196 27.0764 0.112196 27.0974 0.116614L29.5898 0.0938642Z" fill="#7498F4"/>
<path id="Vector_14" d="M29.9932 1.95166C29.9918 1.69436 30.0463 1.4398 30.1527 1.20547C30.357 0.741683 30.7347 0.375959 31.2052 0.186281C31.4434 0.0871636 31.699 0.0361328 31.957 0.0361328C32.215 0.0361328 32.4706 0.0871636 32.7088 0.186281C32.9416 0.283613 33.1546 0.422366 33.3376 0.595776C33.5175 0.770326 33.6628 0.977171 33.7659 1.20547C33.8707 1.44015 33.9236 1.69469 33.9208 1.95166C33.9232 2.20712 33.8704 2.4601 33.7659 2.6933C33.6638 2.92088 33.5183 3.12642 33.3376 3.29844C33.1546 3.47185 32.9416 3.61061 32.7088 3.70794C32.4706 3.80706 32.215 3.85808 31.957 3.85808C31.699 3.85808 31.4434 3.80706 31.2052 3.70794C30.9713 3.61279 30.7579 3.47378 30.5764 3.29844C30.3971 3.12623 30.2531 2.92066 30.1527 2.6933C30.0467 2.46041 29.9923 2.20745 29.9932 1.95166ZM31.1869 1.95166C31.1852 2.05528 31.2071 2.15794 31.2507 2.25196C31.2902 2.34163 31.3458 2.42336 31.4148 2.4931C31.4862 2.56109 31.5696 2.61511 31.6608 2.65235C31.8552 2.73102 32.0726 2.73102 32.2669 2.65235C32.3593 2.61728 32.4431 2.56301 32.5129 2.4931C32.5845 2.42468 32.6419 2.34271 32.6815 2.25196C32.7231 2.15727 32.7448 2.05507 32.7453 1.95166C32.7452 1.84821 32.7235 1.74593 32.6815 1.65137C32.6419 1.56193 32.5845 1.48145 32.5129 1.41476C32.4421 1.3449 32.3586 1.28928 32.2669 1.25096C32.0726 1.1723 31.8552 1.1723 31.6608 1.25096C31.5704 1.29183 31.4874 1.34716 31.4148 1.41476C31.346 1.4829 31.2904 1.5631 31.2507 1.65137C31.2079 1.74245 31.1862 1.84196 31.1869 1.94256V1.95166Z" fill="#7498F4"/>
<path id="Vector_15" d="M34.6088 0.204022C34.5998 0.179031 34.5998 0.151665 34.6088 0.126674C34.6194 0.114509 34.6329 0.10521 34.6481 0.0996416C34.6632 0.0940727 34.6795 0.0924157 34.6954 0.0948241H36.3677C36.5335 0.0930785 36.6979 0.12561 36.8507 0.190373C36.9927 0.255297 37.1222 0.344619 37.2333 0.454269C37.3444 0.564096 37.4313 0.695808 37.4886 0.841015C37.5496 0.984895 37.5807 1.13972 37.5796 1.29601C37.5824 1.51218 37.529 1.72537 37.4247 1.9148C37.3257 2.1023 37.1777 2.25953 36.9964 2.3698L37.7118 3.69838C37.7186 3.71014 37.7222 3.72348 37.7222 3.73706C37.7222 3.75063 37.7186 3.76397 37.7118 3.77573C37.7027 3.78595 37.6914 3.79409 37.6789 3.79958C37.6662 3.80508 37.6526 3.8078 37.6389 3.80758H36.6092C36.5756 3.80807 36.5429 3.7977 36.5158 3.77801C36.4886 3.75832 36.4687 3.73038 36.4588 3.69838L35.9257 2.63825H35.7845V3.69838C35.7845 3.77118 35.7434 3.80758 35.6614 3.80758H34.6954C34.6825 3.80647 34.6698 3.80273 34.6583 3.79655C34.6468 3.79038 34.6366 3.78191 34.6285 3.77168C34.6204 3.76145 34.6145 3.74967 34.6111 3.73706C34.6077 3.72445 34.607 3.71129 34.6088 3.69838V0.204022ZM36.4314 1.33696C36.4311 1.26079 36.4018 1.1876 36.3494 1.13221C36.3261 1.10289 36.2962 1.0794 36.2622 1.06361C36.2282 1.04781 36.191 1.04014 36.1535 1.04121H35.7662V1.6327H36.1535C36.1907 1.63247 36.2276 1.62422 36.2614 1.60852C36.2952 1.59282 36.3252 1.57003 36.3494 1.5417C36.4018 1.48631 36.4311 1.41312 36.4314 1.33696Z" fill="#7498F4"/>
<path id="Vector_16" d="M40.0347 0.202989C40.0363 0.173454 40.0494 0.145709 40.0712 0.12564C40.092 0.105584 40.1196 0.0941969 40.1486 0.0937907H41.8208C41.9867 0.0924347 42.151 0.12495 42.3038 0.189339C42.4458 0.254264 42.5754 0.343585 42.6865 0.453236C42.7961 0.564254 42.8828 0.695649 42.9417 0.839981C43.0007 0.984489 43.0317 1.13891 43.0328 1.29498C43.0356 1.51114 42.9821 1.72434 42.8779 1.91377C42.7789 2.10126 42.6309 2.25849 42.4496 2.36876L43.165 3.69735C43.1717 3.70911 43.1753 3.72245 43.1753 3.73602C43.1753 3.7496 43.1717 3.76294 43.165 3.77469C43.1558 3.78492 43.1445 3.79305 43.132 3.79854C43.1194 3.80405 43.1057 3.80677 43.092 3.80655H42.0623C42.0263 3.8072 41.991 3.79602 41.9621 3.77469C41.93 3.75883 41.9055 3.73107 41.8937 3.69735L41.3789 2.63721H41.233V3.69735C41.233 3.77014 41.1966 3.80655 41.1146 3.80655H40.1486C40.1336 3.8087 40.1181 3.80739 40.1037 3.80273C40.0892 3.79807 40.076 3.79019 40.065 3.77967C40.0541 3.76914 40.0456 3.75626 40.0403 3.742C40.0351 3.72774 40.0331 3.71247 40.0347 3.69735V0.202989ZM41.8937 1.33592C41.895 1.2603 41.8674 1.18702 41.8163 1.13118C41.7929 1.10186 41.763 1.07837 41.729 1.06257C41.695 1.04678 41.6578 1.03911 41.6204 1.04018H41.233V1.63167H41.6204C41.6576 1.63144 41.6944 1.62318 41.7282 1.60748C41.762 1.59178 41.7921 1.569 41.8163 1.54067C41.8674 1.48482 41.895 1.41155 41.8937 1.33592Z" fill="#7498F4"/>
<path id="Vector_17" d="M46.4977 0.0942958C46.5261 0.0929979 46.5538 0.10279 46.5751 0.121595C46.5872 0.131479 46.5967 0.144027 46.6031 0.158243C46.6094 0.17246 46.6123 0.187953 46.6116 0.203494V0.913286C46.611 0.94272 46.6015 0.971271 46.5843 0.995187C46.5744 1.00868 46.5613 1.0195 46.5462 1.02666C46.531 1.03381 46.5144 1.03707 46.4977 1.03614H44.985V1.53208H46.0193C46.0447 1.52532 46.0714 1.52532 46.0967 1.53208C46.1071 1.53908 46.1154 1.54861 46.121 1.55977C46.1266 1.57092 46.1292 1.58332 46.1287 1.59578V2.27826C46.1264 2.29918 46.1167 2.31859 46.1013 2.33286C46.0914 2.34488 46.0788 2.35443 46.0646 2.36075C46.0504 2.36706 46.0349 2.36998 46.0193 2.36927H44.985V2.86521H46.5523C46.5821 2.8645 46.6111 2.87416 46.6344 2.89251C46.6449 2.90337 46.6532 2.9162 46.6586 2.93026C46.6641 2.94432 46.6667 2.95933 46.6663 2.97441V3.67965C46.665 3.71328 46.6521 3.74544 46.6299 3.77065C46.6177 3.78348 46.6027 3.7934 46.5862 3.79971C46.5696 3.806 46.5518 3.80851 46.5341 3.80705H43.9416C43.9267 3.80938 43.9114 3.80817 43.8971 3.8035C43.8828 3.79884 43.8698 3.79086 43.8591 3.78022C43.8485 3.76957 43.8404 3.75656 43.8358 3.74225C43.8311 3.72794 43.8299 3.71273 43.8322 3.69786V0.203494C43.8314 0.175214 43.8411 0.147636 43.8596 0.126145C43.8697 0.11467 43.8824 0.105789 43.8967 0.100247C43.911 0.0947047 43.9264 0.0926638 43.9416 0.0942958H46.4977Z" fill="#7498F4"/>
<path id="Vector_18" d="M47.913 2.42642L48.0997 2.56746C48.1565 2.61333 48.2158 2.65587 48.2775 2.69487C48.3305 2.73451 48.3888 2.76667 48.4506 2.79042C48.5073 2.81199 48.5676 2.82279 48.6283 2.82226C48.7923 2.82226 48.8744 2.75856 48.8744 2.63117C48.8675 2.5737 48.8379 2.52133 48.7924 2.48557C48.6975 2.41601 48.5887 2.36788 48.4734 2.34451C48.2672 2.29355 48.0682 2.21713 47.881 2.11702C47.7438 2.04152 47.6217 1.94124 47.5211 1.82128C47.4384 1.71728 47.3765 1.59833 47.3388 1.47093C47.3056 1.34004 47.2888 1.20555 47.2887 1.07053C47.2855 0.913073 47.3198 0.757107 47.389 0.615539C47.4557 0.482923 47.5524 0.367645 47.6715 0.278843C47.8067 0.175452 47.9617 0.101095 48.1271 0.0604461C48.3086 0.0144213 48.4958 -0.00549591 48.683 0.00129688C48.9206 -0.00122118 49.1573 0.0325346 49.3846 0.101395C49.618 0.178375 49.828 0.312974 49.9952 0.49269C50.0047 0.513407 50.0095 0.535903 50.0095 0.558666C50.0095 0.581427 50.0047 0.603923 49.9952 0.62464C49.9809 0.674402 49.9542 0.719771 49.9178 0.756588L49.4986 1.23888C49.4852 1.2594 49.4656 1.27524 49.4427 1.2842C49.42 1.29317 49.3948 1.29482 49.371 1.28893C49.3238 1.27176 49.2805 1.24548 49.2434 1.21158C49.1641 1.144 49.075 1.08877 48.9792 1.04778C48.8999 1.00787 48.8127 0.986105 48.724 0.984083C48.6627 0.981997 48.6018 0.994477 48.5463 1.02048C48.5189 1.03287 48.4961 1.05366 48.4814 1.07985C48.4666 1.10605 48.4606 1.13625 48.4643 1.16609C48.4638 1.18537 48.4672 1.20455 48.4743 1.22251C48.4814 1.24049 48.4918 1.25687 48.5053 1.27074C48.5341 1.29959 48.5681 1.32275 48.6055 1.33898C48.6498 1.35912 48.6955 1.37586 48.7422 1.38903L48.8834 1.42543C49.0657 1.48458 49.2297 1.54373 49.3802 1.60288C49.5181 1.65767 49.6472 1.73282 49.7629 1.82583C49.8722 1.91193 49.9596 2.02262 50.018 2.14887C50.0822 2.30139 50.1133 2.46577 50.1091 2.63117C50.1114 2.80813 50.0711 2.98305 49.9919 3.14135C49.9126 3.29964 49.7966 3.43672 49.6535 3.54115C49.5098 3.65118 49.3456 3.73161 49.1705 3.77775C48.9735 3.83386 48.7694 3.86144 48.5645 3.85965C48.4354 3.85868 48.3068 3.84187 48.1817 3.8096C48.051 3.7785 47.9241 3.73271 47.8036 3.6731C47.6823 3.61883 47.5664 3.55333 47.4573 3.47745C47.3557 3.40572 47.2584 3.32825 47.1657 3.24541C47.1111 3.18626 47.0791 3.14531 47.0791 3.12256C47.0791 3.09981 47.0791 3.05886 47.1383 3.01336L47.6441 2.43097C47.673 2.40289 47.7094 2.3839 47.7489 2.37637C47.8063 2.38254 47.862 2.39952 47.913 2.42642Z" fill="#7498F4"/>
<path id="Vector_19" d="M53.5711 0.0942958C53.5995 0.0929979 53.6273 0.10279 53.6486 0.121595C53.6606 0.131479 53.6702 0.144027 53.6765 0.158243C53.6829 0.17246 53.6858 0.187953 53.685 0.203494V0.913286C53.6844 0.94272 53.6749 0.971271 53.6577 0.995187C53.6478 1.00868 53.6347 1.0195 53.6196 1.02666C53.6045 1.03381 53.5878 1.03707 53.5711 1.03614H52.0584V1.53208H53.0927C53.118 1.52532 53.1448 1.52532 53.1702 1.53208C53.1805 1.53908 53.1888 1.54861 53.1945 1.55977C53.2001 1.57092 53.2027 1.58332 53.202 1.59578V2.27826C53.1999 2.29918 53.1902 2.31859 53.1747 2.33286C53.1648 2.34488 53.1522 2.35443 53.138 2.36075C53.1238 2.36706 53.1082 2.36998 53.0927 2.36927H52.0584V2.86521H53.6258C53.6555 2.8645 53.6845 2.87416 53.7078 2.89251C53.7183 2.90337 53.7265 2.9162 53.732 2.93026C53.7375 2.94432 53.7401 2.95933 53.7398 2.97441V3.67965C53.7384 3.71328 53.7256 3.74544 53.7032 3.77065C53.6911 3.78348 53.6761 3.7934 53.6596 3.79971C53.643 3.806 53.6252 3.80851 53.6076 3.80705H51.0105C50.9955 3.80938 50.9803 3.80817 50.966 3.8035C50.9516 3.79884 50.9386 3.79086 50.928 3.78022C50.9173 3.76957 50.9093 3.75656 50.9046 3.74225C50.8999 3.72794 50.8987 3.71273 50.9011 3.69786V0.203494C50.9002 0.175214 50.9099 0.147636 50.9284 0.126145C50.9385 0.11467 50.9512 0.105789 50.9655 0.100247C50.9798 0.0947047 50.9952 0.0926638 51.0105 0.0942958H53.5711Z" fill="#7498F4"/>
<path id="Vector_20" d="M57.93 3.6973C57.93 3.7701 57.93 3.8065 57.8662 3.8065H56.9048C56.8686 3.80878 56.8327 3.79939 56.8024 3.77973C56.772 3.76006 56.7488 3.73117 56.7362 3.6973L56.6041 3.26506H55.5287L55.3966 3.6973C55.384 3.73117 55.3607 3.76006 55.3303 3.77973C55.3 3.79939 55.2641 3.80878 55.228 3.8065H54.2711C54.2013 3.8065 54.1785 3.7701 54.2028 3.6973L55.4467 0.202948C55.4539 0.174544 55.4698 0.149099 55.4923 0.130149C55.5017 0.118748 55.5135 0.109571 55.5269 0.103277C55.5403 0.0969836 55.5549 0.0937298 55.5697 0.0937501H56.563C56.5778 0.0937298 56.5925 0.0969836 56.6058 0.103277C56.6192 0.109571 56.6311 0.118748 56.6405 0.130149C56.6629 0.149099 56.6788 0.174544 56.6861 0.202948L57.93 3.6973ZM55.8294 2.33232H56.2851L56.0481 1.38594L55.8294 2.33232Z" fill="#7498F4"/>
<path id="Vector_21" d="M58.5855 0.203181C58.5847 0.1749 58.5944 0.147323 58.6129 0.125832C58.6243 0.114788 58.6378 0.106249 58.6528 0.100763C58.6676 0.0952784 58.6835 0.0929688 58.6994 0.0939824H60.3716C60.5374 0.0926273 60.7018 0.125143 60.8546 0.189532C60.9966 0.254457 61.1262 0.343777 61.2373 0.453429C61.3468 0.564447 61.4335 0.695841 61.4925 0.840174C61.5515 0.984683 61.5824 1.1391 61.5836 1.29517C61.5864 1.51134 61.533 1.72452 61.4287 1.91396C61.3297 2.10146 61.1817 2.25869 61.0003 2.36896L61.7158 3.69754C61.7226 3.7093 61.7261 3.72264 61.7261 3.73621C61.7261 3.74979 61.7226 3.76313 61.7158 3.77489C61.7066 3.7851 61.6954 3.79325 61.6828 3.79874C61.6702 3.80423 61.6565 3.80696 61.6428 3.80674H60.6268C60.5908 3.8074 60.5556 3.79621 60.5265 3.77489C60.5014 3.75569 60.4836 3.72834 60.4764 3.69754L59.9433 2.6374H59.7975V3.69754C59.7975 3.77034 59.761 3.80674 59.679 3.80674H58.7131C58.698 3.80888 58.6827 3.80758 58.6682 3.80293C58.6537 3.79827 58.6404 3.79038 58.6295 3.77985C58.6185 3.76933 58.6101 3.75645 58.6048 3.74219C58.5995 3.72793 58.5976 3.71265 58.5991 3.69754L58.5855 0.203181ZM60.4354 1.33612C60.4367 1.26049 60.409 1.18722 60.358 1.13137C60.3346 1.10205 60.3047 1.07856 60.2707 1.06277C60.2367 1.04697 60.1995 1.0393 60.162 1.04037H59.7748V1.63186H60.162C60.1993 1.63163 60.2361 1.62338 60.2699 1.60768C60.3037 1.59198 60.3337 1.56918 60.358 1.54086C60.409 1.48502 60.4367 1.41174 60.4354 1.33612Z" fill="#7498F4"/>
<path id="Vector_22" d="M65.4843 0.573419C65.5095 0.595339 65.5284 0.623623 65.539 0.655318C65.5428 0.67155 65.5422 0.688488 65.5375 0.704451C65.5326 0.720414 65.5237 0.734847 65.5117 0.746317L64.7963 1.40151C64.7644 1.43335 64.7325 1.43335 64.6915 1.40151C64.6233 1.3268 64.5392 1.26838 64.4454 1.23058C64.3515 1.19277 64.2503 1.17655 64.1493 1.18311C64.0475 1.1821 63.9467 1.20224 63.8531 1.24226C63.7633 1.2861 63.6804 1.34282 63.6071 1.41061C63.5382 1.48306 63.4813 1.56599 63.4385 1.65631C63.3983 1.7465 63.3781 1.84426 63.3793 1.94295C63.3792 2.03861 63.3993 2.13319 63.4385 2.2205C63.4794 2.31077 63.5348 2.39376 63.6025 2.46619C63.6703 2.53766 63.7507 2.59624 63.8394 2.6391C63.9342 2.68104 64.0366 2.70273 64.1402 2.70279C64.2452 2.70232 64.3491 2.68065 64.4455 2.6391C64.5408 2.59819 64.6274 2.53951 64.7006 2.46619C64.7149 2.45309 64.7336 2.44581 64.753 2.44581C64.7724 2.44581 64.7911 2.45309 64.8054 2.46619L65.5162 3.15324C65.5283 3.16471 65.5372 3.17914 65.542 3.1951C65.5468 3.21106 65.5474 3.228 65.5435 3.24424C65.5404 3.25847 65.5343 3.27189 65.5257 3.28364C65.5171 3.29539 65.5061 3.30523 65.4935 3.31248C65.3167 3.49383 65.1042 3.63639 64.8692 3.73108C64.6528 3.81532 64.4226 3.85853 64.1902 3.85848C63.9315 3.8601 63.6747 3.81223 63.4339 3.71743C63.1979 3.62947 62.9813 3.49657 62.796 3.32613C62.6052 3.15687 62.4502 2.9511 62.3404 2.72099C62.2296 2.47828 62.1737 2.21422 62.1764 1.9475C62.1761 1.70299 62.2273 1.46116 62.3267 1.23771C62.4233 1.00915 62.5642 0.801927 62.7414 0.628018C62.9196 0.447234 63.1297 0.300718 63.361 0.195774C63.6005 0.0894669 63.8599 0.0351856 64.1219 0.0365257C64.2749 0.0335696 64.4276 0.0473008 64.5776 0.0774752C64.698 0.103712 64.8155 0.141814 64.9285 0.191224C65.0317 0.23796 65.1295 0.295945 65.22 0.364122C65.3066 0.427821 65.3977 0.50062 65.4843 0.573419Z" fill="#7498F4"/>
<path id="Vector_23" d="M68.4157 0.201403C68.4151 0.186976 68.4177 0.172594 68.4232 0.159243C68.4287 0.145891 68.437 0.133888 68.4476 0.124055C68.4578 0.11258 68.4705 0.103698 68.4848 0.0981562C68.499 0.092614 68.5144 0.0905731 68.5296 0.0922051H69.4956C69.5255 0.0844993 69.5568 0.0844993 69.5867 0.0922051C69.5867 0.0922051 69.6186 0.128605 69.6186 0.174104V3.67756C69.6202 3.69277 69.6181 3.70814 69.6126 3.72239C69.6071 3.73664 69.5981 3.74935 69.5867 3.75946C69.5664 3.77683 69.5406 3.7865 69.5138 3.78675H68.5296C68.5146 3.78891 68.4992 3.7876 68.4847 3.78295C68.4702 3.77829 68.457 3.7704 68.446 3.75988C68.435 3.74935 68.4265 3.73647 68.4213 3.72221C68.4161 3.70795 68.4141 3.69267 68.4157 3.67756V2.36717H67.3586V3.69576C67.3586 3.76856 67.3176 3.80496 67.2356 3.80496H66.2696C66.2013 3.80496 66.1648 3.77766 66.1558 3.71851V0.201403C66.1558 0.128605 66.2013 0.0922051 66.2696 0.0922051H67.2356C67.265 0.0928162 67.2936 0.102334 67.3176 0.119504C67.3302 0.12916 67.3404 0.141549 67.3475 0.155738C67.3546 0.169926 67.3585 0.185541 67.3586 0.201403V1.27519H68.4157V0.201403Z" fill="#7498F4"/>
</g>
</g>
</g>
</g>
<defs>
<clipPath id="clip0_2318_49723">
<rect width="71" height="36" fill="white"/>
</clipPath>
</defs>
</svg>
