<svg width="71" height="35" viewBox="0 0 71 35" fill="none" xmlns="http://www.w3.org/2000/svg">
<g id="VBCC High Temperature Instruments" clip-path="url(#clip0_2280_63695)">
<g id="Layer 2">
<g id="Layer 1">
<path id="Vector" d="M14.8558 23.4562L8.66001 5.19205C8.60139 4.92704 8.45226 4.69156 8.23898 4.52719C8.0257 4.36282 7.76197 4.28014 7.49439 4.29375L1.05589 4.24902C0.438144 4.24902 0.250615 4.54721 0.493299 5.14359L11.2744 33.6542C11.3588 33.9206 11.5265 34.152 11.752 34.3134C11.9775 34.4747 12.2487 34.5574 12.5246 34.5488H14.8558V23.4562Z" fill="#0C2242"/>
<path id="Vector_2" d="M15.5352 33.6956V5.21847C15.5352 4.596 15.833 4.28291 16.4213 4.28291H29.177C30.3061 4.27528 31.4253 4.49694 32.4686 4.93482C33.5119 5.37269 34.4581 6.01791 35.2515 6.83243C36.0278 7.64106 36.6509 8.58736 37.09 9.62423C37.5532 10.7036 37.7899 11.8689 37.7849 13.046C37.8285 14.9506 37.1853 16.806 35.9758 18.2643C36.9244 19.182 37.6929 20.2734 38.2409 21.481C38.816 22.7109 39.1113 24.056 39.105 25.4171C39.1076 26.6224 38.8686 27.8157 38.4027 28.9245C37.4991 31.0994 35.8179 32.8476 33.6961 33.8186C32.642 34.31 31.4955 34.5643 30.3353 34.5641H16.4213C15.833 34.5491 15.5352 34.2659 15.5352 33.6956ZM30.0595 13.2621C30.0655 12.8724 29.9941 12.4854 29.8494 12.1242C29.7047 11.763 29.4898 11.4351 29.2174 11.1599C28.9343 10.87 28.5951 10.6425 28.2212 10.4917C27.8472 10.341 27.4465 10.2703 27.0443 10.284H23.3415V16.1993H26.9634C27.7916 16.2395 28.6019 15.9461 29.2174 15.383C29.4971 15.1095 29.7167 14.7792 29.8618 14.4137C30.0069 14.0482 30.0742 13.6558 30.0595 13.2621ZM31.1626 25.0891C31.157 24.6647 31.0695 24.2456 30.9052 23.8553C30.7525 23.4607 30.5349 23.0952 30.2617 22.7744C29.9898 22.4586 29.6634 22.1959 29.2983 21.9991C28.9133 21.793 28.4835 21.6879 28.0481 21.6934H23.3415V28.5145H28.0481C28.471 28.5196 28.8895 28.4269 29.2718 28.2435C29.6541 28.06 29.9901 27.7907 30.2544 27.456C30.8265 26.8036 31.1442 25.962 31.1479 25.0891H31.1626Z" fill="#F26A26"/>
<path id="Vector_3" d="M50.096 30.4116C49.1939 29.4873 48.4084 28.4531 47.7574 27.3328C47.2883 27.4422 46.8084 27.4972 46.327 27.4968C45.285 27.5087 44.2515 27.3049 43.2899 26.898C42.3282 26.491 41.4586 25.8894 40.7343 25.1299C40.0284 24.3764 39.475 23.49 39.1053 22.5208C38.7105 21.5012 38.512 20.4143 38.5207 19.319C38.5108 18.2308 38.7093 17.151 39.1053 16.1395C39.4767 15.1889 40.0304 14.3223 40.7343 13.59C41.4423 12.875 42.2835 12.3099 43.2089 11.9276C44.1971 11.5076 45.2592 11.2958 46.3307 11.3051C46.7971 11.3063 47.2624 11.3512 47.7206 11.4393C49.1121 9.02919 51.131 7.05365 53.5561 5.72896C52.8024 5.31321 52.0224 4.94838 51.2212 4.63684C49.6557 4.05515 47.9979 3.77085 46.3307 3.79819C42.2426 3.78304 38.3154 5.41163 35.4099 8.32694C34.0053 9.74207 32.8819 11.4174 32.1006 13.262C31.2848 15.18 30.8716 17.249 30.8871 19.3376C30.8751 21.4263 31.2856 23.4953 32.0932 25.4169C33.6669 29.1839 36.6248 32.1822 40.3408 33.7774C42.2344 34.5945 44.2728 35.0106 46.3307 35C47.9944 35.0272 49.6499 34.7572 51.2212 34.2023C52.0529 33.8973 52.8585 33.5233 53.6297 33.0841C52.3323 32.3684 51.1424 31.4684 50.096 30.4116Z" fill="#0C2242"/>
<path id="Vector_4" d="M65.9952 26.0283C66.2268 25.8368 66.5027 25.7085 66.7968 25.6555C66.9284 25.6495 67.059 25.6813 67.1735 25.7473C67.288 25.8132 67.3817 25.9106 67.444 26.0283L70.7533 30.9223C70.9666 31.2205 71.0475 31.459 70.9923 31.6342C70.8827 31.8816 70.7003 32.0886 70.4702 32.2269C69.3117 33.0582 68.046 33.7242 66.7086 34.2061C65.1344 34.7595 63.4766 35.0282 61.8108 35C59.7504 35.0111 57.7095 34.5951 55.8135 33.7775C52.0974 32.1823 49.1395 29.1839 47.5659 25.417C46.7594 23.495 46.3489 21.4262 46.3598 19.3376C46.3438 17.2498 46.7544 15.1811 47.5659 13.262C49.1526 9.52746 52.1104 6.56521 55.8135 5.00218C57.7123 4.19586 59.7521 3.78637 61.8108 3.79824C63.4767 3.77051 65.1334 4.05482 66.6975 4.63689C68.0531 5.1515 69.343 5.82847 70.5401 6.6534C70.6382 6.70696 70.7225 6.78307 70.7864 6.87564C70.8502 6.9682 70.8918 7.07463 70.9078 7.18642C70.9408 7.36664 70.9137 7.5529 70.8305 7.7157L67.33 12.8147C67.2668 12.9124 67.1797 12.9919 67.0773 13.0454C66.9749 13.099 66.8605 13.1248 66.7453 13.1204C66.4961 13.0964 66.2619 12.9888 66.0798 12.8147C65.4816 12.3109 64.8008 11.9173 64.0685 11.6518C63.3422 11.4117 62.5819 11.2946 61.8181 11.3052C60.7454 11.2949 59.6818 11.5067 58.6926 11.9276C57.7621 12.3182 56.919 12.8952 56.2139 13.6241C55.5087 14.353 54.9561 15.2187 54.5891 16.1694C54.193 17.1809 53.9945 18.2606 54.0044 19.3488C53.9957 20.4442 54.1942 21.531 54.5891 22.5506C54.955 23.5217 55.5089 24.4088 56.218 25.1598C56.9208 25.8988 57.7621 26.4881 58.6926 26.893C59.6774 27.3213 60.7393 27.5371 61.8108 27.5267C62.61 27.5384 63.4032 27.385 64.142 27.0757C64.7946 26.7941 65.4159 26.443 65.9952 26.0283Z" fill="#0C2242"/>
<path id="Vector_5" d="M2.505 0.0448905C2.51753 0.0435642 2.5302 0.0448651 2.54222 0.0487124C2.55424 0.0525597 2.56535 0.0588712 2.57486 0.0672547C2.58414 0.0755342 2.59131 0.0859488 2.59579 0.0976236C2.60027 0.109298 2.60192 0.121892 2.6006 0.134347V0.790364C2.60048 0.815181 2.59131 0.839075 2.57486 0.857457C2.56881 0.868874 2.55977 0.878387 2.54875 0.88496C2.53773 0.891532 2.52514 0.894912 2.51235 0.894731H1.77694V2.98206C1.77694 3.0417 1.74385 3.07151 1.68134 3.07151H0.898131C0.886112 3.07343 0.873817 3.07243 0.86225 3.06861C0.850682 3.06479 0.840168 3.05825 0.831566 3.04953C0.822963 3.04081 0.816515 3.03016 0.812747 3.01843C0.808978 3.0067 0.807997 2.99424 0.809882 2.98206V0.894731H0.0744732C0.0303487 0.894731 0.000932405 0.861184 0.000932405 0.790364V0.134347C-0.000952488 0.122164 2.92101e-05 0.109701 0.00379749 0.0979752C0.00756577 0.0862493 0.014014 0.0755918 0.0226166 0.0668715C0.0312192 0.0581511 0.0417328 0.0516146 0.0533004 0.0477948C0.064868 0.0439749 0.0771624 0.0429798 0.0891814 0.0448905H2.505Z" fill="#F26A26"/>
<path id="Vector_6" d="M4.941 0.134252C4.94098 0.111192 4.94876 0.0888228 4.96306 0.0708871C4.97184 0.0623062 4.98221 0.0555803 4.99357 0.0511009C5.00493 0.0466215 5.01706 0.0444781 5.02925 0.0447955H5.81246C5.83533 0.0384536 5.85945 0.0384536 5.88232 0.0447955C5.89281 0.0521858 5.90109 0.0623473 5.90628 0.0741759C5.91146 0.0860045 5.91335 0.0990477 5.91174 0.111888V2.98196C5.91306 2.99442 5.91141 3.00701 5.90693 3.01869C5.90245 3.03036 5.89527 3.04078 5.886 3.04906C5.86959 3.06328 5.84876 3.0712 5.82717 3.07142H5.02925C5.01723 3.07333 5.00494 3.07234 4.99337 3.06852C4.9818 3.0647 4.97129 3.05816 4.96268 3.04944C4.95408 3.04072 4.94763 3.03006 4.94387 3.01833C4.9401 3.00661 4.93912 2.99415 4.941 2.98196V1.91221H4.08793V2.98196C4.08793 3.0416 4.05483 3.07142 3.98497 3.07142H3.20544C3.14906 3.07142 3.11964 3.04906 3.11719 3.00433V0.134252C3.11719 0.0746145 3.1466 0.0447955 3.20544 0.0447955H3.98497C4.00787 0.0471074 4.02961 0.056179 4.04748 0.0708871C4.0578 0.0777782 4.06625 0.0871966 4.07203 0.098272C4.07782 0.109347 4.08075 0.121722 4.08057 0.134252V1.01764H4.93365L4.941 0.134252Z" fill="#F26A26"/>
<path id="Vector_7" d="M8.74457 0.0449642C8.75883 0.0419221 8.77361 0.0423636 8.78768 0.0462522C8.80174 0.0501408 8.81469 0.057365 8.82546 0.0673285C8.83037 0.0778125 8.83291 0.0892711 8.83291 0.100875C8.83291 0.112478 8.83037 0.123937 8.82546 0.134421V0.700981C8.82497 0.725092 8.81728 0.748485 8.8034 0.768074C8.79645 0.779525 8.78672 0.78897 8.77512 0.795498C8.76353 0.802027 8.75047 0.805419 8.73721 0.805348H7.52379V1.22281H8.35848C8.38082 1.22141 8.40295 1.22801 8.42099 1.24145C8.42909 1.24742 8.43565 1.25528 8.44013 1.26436C8.44461 1.27344 8.44687 1.28348 8.44673 1.29363V1.86392C8.44491 1.88211 8.43714 1.89917 8.42466 1.91238C8.41589 1.92096 8.40552 1.92768 8.39416 1.93216C8.38279 1.93664 8.37067 1.93879 8.35848 1.93847H7.52379V2.31866H8.78869C8.8116 2.3176 8.83402 2.32562 8.8512 2.34102C8.86047 2.3493 8.86765 2.35972 8.87213 2.37139C8.87661 2.38307 8.87826 2.39566 8.87694 2.40812V2.98213C8.87617 3.00908 8.86717 3.03512 8.8512 3.05668C8.84075 3.06612 8.82852 3.0733 8.81524 3.07779C8.80197 3.08227 8.78793 3.08397 8.77398 3.08277H6.68175C6.66859 3.08535 6.655 3.08442 6.6423 3.08007C6.62961 3.07571 6.61825 3.06808 6.60935 3.05793C6.60045 3.04777 6.5943 3.03545 6.59152 3.02216C6.58874 3.00887 6.58942 2.99507 6.5935 2.98213V0.134421C6.5945 0.110897 6.60361 0.088475 6.61924 0.0710558C6.62801 0.0624749 6.63838 0.055749 6.64974 0.0512696C6.66111 0.0467902 6.67324 0.0446468 6.68542 0.0449642H8.74457Z" fill="#F26A26"/>
<path id="Vector_8" d="M13.0197 0.0448905C13.0425 0.0448654 13.0645 0.0527604 13.0822 0.0672547C13.0907 0.076149 13.0973 0.0866613 13.1017 0.0981797C13.1062 0.109698 13.1083 0.121993 13.108 0.134347V0.790364C13.1078 0.815181 13.0987 0.839075 13.0822 0.857457C13.0762 0.868874 13.0671 0.878387 13.0561 0.88496C13.0451 0.891532 13.0325 0.894912 13.0197 0.894731H12.2843V2.98206C12.2843 3.0417 12.2512 3.07151 12.185 3.07151H11.3981C11.3873 3.07111 11.3767 3.06839 11.367 3.06355C11.3572 3.05871 11.3486 3.05184 11.3417 3.0434C11.3348 3.03497 11.3296 3.02514 11.3267 3.01458C11.3238 3.00401 11.323 2.99293 11.3246 2.98206V0.894731H10.5892C10.5303 0.894731 10.5009 0.861184 10.5009 0.790364V0.134347C10.499 0.122164 10.5 0.109701 10.5038 0.0979752C10.5076 0.0862493 10.514 0.0755918 10.5226 0.0668715C10.5312 0.0581511 10.5417 0.0516146 10.5533 0.0477948C10.5649 0.0439749 10.5772 0.0429798 10.5892 0.0448905H13.0197Z" fill="#F26A26"/>
<path id="Vector_9" d="M15.8936 2.98209C15.9132 3.04173 15.8948 3.07155 15.8385 3.07155H15.0773C15.0464 3.07601 15.0149 3.06956 14.9881 3.05327C14.9613 3.03698 14.9409 3.01185 14.9302 2.98209L14.8199 2.63172H13.9742L13.8639 2.98209C13.8544 3.00953 13.8363 3.03309 13.8124 3.04922C13.7886 3.06536 13.7602 3.07319 13.7315 3.07155H12.9593C12.8711 3.08646 12.8711 3.05664 12.8711 2.98209L13.886 0.134379C13.8932 0.110838 13.9073 0.0900587 13.9264 0.0747408C13.9389 0.0599927 13.9556 0.0495669 13.9742 0.0449219H14.7721C14.796 0.0462447 14.8184 0.0569405 14.8346 0.0747408C14.8537 0.0900587 14.8678 0.110838 14.8751 0.134379L15.8936 2.98209ZM14.1985 1.86388H14.5662L14.3897 1.1184L14.1985 1.86388Z" fill="#F26A26"/>
<path id="Vector_10" d="M16.3637 2.98212V0.134409C16.365 0.110953 16.3741 0.0886273 16.3894 0.0710442C16.3982 0.0624633 16.4086 0.0557374 16.4199 0.051258C16.4313 0.0467786 16.4434 0.0446352 16.4556 0.0449526H17.2425C17.267 0.0450801 17.2906 0.0543723 17.3087 0.0710442C17.32 0.0771833 17.3293 0.0863383 17.3358 0.0975116C17.3423 0.108685 17.3456 0.121448 17.3455 0.134409V2.98212C17.3455 3.04176 17.3124 3.07158 17.2425 3.07158H16.4556C16.4435 3.07334 16.4311 3.07227 16.4194 3.06845C16.4077 3.06464 16.397 3.05818 16.3882 3.04955C16.3793 3.04093 16.3725 3.03038 16.3683 3.0187C16.364 3.00701 16.3625 2.9945 16.3637 2.98212Z" fill="#F26A26"/>
<path id="Vector_11" d="M20.2253 2.21428C20.248 2.21426 20.2701 2.22215 20.2878 2.23665C20.297 2.24493 20.3042 2.25534 20.3087 2.26701C20.3132 2.27869 20.3148 2.29128 20.3135 2.30374V2.98212C20.3134 3.00694 20.3042 3.03083 20.2878 3.04921C20.2804 3.05876 20.2708 3.06643 20.26 3.0716C20.2491 3.07678 20.2373 3.07932 20.2253 3.07903H18.1183C18.1048 3.08381 18.0903 3.0847 18.0764 3.08161C18.0624 3.07852 18.0496 3.07157 18.0393 3.06152C18.029 3.05148 18.0217 3.03874 18.0181 3.02472C18.0145 3.01071 18.0148 2.99596 18.019 2.98212V0.134409C18.0181 0.122867 18.0196 0.111253 18.0234 0.100331C18.0272 0.0894091 18.0332 0.0794278 18.0411 0.0710442C18.0499 0.0624633 18.0602 0.0557374 18.0716 0.051258C18.083 0.0467786 18.0951 0.0446352 18.1073 0.0449526H18.8427C18.8672 0.0450801 18.8907 0.0543723 18.9089 0.0710442C18.9188 0.0781154 18.9267 0.0876744 18.9319 0.0987831C18.937 0.109892 18.9392 0.122169 18.9383 0.134409V2.21428H20.2253Z" fill="#F26A26"/>
<path id="Vector_12" d="M20.5625 1.56922C20.5623 1.35853 20.6062 1.15019 20.6912 0.957934C20.8561 0.577995 21.1609 0.278389 21.5406 0.123003C21.7328 0.0418051 21.939 0 22.1473 0C22.3556 0 22.5618 0.0418051 22.754 0.123003C22.9418 0.202739 23.1138 0.316407 23.2614 0.458466C23.4066 0.60146 23.5239 0.770907 23.6071 0.957934C23.6909 1.15047 23.7335 1.3588 23.7321 1.56922C23.7335 1.77965 23.6909 1.98797 23.6071 2.18051C23.5238 2.36639 23.4065 2.5346 23.2614 2.67625C23.1136 2.81718 22.9416 2.92959 22.754 3.00799C22.5618 3.08919 22.3556 3.13099 22.1473 3.13099C21.939 3.13099 21.7328 3.08919 21.5406 3.00799C21.1616 2.85538 20.8567 2.55833 20.6912 2.18051C20.6062 1.98825 20.5623 1.77991 20.5625 1.56922ZM21.5259 1.56922C21.5237 1.65419 21.5414 1.73847 21.5774 1.81523C21.6084 1.88917 21.6534 1.95627 21.7097 2.01278C21.7671 2.0696 21.8345 2.1151 21.9083 2.14697C22.066 2.20669 22.2397 2.20669 22.3973 2.14697C22.4721 2.11694 22.5398 2.07121 22.5959 2.01278C22.6545 1.95743 22.7009 1.89009 22.732 1.81523C22.7659 1.73845 22.7835 1.65524 22.7835 1.57109C22.7835 1.48693 22.7659 1.40373 22.732 1.32694C22.7023 1.24807 22.6558 1.1768 22.5959 1.11821C22.5388 1.06097 22.4714 1.01541 22.3973 0.984026C22.2405 0.919581 22.0651 0.919581 21.9083 0.984026C21.8301 1.01603 21.758 1.06142 21.695 1.11821C21.6387 1.17472 21.5937 1.24182 21.5627 1.31576C21.5316 1.39371 21.519 1.47798 21.5259 1.56177V1.56922Z" fill="#F26A26"/>
<path id="Vector_13" d="M24.2148 0.133956C24.2148 0.110896 24.2226 0.0885268 24.2369 0.0705911C24.256 0.0530362 24.281 0.0436804 24.3068 0.0444995H25.6562C25.7905 0.0428875 25.9235 0.0708671 26.046 0.126502C26.1613 0.176968 26.266 0.249052 26.3549 0.338962C26.4417 0.431189 26.5115 0.538509 26.5608 0.655788C26.6081 0.774274 26.6331 0.900709 26.6343 1.02852C26.6376 1.2062 26.5931 1.38142 26.5056 1.53545C26.4265 1.6896 26.3069 1.81859 26.16 1.90818L26.741 2.98167C26.7472 2.99173 26.7505 3.00335 26.7505 3.01521C26.7505 3.02707 26.7472 3.0387 26.741 3.04876C26.7338 3.05617 26.7252 3.06199 26.7157 3.06584C26.7062 3.06969 26.696 3.07149 26.6858 3.07112H25.8511C25.8221 3.07166 25.7936 3.0625 25.7702 3.04503C25.7533 3.02816 25.7428 3.00568 25.7408 2.98167L25.2996 2.1281H25.1819V2.98167C25.1819 3.0413 25.1488 3.07112 25.0863 3.07112H24.3068C24.2443 3.07112 24.2148 3.0413 24.2148 2.98167V0.133956ZM25.7077 1.06207C25.7065 1.00055 25.6844 0.941332 25.6452 0.89434C25.6257 0.871137 25.6015 0.85247 25.5742 0.839606C25.5469 0.826743 25.5172 0.819985 25.4871 0.819792H25.1746V1.30435H25.4871C25.5172 1.30416 25.5469 1.2974 25.5742 1.28454C25.6015 1.27167 25.6257 1.25301 25.6452 1.2298C25.6855 1.18348 25.7077 1.12383 25.7077 1.06207Z" fill="#F26A26"/>
<path id="Vector_14" d="M31.8792 2.98183C31.8792 3.03402 31.8498 3.05638 31.7947 3.05638H31.0188C30.9489 3.05638 30.9158 3.02656 30.9122 2.96692L30.7982 1.77417L30.5445 2.98183C30.5364 3.0044 30.5252 3.02572 30.5114 3.0452C30.5049 3.0537 30.4965 3.06051 30.4869 3.06505C30.4773 3.06959 30.4668 3.07173 30.4562 3.07129H29.7208C29.7092 3.07153 29.6976 3.06934 29.6869 3.06485C29.6761 3.06036 29.6664 3.05367 29.6583 3.0452C29.6454 3.02686 29.6401 3.00409 29.6436 2.98183L29.3825 1.79653L29.2759 2.98183C29.2759 3.04147 29.2391 3.07129 29.1729 3.07129H28.3971C28.3382 3.07129 28.3125 3.0452 28.3125 2.99302V2.98183L28.5883 0.134124C28.5927 0.110839 28.6028 0.0890513 28.6177 0.0707585C28.6352 0.0554191 28.6571 0.0462616 28.6802 0.0446669H29.6215C29.6487 0.0436268 29.6755 0.0518817 29.6975 0.0681055C29.7195 0.0843293 29.7355 0.10758 29.7429 0.134124L30.0848 1.56543L30.4378 0.134124C30.4446 0.107228 30.4605 0.0835767 30.4826 0.0672469C30.5048 0.0509171 30.5318 0.0429316 30.5592 0.0446669H31.5005C31.5261 0.0445726 31.5509 0.0538347 31.5704 0.0707585C31.5944 0.085041 31.6126 0.107493 31.6218 0.134124L31.8792 2.98183Z" fill="#F26A26"/>
<path id="Vector_15" d="M35.2107 2.98209C35.2107 3.04173 35.2107 3.07155 35.1592 3.07155H34.3834C34.3542 3.07341 34.3253 3.06572 34.3008 3.04961C34.2763 3.0335 34.2575 3.00983 34.2473 2.98209L34.1407 2.63172H33.2729L33.1663 2.98209C33.1561 3.00983 33.1373 3.0335 33.1128 3.04961C33.0883 3.06572 33.0594 3.07341 33.0302 3.07155H32.2581C32.2017 3.07155 32.1833 3.04173 32.2029 2.98209L33.2067 0.134379C33.2126 0.111109 33.2254 0.0902643 33.2435 0.0747408C33.2602 0.0575358 33.2823 0.0469551 33.306 0.0449219H34.1076C34.1313 0.0469551 34.1535 0.0575358 34.1701 0.0747408C34.1882 0.0902643 34.201 0.111109 34.2069 0.134379L35.2107 2.98209ZM33.5156 1.86388H33.8833L33.7068 1.1184L33.5156 1.86388Z" fill="#F26A26"/>
<path id="Vector_16" d="M35.6886 0.134409C35.6886 0.111349 35.6964 0.0889799 35.7107 0.0710442C35.7195 0.0624633 35.7298 0.0557374 35.7412 0.051258C35.7526 0.0467786 35.7647 0.0446352 35.7769 0.0449526H36.8028C37.008 0.0447707 37.2113 0.0839775 37.4021 0.160501C37.5843 0.235565 37.7504 0.345687 37.8912 0.484782C38.0315 0.622944 38.1439 0.787538 38.2221 0.96934C38.3038 1.15847 38.3452 1.36298 38.3435 1.56945C38.3447 1.7719 38.3052 1.97248 38.2274 2.15896C38.1497 2.34544 38.0353 2.51392 37.8912 2.65411C37.7501 2.79202 37.5841 2.90088 37.4021 2.97467C37.2111 3.05 37.0077 3.08795 36.8028 3.08649H35.7769C35.7633 3.08941 35.7492 3.08858 35.7361 3.08407C35.7229 3.07956 35.7112 3.07155 35.7022 3.06087C35.6932 3.05019 35.6871 3.03724 35.6847 3.02338C35.6824 3.00952 35.6837 2.99527 35.6886 2.98212V0.134409ZM36.7697 2.23665C36.8546 2.23846 36.9389 2.22062 37.016 2.18446C37.092 2.15312 37.1599 2.10469 37.2146 2.04282C37.2735 1.98336 37.3198 1.91233 37.3507 1.83409C37.4145 1.67132 37.4145 1.48994 37.3507 1.32717C37.3189 1.24939 37.2727 1.17852 37.2146 1.11844C37.1577 1.06007 37.0903 1.01327 37.016 0.980522C36.9384 0.946072 36.8545 0.928305 36.7697 0.928339H36.6263V2.23665H36.7697Z" fill="#F26A26"/>
<path id="Vector_17" d="M40.9997 0.0445272C41.0226 0.0434644 41.045 0.0514856 41.0622 0.0668914C41.0719 0.0749883 41.0796 0.0852677 41.0847 0.096914C41.0898 0.10856 41.0922 0.121253 41.0916 0.133984V0.700544C41.0911 0.724655 41.0834 0.748048 41.0695 0.767637C41.0617 0.779142 41.0513 0.788549 41.0391 0.795045C41.027 0.80154 41.0134 0.804927 40.9997 0.804911H39.7789V1.22238H40.6136C40.6359 1.22098 40.658 1.22757 40.6761 1.24101C40.6847 1.24647 40.6917 1.25422 40.6962 1.26343C40.7007 1.27264 40.7027 1.28294 40.7018 1.2932V1.86348C40.7 1.88168 40.6922 1.89873 40.6798 1.91194C40.671 1.92052 40.6606 1.92725 40.6492 1.93173C40.6379 1.9362 40.6258 1.93835 40.6136 1.93803H39.7789V2.31822H41.0438C41.0677 2.31764 41.0911 2.32555 41.11 2.34059C41.1184 2.34948 41.1251 2.35999 41.1295 2.37151C41.1339 2.38303 41.136 2.39532 41.1357 2.40768V2.98169C41.1334 3.00895 41.1232 3.0349 41.1063 3.05624C41.0963 3.06631 41.0841 3.0739 41.0707 3.07842C41.0573 3.08295 41.0431 3.08429 41.0291 3.08233H38.9368C38.9248 3.08424 38.9125 3.08325 38.901 3.07943C38.8894 3.07561 38.8789 3.06907 38.8703 3.06035C38.8617 3.05163 38.8552 3.04097 38.8515 3.02925C38.8477 3.01752 38.8467 3.00506 38.8486 2.99288V0.133984C38.8486 0.110924 38.8564 0.0885545 38.8707 0.0706188C38.8794 0.0620379 38.8898 0.0553119 38.9012 0.0508325C38.9125 0.0463531 38.9246 0.0442098 38.9368 0.0445272H40.9997Z" fill="#F26A26"/>
</g>
</g>
</g>
<defs>
<clipPath id="clip0_2280_63695">
<rect width="71" height="35" fill="white"/>
</clipPath>
</defs>
</svg>
