<svg xmlns="http://www.w3.org/2000/svg" fill="none" viewBox="0 0 1080 1080">
<rect width="1080" height="1080" fill="none"/>
<path d="M254.64 649.714H254.016C253.472 649.714 253.008 649.522 252.624 649.138C252.24 648.754 252.048 648.306 252.048 647.794C252.048 647.25 252.24 646.786 252.624 646.402C253.008 646.018 253.472 645.826 254.016 645.826H254.64H284.928H285.552C286.096 645.826 286.56 646.018 286.944 646.402C287.328 646.786 287.52 647.25 287.52 647.794C287.52 648.306 287.328 648.754 286.944 649.138C286.56 649.522 286.096 649.714 285.552 649.714H284.928H271.728V672.322C271.728 672.674 271.632 673.01 271.44 673.33C271.28 673.618 271.056 673.858 270.768 674.05C270.48 674.21 270.16 674.29 269.808 674.29C269.264 674.29 268.8 674.098 268.416 673.714C268.032 673.33 267.84 672.866 267.84 672.322V649.714H254.64ZM294.529 646.402C294.913 646.018 295.377 645.826 295.921 645.826C296.465 645.826 296.913 646.018 297.265 646.402C297.649 646.786 297.841 647.234 297.841 647.746V658.114H324.193V647.746C324.193 647.234 324.385 646.786 324.769 646.402C325.153 646.018 325.617 645.826 326.161 645.826C326.705 645.826 327.169 646.018 327.553 646.402C327.937 646.786 328.129 647.234 328.129 647.746V672.322C328.129 672.866 327.937 673.33 327.553 673.714C327.169 674.098 326.705 674.29 326.161 674.29C325.617 674.29 325.153 674.098 324.769 673.714C324.385 673.33 324.193 672.866 324.193 672.322V662.002H297.841V672.322C297.841 672.866 297.649 673.33 297.265 673.714C296.913 674.098 296.465 674.29 295.921 674.29C295.377 674.29 294.913 674.098 294.529 673.714C294.145 673.33 293.953 672.866 293.953 672.322V647.746C293.953 647.234 294.145 646.786 294.529 646.402ZM336.562 649.714C336.018 649.714 335.554 649.522 335.17 649.138C334.786 648.754 334.594 648.306 334.594 647.794C334.594 647.25 334.786 646.786 335.17 646.402C335.554 646.018 336.018 645.826 336.562 645.826H365.314C365.826 645.826 366.274 646.018 366.658 646.402C367.042 646.786 367.234 647.25 367.234 647.794C367.234 648.306 367.042 648.754 366.658 649.138C366.274 649.522 365.826 649.714 365.314 649.714H336.562ZM336.562 662.002C336.018 662.002 335.554 661.81 335.17 661.426C334.786 661.042 334.594 660.594 334.594 660.082C334.594 659.538 334.786 659.074 335.17 658.69C335.554 658.306 336.018 658.114 336.562 658.114H360.802C361.314 658.114 361.762 658.306 362.146 658.69C362.53 659.074 362.722 659.538 362.722 660.082C362.722 660.594 362.53 661.042 362.146 661.426C361.762 661.81 361.314 662.002 360.802 662.002H336.562ZM336.562 674.29C336.018 674.29 335.554 674.098 335.17 673.714C334.786 673.33 334.594 672.866 334.594 672.322C334.594 671.778 334.786 671.33 335.17 670.978C335.554 670.594 336.018 670.402 336.562 670.402H365.314C365.826 670.402 366.274 670.594 366.658 670.978C367.042 671.33 367.234 671.778 367.234 672.322C367.234 672.866 367.042 673.33 366.658 673.714C366.274 674.098 365.826 674.29 365.314 674.29H336.562ZM401.406 649.714H400.782C400.238 649.714 399.774 649.522 399.39 649.138C399.006 648.754 398.814 648.306 398.814 647.794C398.814 647.25 399.006 646.786 399.39 646.402C399.774 646.018 400.238 645.826 400.782 645.826H401.406H431.694H432.318C432.862 645.826 433.326 646.018 433.71 646.402C434.094 646.786 434.286 647.25 434.286 647.794C434.286 648.306 434.094 648.754 433.71 649.138C433.326 649.522 432.862 649.714 432.318 649.714H431.694H418.494V672.322C418.494 672.674 418.398 673.01 418.206 673.33C418.046 673.618 417.822 673.858 417.534 674.05C417.246 674.21 416.926 674.29 416.574 674.29C416.03 674.29 415.566 674.098 415.182 673.714C414.798 673.33 414.606 672.866 414.606 672.322V649.714H401.406ZM441.247 671.41L452.863 649.906C453.567 648.626 454.511 647.634 455.695 646.93C456.911 646.194 458.255 645.826 459.727 645.826H461.167C462.639 645.826 463.983 646.194 465.199 646.93C466.415 647.634 467.359 648.626 468.031 649.906L479.695 671.41C479.951 671.89 479.999 672.386 479.839 672.898C479.679 673.41 479.359 673.794 478.879 674.05C478.431 674.306 477.935 674.354 477.391 674.194C476.879 674.034 476.495 673.73 476.239 673.282L464.623 651.778C463.887 650.402 462.735 649.714 461.167 649.714H459.727C458.191 649.714 457.039 650.402 456.271 651.778L444.655 673.282C444.399 673.73 444.015 674.034 443.503 674.194C442.991 674.354 442.495 674.306 442.015 674.05C441.535 673.794 441.215 673.41 441.055 672.898C440.927 672.386 440.991 671.89 441.247 671.41ZM489.968 673.714C489.616 674.098 489.168 674.29 488.624 674.29C488.08 674.29 487.616 674.098 487.232 673.714C486.848 673.33 486.656 672.866 486.656 672.322V647.746C486.656 647.234 486.848 646.786 487.232 646.402C487.616 646.018 488.08 645.826 488.624 645.826C489.168 645.826 489.616 646.018 489.968 646.402C490.352 646.786 490.544 647.234 490.544 647.746V672.322C490.544 672.866 490.352 673.33 489.968 673.714ZM497.016 647.794C497.016 647.25 497.208 646.786 497.592 646.402C497.976 646.018 498.44 645.826 498.984 645.826C499.528 645.826 499.992 646.018 500.376 646.402C500.76 646.786 500.952 647.25 500.952 647.794V663.874C500.952 665.634 501.592 667.154 502.872 668.434C504.152 669.714 505.672 670.354 507.432 670.354H511.08L526.2 670.402C526.744 670.402 527.208 670.594 527.592 670.978C527.976 671.362 528.168 671.826 528.168 672.37C528.168 672.882 527.976 673.33 527.592 673.714C527.208 674.098 526.744 674.29 526.2 674.29H511.08H507.432C504.584 674.29 502.136 673.266 500.088 671.218C498.04 669.17 497.016 666.722 497.016 663.874V647.794ZM534.656 656.242C534.656 653.362 535.68 650.914 537.728 648.898C539.776 646.85 542.224 645.826 545.072 645.826H551.072H553.232H555.2H558.224H563.36C566.208 645.826 568.656 646.85 570.704 648.898C572.752 650.914 573.776 653.362 573.776 656.242V663.874C573.776 665.73 573.312 667.474 572.384 669.106C571.456 670.706 570.192 671.97 568.592 672.898C566.992 673.826 565.248 674.29 563.36 674.29H558.416H555.2H553.232H549.152H545.072C542.224 674.29 539.776 673.266 537.728 671.218C535.68 669.17 534.656 666.722 534.656 663.874V656.242ZM545.072 670.402H549.152H553.232H555.2H558.416H563.36C564.544 670.402 565.632 670.114 566.624 669.538C567.616 668.93 568.4 668.13 568.976 667.138C569.584 666.146 569.888 665.058 569.888 663.874V656.242C569.888 654.45 569.248 652.914 567.968 651.634C566.688 650.354 565.152 649.714 563.36 649.714H558.224H555.2H553.232H551.072H545.072C543.888 649.714 542.8 650.018 541.808 650.626C540.816 651.202 540.016 651.986 539.408 652.978C538.832 653.97 538.544 655.058 538.544 656.242V663.874C538.544 665.058 538.832 666.146 539.408 667.138C540.016 668.13 540.816 668.93 541.808 669.538C542.8 670.114 543.888 670.402 545.072 670.402ZM606.57 659.602C607.914 659.602 609.066 659.122 610.026 658.162C610.986 657.17 611.466 656.002 611.466 654.658C611.466 653.314 610.986 652.162 610.026 651.202C609.066 650.21 607.914 649.714 606.57 649.714H582.234C581.69 649.714 581.226 649.522 580.842 649.138C580.458 648.754 580.266 648.306 580.266 647.794C580.266 647.41 580.346 647.074 580.506 646.786C580.698 646.498 580.938 646.274 581.226 646.114C581.546 645.922 581.882 645.826 582.234 645.826H606.57C609.002 645.826 611.082 646.69 612.81 648.418C614.538 650.146 615.402 652.226 615.402 654.658C615.402 657.09 614.538 659.17 612.81 660.898C611.082 662.626 609.002 663.49 606.57 663.49H605.994L607.002 664.978L609.594 668.674C610.362 669.826 611.434 670.402 612.81 670.402H613.434C613.978 670.402 614.442 670.594 614.826 670.978C615.21 671.33 615.402 671.778 615.402 672.322C615.402 672.866 615.21 673.33 614.826 673.714C614.442 674.098 613.978 674.29 613.434 674.29H612.81C611.498 674.29 610.282 674.002 609.162 673.426C608.042 672.818 607.114 671.986 606.378 670.93L604.986 668.914L602.394 665.218C601.626 664.098 600.57 663.522 599.226 663.49H599.178H598.554H593.946H590.73C589.546 663.49 588.442 663.794 587.418 664.402C586.426 664.978 585.642 665.762 585.066 666.754C584.49 667.746 584.202 668.818 584.202 669.97V670.018V671.218V672.322C584.202 672.866 584.01 673.33 583.626 673.714C583.242 674.098 582.778 674.29 582.234 674.29C581.69 674.29 581.226 674.098 580.842 673.714C580.458 673.33 580.266 672.866 580.266 672.322V671.218V670.018C580.266 667.138 581.29 664.69 583.338 662.674C585.386 660.626 587.85 659.602 590.73 659.602H593.946H606.57ZM650.858 658.21V661.042V672.322C650.858 672.866 650.666 673.33 650.282 673.714C649.898 674.098 649.434 674.29 648.89 674.29C648.346 674.29 647.882 674.098 647.498 673.714C647.114 673.33 646.922 672.866 646.922 672.322V662.818V658.21V650.722C646.922 649.57 647.258 648.562 647.93 647.698C648.634 646.802 649.53 646.226 650.618 645.97C651.706 645.682 652.762 645.762 653.786 646.21C654.81 646.658 655.578 647.378 656.09 648.37L659.93 655.426L659.978 655.57L660.746 656.914L663.098 661.282L663.338 661.714L663.914 662.77L664.298 663.49L667.754 669.874C667.914 670.194 668.186 670.354 668.57 670.354C668.986 670.354 669.29 670.194 669.482 669.874L672.938 663.49L673.322 662.77L674.138 661.282L676.49 656.914L677.21 655.57L677.258 655.426L681.098 648.37C681.642 647.378 682.426 646.658 683.45 646.21C684.474 645.762 685.53 645.682 686.618 645.97C687.706 646.226 688.586 646.802 689.258 647.698C689.962 648.562 690.314 649.57 690.314 650.722V658.21V662.818V672.322C690.314 672.866 690.122 673.33 689.738 673.714C689.354 674.098 688.89 674.29 688.346 674.29C687.802 674.29 687.338 674.098 686.954 673.714C686.57 673.33 686.378 672.866 686.378 672.322V661.042V658.21V656.722V650.722C686.378 650.21 686.122 649.89 685.61 649.762C685.13 649.634 684.778 649.794 684.554 650.242L680.666 657.442L679.658 659.266L677.354 663.586L677.018 664.114L676.202 665.698L675.242 667.426L674.474 668.818L672.938 671.698C672.49 672.498 671.882 673.138 671.114 673.618C670.346 674.066 669.498 674.29 668.57 674.29C667.674 674.29 666.842 674.066 666.074 673.618C665.306 673.138 664.714 672.498 664.298 671.698L662.714 668.818L661.994 667.426L661.034 665.698L660.17 664.114L659.882 663.586L657.578 659.266L656.57 657.442L652.682 650.242C652.426 649.794 652.058 649.634 651.578 649.762C651.098 649.89 650.858 650.21 650.858 650.722V656.722V658.21ZM697.325 671.41L708.941 649.906C709.645 648.626 710.589 647.634 711.773 646.93C712.989 646.194 714.333 645.826 715.805 645.826H717.245C718.717 645.826 720.061 646.194 721.277 646.93C722.493 647.634 723.437 648.626 724.109 649.906L735.773 671.41C736.029 671.89 736.077 672.386 735.917 672.898C735.757 673.41 735.437 673.794 734.957 674.05C734.509 674.306 734.013 674.354 733.469 674.194C732.957 674.034 732.573 673.73 732.317 673.282L720.701 651.778C719.965 650.402 718.813 649.714 717.245 649.714H715.805C714.269 649.714 713.117 650.402 712.349 651.778L700.733 673.282C700.477 673.73 700.093 674.034 699.581 674.194C699.069 674.354 698.573 674.306 698.093 674.05C697.613 673.794 697.293 673.41 697.133 672.898C697.005 672.386 697.069 671.89 697.325 671.41ZM744.702 674.338C744.158 674.338 743.694 674.146 743.31 673.762C742.926 673.378 742.734 672.914 742.734 672.37V647.794C742.734 647.25 742.926 646.786 743.31 646.402C743.694 646.018 744.158 645.826 744.702 645.826H769.998C772.878 645.826 775.342 646.85 777.39 648.898C779.438 650.914 780.462 653.362 780.462 656.242V663.874C780.462 666.754 779.438 669.218 777.39 671.266C775.342 673.314 772.878 674.338 769.998 674.338H744.702ZM746.67 670.402H769.998C771.79 670.402 773.326 669.762 774.606 668.482C775.886 667.202 776.526 665.666 776.526 663.874V656.242C776.526 654.45 775.886 652.914 774.606 651.634C773.326 650.354 771.79 649.714 769.998 649.714H746.67V670.402ZM788.906 649.714C788.362 649.714 787.898 649.522 787.514 649.138C787.13 648.754 786.938 648.306 786.938 647.794C786.938 647.25 787.13 646.786 787.514 646.402C787.898 646.018 788.362 645.826 788.906 645.826H817.658C818.17 645.826 818.618 646.018 819.002 646.402C819.386 646.786 819.578 647.25 819.578 647.794C819.578 648.306 819.386 648.754 819.002 649.138C818.618 649.522 818.17 649.714 817.658 649.714H788.906ZM788.906 662.002C788.362 662.002 787.898 661.81 787.514 661.426C787.13 661.042 786.938 660.594 786.938 660.082C786.938 659.538 787.13 659.074 787.514 658.69C787.898 658.306 788.362 658.114 788.906 658.114H813.146C813.658 658.114 814.106 658.306 814.49 658.69C814.874 659.074 815.066 659.538 815.066 660.082C815.066 660.594 814.874 661.042 814.49 661.426C814.106 661.81 813.658 662.002 813.146 662.002H788.906ZM788.906 674.29C788.362 674.29 787.898 674.098 787.514 673.714C787.13 673.33 786.938 672.866 786.938 672.322C786.938 671.778 787.13 671.33 787.514 670.978C787.898 670.594 788.362 670.402 788.906 670.402H817.658C818.17 670.402 818.618 670.594 819.002 670.978C819.386 671.33 819.578 671.778 819.578 672.322C819.578 672.866 819.386 673.33 819.002 673.714C818.618 674.098 818.17 674.29 817.658 674.29H788.906Z" fill="#FFFFFF"/>
<path d="M709.49 572.1C686.38 572.1 635.01 572.1 611.9 572.1C609.28 572.1 606.63 572.06 603.99 571.67C597.52 570.71 592.51 566.27 591.37 559.87C590.76 556.44 590.94 552.79 591.63 549.53C596.72 525.73 602.38 502.11 607.15 478.2C609.85 464.64 620.84 453.33 638.71 453.46C661.2 453.63 711.96 453.69 734.43 453.72C740.27 434.79 757.27 414.53 773.52 405.06C737.95 405.06 670.24 405.05 634.67 405.09C629.92 405.09 625.11 405.5 620.67 406.63C584.7 415.74 561.65 437.76 552.84 473.78C551.5 479.24 550.35 484.77 549.15 490.28C544.06 513.62 538.08 536.69 534.13 560.36C528.51 594.01 552.16 620.47 587.2 620.56C626.52 620.66 697.63 620.67 736.94 620.67C728.09 614.22 707.21 591.42 709.5 572.12L709.49 572.1Z" fill="#FFFFFF"/>
<path d="M258.52 620.62C360.38 620.11 422.52 620.08 442.03 620.61C443.22 620.64 446.58 621.06 450.9 620.3C486.69 614.01 510.1 593.15 521.15 558.46C525.39 545.16 525.23 530.94 518.41 516.64C516.99 513.65 517.209 512.15 519.139 510.05C532.389 495.62 540.99 478.58 541.56 457.05C542.17 434.08 527.79 413.7 505.9 407.43C500.48 405.88 494.77 405.13 489.34 405.12C476.96 405.09 412.48 405.1 400.1 405.08C399.16 406.4 378.55 437.71 366.99 453.66C387.5 453.66 454.54 453.66 475.05 453.66C485.4 453.66 489.21 458.51 487.06 468.78C486.6 470.95 486.14 473.13 485.62 475.27C483.59 483.53 477.38 488.43 468.79 488.44C441.08 488.45 418.95 488.46 391.23 488.44C391.19 488.49 346.49 488.53 346.45 488.58C335.75 505.34 333.89 507.27 314.95 537.17C351.8 537.17 420.29 537.17 457.14 537.17C467.59 537.17 471.35 541.85 469.22 552.16C468.74 554.48 468.38 556.85 467.72 559.1C466.42 563.55 464.25 567.03 461.11 569.26C457.44 571.86 453.41 572.03 451.57 572.04C442.77 572.11 379.51 572.24 292.55 572.09C281.21 588.26 269.86 604.44 258.52 620.61V620.62Z" fill="#FFFFFF"/>
<path d="M825.46 404.12H968.69C968.69 404.12 941.64 452.84 922.41 452.84H824.48C812.93 452.84 801.36 462.34 798.82 473.92L781.89 551.12C779.35 562.7 786.74 572.21 798.3 572.21H928.28C928.28 572.21 926.95 589.68 892.67 608.3C877.32 616.64 860.06 620.93 842.59 620.93H777.89C741.45 620.93 718.22 591.07 726.24 554.55L744.68 470.5C752.69 433.97 789.02 404.12 825.46 404.12Z" fill="#FFFFFF"/>
<path d="M164.98 594.8C149.1 537.06 111 405.4 111 405.4H148.13C165.19 405.4 173.16 417.42 176.78 434.37C177.12 435.96 177.46 437.55 177.86 439.13L211.11 569.35L306.27 423.42C312.86 412.22 324.58 405.4 337.22 405.4H386.09L262.81 595C262.43 595.53 260.54 598.25 258.11 601.76C249.6 614.02 235.93 621.29 221.38 621.29H198.79C183.09 621.29 169.29 610.49 164.98 594.81V594.8Z" fill="#FFFFFF"/>
</svg>