<svg width="71" height="36" viewBox="0 0 71 36" fill="none" xmlns="http://www.w3.org/2000/svg">
<g id="Asset 3 2" clip-path="url(#clip0_2322_54171)">
<g id="Layer 2">
<g id="Layer 1">
<path id="Vector" d="M14.545 24.4918L8.31503 6.77581C8.25541 6.5191 8.1053 6.2911 7.89099 6.13178C7.67669 5.97246 7.41188 5.89199 7.14298 5.90447L0.668934 5.86108C0.047781 5.86108 -0.140783 6.15394 0.103241 6.73242L10.9438 34.3874C11.0282 34.6462 11.1966 34.8709 11.4235 35.0275C11.6504 35.1841 11.9234 35.2641 12.2009 35.2552H14.5487L14.545 24.4918Z" fill="white"/>
<path id="Vector_2" d="M15.2305 34.4237V6.81208C15.2305 6.20467 15.5263 5.90097 16.1215 5.90097H28.9439C30.0978 5.89573 31.2409 6.11831 32.3048 6.55538C33.335 6.97411 34.27 7.58856 35.0556 8.36313C35.8362 9.14883 36.4628 10.0679 36.9043 11.0748C37.3671 12.1236 37.6013 13.2552 37.592 14.3974C37.6392 16.2454 36.992 18.0463 35.7729 19.4591C36.7374 20.3461 37.5215 21.4035 38.0837 22.5757C38.662 23.7687 38.9589 25.0734 38.9526 26.3937C38.9556 27.5628 38.7153 28.7204 38.2464 29.7958C37.3344 31.9093 35.6365 33.6058 33.4953 34.543C32.4368 35.02 31.2851 35.2667 30.1197 35.2661H16.1215C15.53 35.2553 15.2305 34.9769 15.2305 34.4237ZM29.835 14.6071C29.8422 14.2275 29.7705 13.8504 29.6244 13.4986C29.4782 13.1469 29.2605 12.8278 28.9846 12.5607C28.7011 12.2789 28.3608 12.0578 27.9853 11.9115C27.6097 11.7652 27.2071 11.697 26.8031 11.7111H23.0799V17.4525H26.7218C27.5531 17.4935 28.367 17.21 28.9846 16.6643C29.267 16.3997 29.4889 16.0796 29.6355 15.7249C29.7821 15.3703 29.85 14.9893 29.835 14.6071ZM30.9442 26.0791C30.9383 25.6702 30.8516 25.2663 30.689 24.8896C30.5355 24.5079 30.3167 24.1546 30.042 23.8447C29.7683 23.5373 29.4386 23.2823 29.0696 23.0927C28.6844 22.8908 28.2532 22.7876 27.8162 22.7926H23.0799V29.4018H27.8125C28.2381 29.4062 28.6591 29.3158 29.0435 29.1372C29.4279 28.9586 29.7656 28.6967 30.0309 28.3713C30.6062 27.74 30.9258 26.9248 30.9294 26.0791H30.9442Z" fill="#EE3929"/>
<path id="Vector_3" d="M49.979 31.2419C49.0708 30.3463 48.2808 29.3431 47.6275 28.2555C47.1556 28.3602 46.6731 28.4123 46.1892 28.411C44.6218 28.4314 43.0856 27.9819 41.7873 27.1228C40.489 26.2638 39.491 25.0364 38.9276 23.606C38.5324 22.6215 38.3329 21.5723 38.3397 20.5147C38.3301 19.4581 38.5297 18.4096 38.9276 17.4271C39.3015 16.5052 39.8582 15.6647 40.5655 14.9541C41.2749 14.2513 42.121 13.6944 43.0538 13.3163C44.0469 12.9118 45.1135 12.7089 46.1892 12.7197C46.657 12.7222 47.1237 12.7669 47.5831 12.8535C48.9862 10.5165 51.0167 8.59977 53.4545 7.31091C52.6946 6.90908 51.9091 6.55524 51.103 6.25156C49.5296 5.68971 47.864 5.4152 46.1892 5.44169C43.1466 5.42957 40.1674 6.29177 37.6216 7.92119C35.0758 9.55062 33.0756 11.8755 31.8694 14.607C31.0482 16.4721 30.6339 18.4842 30.653 20.5147C30.6415 22.5399 31.0555 24.5458 31.8694 26.408C33.4458 30.0658 36.422 32.9761 40.1625 34.5176C42.0675 35.311 44.1187 35.7134 46.1892 35.6999C47.8608 35.7248 49.5239 35.4629 51.103 34.9261C51.9395 34.6279 52.7505 34.2652 53.5284 33.8415C52.2247 33.1447 51.0295 32.2693 49.979 31.2419Z" fill="white"/>
<path id="Vector_4" d="M65.9649 26.9868C66.1991 26.8011 66.4777 26.6767 66.7746 26.6252C66.9065 26.6188 67.0375 26.6494 67.1522 26.7134C67.2668 26.7775 67.3603 26.8724 67.4216 26.9868L70.7492 31.7339C70.9674 32.0268 71.0487 32.2545 70.9932 32.4281C70.8804 32.6654 70.6976 32.8644 70.4682 32.9993C69.3051 33.8085 68.032 34.4547 66.6858 34.9192C65.0989 35.4609 63.4269 35.7252 61.7462 35.7001C59.6755 35.7122 57.6243 35.3086 55.7195 34.5142C51.9831 32.9649 49.0119 30.0517 47.4375 26.3938C46.6242 24.5363 46.209 22.5355 46.2174 20.515C46.1991 18.4896 46.6121 16.4826 47.4301 14.6217C48.6315 11.8854 50.6292 9.55482 53.1747 7.92007C55.7201 6.28531 58.7009 5.41851 61.7462 5.42749C63.4222 5.4013 65.0889 5.6758 66.6637 6.23737C68.0258 6.73995 69.3226 7.39768 70.5274 8.19697C70.6256 8.24857 70.7101 8.32184 70.7743 8.41095C70.8385 8.50007 70.8805 8.60259 70.8971 8.71037C70.9301 8.88558 70.9014 9.06655 70.8158 9.22378L67.2922 14.1698C67.2297 14.2655 67.1424 14.3434 67.0391 14.3955C66.9359 14.4476 66.8204 14.472 66.7043 14.4663C66.4533 14.4446 66.2173 14.3401 66.0351 14.1698C65.4331 13.6818 64.7487 13.3001 64.0127 13.0417C63.2811 12.8091 62.5154 12.6955 61.7462 12.7055C60.6757 12.6921 59.6133 12.8888 58.622 13.284C57.6893 13.6639 56.8444 14.2234 56.1373 14.929C55.4281 15.6376 54.8701 16.477 54.4957 17.3984C54.0971 18.3907 53.8987 19.449 53.9115 20.515C53.9035 21.5771 54.1018 22.631 54.4957 23.6207C54.8673 24.5618 55.4252 25.4218 56.1373 26.1516C56.8427 26.8683 57.6874 27.4399 58.622 27.8328C59.6114 28.2343 60.6751 28.4313 61.7462 28.4113C62.5507 28.4224 63.3492 28.2748 64.094 27.9774C64.7525 27.7144 65.3798 27.3823 65.9649 26.9868Z" fill="white"/>
<path id="Vector_5" d="M3.09645 0.255298C3.09536 0.219197 3.10807 0.183993 3.13209 0.156559C3.14528 0.141911 3.16188 0.130574 3.18048 0.123499C3.19909 0.116424 3.21916 0.113819 3.239 0.115902H4.50415C4.54317 0.106548 4.58392 0.106548 4.62294 0.115902C4.62294 0.115902 4.65858 0.1856 4.65858 0.243682V4.71598C4.66071 4.73539 4.65804 4.75501 4.65081 4.77321C4.64357 4.7914 4.63198 4.80763 4.617 4.82053C4.59049 4.8427 4.55685 4.85504 4.52197 4.85538H3.239C3.21959 4.85835 3.19973 4.8568 3.18104 4.85085C3.16236 4.8449 3.14538 4.83471 3.13148 4.82112C3.11758 4.80754 3.10717 4.79093 3.10108 4.77266C3.09499 4.75438 3.09341 4.73497 3.09645 4.71598V3.01999H1.71846V4.71598C1.71846 4.80891 1.665 4.85538 1.55809 4.85538H0.292942C0.27609 4.85782 0.258906 4.85685 0.24245 4.85255C0.225993 4.84825 0.210612 4.84069 0.197256 4.83035C0.183899 4.82001 0.17285 4.80711 0.16479 4.79243C0.15673 4.77775 0.151829 4.76162 0.150391 4.74502V0.255298C0.16227 0.162368 0.209787 0.115902 0.292942 0.115902H1.55809C1.60454 0.111433 1.65105 0.123838 1.68876 0.150751C1.70519 0.163076 1.71854 0.178892 1.7278 0.197004C1.73706 0.215116 1.74199 0.23505 1.74221 0.255298V1.62603H3.09645V0.255298Z" fill="#EE3929"/>
<path id="Vector_6" d="M5.84772 4.71607V0.255387C5.84663 0.219285 5.85934 0.184082 5.88336 0.156648C5.89747 0.141529 5.91508 0.129944 5.93472 0.122869C5.95436 0.115793 5.97545 0.113435 5.99621 0.115991H7.2673C7.30572 0.116771 7.34299 0.128922 7.37421 0.15084C7.39142 0.162865 7.40568 0.178485 7.41596 0.196568C7.42623 0.214651 7.43226 0.234743 7.43361 0.255387V4.71607C7.43361 4.809 7.37421 4.85547 7.2673 4.85547H5.99621C5.89524 4.85547 5.84772 4.809 5.84772 4.71607Z" fill="#EE3929"/>
<path id="Vector_7" d="M14.5426 0.115783C14.5813 0.114878 14.6191 0.127202 14.6495 0.150632C14.6632 0.164492 14.6739 0.180872 14.681 0.198821C14.6882 0.21677 14.6916 0.235928 14.6911 0.255179V1.27742C14.6878 1.31547 14.6734 1.35178 14.6495 1.38197C14.6383 1.39981 14.6225 1.41453 14.6038 1.4247C14.5851 1.43487 14.564 1.44016 14.5426 1.44005H13.3546V4.71586C13.3546 4.80879 13.3012 4.85526 13.1943 4.85526H11.9529C11.932 4.86124 11.9099 4.86204 11.8887 4.85757C11.8674 4.8531 11.8476 4.8435 11.8311 4.82966C11.8146 4.81581 11.8018 4.79815 11.7941 4.77828C11.7863 4.75841 11.7837 4.73695 11.7866 4.71586V1.44005H10.5986C10.5036 1.44005 10.4561 1.38197 10.4561 1.27742V0.255179C10.4474 0.230757 10.4469 0.204277 10.4547 0.179559C10.4624 0.154842 10.478 0.133165 10.4991 0.117656C10.5203 0.102147 10.5459 0.0936087 10.5723 0.0932721C10.5988 0.0929354 10.6246 0.100818 10.6462 0.115783H14.5426Z" fill="#EE3929"/>
<path id="Vector_8" d="M19.0973 0.116663C19.1342 0.115596 19.1702 0.12802 19.1983 0.151512C19.2132 0.164414 19.2248 0.180643 19.2321 0.198835C19.2393 0.217027 19.242 0.236652 19.2398 0.25606V1.16214C19.239 1.19971 19.2266 1.23616 19.2042 1.26668C19.1927 1.28386 19.1767 1.29774 19.158 1.30693C19.1392 1.31611 19.1182 1.32026 19.0973 1.31896H17.1372V1.94624H18.4796C18.5125 1.93638 18.5476 1.93638 18.5805 1.94624C18.5947 1.95489 18.6065 1.96685 18.6148 1.98104C18.6231 1.99523 18.6276 2.01121 18.6281 2.02755V2.90459C18.6252 2.93129 18.6126 2.95607 18.5924 2.97429C18.5778 2.98915 18.5603 3.00094 18.5409 3.00893C18.5215 3.01692 18.5006 3.02094 18.4796 3.02075H17.1372V3.65385H19.1804C19.2174 3.65278 19.2534 3.6652 19.2814 3.68869C19.2964 3.7016 19.308 3.71782 19.3152 3.73602C19.3225 3.75421 19.3251 3.77383 19.323 3.79324V4.69351C19.3235 4.7358 19.3088 4.77693 19.2814 4.80967C19.2648 4.82514 19.2453 4.83722 19.2238 4.8452C19.2024 4.85318 19.1796 4.8569 19.1567 4.85614H15.7652C15.7457 4.85912 15.7259 4.85756 15.7072 4.85161C15.6885 4.84566 15.6715 4.83547 15.6576 4.82189C15.6437 4.8083 15.6333 4.79169 15.6272 4.77342C15.6211 4.75515 15.6196 4.73573 15.6226 4.71674V0.25606C15.6215 0.219958 15.6342 0.184754 15.6582 0.157321C15.6714 0.142673 15.688 0.131335 15.7066 0.12426C15.7252 0.117186 15.7453 0.11458 15.7652 0.116663H19.0973Z" fill="#EE3929"/>
<path id="Vector_9" d="M23.9898 0.731521C24.0227 0.759502 24.0473 0.795608 24.0611 0.836068C24.066 0.856789 24.0653 0.878411 24.0591 0.898788C24.0528 0.919166 24.0412 0.93759 24.0254 0.952232L23.0692 1.78861C23.0335 1.82927 22.986 1.82927 22.9325 1.78861C22.7941 1.66226 22.6223 1.57627 22.4365 1.54034C22.2508 1.50442 22.0584 1.52 21.8812 1.58532C21.7651 1.63979 21.6588 1.71237 21.5664 1.80023C21.4729 1.88967 21.3982 1.99624 21.3467 2.11387C21.2898 2.2277 21.2613 2.3531 21.2635 2.47978C21.2634 2.60189 21.2897 2.72263 21.3407 2.83408C21.3941 2.94932 21.4663 3.05526 21.5546 3.14772C21.6475 3.24159 21.7585 3.3166 21.8812 3.36843C22.0026 3.42201 22.1342 3.44973 22.2673 3.44975C22.4043 3.4498 22.5398 3.42212 22.6653 3.36843C22.7895 3.31622 22.9024 3.24131 22.9979 3.14772C23.0165 3.13099 23.0409 3.1217 23.0662 3.1217C23.0915 3.1217 23.1159 3.13099 23.1345 3.14772L24.067 4.02476C24.0805 4.04084 24.0907 4.05939 24.0968 4.07934C24.1029 4.09928 24.1049 4.12022 24.1027 4.14092C24.0897 4.17704 24.0646 4.20777 24.0314 4.22805C23.8099 4.44896 23.5456 4.62441 23.2539 4.74409C22.9622 4.86378 22.649 4.92529 22.3326 4.92503C21.9952 4.9271 21.6606 4.86598 21.3467 4.74497C21.0397 4.63138 20.7575 4.46189 20.5151 4.24547C20.2659 4.02972 20.0639 3.76697 19.9211 3.47298C19.7718 3.16456 19.6966 2.82681 19.7014 2.48559C19.701 2.17346 19.7678 1.86475 19.8974 1.57952C20.0233 1.28774 20.207 1.02322 20.4379 0.801219C20.6685 0.571023 20.9403 0.38402 21.2397 0.249442C21.5522 0.114408 21.8901 0.0451458 22.2317 0.0461559C22.431 0.0423822 22.6302 0.0599107 22.8256 0.0984295C22.9826 0.131922 23.1358 0.180561 23.283 0.243634C23.4168 0.304896 23.5441 0.378819 23.6631 0.464345C23.7582 0.545659 23.8769 0.63859 23.9898 0.731521Z" fill="#EE3929"/>
<path id="Vector_10" d="M27.8268 0.25566C27.8257 0.219559 27.8384 0.184355 27.8624 0.156921C27.8767 0.140455 27.8953 0.128011 27.9162 0.120867C27.937 0.113723 27.9595 0.112134 27.9812 0.116264H29.2404C29.2794 0.106428 29.3202 0.106428 29.3592 0.116264C29.3889 0.116264 29.4067 0.16273 29.4067 0.220811V4.69311C29.4072 4.71236 29.4038 4.73152 29.3967 4.74947C29.3895 4.76742 29.3788 4.7838 29.3651 4.79766C29.3386 4.81983 29.305 4.83217 29.2701 4.83251H27.9812C27.963 4.83687 27.9441 4.83717 27.9258 4.8334C27.9075 4.82963 27.8903 4.82188 27.8754 4.81072C27.8606 4.79957 27.8485 4.78529 27.8401 4.76896C27.8317 4.75262 27.8271 4.73464 27.8268 4.71634V3.02035H26.4606V4.71634C26.4606 4.80927 26.4012 4.85574 26.2943 4.85574H25.0351C24.946 4.85574 24.8985 4.82089 24.8926 4.74538V0.25566C24.8926 0.16273 24.9401 0.116264 25.0351 0.116264H26.2943C26.3328 0.117044 26.37 0.129195 26.4012 0.151113C26.4185 0.163138 26.4327 0.178758 26.443 0.196841C26.4533 0.214924 26.4593 0.235016 26.4606 0.25566V1.62639H27.8268V0.25566Z" fill="#EE3929"/>
<path id="Vector_11" d="M36.8005 0.731521C36.8334 0.759502 36.858 0.795608 36.8718 0.836068C36.8767 0.856789 36.876 0.878411 36.8698 0.898788C36.8635 0.919166 36.8519 0.93759 36.8361 0.952232L35.9036 1.78861C35.868 1.82927 35.8205 1.82927 35.767 1.78861C35.6781 1.69325 35.5685 1.61867 35.4461 1.57041C35.3237 1.52215 35.1918 1.50144 35.0602 1.50982C34.9275 1.50853 34.7961 1.53424 34.6741 1.58532C34.5591 1.64177 34.4531 1.71415 34.3593 1.80023C34.2694 1.8914 34.197 1.99764 34.1455 2.11387C34.0886 2.2277 34.0601 2.3531 34.0623 2.47978C34.0622 2.60189 34.0885 2.72263 34.1395 2.83408C34.1929 2.94932 34.2651 3.05526 34.3534 3.14772C34.4429 3.24036 34.5497 3.31529 34.6682 3.36843C34.7895 3.42201 34.9211 3.44973 35.0542 3.44975C35.1912 3.4498 35.3267 3.42212 35.4522 3.36843C35.5764 3.31622 35.6893 3.24131 35.7848 3.14772C35.8035 3.13099 35.8278 3.1217 35.8531 3.1217C35.8784 3.1217 35.9028 3.13099 35.9214 3.14772L36.854 4.02476C36.8675 4.04084 36.8776 4.05939 36.8837 4.07934C36.8898 4.09928 36.8918 4.12022 36.8896 4.14092C36.8767 4.17704 36.8515 4.20777 36.8183 4.22805C36.5969 4.44896 36.3326 4.62441 36.0409 4.74409C35.7491 4.86378 35.4359 4.92529 35.1196 4.92503C34.7822 4.9271 34.4475 4.86598 34.1336 4.74497C33.8266 4.63138 33.5445 4.46189 33.3021 4.24547C33.0551 4.02775 32.8534 3.76545 32.7081 3.47298C32.5637 3.16315 32.4907 2.82607 32.4943 2.48559C32.4939 2.17346 32.5607 1.86475 32.6903 1.57952C32.8161 1.28774 32.9998 1.02322 33.2308 0.801219C33.4667 0.569266 33.7447 0.382169 34.0505 0.249442C34.3629 0.114408 34.7008 0.0451458 35.0424 0.0461559C35.2417 0.0423822 35.4409 0.0599107 35.6363 0.0984295C35.7933 0.131922 35.9465 0.180561 36.0937 0.243634C36.2295 0.304559 36.3588 0.37849 36.4798 0.464345C36.5689 0.545659 36.6877 0.63859 36.8005 0.731521Z" fill="#EE3929"/>
<path id="Vector_12" d="M41.1676 0.116663C41.2043 0.116624 41.24 0.128927 41.2686 0.151512C41.2822 0.165372 41.293 0.181753 41.3001 0.199701C41.3072 0.21765 41.3107 0.236808 41.3102 0.25606V1.16214C41.3094 1.19971 41.2969 1.23616 41.2745 1.26668C41.263 1.28386 41.2471 1.29774 41.2283 1.30693C41.2095 1.31611 41.1886 1.32026 41.1676 1.31896H39.1897V1.94624H40.538C40.571 1.93704 40.606 1.93704 40.639 1.94624C40.6524 1.95518 40.6633 1.96735 40.6706 1.98159C40.6779 1.99582 40.6813 2.01165 40.6806 2.02755V2.90459C40.6777 2.93129 40.6651 2.95607 40.6449 2.97429C40.632 2.98962 40.6156 3.00181 40.5971 3.00988C40.5785 3.01794 40.5583 3.02167 40.538 3.02075H39.1897V3.65385H41.2389C41.2756 3.65381 41.3113 3.66611 41.3399 3.68869C41.3548 3.7016 41.3664 3.71782 41.3737 3.73602C41.3809 3.75421 41.3836 3.77383 41.3814 3.79324V4.69351C41.3798 4.73644 41.363 4.77748 41.3339 4.80967C41.318 4.82605 41.2985 4.83872 41.2769 4.84676C41.2554 4.85481 41.2322 4.85801 41.2092 4.85614H37.8355C37.816 4.85912 37.7962 4.85756 37.7775 4.85161C37.7588 4.84566 37.7418 4.83547 37.7279 4.82189C37.714 4.8083 37.7036 4.79169 37.6975 4.77342C37.6915 4.75515 37.6899 4.73573 37.6929 4.71674V0.25606C37.691 0.238047 37.6932 0.219839 37.6993 0.20276C37.7055 0.185681 37.7155 0.170159 37.7285 0.157321C37.7417 0.142673 37.7583 0.131335 37.7769 0.12426C37.7955 0.117186 37.8156 0.11458 37.8355 0.116663H41.1676Z" fill="#EE3929"/>
<path id="Vector_13" d="M42.3204 0.255837C42.3193 0.219735 42.332 0.184532 42.356 0.157098C42.3707 0.142689 42.3883 0.131585 42.4078 0.124562C42.4273 0.117539 42.4482 0.114767 42.4689 0.116441H44.6487C44.8649 0.11471 45.0791 0.156217 45.2783 0.238413C45.4635 0.321292 45.6324 0.435313 45.7772 0.575287C45.9201 0.717006 46.0331 0.884736 46.1099 1.06898C46.1868 1.25345 46.2271 1.45057 46.2287 1.6498C46.2317 1.92568 46.1622 2.1977 46.0267 2.43971C45.8874 2.68327 45.6818 2.88431 45.4327 3.02053L46.3712 4.71652C46.3814 4.73104 46.3869 4.74826 46.3869 4.76589C46.3869 4.78352 46.3814 4.80073 46.3712 4.81526C46.3608 4.82851 46.3472 4.83912 46.3317 4.8462C46.3162 4.85327 46.2992 4.8566 46.2821 4.85592H44.9635C44.9166 4.85676 44.8707 4.84247 44.8328 4.81526C44.8 4.79074 44.7769 4.75584 44.7675 4.71652L44.0726 3.36321H43.8587V4.71652C43.8587 4.80945 43.8053 4.85592 43.7043 4.85592H42.4689C42.3679 4.85592 42.3204 4.80945 42.3204 4.71652V0.255837ZM44.7319 1.70207C44.7308 1.60602 44.6951 1.51343 44.6309 1.44071C44.6005 1.40328 44.5616 1.37329 44.5172 1.35313C44.4729 1.33297 44.4244 1.32318 44.3755 1.32454H43.8587V2.0738H44.3636C44.4118 2.0746 44.4596 2.06515 44.5037 2.0461C44.5478 2.02704 44.5872 1.99884 44.619 1.96344C44.6866 1.89184 44.7265 1.79939 44.7319 1.70207Z" fill="#EE3929"/>
<path id="Vector_14" d="M51.7847 4.71653C51.7847 4.80946 51.7847 4.85593 51.7015 4.85593H50.4483C50.4012 4.85884 50.3544 4.84685 50.3148 4.82175C50.2752 4.79665 50.245 4.75976 50.2285 4.71653L50.0562 4.16476H48.6545L48.4763 4.71653C48.4618 4.75984 48.4328 4.79713 48.394 4.82241C48.3553 4.84769 48.3089 4.8595 48.2625 4.85593H47.0151C46.928 4.85593 46.8983 4.80946 46.9261 4.71653L48.5416 0.255851C48.558 0.216834 48.5846 0.18276 48.6188 0.157112C48.6424 0.133217 48.6741 0.118725 48.7079 0.116455H50.0028C50.0405 0.116974 50.0766 0.131511 50.1038 0.157112C50.1321 0.18434 50.1526 0.2184 50.1632 0.255851L51.7847 4.71653ZM49.0465 2.97408H49.6405L49.3316 1.76598L49.0465 2.97408Z" fill="#EE3929"/>
<path id="Vector_15" d="M58.1173 4.71635C58.1173 4.79185 58.0698 4.83251 57.9807 4.83251H56.6977C56.5908 4.83251 56.5314 4.78605 56.5314 4.69312L56.3354 2.85773L55.9256 4.71635C55.9137 4.75023 55.8956 4.78172 55.8721 4.80928C55.8603 4.82284 55.8458 4.83394 55.8294 4.84192C55.8131 4.8499 55.7953 4.8546 55.7771 4.85574H54.5892C54.5746 4.84468 54.5625 4.83085 54.5535 4.81509C54.5258 4.78831 54.5071 4.75384 54.5001 4.71635L54.0843 2.86935L53.9061 4.71635C53.9073 4.73651 53.9039 4.75668 53.896 4.77534C53.8881 4.794 53.8759 4.81066 53.8605 4.82408C53.8451 4.8375 53.8267 4.84732 53.8068 4.8528C53.787 4.85829 53.7661 4.85929 53.7457 4.85574H52.4687C52.3737 4.85574 52.3262 4.81509 52.3262 4.73377L52.7716 0.255666C52.7821 0.219437 52.8004 0.185788 52.8251 0.156927C52.8397 0.142518 52.8574 0.131413 52.8769 0.12439C52.8964 0.117367 52.9172 0.114596 52.938 0.116269H54.4585C54.502 0.116545 54.5443 0.130141 54.5794 0.155147C54.6146 0.180152 54.6408 0.215307 54.6545 0.255666L55.201 2.48601L55.7415 0.255666C55.7456 0.231946 55.7548 0.209325 55.7683 0.189229C55.7818 0.169132 55.7995 0.151996 55.8201 0.1389C55.8408 0.125804 55.864 0.117032 55.8883 0.113137C55.9125 0.109242 55.9374 0.110309 55.9612 0.116269H57.4758C57.4965 0.114596 57.5174 0.117367 57.5369 0.12439C57.5564 0.131413 57.574 0.142518 57.5887 0.156927C57.6173 0.183978 57.6378 0.218104 57.6481 0.255666L58.1173 4.71635Z" fill="#EE3929"/>
<path id="Vector_16" d="M59.0445 4.71674V0.25606C59.0434 0.219958 59.0561 0.184754 59.0801 0.157321C59.0933 0.142673 59.1099 0.131335 59.1285 0.12426C59.1471 0.117186 59.1672 0.11458 59.187 0.116663H60.464C60.5025 0.117444 60.5397 0.129594 60.571 0.151512C60.5874 0.163837 60.6007 0.179653 60.61 0.197765C60.6193 0.215877 60.6242 0.235811 60.6244 0.25606V4.71674C60.6244 4.80967 60.571 4.85614 60.464 4.85614H59.187C59.1676 4.85912 59.1478 4.85756 59.1291 4.85161C59.1104 4.84566 59.0934 4.83547 59.0795 4.82189C59.0656 4.8083 59.0552 4.79169 59.0491 4.77342C59.043 4.75515 59.0414 4.73573 59.0445 4.71674Z" fill="#EE3929"/>
<path id="Vector_17" d="M65.8415 0.731351C65.8744 0.759332 65.899 0.795438 65.9128 0.835899C65.9206 0.855905 65.9219 0.877774 65.9166 0.89855C65.9113 0.919325 65.8996 0.938005 65.8831 0.952062L64.9446 1.78844C64.909 1.8291 64.8615 1.8291 64.808 1.78844C64.7264 1.70437 64.6297 1.63549 64.5229 1.58515C64.3919 1.52958 64.2498 1.50376 64.1071 1.50965C63.9744 1.50766 63.8428 1.5334 63.7211 1.58515C63.6023 1.63821 63.4938 1.71091 63.4003 1.80006C63.3068 1.8895 63.2321 1.99607 63.1806 2.1137C63.1264 2.22844 63.098 2.35323 63.0974 2.47961C63.1002 2.60141 63.1264 2.7216 63.1746 2.83391C63.228 2.94915 63.3002 3.05509 63.3885 3.14755C63.479 3.23896 63.5857 3.31372 63.7033 3.36827C63.8246 3.42184 63.9562 3.44956 64.0893 3.44958C64.2281 3.44897 64.3654 3.42132 64.4932 3.36827C64.6166 3.31464 64.7293 3.2399 64.8258 3.14755C64.8445 3.13082 64.8689 3.12153 64.8941 3.12153C64.9194 3.12153 64.9438 3.13082 64.9625 3.14755L65.889 4.02459C65.9048 4.03923 65.9164 4.05766 65.9227 4.07803C65.9289 4.09841 65.9296 4.12003 65.9247 4.14075C65.9117 4.17687 65.8866 4.2076 65.8534 4.22788C65.6262 4.45891 65.3507 4.6392 65.0456 4.75642C64.7628 4.86916 64.4601 4.92639 64.1547 4.92486C63.8173 4.92693 63.4826 4.86581 63.1687 4.7448C62.8635 4.63107 62.5834 4.46155 62.3431 4.2453C62.0919 4.03137 61.8895 3.76818 61.7491 3.47281C61.6047 3.16298 61.5317 2.8259 61.5353 2.48542C61.5321 2.17302 61.599 1.86373 61.7313 1.57935C61.8551 1.28791 62.0368 1.02338 62.2659 0.80105C62.4994 0.571552 62.7729 0.384691 63.0736 0.249272C63.3842 0.115033 63.7201 0.0457885 64.0596 0.0459861C64.2589 0.0429724 64.458 0.0604936 64.6536 0.0982598C64.8103 0.132621 64.9635 0.181234 65.1109 0.243464C65.2449 0.304422 65.3722 0.378363 65.4911 0.464175C65.6158 0.54549 65.7287 0.63842 65.8415 0.731351Z" fill="#EE3929"/>
<path id="Vector_18" d="M67.401 3.09598L67.6505 3.27603C67.7224 3.33446 67.7978 3.38876 67.8762 3.43866C67.9461 3.48807 68.0219 3.52903 68.1019 3.56063C68.1758 3.58817 68.2544 3.60196 68.3335 3.60129C68.5474 3.60129 68.6543 3.51997 68.6543 3.35154C68.6437 3.28027 68.6054 3.21575 68.5474 3.17148C68.4245 3.08151 68.2823 3.01995 68.1316 2.99143C67.8647 2.92643 67.6073 2.82886 67.3654 2.70102C67.1859 2.60293 67.0251 2.4752 66.8902 2.32349C66.7819 2.19189 66.7029 2.03953 66.6586 1.87626C66.6124 1.70972 66.5904 1.53766 66.5932 1.36514C66.5911 1.17439 66.6346 0.985805 66.7202 0.814388C66.8058 0.642971 66.9311 0.493457 67.0862 0.377748C67.2638 0.248059 67.4656 0.153373 67.6802 0.0989556C67.9158 0.03313 68.1597 -0.000105704 68.4048 0.000216533C68.7146 -0.0034575 69.0231 0.0396431 69.3195 0.127996C69.6254 0.226073 69.9012 0.397849 70.1214 0.6275C70.1534 0.677699 70.164 0.738153 70.1511 0.795937C70.1274 0.857252 70.0932 0.914202 70.0501 0.964374L69.4977 1.58004C69.4442 1.63812 69.3908 1.66136 69.3373 1.64393C69.274 1.62215 69.2155 1.58862 69.1651 1.54519C69.0574 1.45878 68.9373 1.38832 68.8087 1.3361C68.7054 1.28515 68.5918 1.25737 68.4761 1.25478C68.3962 1.25212 68.3168 1.26805 68.2444 1.30125C68.2087 1.31705 68.179 1.34361 68.1598 1.37704C68.1406 1.41047 68.1328 1.44903 68.1375 1.48711C68.1358 1.51136 68.1391 1.5357 68.1473 1.55866C68.1555 1.58162 68.1683 1.60272 68.185 1.6207C68.2226 1.65754 68.2669 1.6871 68.3157 1.70782C68.3734 1.73353 68.4329 1.75489 68.4939 1.77171L68.684 1.81818C68.9216 1.89175 69.1354 1.96725 69.3255 2.0447C69.5083 2.11239 69.6788 2.20849 69.8303 2.3293C69.9711 2.44097 70.0847 2.58182 70.1629 2.74168C70.2399 2.92594 70.2783 3.12345 70.2758 3.3225C70.2824 3.55243 70.2293 3.78025 70.1214 3.98463C70.0236 4.17836 69.8813 4.34734 69.7056 4.47832C69.5161 4.61882 69.3001 4.72144 69.07 4.78035C68.8152 4.85197 68.5511 4.88719 68.286 4.8849C68.1157 4.88328 67.9462 4.86183 67.7811 4.82101C67.6112 4.77942 67.446 4.72104 67.2882 4.64676C67.1307 4.57621 66.9797 4.49265 66.8367 4.39701C66.7051 4.30692 66.5801 4.20794 66.4625 4.10079C66.4107 4.05857 66.3699 4.00479 66.3438 3.94397C66.3438 3.90912 66.3438 3.86266 66.421 3.80457L67.0803 3.06113C67.1186 3.02631 67.1658 3.00224 67.2169 2.99143C67.2852 3.01308 67.3479 3.04872 67.401 3.09598Z" fill="#EE3929"/>
</g>
</g>
</g>
<defs>
<clipPath id="clip0_2322_54171">
<rect width="71" height="36" fill="white"/>
</clipPath>
</defs>
</svg>
