<svg xmlns="http://www.w3.org/2000/svg" id="Layer_1" data-name="Layer 1" viewBox="111.15 404.12 857.69 276.71">
  <defs>
    <style>
      .cls-1 {
        fill: #20427d;
      }

      .cls-1, .cls-2 {
        stroke-width: 0px;
      }

      .cls-2 {
        fill: #f06f38;
      }

      .cls-3 {
        fill: #6e6f71;
        font-family: BropamesRegular, Bropames;
        font-size: 41.87px;
      }
    </style>
  </defs>
  <text class="cls-3" transform="translate(259.46 671.52) scale(1.22 .99) skewX(-5.82)"><tspan x="0" y="0">THE TAILOR MADE</tspan></text>
  <g>
    <path class="cls-1" d="M709.64,572.1c-23.11,0-74.48,0-97.59,0-2.62,0-5.27-.04-7.91-.43-6.47-.96-11.48-5.4-12.62-11.8-.61-3.43-.43-7.08.26-10.34,5.09-23.8,10.75-47.42,15.52-71.33,2.7-13.56,13.69-24.87,31.56-24.74,22.49.17,73.25.23,95.72.26,5.84-18.93,22.84-39.19,39.09-48.66-35.57,0-103.28-.01-138.85.03-4.75,0-9.56.41-14,1.54-35.97,9.11-59.02,31.13-67.83,67.15-1.34,5.46-2.49,10.99-3.69,16.5-5.09,23.34-11.07,46.41-15.02,70.08-5.62,33.65,18.03,60.11,53.07,60.2,39.32.1,110.43.11,149.74.11-8.85-6.45-29.73-29.25-27.44-48.55Z"/>
    <path class="cls-2" d="M258.67,620.62c101.86-.51,164-.54,183.51-.01,1.19.03,4.55.45,8.87-.31,35.79-6.29,59.2-27.15,70.25-61.84,4.24-13.3,4.08-27.52-2.74-41.82-1.42-2.99-1.2-4.49.73-6.59,13.25-14.43,21.85-31.47,22.42-53,.61-22.97-13.77-43.35-35.66-49.62-5.42-1.55-11.13-2.3-16.56-2.31-12.38-.03-76.86-.02-89.24-.04-.94,1.32-21.55,32.63-33.11,48.58,20.51,0,87.55,0,108.06,0,10.35,0,14.16,4.85,12.01,15.12-.46,2.17-.92,4.35-1.44,6.49-2.03,8.26-8.24,13.16-16.83,13.17-27.71.01-49.84.02-77.56,0-.04.05-44.74.09-44.78.14-10.7,16.76-12.56,18.69-31.5,48.59,36.85,0,105.34,0,142.19,0,10.45,0,14.21,4.68,12.08,14.99-.48,2.32-.84,4.69-1.5,6.94-1.3,4.45-3.47,7.93-6.61,10.16-3.67,2.6-7.7,2.77-9.54,2.78-8.8.07-72.06.2-159.02.05-11.34,16.17-22.69,32.35-34.03,48.52Z"/>
    <path class="cls-1" d="M825.61,404.12h143.23s-27.05,48.72-46.28,48.72h-97.93c-11.55,0-23.12,9.5-25.66,21.08l-16.93,77.2c-2.54,11.58,4.85,21.09,16.41,21.09h129.98s-1.33,17.47-35.61,36.09c-15.35,8.34-32.61,12.63-50.08,12.63h-64.7c-36.44,0-59.67-29.86-51.65-66.38l18.44-84.05c8.01-36.53,44.34-66.38,80.78-66.38Z"/>
    <path class="cls-1" d="M165.13,594.8c-15.88-57.74-53.98-189.4-53.98-189.4h37.13c17.06,0,25.03,12.02,28.65,28.97.34,1.59.68,3.18,1.08,4.76l33.25,130.22,95.16-145.93c6.59-11.2,18.31-18.02,30.95-18.02h48.87l-123.28,189.6c-.38.53-2.27,3.25-4.7,6.76-8.51,12.26-22.18,19.53-36.73,19.53h-22.59c-15.7,0-29.5-10.8-33.81-26.48Z"/>
  </g>
</svg>