<svg width="52" height="52" viewBox="0 0 52 52" fill="none" xmlns="http://www.w3.org/2000/svg">
<path d="M24.5495 33.925L39.1245 48.5C40.3745 49.71 42.05 50.3803 43.7897 50.3662C45.5294 50.352 47.1938 49.6547 48.424 48.4245C49.6542 47.1943 50.3515 45.5299 50.3657 43.7902C50.3798 42.0505 49.7095 40.375 48.4995 39.125L33.807 24.4325M24.5495 33.925L30.7895 26.35C31.582 25.39 32.6395 24.785 33.8095 24.435C35.1845 24.025 36.717 23.965 38.167 24.085C40.1216 24.2528 42.0861 23.9066 43.8655 23.0808C45.645 22.2549 47.1775 20.9781 48.3111 19.377C49.4447 17.7759 50.1399 15.9062 50.3278 13.9535C50.5156 12.0007 50.1896 10.0328 49.382 8.245L41.192 16.4375C39.8218 16.1207 38.568 15.4254 37.5736 14.4309C36.5791 13.4365 35.8839 12.1827 35.567 10.8125L43.757 2.6225C41.9692 1.81491 40.0013 1.48886 38.0485 1.67671C36.0958 1.86456 34.2261 2.55978 32.625 3.69337C31.0239 4.82697 29.7471 6.35953 28.9212 8.13899C28.0954 9.91845 27.7492 11.8829 27.917 13.8375C28.1445 16.5275 27.7395 19.4975 25.657 21.2125L25.402 21.425M24.5495 33.925L12.912 48.0575C12.348 48.745 11.6463 49.3068 10.852 49.7068C10.0577 50.1067 9.18853 50.3359 8.30033 50.3796C7.41214 50.4233 6.52463 50.2806 5.69493 49.9606C4.86523 49.6406 4.11173 49.1504 3.48292 48.5216C2.85411 47.8928 2.36393 47.1393 2.04392 46.3096C1.72391 45.4799 1.58117 44.5924 1.62489 43.7042C1.66861 42.816 1.89781 41.9468 2.29774 41.1525C2.69768 40.3582 3.25949 39.6565 3.947 39.0925L21.0395 25.0175L10.772 14.75H7.2495L1.6245 5.375L5.3745 1.625L14.7495 7.25V10.7725L25.3995 21.4225L21.037 25.015M41.937 41.9375L35.3745 35.375M8.167 43.8125H8.187V43.8325H8.167V43.8125Z" stroke="white" stroke-width="2" stroke-linecap="round" stroke-linejoin="round"/>
</svg>
