<svg width="439" height="96" viewBox="0 0 439 96" fill="none" xmlns="http://www.w3.org/2000/svg">
<path d="M357.726 31.2522C407.555 -1.18923 453.487 -46.4343 433.807 -89.8134L-15.2229 -89.8132C-17.9097 -46.1794 -71.96 -0.984339 -34.152 35.6369C6.29754 74.8169 91.0181 85.8473 165.272 85.0165C238.23 84.2001 307.022 64.2629 357.726 31.2522Z" fill="url(#paint0_linear_283_2407)" fill-opacity="0.5"/>
<path d="M347.698 41.2522C397.527 8.81077 443.459 -36.4343 423.779 -79.8134L-25.2512 -79.8132C-27.938 -36.1794 -81.9883 9.01566 -44.1804 45.6369C-3.73078 84.8169 80.9898 95.8473 155.244 95.0165C228.202 94.2001 296.994 74.2629 347.698 41.2522Z" fill="url(#paint1_linear_283_2407)" fill-opacity="0.5"/>
<defs>
<linearGradient id="paint0_linear_283_2407" x1="195.468" y1="-89.8133" x2="195.468" y2="85.0594" gradientUnits="userSpaceOnUse">
<stop stop-color="#646464"/>
<stop offset="1" stop-color="#C2C2C2"/>
</linearGradient>
<linearGradient id="paint1_linear_283_2407" x1="185.44" y1="-79.8133" x2="185.44" y2="95.0594" gradientUnits="userSpaceOnUse">
<stop stop-color="#636363"/>
<stop offset="1" stop-color="#E1E1E1"/>
</linearGradient>
</defs>
</svg>
