<svg width="48" height="48" viewBox="0 0 48 48" fill="none" xmlns="http://www.w3.org/2000/svg">
<path d="M10.557 21.1141C16.3781 21.1141 21.1139 16.3782 21.1139 10.5571C21.1139 4.73597 16.3781 0 10.557 0C4.73588 0 0 4.73597 0 10.5571C0 16.3782 4.73588 21.1141 10.557 21.1141ZM15.7759 17.9552L11.8682 11.3077L19.5823 11.311C19.3554 14.0518 17.9032 16.4501 15.7759 17.9552ZM19.5831 9.81103L11.307 9.80737V1.53131C15.7054 1.89356 19.2227 5.41209 19.5831 9.81103ZM9.807 1.53131V10.5571C9.807 10.6907 9.84272 10.8219 9.9105 10.9372L14.4841 18.7177C13.2955 19.292 11.9633 19.6141 10.5571 19.6141C5.56303 19.6141 1.50009 15.5512 1.50009 10.5571C1.5 5.81559 5.16253 1.91391 9.807 1.53131ZM31.9908 1.24088C31.9908 0.826687 32.3266 0.490875 32.7408 0.490875H47.25C47.6642 0.490875 48 0.826687 48 1.24088C48 1.65506 47.6642 1.99088 47.25 1.99088H32.7408C32.3265 1.99088 31.9908 1.65506 31.9908 1.24088ZM31.9908 4.38094C31.9908 3.96675 32.3266 3.63094 32.7408 3.63094H39.9954C40.4096 3.63094 40.7454 3.96675 40.7454 4.38094C40.7454 4.79513 40.4096 5.13094 39.9954 5.13094H32.7408C32.3265 5.13094 31.9908 4.79513 31.9908 4.38094ZM25.2677 5.62181H29.3895C29.8037 5.62181 30.1395 5.286 30.1395 4.87181V0.75C30.1395 0.335812 29.8037 0 29.3895 0H25.2677C24.8535 0 24.5177 0.335812 24.5177 0.75V4.87181C24.5177 5.286 24.8535 5.62181 25.2677 5.62181ZM26.0177 1.5H28.6395V4.12181H26.0177V1.5ZM31.9908 8.98697C31.9908 8.57278 32.3266 8.23697 32.7408 8.23697H47.25C47.6642 8.23697 48 8.57278 48 8.98697C48 9.40116 47.6642 9.73697 47.25 9.73697H32.7408C32.3265 9.73697 31.9908 9.40116 31.9908 8.98697ZM31.9908 12.127C31.9908 11.7128 32.3266 11.377 32.7408 11.377H39.9954C40.4096 11.377 40.7454 11.7128 40.7454 12.127C40.7454 12.5412 40.4096 12.877 39.9954 12.877H32.7408C32.3265 12.877 31.9908 12.5413 31.9908 12.127ZM25.2677 13.3679H29.3895C29.8037 13.3679 30.1395 13.0321 30.1395 12.6179V8.49609C30.1395 8.08191 29.8037 7.74609 29.3895 7.74609H25.2677C24.8535 7.74609 24.5177 8.08191 24.5177 8.49609V12.6179C24.5177 13.0322 24.8535 13.3679 25.2677 13.3679ZM26.0177 9.24609H28.6395V11.8679H26.0177V9.24609ZM31.9908 16.7331C31.9908 16.3189 32.3266 15.9831 32.7408 15.9831H47.25C47.6642 15.9831 48 16.3189 48 16.7331C48 17.1472 47.6642 17.4831 47.25 17.4831H32.7408C32.3265 17.4831 31.9908 17.1473 31.9908 16.7331ZM5.73928 29.3766H0.75C0.335812 29.3766 0 29.7124 0 30.1266V47.25C0 47.6642 0.335812 48 0.75 48H5.73928C6.15347 48 6.48928 47.6642 6.48928 47.25V30.1266C6.48928 29.7123 6.15356 29.3766 5.73928 29.3766ZM4.98928 46.5H1.5V30.8766H4.98928V46.5ZM47.5069 41.3568L42.2039 36.2109C41.8926 35.9088 41.4803 35.7473 41.0457 35.7525C40.8174 35.756 40.5976 35.8068 40.3962 35.8983L38.2679 33.8331C39.2383 32.2519 39.7986 30.3932 39.7986 28.4059C39.7986 25.3127 38.4415 22.5309 36.2922 20.6231H39.9954C40.4096 20.6231 40.7454 20.2873 40.7454 19.8731C40.7454 19.4589 40.4096 19.1231 39.9954 19.1231H34.0928C32.8901 18.5116 31.5535 18.1271 30.1396 18.0262V16.2422C30.1396 15.828 29.8038 15.4922 29.3896 15.4922H25.2678C24.8536 15.4922 24.5178 15.828 24.5178 16.2422V19.2136C21.2294 20.9644 18.9853 24.4277 18.9853 28.4058C18.9853 29.6339 19.1998 30.8128 19.5922 31.9077H18.47C18.0558 31.9077 17.72 32.2435 17.72 32.6577V47.25C17.72 47.6642 18.0558 48 18.47 48H23.4592C23.8734 48 24.2092 47.6642 24.2092 47.25V37.4277C25.0044 37.8863 25.8657 38.2427 26.7748 38.479V47.25C26.7748 47.6642 27.1106 48 27.5248 48H32.5141C32.9283 48 33.2641 47.6642 33.2641 47.25V38.0649C34.1074 37.7257 34.8966 37.2796 35.6141 36.7426L37.6551 38.7231C37.5697 38.9272 37.5255 39.1484 37.529 39.3768C37.5355 39.8123 37.7107 40.2186 38.0219 40.5206L43.325 45.6665C43.6407 45.9728 44.0497 46.1253 44.4584 46.1253C44.8835 46.1253 45.3081 45.9603 45.6268 45.6319L47.5415 43.6587C48.1664 43.0147 48.1509 41.9821 47.5069 41.3568ZM39.2705 36.8962L38.6186 37.568L36.7517 35.7563C36.9723 35.5355 37.1828 35.3044 37.3829 35.0646L39.2705 36.8962ZM26.0177 16.9922H28.6395V18.0265C27.7283 18.092 26.8494 18.2751 26.0177 18.5609V16.9922ZM29.3918 19.4993C34.303 19.4993 38.2985 23.4948 38.2985 28.4059C38.2985 33.317 34.3029 37.3125 29.3918 37.3125C24.4808 37.3125 20.4852 33.317 20.4852 28.4059C20.4852 23.4947 24.4808 19.4993 29.3918 19.4993ZM22.7092 46.5H19.2199V33.4078H20.2687C20.8934 34.5428 21.7238 35.549 22.7092 36.3766V46.5ZM31.764 46.5H28.2747V38.7524C28.6418 38.7918 29.0144 38.8125 29.3918 38.8125C30.2077 38.8125 31.0018 38.7179 31.764 38.5395V46.5ZM46.4649 42.6141L44.5503 44.5872C44.5028 44.6361 44.4184 44.6374 44.3694 44.5898L39.0664 39.444C39.0359 39.4145 39.0291 39.3788 39.0287 39.3542C39.0283 39.3295 39.0341 39.2937 39.0637 39.2632L40.9782 37.2901C41.0078 37.2595 41.0435 37.2527 41.0682 37.2523C41.0689 37.2523 41.0696 37.2523 41.0704 37.2523C41.0949 37.2523 41.1295 37.2586 41.1592 37.2874L46.462 42.4332C46.5111 42.4807 46.5124 42.5652 46.4649 42.6141ZM29.3918 36.0899C33.6288 36.0899 37.0759 32.6428 37.0759 28.4059C37.0759 24.1689 33.6288 20.7218 29.3918 20.7218C25.1549 20.7218 21.7078 24.1689 21.7078 28.4059C21.7078 32.6428 25.1549 36.0899 29.3918 36.0899ZM29.3918 22.2218C32.8017 22.2218 35.5759 24.996 35.5759 28.4059C35.5759 31.8158 32.8017 34.5899 29.3918 34.5899C25.982 34.5899 23.2078 31.8158 23.2078 28.4059C23.2078 24.996 25.982 22.2218 29.3918 22.2218ZM14.4042 24.9981H9.41494C9.00075 24.9981 8.66494 25.3339 8.66494 25.7481V47.25C8.66494 47.6642 9.00075 48 9.41494 48H14.4042C14.8184 48 15.1542 47.6642 15.1542 47.25V25.7481C15.1542 25.3339 14.8184 24.9981 14.4042 24.9981ZM13.6542 46.5H10.1649V26.4981H13.6542V46.5Z" fill="white"/>
</svg>
