<svg width="124" height="124" viewBox="0 0 124 124" fill="#F5F5F5" xmlns="http://www.w3.org/2000/svg">
<path d="M0 62V124H62H124V62V0H62H0V62ZM64.3099 14.3051C67.2708 14.4191 70.7987 15.0465 73.9485 16.0276C83.6291 19.0392 91.9238 25.5757 97.8876 34.8615C98.2131 35.3748 98.486 35.8539 98.486 35.9224C98.486 36.0136 98.0136 36.0478 96.9741 36.0478H95.4622L94.9792 35.3063C93.6457 33.2986 91.0418 30.1501 89.3304 28.496L88.5954 27.7888L86.8 28.2793C83.5871 29.1349 80.0488 29.8307 76.5209 30.2984C75.723 30.4125 75.072 30.538 75.072 30.5722C75.072 30.6178 75.219 31.1654 75.3975 31.7814C75.807 33.253 76.4369 35.717 76.4369 35.8995C76.4369 36.0136 76.1114 36.0478 75.1245 36.0478H73.8225L73.644 35.3862C73.56 35.0326 73.3816 34.3709 73.2766 33.9374C72.9406 32.6826 72.4261 30.9829 72.3421 30.8802C72.3001 30.8232 71.6071 30.8346 70.8092 30.903C70.0217 30.9715 67.7853 31.0856 65.8534 31.1654C62.147 31.3023 56.9287 31.1768 53.4429 30.8574C52.5504 30.7775 51.7839 30.7433 51.7419 30.789C51.6579 30.8802 50.902 33.4469 50.545 34.8957L50.2615 36.0478H48.97C47.7836 36.0478 47.6681 36.025 47.6681 35.8425C47.6681 35.5915 48.2666 33.1731 48.718 31.6103C48.8965 31.0171 49.0015 30.4924 48.949 30.4467C48.907 30.4125 48.3821 30.3098 47.7731 30.2414C44.9067 29.8878 40.7489 29.055 37.5675 28.2109L35.6041 27.6861L35.0476 28.1994C33.3572 29.7737 30.6378 33.0134 29.2413 35.101L28.6113 36.0478H27.0679C26.2069 36.0478 25.514 36.0136 25.514 35.9794C25.514 35.8311 27.1939 33.2986 28.1389 31.9982C32.1707 26.5111 37.1055 22.1991 42.9433 19.062C47.3951 16.6664 51.7419 15.2633 56.8552 14.5446C58.1467 14.3621 61.5695 14.1682 62.3675 14.2252C62.567 14.2366 63.4489 14.2822 64.3099 14.3051ZM59.3751 40.3941C61.013 40.6109 61.937 40.6565 66.3363 40.6907L71.3971 40.7363V46.8964V53.0451H66.8823H62.378L62.3465 51.7104L62.315 50.3643L61.685 50.0905C59.8791 49.3148 57.4537 48.8927 54.7553 48.8813C52.0989 48.8813 50.902 49.1323 49.7575 49.965C48.5815 50.7978 48.4136 52.4975 49.39 53.547C50.4085 54.6649 51.6579 55.0186 57.2227 55.7715C62.0315 56.4331 63.8899 56.8552 66.2208 57.8477C67.3443 58.3268 68.7617 59.228 69.6437 60.0379C70.9456 61.2129 72.0166 63.1522 72.5101 65.2055C72.8776 66.7341 72.9826 69.6773 72.7201 71.2401C72.2686 73.9095 71.3446 75.8259 69.6542 77.5713C67.8273 79.4649 65.4754 80.7084 62.231 81.4955C58.6506 82.3739 53.5793 82.5108 48.4976 81.8833C46.7546 81.678 45.7467 81.6324 41.5573 81.5982L36.6435 81.5525V75.4495V69.3579H41.1583H45.6732V70.6127V71.8675L46.0826 72.0957C47.4161 72.8258 50.1565 73.3619 53.0439 73.4304C58.0207 73.5672 60.2571 72.609 60.2676 70.3275C60.2676 69.4377 60.0366 68.9586 59.3436 68.4339C58.3357 67.6581 56.9182 67.3045 52.3929 66.6771C46.9541 65.9128 44.8017 65.3766 42.4393 64.1674C38.6699 62.2281 36.8115 59.2736 36.4335 54.6193C36.2235 52.1553 36.591 49.851 37.4835 47.8432C39.4889 43.3373 44.0772 40.7477 51.1854 40.1089C52.6134 39.9834 57.5482 40.1545 59.3751 40.3941ZM99.116 40.3257C103.799 41.09 107.526 43.0064 110.414 46.1321C113.931 49.9536 115.632 54.8589 115.621 61.1444C115.621 64.156 115.317 66.4147 114.592 68.7875C112.125 76.8412 105.731 81.6552 96.7326 82.237C92.0183 82.5336 87.22 81.5183 83.7866 79.4878C81.4662 78.1189 78.9988 75.7119 77.6654 73.5216C76.0484 70.8523 75.051 67.795 74.652 64.2245C74.4945 62.7985 74.526 59.1937 74.7045 57.6994C75.5655 50.6267 79.0513 45.2651 84.6581 42.379C86.9995 41.1812 89.5299 40.4626 92.6588 40.1089C93.7087 39.9949 97.9611 40.1317 99.116 40.3257ZM33.9136 45.9154V50.9917H30.8688H27.8239V61.2585V71.5253H30.8688H33.9136V76.6017V81.678L21.8181 81.6552L9.71211 81.621L9.68061 76.5674L9.65961 71.5253H12.7045H15.7494V61.2585V50.9917L12.736 50.9689L9.71211 50.9347L9.68061 45.8811L9.65961 40.839H21.7866H33.9136V45.9154ZM28.9788 87.0053C30.3123 89.0587 33.2312 92.5836 34.8796 94.135L35.4781 94.694L37.1895 94.2377C40.4759 93.3593 43.7307 92.7091 47.0906 92.2642C48.1301 92.1273 48.991 92.0018 49.012 91.9904C49.033 91.979 48.8965 91.4657 48.718 90.8383C48.2876 89.3667 47.6681 86.9255 47.6681 86.6745C47.6681 86.492 47.7941 86.4692 48.97 86.4692H50.2615L50.545 87.5757C50.7025 88.1917 51.028 89.3781 51.2589 90.2223L51.6999 91.7395L52.2879 91.671C55.6793 91.2946 64.5199 91.1919 68.6672 91.4885C69.9692 91.5798 71.3341 91.6596 71.7016 91.6596H72.3841L72.7411 90.4618C72.9406 89.8002 73.2556 88.648 73.4445 87.8951L73.791 86.5262L75.114 86.492C75.9959 86.4692 76.4369 86.5034 76.4369 86.5833C76.4369 86.7772 75.5235 90.3363 75.24 91.2261L74.9775 92.0475L75.3135 92.1045C75.5025 92.1387 76.2374 92.2528 76.9619 92.3441C80.0383 92.7661 83.8601 93.5533 86.758 94.3518C88.2595 94.7739 88.4379 94.7967 88.6479 94.6484C89.1519 94.2833 91.4198 91.8307 92.5118 90.496C93.1418 89.7089 94.0657 88.4883 94.5592 87.7696L95.4727 86.4692H96.9741C97.8036 86.4692 98.486 86.5148 98.486 86.5604C98.486 86.7087 97.1001 88.8762 96.2916 90.0055C89.0469 100.147 78.3479 106.626 66.5148 108.052C64.5619 108.28 58.9131 108.246 57.0652 107.995C47.4581 106.649 39.3629 102.542 32.3387 95.4469C29.9238 93.0057 26.8999 89.0587 25.577 86.6061C25.514 86.5034 25.8395 86.4692 27.0679 86.4692H28.6323L28.9788 87.0053Z" fill="#0C1831"/>
</svg>
