<svg width="448" height="159" viewBox="0 0 448 159" fill="none" xmlns="http://www.w3.org/2000/svg">
<path d="M81.2684 67.2454C31.7095 100.099 -13.8457 145.723 6.19267 188.937L455.207 185.217C457.533 141.562 511.207 95.921 473.097 59.6142C432.324 20.7707 347.515 10.4426 273.27 11.8886C200.321 13.3093 131.697 33.8158 81.2684 67.2454Z" fill="url(#paint0_linear_283_2559)" fill-opacity="0.5"/>
<path d="M91.2133 57.1629C41.6543 90.0161 -3.90086 135.64 16.1375 178.855L465.152 175.134C467.477 131.48 521.151 85.8385 483.041 49.5317C442.269 10.6882 357.46 0.360085 283.215 1.80607C210.266 3.22682 141.642 23.7332 91.2133 57.1629Z" fill="url(#paint1_linear_283_2559)" fill-opacity="0.5"/>
<defs>
<linearGradient id="paint0_linear_283_2559" x1="244.523" y1="186.963" x2="243.075" y2="12.0958" gradientUnits="userSpaceOnUse">
<stop stop-color="#646464"/>
<stop offset="1" stop-color="#C2C2C2"/>
</linearGradient>
<linearGradient id="paint1_linear_283_2559" x1="254.468" y1="176.88" x2="253.019" y2="2.01329" gradientUnits="userSpaceOnUse">
<stop stop-color="#636363"/>
<stop offset="1" stop-color="#E1E1E1"/>
</linearGradient>
</defs>
</svg>
